solid OpenSCAD_Model
  facet normal -1 0 0
    outer loop
      vertex 0 40 0
      vertex 0 63 38
      vertex 0 63 0
    endloop
  endfacet
  facet normal -1 -0 0
    outer loop
      vertex 0 63 38
      vertex 0 40 0
      vertex 0 40 38
    endloop
  endfacet
  facet normal -0 0 1
    outer loop
      vertex 0 63 38
      vertex 26.19 40 38
      vertex 26.19 63 38
    endloop
  endfacet
  facet normal 0 0 1
    outer loop
      vertex 26.19 40 38
      vertex 0 63 38
      vertex 0 40 38
    endloop
  endfacet
  facet normal 1 0 0
    outer loop
      vertex 26.19 63 38
      vertex 26.19 61.8 36.8
      vertex 26.19 63 0
    endloop
  endfacet
  facet normal 1 0 0
    outer loop
      vertex 26.19 63 38
      vertex 26.19 41.2 36.8
      vertex 26.19 61.8 36.8
    endloop
  endfacet
  facet normal 1 0 0
    outer loop
      vertex 26.19 41.2 36.8
      vertex 26.19 40 38
      vertex 26.19 41.2 1.2
    endloop
  endfacet
  facet normal 1 -0 0
    outer loop
      vertex 26.19 40 38
      vertex 26.19 41.2 36.8
      vertex 26.19 63 38
    endloop
  endfacet
  facet normal 1 -0 0
    outer loop
      vertex 26.19 61.8 1.2
      vertex 26.19 63 0
      vertex 26.19 61.8 36.8
    endloop
  endfacet
  facet normal 1 -0 0
    outer loop
      vertex 26.19 41.2 1.2
      vertex 26.19 63 0
      vertex 26.19 61.8 1.2
    endloop
  endfacet
  facet normal 1 0 0
    outer loop
      vertex 26.19 41.2 1.2
      vertex 26.19 40 0
      vertex 26.19 63 0
    endloop
  endfacet
  facet normal 1 0 0
    outer loop
      vertex 26.19 40 0
      vertex 26.19 41.2 1.2
      vertex 26.19 40 38
    endloop
  endfacet
  facet normal 0 0 -1
    outer loop
      vertex 0 40 0
      vertex 26.19 63 0
      vertex 26.19 40 0
    endloop
  endfacet
  facet normal -0 0 -1
    outer loop
      vertex 26.19 63 0
      vertex 0 40 0
      vertex 0 63 0
    endloop
  endfacet
  facet normal 0 -1 0
    outer loop
      vertex 0 40 0
      vertex 26.19 40 38
      vertex 0 40 38
    endloop
  endfacet
  facet normal 0 -1 -0
    outer loop
      vertex 26.19 40 38
      vertex 0 40 0
      vertex 26.19 40 0
    endloop
  endfacet
  facet normal 0 1 -0
    outer loop
      vertex 26.19 63 0
      vertex 0 63 38
      vertex 26.19 63 38
    endloop
  endfacet
  facet normal 0 1 0
    outer loop
      vertex 0 63 38
      vertex 26.19 63 0
      vertex 0 63 0
    endloop
  endfacet
  facet normal 1 -0 0
    outer loop
      vertex 1.2 41.2 36.8
      vertex 1.2 61.8 1.2
      vertex 1.2 61.8 36.8
    endloop
  endfacet
  facet normal 1 0 0
    outer loop
      vertex 1.2 61.8 1.2
      vertex 1.2 41.2 36.8
      vertex 1.2 41.2 1.2
    endloop
  endfacet
  facet normal 0 0 -1
    outer loop
      vertex 1.2 41.2 36.8
      vertex 26.19 61.8 36.8
      vertex 26.19 41.2 36.8
    endloop
  endfacet
  facet normal -0 0 -1
    outer loop
      vertex 26.19 61.8 36.8
      vertex 1.2 41.2 36.8
      vertex 1.2 61.8 36.8
    endloop
  endfacet
  facet normal 0 -1 0
    outer loop
      vertex 1.2 61.8 1.2
      vertex 26.19 61.8 36.8
      vertex 1.2 61.8 36.8
    endloop
  endfacet
  facet normal 0 -1 -0
    outer loop
      vertex 26.19 61.8 36.8
      vertex 1.2 61.8 1.2
      vertex 26.19 61.8 1.2
    endloop
  endfacet
  facet normal -0 0 1
    outer loop
      vertex 1.2 61.8 1.2
      vertex 26.19 41.2 1.2
      vertex 26.19 61.8 1.2
    endloop
  endfacet
  facet normal 0 0 1
    outer loop
      vertex 26.19 41.2 1.2
      vertex 1.2 61.8 1.2
      vertex 1.2 41.2 1.2
    endloop
  endfacet
  facet normal 0 1 -0
    outer loop
      vertex 26.19 41.2 1.2
      vertex 1.2 41.2 36.8
      vertex 26.19 41.2 36.8
    endloop
  endfacet
  facet normal 0 1 0
    outer loop
      vertex 1.2 41.2 36.8
      vertex 26.19 41.2 1.2
      vertex 1.2 41.2 1.2
    endloop
  endfacet
  facet normal 0 0 -1
    outer loop
      vertex 32.8 3.5 1.2
      vertex 36.4 3.5 1.2
      vertex 36.3119 2.94377 1.2
    endloop
  endfacet
  facet normal 0 0 -1
    outer loop
      vertex 36.4 3.5 1.2
      vertex 32.8 3.5 1.2
      vertex 36.4 16.2 1.2
    endloop
  endfacet
  facet normal 0 0 -1
    outer loop
      vertex 32.8 3.5 1.2
      vertex 36.3119 2.94377 1.2
      vertex 36.0562 2.44199 1.2
    endloop
  endfacet
  facet normal 0 0 -1
    outer loop
      vertex 32.8 3.5 1.2
      vertex 36.0562 2.44199 1.2
      vertex 35.658 2.04378 1.2
    endloop
  endfacet
  facet normal 0 0 -1
    outer loop
      vertex 36.4 16.2 1.2
      vertex 32.8 16.2 1.2
      vertex 36.1553 17.7451 1.2
    endloop
  endfacet
  facet normal 0 0 -1
    outer loop
      vertex 32.8 3.5 1.2
      vertex 35.658 2.04378 1.2
      vertex 35.1562 1.7881 1.2
    endloop
  endfacet
  facet normal 0 0 -1
    outer loop
      vertex 32.8 3.5 1.2
      vertex 35.1562 1.7881 1.2
      vertex 34.6 1.7 1.2
    endloop
  endfacet
  facet normal 0 0 -1
    outer loop
      vertex 32.7314 16.6326 1.2
      vertex 36.1553 17.7451 1.2
      vertex 32.8 16.2 1.2
    endloop
  endfacet
  facet normal 0 0 -1
    outer loop
      vertex 32.8 3.5 1.2
      vertex 34.6 1.7 1.2
      vertex 34.0438 1.7881 1.2
    endloop
  endfacet
  facet normal 0 0 -1
    outer loop
      vertex 32.8 3.5 1.2
      vertex 34.0438 1.7881 1.2
      vertex 33.542 2.04378 1.2
    endloop
  endfacet
  facet normal 0 0 -1
    outer loop
      vertex 32.8 3.5 1.2
      vertex 33.542 2.04378 1.2
      vertex 33.1438 2.44199 1.2
    endloop
  endfacet
  facet normal -0 0 -1
    outer loop
      vertex 36.1553 17.7451 1.2
      vertex 32.7314 16.6326 1.2
      vertex 35.4451 19.1389 1.2
    endloop
  endfacet
  facet normal 0 0 -1
    outer loop
      vertex 32.8 3.5 1.2
      vertex 33.1438 2.44199 1.2
      vertex 32.8881 2.94377 1.2
    endloop
  endfacet
  facet normal -0 0 -1
    outer loop
      vertex 36.4 16.2 1.2
      vertex 32.8 3.5 1.2
      vertex 32.8 16.2 1.2
    endloop
  endfacet
  facet normal 0 0 -1
    outer loop
      vertex 32.5326 17.0229 1.2
      vertex 35.4451 19.1389 1.2
      vertex 32.7314 16.6326 1.2
    endloop
  endfacet
  facet normal -0 0 -1
    outer loop
      vertex 35.4451 19.1389 1.2
      vertex 32.5326 17.0229 1.2
      vertex 34.3389 20.2451 1.2
    endloop
  endfacet
  facet normal 0 0 -1
    outer loop
      vertex 32.2229 17.3326 1.2
      vertex 34.3389 20.2451 1.2
      vertex 32.5326 17.0229 1.2
    endloop
  endfacet
  facet normal -0 0 -1
    outer loop
      vertex 34.3389 20.2451 1.2
      vertex 32.2229 17.3326 1.2
      vertex 32.9451 20.9553 1.2
    endloop
  endfacet
  facet normal 0 0 -1
    outer loop
      vertex 31.8326 17.5315 1.2
      vertex 32.9451 20.9553 1.2
      vertex 32.2229 17.3326 1.2
    endloop
  endfacet
  facet normal 0 0 -1
    outer loop
      vertex 31.4 17.6 1.2
      vertex 32.9451 20.9553 1.2
      vertex 31.8326 17.5315 1.2
    endloop
  endfacet
  facet normal 0 0 -1
    outer loop
      vertex 31.4 17.6 1.2
      vertex 31.4 21.2 1.2
      vertex 32.9451 20.9553 1.2
    endloop
  endfacet
  facet normal 0 0 -1
    outer loop
      vertex 30.9674 17.5315 1.2
      vertex 31.4 21.2 1.2
      vertex 31.4 17.6 1.2
    endloop
  endfacet
  facet normal 0 0 -1
    outer loop
      vertex 29.8549 20.9553 1.2
      vertex 30.9674 17.5315 1.2
      vertex 30.5771 17.3326 1.2
    endloop
  endfacet
  facet normal 0 0 -1
    outer loop
      vertex 28.4611 20.2451 1.2
      vertex 30.5771 17.3326 1.2
      vertex 30.2674 17.0229 1.2
    endloop
  endfacet
  facet normal 0 0 -1
    outer loop
      vertex 27.3549 19.1389 1.2
      vertex 30.2674 17.0229 1.2
      vertex 30.0685 16.6326 1.2
    endloop
  endfacet
  facet normal 0 0 -1
    outer loop
      vertex 30.9674 17.5315 1.2
      vertex 29.8549 20.9553 1.2
      vertex 31.4 21.2 1.2
    endloop
  endfacet
  facet normal 0 0 -1
    outer loop
      vertex 26.6447 17.7451 1.2
      vertex 30.0685 16.6326 1.2
      vertex 30 16.2 1.2
    endloop
  endfacet
  facet normal 0 0 -1
    outer loop
      vertex 30.5771 17.3326 1.2
      vertex 28.4611 20.2451 1.2
      vertex 29.8549 20.9553 1.2
    endloop
  endfacet
  facet normal 0 0 -1
    outer loop
      vertex 26.4 16.2 1.2
      vertex 30 16.2 1.2
      vertex 28 6.2 1.2
    endloop
  endfacet
  facet normal 0 0 -1
    outer loop
      vertex 24.4 6.2 1.2
      vertex 28 6.2 1.2
      vertex 27.7553 4.65493 1.2
    endloop
  endfacet
  facet normal 0 -0 -1
    outer loop
      vertex 26.6447 17.7451 1.2
      vertex 30 16.2 1.2
      vertex 26.4 16.2 1.2
    endloop
  endfacet
  facet normal 0 0 -1
    outer loop
      vertex 24.3315 5.76738 1.2
      vertex 27.7553 4.65493 1.2
      vertex 27.0451 3.26108 1.2
    endloop
  endfacet
  facet normal 0 0 -1
    outer loop
      vertex 30.2674 17.0229 1.2
      vertex 27.3549 19.1389 1.2
      vertex 28.4611 20.2451 1.2
    endloop
  endfacet
  facet normal 0 0 -1
    outer loop
      vertex 30.0685 16.6326 1.2
      vertex 26.6447 17.7451 1.2
      vertex 27.3549 19.1389 1.2
    endloop
  endfacet
  facet normal 0 0 -1
    outer loop
      vertex 24.1326 5.37711 1.2
      vertex 27.0451 3.26108 1.2
      vertex 25.9389 2.15493 1.2
    endloop
  endfacet
  facet normal 0 0 -1
    outer loop
      vertex 23.8229 5.06739 1.2
      vertex 25.9389 2.15493 1.2
      vertex 24.5451 1.44472 1.2
    endloop
  endfacet
  facet normal 0 0 -1
    outer loop
      vertex 28 6.2 1.2
      vertex 24.4 6.2 1.2
      vertex 26.4 16.2 1.2
    endloop
  endfacet
  facet normal 0 0 -1
    outer loop
      vertex 27.7553 4.65493 1.2
      vertex 24.3315 5.76738 1.2
      vertex 24.4 6.2 1.2
    endloop
  endfacet
  facet normal 0 0 -1
    outer loop
      vertex 27.0451 3.26108 1.2
      vertex 24.1326 5.37711 1.2
      vertex 24.3315 5.76738 1.2
    endloop
  endfacet
  facet normal 0 0 -1
    outer loop
      vertex 25.9389 2.15493 1.2
      vertex 23.8229 5.06739 1.2
      vertex 24.1326 5.37711 1.2
    endloop
  endfacet
  facet normal 0 0 -1
    outer loop
      vertex 24.5451 1.44472 1.2
      vertex 23.4326 4.86853 1.2
      vertex 23.8229 5.06739 1.2
    endloop
  endfacet
  facet normal 0 0 -1
    outer loop
      vertex 23 1.2 1.2
      vertex 23.4326 4.86853 1.2
      vertex 24.5451 1.44472 1.2
    endloop
  endfacet
  facet normal 0 0 -1
    outer loop
      vertex 23 1.2 1.2
      vertex 23 4.80001 1.2
      vertex 23.4326 4.86853 1.2
    endloop
  endfacet
  facet normal 0 0 -1
    outer loop
      vertex 23 1.2 1.2
      vertex 22.5674 4.86853 1.2
      vertex 23 4.80001 1.2
    endloop
  endfacet
  facet normal 0 0 -1
    outer loop
      vertex 21.4549 1.44472 1.2
      vertex 22.5674 4.86853 1.2
      vertex 23 1.2 1.2
    endloop
  endfacet
  facet normal -0 0 -1
    outer loop
      vertex 22.5674 4.86853 1.2
      vertex 21.4549 1.44472 1.2
      vertex 22.1771 5.06739 1.2
    endloop
  endfacet
  facet normal 0 0 -1
    outer loop
      vertex 20.0611 2.15493 1.2
      vertex 22.1771 5.06739 1.2
      vertex 21.4549 1.44472 1.2
    endloop
  endfacet
  facet normal -0 0 -1
    outer loop
      vertex 22.1771 5.06739 1.2
      vertex 20.0611 2.15493 1.2
      vertex 21.8674 5.37711 1.2
    endloop
  endfacet
  facet normal 0 0 -1
    outer loop
      vertex 18.9549 3.26108 1.2
      vertex 21.8674 5.37711 1.2
      vertex 20.0611 2.15493 1.2
    endloop
  endfacet
  facet normal -0 0 -1
    outer loop
      vertex 21.8674 5.37711 1.2
      vertex 18.9549 3.26108 1.2
      vertex 21.6685 5.76738 1.2
    endloop
  endfacet
  facet normal 0 0 -1
    outer loop
      vertex 18.2447 4.65493 1.2
      vertex 21.6685 5.76738 1.2
      vertex 18.9549 3.26108 1.2
    endloop
  endfacet
  facet normal 0 0 -1
    outer loop
      vertex 21.6 6.2 1.2
      vertex 18 6.2 1.2
      vertex 19.6 16.2 1.2
    endloop
  endfacet
  facet normal -0 0 -1
    outer loop
      vertex 21.6685 5.76738 1.2
      vertex 18.2447 4.65493 1.2
      vertex 21.6 6.2 1.2
    endloop
  endfacet
  facet normal 0 0 -1
    outer loop
      vertex 16 16.2 1.2
      vertex 19.6 16.2 1.2
      vertex 18 6.2 1.2
    endloop
  endfacet
  facet normal -0 0 -1
    outer loop
      vertex 21.6 6.2 1.2
      vertex 18.2447 4.65493 1.2
      vertex 18 6.2 1.2
    endloop
  endfacet
  facet normal 0 0 -1
    outer loop
      vertex 19.6 16.2 1.2
      vertex 16 16.2 1.2
      vertex 19.3553 17.7451 1.2
    endloop
  endfacet
  facet normal 0 0 -1
    outer loop
      vertex 15.9315 16.6326 1.2
      vertex 19.3553 17.7451 1.2
      vertex 16 16.2 1.2
    endloop
  endfacet
  facet normal -0 0 -1
    outer loop
      vertex 19.3553 17.7451 1.2
      vertex 15.9315 16.6326 1.2
      vertex 18.6451 19.1389 1.2
    endloop
  endfacet
  facet normal 0 0 -1
    outer loop
      vertex 15.7326 17.0229 1.2
      vertex 18.6451 19.1389 1.2
      vertex 15.9315 16.6326 1.2
    endloop
  endfacet
  facet normal -0 0 -1
    outer loop
      vertex 18.6451 19.1389 1.2
      vertex 15.7326 17.0229 1.2
      vertex 17.5389 20.2451 1.2
    endloop
  endfacet
  facet normal 0 0 -1
    outer loop
      vertex 15.4229 17.3326 1.2
      vertex 17.5389 20.2451 1.2
      vertex 15.7326 17.0229 1.2
    endloop
  endfacet
  facet normal -0 0 -1
    outer loop
      vertex 17.5389 20.2451 1.2
      vertex 15.4229 17.3326 1.2
      vertex 16.1451 20.9553 1.2
    endloop
  endfacet
  facet normal 0 0 -1
    outer loop
      vertex 15.0326 17.5315 1.2
      vertex 16.1451 20.9553 1.2
      vertex 15.4229 17.3326 1.2
    endloop
  endfacet
  facet normal 0 0 -1
    outer loop
      vertex 14.6 17.6 1.2
      vertex 16.1451 20.9553 1.2
      vertex 15.0326 17.5315 1.2
    endloop
  endfacet
  facet normal 0 0 -1
    outer loop
      vertex 14.6 17.6 1.2
      vertex 14.6 21.2 1.2
      vertex 16.1451 20.9553 1.2
    endloop
  endfacet
  facet normal 0 0 -1
    outer loop
      vertex 14.1674 17.5315 1.2
      vertex 14.6 21.2 1.2
      vertex 14.6 17.6 1.2
    endloop
  endfacet
  facet normal 0 0 -1
    outer loop
      vertex 13.0549 20.9553 1.2
      vertex 14.1674 17.5315 1.2
      vertex 13.7771 17.3326 1.2
    endloop
  endfacet
  facet normal 0 0 -1
    outer loop
      vertex 11.6611 20.2451 1.2
      vertex 13.7771 17.3326 1.2
      vertex 13.4674 17.0229 1.2
    endloop
  endfacet
  facet normal 0 0 -1
    outer loop
      vertex 10.5549 19.1389 1.2
      vertex 13.4674 17.0229 1.2
      vertex 13.2685 16.6326 1.2
    endloop
  endfacet
  facet normal 0 0 -1
    outer loop
      vertex 14.1674 17.5315 1.2
      vertex 13.0549 20.9553 1.2
      vertex 14.6 21.2 1.2
    endloop
  endfacet
  facet normal 0 0 -1
    outer loop
      vertex 9.84471 17.7451 1.2
      vertex 13.2685 16.6326 1.2
      vertex 13.2 16.2 1.2
    endloop
  endfacet
  facet normal 0 0 -1
    outer loop
      vertex 13.7771 17.3326 1.2
      vertex 11.6611 20.2451 1.2
      vertex 13.0549 20.9553 1.2
    endloop
  endfacet
  facet normal 0 0 -1
    outer loop
      vertex 9.59999 16.2 1.2
      vertex 13.2 16.2 1.2
      vertex 11.2 6.2 1.2
    endloop
  endfacet
  facet normal 0 0 -1
    outer loop
      vertex 7.59999 6.2 1.2
      vertex 11.2 6.2 1.2
      vertex 10.9553 4.65493 1.2
    endloop
  endfacet
  facet normal 0 -0 -1
    outer loop
      vertex 9.84471 17.7451 1.2
      vertex 13.2 16.2 1.2
      vertex 9.59999 16.2 1.2
    endloop
  endfacet
  facet normal 0 0 -1
    outer loop
      vertex 7.53147 5.76738 1.2
      vertex 10.9553 4.65493 1.2
      vertex 10.2451 3.26108 1.2
    endloop
  endfacet
  facet normal 0 0 -1
    outer loop
      vertex 13.4674 17.0229 1.2
      vertex 10.5549 19.1389 1.2
      vertex 11.6611 20.2451 1.2
    endloop
  endfacet
  facet normal 0 0 -1
    outer loop
      vertex 13.2685 16.6326 1.2
      vertex 9.84471 17.7451 1.2
      vertex 10.5549 19.1389 1.2
    endloop
  endfacet
  facet normal 0 0 -1
    outer loop
      vertex 7.33261 5.37711 1.2
      vertex 10.2451 3.26108 1.2
      vertex 9.13892 2.15493 1.2
    endloop
  endfacet
  facet normal 0 0 -1
    outer loop
      vertex 7.02289 5.06739 1.2
      vertex 9.13892 2.15493 1.2
      vertex 7.74507 1.44472 1.2
    endloop
  endfacet
  facet normal 0 0 -1
    outer loop
      vertex 11.2 6.2 1.2
      vertex 7.59999 6.2 1.2
      vertex 9.59999 16.2 1.2
    endloop
  endfacet
  facet normal 0 0 -1
    outer loop
      vertex 10.9553 4.65493 1.2
      vertex 7.53147 5.76738 1.2
      vertex 7.59999 6.2 1.2
    endloop
  endfacet
  facet normal 0 0 -1
    outer loop
      vertex 10.2451 3.26108 1.2
      vertex 7.33261 5.37711 1.2
      vertex 7.53147 5.76738 1.2
    endloop
  endfacet
  facet normal 0 0 -1
    outer loop
      vertex 9.13892 2.15493 1.2
      vertex 7.02289 5.06739 1.2
      vertex 7.33261 5.37711 1.2
    endloop
  endfacet
  facet normal 0 0 -1
    outer loop
      vertex 7.74507 1.44472 1.2
      vertex 6.63262 4.86853 1.2
      vertex 7.02289 5.06739 1.2
    endloop
  endfacet
  facet normal 0 0 -1
    outer loop
      vertex 6.2 1.2 1.2
      vertex 6.63262 4.86853 1.2
      vertex 7.74507 1.44472 1.2
    endloop
  endfacet
  facet normal 0 0 -1
    outer loop
      vertex 6.2 1.2 1.2
      vertex 6.2 4.80001 1.2
      vertex 6.63262 4.86853 1.2
    endloop
  endfacet
  facet normal 0 0 -1
    outer loop
      vertex 6.2 1.2 1.2
      vertex 5.76738 4.86853 1.2
      vertex 6.2 4.80001 1.2
    endloop
  endfacet
  facet normal 0 0 -1
    outer loop
      vertex 4.65493 1.44472 1.2
      vertex 5.76738 4.86853 1.2
      vertex 6.2 1.2 1.2
    endloop
  endfacet
  facet normal -0 0 -1
    outer loop
      vertex 5.76738 4.86853 1.2
      vertex 4.65493 1.44472 1.2
      vertex 5.37711 5.06739 1.2
    endloop
  endfacet
  facet normal 0 0 -1
    outer loop
      vertex 3.26108 2.15493 1.2
      vertex 5.37711 5.06739 1.2
      vertex 4.65493 1.44472 1.2
    endloop
  endfacet
  facet normal 0 0 -1
    outer loop
      vertex 1.2 18.9 1.2
      vertex 4.79999 18.9 1.2
      vertex 4.79999 6.2 1.2
    endloop
  endfacet
  facet normal -0 0 -1
    outer loop
      vertex 5.37711 5.06739 1.2
      vertex 3.26108 2.15493 1.2
      vertex 5.06739 5.37711 1.2
    endloop
  endfacet
  facet normal 0 0 -1
    outer loop
      vertex 2.15493 3.26108 1.2
      vertex 5.06739 5.37711 1.2
      vertex 3.26108 2.15493 1.2
    endloop
  endfacet
  facet normal -0 0 -1
    outer loop
      vertex 5.06739 5.37711 1.2
      vertex 2.15493 3.26108 1.2
      vertex 4.86853 5.76738 1.2
    endloop
  endfacet
  facet normal 0 0 -1
    outer loop
      vertex 1.2 18.9 1.2
      vertex 4.79999 6.2 1.2
      vertex 1.2 6.2 1.2
    endloop
  endfacet
  facet normal 0 0 -1
    outer loop
      vertex 4.79999 18.9 1.2
      vertex 1.2 18.9 1.2
      vertex 4.71189 19.4562 1.2
    endloop
  endfacet
  facet normal -0 0 -1
    outer loop
      vertex 4.71189 19.4562 1.2
      vertex 1.2 18.9 1.2
      vertex 4.45623 19.958 1.2
    endloop
  endfacet
  facet normal 0 0 -1
    outer loop
      vertex 1.44472 4.65493 1.2
      vertex 4.86853 5.76738 1.2
      vertex 2.15493 3.26108 1.2
    endloop
  endfacet
  facet normal -0 0 -1
    outer loop
      vertex 4.45623 19.958 1.2
      vertex 1.2 18.9 1.2
      vertex 4.058 20.3562 1.2
    endloop
  endfacet
  facet normal -0 0 -1
    outer loop
      vertex 4.058 20.3562 1.2
      vertex 1.2 18.9 1.2
      vertex 3.55622 20.6119 1.2
    endloop
  endfacet
  facet normal -0 0 -1
    outer loop
      vertex 4.86853 5.76738 1.2
      vertex 1.44472 4.65493 1.2
      vertex 4.79999 6.2 1.2
    endloop
  endfacet
  facet normal -0 0 -1
    outer loop
      vertex 3.55622 20.6119 1.2
      vertex 1.2 18.9 1.2
      vertex 2.99999 20.7 1.2
    endloop
  endfacet
  facet normal 0 0 -1
    outer loop
      vertex 2.99999 20.7 1.2
      vertex 1.2 18.9 1.2
      vertex 2.44376 20.6119 1.2
    endloop
  endfacet
  facet normal -0 0 -1
    outer loop
      vertex 4.79999 6.2 1.2
      vertex 1.44472 4.65493 1.2
      vertex 1.2 6.2 1.2
    endloop
  endfacet
  facet normal 0 0 -1
    outer loop
      vertex 2.44376 20.6119 1.2
      vertex 1.2 18.9 1.2
      vertex 1.94197 20.3562 1.2
    endloop
  endfacet
  facet normal 0 0 -1
    outer loop
      vertex 1.94197 20.3562 1.2
      vertex 1.2 18.9 1.2
      vertex 1.54377 19.958 1.2
    endloop
  endfacet
  facet normal 0 0 -1
    outer loop
      vertex 1.54377 19.958 1.2
      vertex 1.2 18.9 1.2
      vertex 1.28809 19.4562 1.2
    endloop
  endfacet
  facet normal 0 0 1
    outer loop
      vertex 1.2 18.9 36.2
      vertex 4.79999 18.9 36.2
      vertex 4.71189 19.4562 36.2
    endloop
  endfacet
  facet normal 0 0 1
    outer loop
      vertex 32.8 3.5 36.2
      vertex 36.4 3.5 36.2
      vertex 36.4 16.2 36.2
    endloop
  endfacet
  facet normal 0 0 1
    outer loop
      vertex 32.8 16.2 36.2
      vertex 36.4 16.2 36.2
      vertex 36.1553 17.7451 36.2
    endloop
  endfacet
  facet normal 0 0 1
    outer loop
      vertex 32.8 3.5 36.2
      vertex 36.4 16.2 36.2
      vertex 32.8 16.2 36.2
    endloop
  endfacet
  facet normal 0 0 1
    outer loop
      vertex 36.4 3.5 36.2
      vertex 32.8 3.5 36.2
      vertex 36.3119 2.94377 36.2
    endloop
  endfacet
  facet normal 0 0 1
    outer loop
      vertex 32.7314 16.6326 36.2
      vertex 36.1553 17.7451 36.2
      vertex 35.4451 19.1389 36.2
    endloop
  endfacet
  facet normal 0 0 1
    outer loop
      vertex 36.3119 2.94377 36.2
      vertex 32.8 3.5 36.2
      vertex 36.0562 2.44199 36.2
    endloop
  endfacet
  facet normal 0 0 1
    outer loop
      vertex 36.0562 2.44199 36.2
      vertex 32.8 3.5 36.2
      vertex 35.658 2.04378 36.2
    endloop
  endfacet
  facet normal 0 0 1
    outer loop
      vertex 32.5326 17.0229 36.2
      vertex 35.4451 19.1389 36.2
      vertex 34.3389 20.2451 36.2
    endloop
  endfacet
  facet normal 0 0 1
    outer loop
      vertex 35.658 2.04378 36.2
      vertex 32.8 3.5 36.2
      vertex 35.1562 1.7881 36.2
    endloop
  endfacet
  facet normal 0 0 1
    outer loop
      vertex 35.1562 1.7881 36.2
      vertex 32.8 3.5 36.2
      vertex 34.6 1.7 36.2
    endloop
  endfacet
  facet normal 0 0 1
    outer loop
      vertex 34.6 1.7 36.2
      vertex 32.8 3.5 36.2
      vertex 34.0438 1.7881 36.2
    endloop
  endfacet
  facet normal 0 0 1
    outer loop
      vertex 32.2229 17.3326 36.2
      vertex 34.3389 20.2451 36.2
      vertex 32.9451 20.9553 36.2
    endloop
  endfacet
  facet normal 0 0 1
    outer loop
      vertex 34.0438 1.7881 36.2
      vertex 32.8 3.5 36.2
      vertex 33.542 2.04378 36.2
    endloop
  endfacet
  facet normal 0 0 1
    outer loop
      vertex 33.542 2.04378 36.2
      vertex 32.8 3.5 36.2
      vertex 33.1438 2.44199 36.2
    endloop
  endfacet
  facet normal 0 0 1
    outer loop
      vertex 36.1553 17.7451 36.2
      vertex 32.7314 16.6326 36.2
      vertex 32.8 16.2 36.2
    endloop
  endfacet
  facet normal 0 0 1
    outer loop
      vertex 35.4451 19.1389 36.2
      vertex 32.5326 17.0229 36.2
      vertex 32.7314 16.6326 36.2
    endloop
  endfacet
  facet normal 0 0 1
    outer loop
      vertex 34.3389 20.2451 36.2
      vertex 32.2229 17.3326 36.2
      vertex 32.5326 17.0229 36.2
    endloop
  endfacet
  facet normal 0 0 1
    outer loop
      vertex 32.9451 20.9553 36.2
      vertex 31.8326 17.5315 36.2
      vertex 32.2229 17.3326 36.2
    endloop
  endfacet
  facet normal 0 0 1
    outer loop
      vertex 31.4 21.2 36.2
      vertex 31.8326 17.5315 36.2
      vertex 32.9451 20.9553 36.2
    endloop
  endfacet
  facet normal 0 0 1
    outer loop
      vertex 31.4 21.2 36.2
      vertex 31.4 17.6 36.2
      vertex 31.8326 17.5315 36.2
    endloop
  endfacet
  facet normal 0 0 1
    outer loop
      vertex 31.4 21.2 36.2
      vertex 30.9674 17.5315 36.2
      vertex 31.4 17.6 36.2
    endloop
  endfacet
  facet normal -0 0 1
    outer loop
      vertex 29.8549 20.9553 36.2
      vertex 30.9674 17.5315 36.2
      vertex 31.4 21.2 36.2
    endloop
  endfacet
  facet normal 0 0 1
    outer loop
      vertex 30.9674 17.5315 36.2
      vertex 29.8549 20.9553 36.2
      vertex 30.5771 17.3326 36.2
    endloop
  endfacet
  facet normal -0 0 1
    outer loop
      vertex 28.4611 20.2451 36.2
      vertex 30.5771 17.3326 36.2
      vertex 29.8549 20.9553 36.2
    endloop
  endfacet
  facet normal 0 0 1
    outer loop
      vertex 30.5771 17.3326 36.2
      vertex 28.4611 20.2451 36.2
      vertex 30.2674 17.0229 36.2
    endloop
  endfacet
  facet normal -0 0 1
    outer loop
      vertex 27.3549 19.1389 36.2
      vertex 30.2674 17.0229 36.2
      vertex 28.4611 20.2451 36.2
    endloop
  endfacet
  facet normal 0 0 1
    outer loop
      vertex 30.2674 17.0229 36.2
      vertex 27.3549 19.1389 36.2
      vertex 30.0685 16.6326 36.2
    endloop
  endfacet
  facet normal -0 0 1
    outer loop
      vertex 26.6447 17.7451 36.2
      vertex 30.0685 16.6326 36.2
      vertex 27.3549 19.1389 36.2
    endloop
  endfacet
  facet normal 0 0 1
    outer loop
      vertex 30 16.2 36.2
      vertex 26.4 16.2 36.2
      vertex 28 6.2 36.2
    endloop
  endfacet
  facet normal 0 0 1
    outer loop
      vertex 30.0685 16.6326 36.2
      vertex 26.6447 17.7451 36.2
      vertex 30 16.2 36.2
    endloop
  endfacet
  facet normal 0 0 1
    outer loop
      vertex 24.4 6.2 36.2
      vertex 28 6.2 36.2
      vertex 26.4 16.2 36.2
    endloop
  endfacet
  facet normal 0 0 1
    outer loop
      vertex 30 16.2 36.2
      vertex 26.6447 17.7451 36.2
      vertex 26.4 16.2 36.2
    endloop
  endfacet
  facet normal 0 0 1
    outer loop
      vertex 28 6.2 36.2
      vertex 24.4 6.2 36.2
      vertex 27.7553 4.65493 36.2
    endloop
  endfacet
  facet normal -0 0 1
    outer loop
      vertex 24.3315 5.76738 36.2
      vertex 27.7553 4.65493 36.2
      vertex 24.4 6.2 36.2
    endloop
  endfacet
  facet normal 0 0 1
    outer loop
      vertex 27.7553 4.65493 36.2
      vertex 24.3315 5.76738 36.2
      vertex 27.0451 3.26108 36.2
    endloop
  endfacet
  facet normal -0 0 1
    outer loop
      vertex 24.1326 5.37711 36.2
      vertex 27.0451 3.26108 36.2
      vertex 24.3315 5.76738 36.2
    endloop
  endfacet
  facet normal 0 0 1
    outer loop
      vertex 27.0451 3.26108 36.2
      vertex 24.1326 5.37711 36.2
      vertex 25.9389 2.15493 36.2
    endloop
  endfacet
  facet normal -0 0 1
    outer loop
      vertex 23.8229 5.06739 36.2
      vertex 25.9389 2.15493 36.2
      vertex 24.1326 5.37711 36.2
    endloop
  endfacet
  facet normal 0 0 1
    outer loop
      vertex 25.9389 2.15493 36.2
      vertex 23.8229 5.06739 36.2
      vertex 24.5451 1.44472 36.2
    endloop
  endfacet
  facet normal -0 0 1
    outer loop
      vertex 23.4326 4.86853 36.2
      vertex 24.5451 1.44472 36.2
      vertex 23.8229 5.06739 36.2
    endloop
  endfacet
  facet normal -0 0 1
    outer loop
      vertex 23 4.80001 36.2
      vertex 24.5451 1.44472 36.2
      vertex 23.4326 4.86853 36.2
    endloop
  endfacet
  facet normal 0 0 1
    outer loop
      vertex 23 4.80001 36.2
      vertex 23 1.2 36.2
      vertex 24.5451 1.44472 36.2
    endloop
  endfacet
  facet normal 0 0 1
    outer loop
      vertex 22.5674 4.86853 36.2
      vertex 23 1.2 36.2
      vertex 23 4.80001 36.2
    endloop
  endfacet
  facet normal 0 0 1
    outer loop
      vertex 21.4549 1.44472 36.2
      vertex 22.5674 4.86853 36.2
      vertex 22.1771 5.06739 36.2
    endloop
  endfacet
  facet normal 0 0 1
    outer loop
      vertex 20.0611 2.15493 36.2
      vertex 22.1771 5.06739 36.2
      vertex 21.8674 5.37711 36.2
    endloop
  endfacet
  facet normal 0 0 1
    outer loop
      vertex 18.9549 3.26108 36.2
      vertex 21.8674 5.37711 36.2
      vertex 21.6685 5.76738 36.2
    endloop
  endfacet
  facet normal 0 0 1
    outer loop
      vertex 22.5674 4.86853 36.2
      vertex 21.4549 1.44472 36.2
      vertex 23 1.2 36.2
    endloop
  endfacet
  facet normal 0 0 1
    outer loop
      vertex 18.2447 4.65493 36.2
      vertex 21.6685 5.76738 36.2
      vertex 21.6 6.2 36.2
    endloop
  endfacet
  facet normal 0 0 1
    outer loop
      vertex 22.1771 5.06739 36.2
      vertex 20.0611 2.15493 36.2
      vertex 21.4549 1.44472 36.2
    endloop
  endfacet
  facet normal 0 0 1
    outer loop
      vertex 18 6.2 36.2
      vertex 21.6 6.2 36.2
      vertex 19.6 16.2 36.2
    endloop
  endfacet
  facet normal 0 0 1
    outer loop
      vertex 16 16.2 36.2
      vertex 19.6 16.2 36.2
      vertex 19.3553 17.7451 36.2
    endloop
  endfacet
  facet normal 0 -0 1
    outer loop
      vertex 18.2447 4.65493 36.2
      vertex 21.6 6.2 36.2
      vertex 18 6.2 36.2
    endloop
  endfacet
  facet normal 0 0 1
    outer loop
      vertex 15.9315 16.6326 36.2
      vertex 19.3553 17.7451 36.2
      vertex 18.6451 19.1389 36.2
    endloop
  endfacet
  facet normal 0 0 1
    outer loop
      vertex 21.8674 5.37711 36.2
      vertex 18.9549 3.26108 36.2
      vertex 20.0611 2.15493 36.2
    endloop
  endfacet
  facet normal 0 0 1
    outer loop
      vertex 21.6685 5.76738 36.2
      vertex 18.2447 4.65493 36.2
      vertex 18.9549 3.26108 36.2
    endloop
  endfacet
  facet normal 0 0 1
    outer loop
      vertex 15.7326 17.0229 36.2
      vertex 18.6451 19.1389 36.2
      vertex 17.5389 20.2451 36.2
    endloop
  endfacet
  facet normal 0 0 1
    outer loop
      vertex 15.4229 17.3326 36.2
      vertex 17.5389 20.2451 36.2
      vertex 16.1451 20.9553 36.2
    endloop
  endfacet
  facet normal 0 0 1
    outer loop
      vertex 19.6 16.2 36.2
      vertex 16 16.2 36.2
      vertex 18 6.2 36.2
    endloop
  endfacet
  facet normal 0 0 1
    outer loop
      vertex 19.3553 17.7451 36.2
      vertex 15.9315 16.6326 36.2
      vertex 16 16.2 36.2
    endloop
  endfacet
  facet normal 0 0 1
    outer loop
      vertex 18.6451 19.1389 36.2
      vertex 15.7326 17.0229 36.2
      vertex 15.9315 16.6326 36.2
    endloop
  endfacet
  facet normal 0 0 1
    outer loop
      vertex 17.5389 20.2451 36.2
      vertex 15.4229 17.3326 36.2
      vertex 15.7326 17.0229 36.2
    endloop
  endfacet
  facet normal 0 0 1
    outer loop
      vertex 16.1451 20.9553 36.2
      vertex 15.0326 17.5315 36.2
      vertex 15.4229 17.3326 36.2
    endloop
  endfacet
  facet normal 0 0 1
    outer loop
      vertex 14.6 21.2 36.2
      vertex 15.0326 17.5315 36.2
      vertex 16.1451 20.9553 36.2
    endloop
  endfacet
  facet normal 0 0 1
    outer loop
      vertex 14.6 21.2 36.2
      vertex 14.6 17.6 36.2
      vertex 15.0326 17.5315 36.2
    endloop
  endfacet
  facet normal 0 0 1
    outer loop
      vertex 14.6 21.2 36.2
      vertex 14.1674 17.5315 36.2
      vertex 14.6 17.6 36.2
    endloop
  endfacet
  facet normal -0 0 1
    outer loop
      vertex 13.0549 20.9553 36.2
      vertex 14.1674 17.5315 36.2
      vertex 14.6 21.2 36.2
    endloop
  endfacet
  facet normal 0 0 1
    outer loop
      vertex 14.1674 17.5315 36.2
      vertex 13.0549 20.9553 36.2
      vertex 13.7771 17.3326 36.2
    endloop
  endfacet
  facet normal -0 0 1
    outer loop
      vertex 11.6611 20.2451 36.2
      vertex 13.7771 17.3326 36.2
      vertex 13.0549 20.9553 36.2
    endloop
  endfacet
  facet normal 0 0 1
    outer loop
      vertex 13.7771 17.3326 36.2
      vertex 11.6611 20.2451 36.2
      vertex 13.4674 17.0229 36.2
    endloop
  endfacet
  facet normal -0 0 1
    outer loop
      vertex 10.5549 19.1389 36.2
      vertex 13.4674 17.0229 36.2
      vertex 11.6611 20.2451 36.2
    endloop
  endfacet
  facet normal 0 0 1
    outer loop
      vertex 13.4674 17.0229 36.2
      vertex 10.5549 19.1389 36.2
      vertex 13.2685 16.6326 36.2
    endloop
  endfacet
  facet normal -0 0 1
    outer loop
      vertex 9.84471 17.7451 36.2
      vertex 13.2685 16.6326 36.2
      vertex 10.5549 19.1389 36.2
    endloop
  endfacet
  facet normal 0 0 1
    outer loop
      vertex 13.2 16.2 36.2
      vertex 9.59999 16.2 36.2
      vertex 11.2 6.2 36.2
    endloop
  endfacet
  facet normal 0 0 1
    outer loop
      vertex 13.2685 16.6326 36.2
      vertex 9.84471 17.7451 36.2
      vertex 13.2 16.2 36.2
    endloop
  endfacet
  facet normal 0 0 1
    outer loop
      vertex 7.59999 6.2 36.2
      vertex 11.2 6.2 36.2
      vertex 9.59999 16.2 36.2
    endloop
  endfacet
  facet normal 0 0 1
    outer loop
      vertex 13.2 16.2 36.2
      vertex 9.84471 17.7451 36.2
      vertex 9.59999 16.2 36.2
    endloop
  endfacet
  facet normal 0 0 1
    outer loop
      vertex 11.2 6.2 36.2
      vertex 7.59999 6.2 36.2
      vertex 10.9553 4.65493 36.2
    endloop
  endfacet
  facet normal -0 0 1
    outer loop
      vertex 7.53147 5.76738 36.2
      vertex 10.9553 4.65493 36.2
      vertex 7.59999 6.2 36.2
    endloop
  endfacet
  facet normal 0 0 1
    outer loop
      vertex 10.9553 4.65493 36.2
      vertex 7.53147 5.76738 36.2
      vertex 10.2451 3.26108 36.2
    endloop
  endfacet
  facet normal -0 0 1
    outer loop
      vertex 7.33261 5.37711 36.2
      vertex 10.2451 3.26108 36.2
      vertex 7.53147 5.76738 36.2
    endloop
  endfacet
  facet normal 0 0 1
    outer loop
      vertex 10.2451 3.26108 36.2
      vertex 7.33261 5.37711 36.2
      vertex 9.13892 2.15493 36.2
    endloop
  endfacet
  facet normal -0 0 1
    outer loop
      vertex 7.02289 5.06739 36.2
      vertex 9.13892 2.15493 36.2
      vertex 7.33261 5.37711 36.2
    endloop
  endfacet
  facet normal 0 0 1
    outer loop
      vertex 9.13892 2.15493 36.2
      vertex 7.02289 5.06739 36.2
      vertex 7.74507 1.44472 36.2
    endloop
  endfacet
  facet normal -0 0 1
    outer loop
      vertex 6.63262 4.86853 36.2
      vertex 7.74507 1.44472 36.2
      vertex 7.02289 5.06739 36.2
    endloop
  endfacet
  facet normal -0 0 1
    outer loop
      vertex 6.2 4.80001 36.2
      vertex 7.74507 1.44472 36.2
      vertex 6.63262 4.86853 36.2
    endloop
  endfacet
  facet normal 0 0 1
    outer loop
      vertex 6.2 4.80001 36.2
      vertex 6.2 1.2 36.2
      vertex 7.74507 1.44472 36.2
    endloop
  endfacet
  facet normal 0 0 1
    outer loop
      vertex 5.76738 4.86853 36.2
      vertex 6.2 1.2 36.2
      vertex 6.2 4.80001 36.2
    endloop
  endfacet
  facet normal 0 0 1
    outer loop
      vertex 4.65493 1.44472 36.2
      vertex 5.76738 4.86853 36.2
      vertex 5.37711 5.06739 36.2
    endloop
  endfacet
  facet normal 0 0 1
    outer loop
      vertex 3.26108 2.15493 36.2
      vertex 5.37711 5.06739 36.2
      vertex 5.06739 5.37711 36.2
    endloop
  endfacet
  facet normal 0 0 1
    outer loop
      vertex 2.15493 3.26108 36.2
      vertex 5.06739 5.37711 36.2
      vertex 4.86853 5.76738 36.2
    endloop
  endfacet
  facet normal 0 0 1
    outer loop
      vertex 5.76738 4.86853 36.2
      vertex 4.65493 1.44472 36.2
      vertex 6.2 1.2 36.2
    endloop
  endfacet
  facet normal 0 0 1
    outer loop
      vertex 1.44472 4.65493 36.2
      vertex 4.86853 5.76738 36.2
      vertex 4.79999 6.2 36.2
    endloop
  endfacet
  facet normal 0 0 1
    outer loop
      vertex 4.79999 18.9 36.2
      vertex 1.2 18.9 36.2
      vertex 4.79999 6.2 36.2
    endloop
  endfacet
  facet normal 0 0 1
    outer loop
      vertex 1.2 18.9 36.2
      vertex 4.71189 19.4562 36.2
      vertex 4.45623 19.958 36.2
    endloop
  endfacet
  facet normal 0 0 1
    outer loop
      vertex 1.2 18.9 36.2
      vertex 4.45623 19.958 36.2
      vertex 4.058 20.3562 36.2
    endloop
  endfacet
  facet normal 0 0 1
    outer loop
      vertex 1.2 18.9 36.2
      vertex 4.058 20.3562 36.2
      vertex 3.55622 20.6119 36.2
    endloop
  endfacet
  facet normal 0 -0 1
    outer loop
      vertex 1.44472 4.65493 36.2
      vertex 4.79999 6.2 36.2
      vertex 1.2 6.2 36.2
    endloop
  endfacet
  facet normal 0 0 1
    outer loop
      vertex 1.2 18.9 36.2
      vertex 3.55622 20.6119 36.2
      vertex 2.99999 20.7 36.2
    endloop
  endfacet
  facet normal 0 0 1
    outer loop
      vertex 1.2 18.9 36.2
      vertex 2.99999 20.7 36.2
      vertex 2.44376 20.6119 36.2
    endloop
  endfacet
  facet normal 0 0 1
    outer loop
      vertex 5.37711 5.06739 36.2
      vertex 3.26108 2.15493 36.2
      vertex 4.65493 1.44472 36.2
    endloop
  endfacet
  facet normal 0 0 1
    outer loop
      vertex 1.2 18.9 36.2
      vertex 2.44376 20.6119 36.2
      vertex 1.94197 20.3562 36.2
    endloop
  endfacet
  facet normal 0 0 1
    outer loop
      vertex 1.2 18.9 36.2
      vertex 1.94197 20.3562 36.2
      vertex 1.54377 19.958 36.2
    endloop
  endfacet
  facet normal 0 0 1
    outer loop
      vertex 5.06739 5.37711 36.2
      vertex 2.15493 3.26108 36.2
      vertex 3.26108 2.15493 36.2
    endloop
  endfacet
  facet normal 0 0 1
    outer loop
      vertex 1.2 18.9 36.2
      vertex 1.54377 19.958 36.2
      vertex 1.28809 19.4562 36.2
    endloop
  endfacet
  facet normal 0 0 1
    outer loop
      vertex 4.79999 6.2 36.2
      vertex 1.2 18.9 36.2
      vertex 1.2 6.2 36.2
    endloop
  endfacet
  facet normal 0 0 1
    outer loop
      vertex 4.86853 5.76738 36.2
      vertex 1.44472 4.65493 36.2
      vertex 2.15493 3.26108 36.2
    endloop
  endfacet
  facet normal 0 0 1
    outer loop
      vertex 33.1438 2.44199 36.2
      vertex 32.8 3.5 36.2
      vertex 32.8881 2.94377 36.2
    endloop
  endfacet
  facet normal -0.707107 -0.707107 0
    outer loop
      vertex 3.26108 2.15493 1.2
      vertex 2.15493 3.26108 36.2
      vertex 2.15493 3.26108 1.2
    endloop
  endfacet
  facet normal -0.707107 -0.707107 0
    outer loop
      vertex 2.15493 3.26108 36.2
      vertex 3.26108 2.15493 1.2
      vertex 3.26108 2.15493 36.2
    endloop
  endfacet
  facet normal -0.453993 -0.891005 0
    outer loop
      vertex 3.26108 2.15493 1.2
      vertex 4.65493 1.44472 36.2
      vertex 3.26108 2.15493 36.2
    endloop
  endfacet
  facet normal -0.453993 -0.891005 -0
    outer loop
      vertex 4.65493 1.44472 36.2
      vertex 3.26108 2.15493 1.2
      vertex 4.65493 1.44472 1.2
    endloop
  endfacet
  facet normal -0.156437 -0.987688 0
    outer loop
      vertex 4.65493 1.44472 1.2
      vertex 6.2 1.2 36.2
      vertex 4.65493 1.44472 36.2
    endloop
  endfacet
  facet normal -0.156437 -0.987688 -0
    outer loop
      vertex 6.2 1.2 36.2
      vertex 4.65493 1.44472 1.2
      vertex 6.2 1.2 1.2
    endloop
  endfacet
  facet normal 0.156437 -0.987688 0
    outer loop
      vertex 6.2 1.2 1.2
      vertex 7.74507 1.44472 36.2
      vertex 6.2 1.2 36.2
    endloop
  endfacet
  facet normal 0.156437 -0.987688 0
    outer loop
      vertex 7.74507 1.44472 36.2
      vertex 6.2 1.2 1.2
      vertex 7.74507 1.44472 1.2
    endloop
  endfacet
  facet normal 0.453993 -0.891005 0
    outer loop
      vertex 7.74507 1.44472 1.2
      vertex 9.13892 2.15493 36.2
      vertex 7.74507 1.44472 36.2
    endloop
  endfacet
  facet normal 0.453993 -0.891005 0
    outer loop
      vertex 9.13892 2.15493 36.2
      vertex 7.74507 1.44472 1.2
      vertex 9.13892 2.15493 1.2
    endloop
  endfacet
  facet normal 0.707107 -0.707107 0
    outer loop
      vertex 9.13892 2.15493 36.2
      vertex 10.2451 3.26108 1.2
      vertex 10.2451 3.26108 36.2
    endloop
  endfacet
  facet normal 0.707107 -0.707107 0
    outer loop
      vertex 10.2451 3.26108 1.2
      vertex 9.13892 2.15493 36.2
      vertex 9.13892 2.15493 1.2
    endloop
  endfacet
  facet normal 0.891005 -0.453993 0
    outer loop
      vertex 10.2451 3.26108 36.2
      vertex 10.9553 4.65493 1.2
      vertex 10.9553 4.65493 36.2
    endloop
  endfacet
  facet normal 0.891005 -0.453993 0
    outer loop
      vertex 10.9553 4.65493 1.2
      vertex 10.2451 3.26108 36.2
      vertex 10.2451 3.26108 1.2
    endloop
  endfacet
  facet normal 0.987689 -0.156428 0
    outer loop
      vertex 10.9553 4.65493 36.2
      vertex 11.2 6.2 1.2
      vertex 11.2 6.2 36.2
    endloop
  endfacet
  facet normal 0.987689 -0.156428 0
    outer loop
      vertex 11.2 6.2 1.2
      vertex 10.9553 4.65493 36.2
      vertex 10.9553 4.65493 1.2
    endloop
  endfacet
  facet normal 0.98058 -0.196118 0
    outer loop
      vertex 11.2 6.2 36.2
      vertex 13.2 16.2 1.2
      vertex 13.2 16.2 36.2
    endloop
  endfacet
  facet normal 0.98058 -0.196118 0
    outer loop
      vertex 13.2 16.2 1.2
      vertex 11.2 6.2 36.2
      vertex 11.2 6.2 1.2
    endloop
  endfacet
  facet normal 0.987686 -0.156451 0
    outer loop
      vertex 13.2 16.2 36.2
      vertex 13.2685 16.6326 1.2
      vertex 13.2685 16.6326 36.2
    endloop
  endfacet
  facet normal 0.987686 -0.156451 0
    outer loop
      vertex 13.2685 16.6326 1.2
      vertex 13.2 16.2 36.2
      vertex 13.2 16.2 1.2
    endloop
  endfacet
  facet normal 0.891008 -0.453987 0
    outer loop
      vertex 13.2685 16.6326 36.2
      vertex 13.4674 17.0229 1.2
      vertex 13.4674 17.0229 36.2
    endloop
  endfacet
  facet normal 0.891008 -0.453987 0
    outer loop
      vertex 13.4674 17.0229 1.2
      vertex 13.2685 16.6326 36.2
      vertex 13.2685 16.6326 1.2
    endloop
  endfacet
  facet normal 0.707107 -0.707107 0
    outer loop
      vertex 13.4674 17.0229 36.2
      vertex 13.7771 17.3326 1.2
      vertex 13.7771 17.3326 36.2
    endloop
  endfacet
  facet normal 0.707107 -0.707107 0
    outer loop
      vertex 13.7771 17.3326 1.2
      vertex 13.4674 17.0229 36.2
      vertex 13.4674 17.0229 1.2
    endloop
  endfacet
  facet normal 0.453987 -0.891008 0
    outer loop
      vertex 13.7771 17.3326 1.2
      vertex 14.1674 17.5315 36.2
      vertex 13.7771 17.3326 36.2
    endloop
  endfacet
  facet normal 0.453987 -0.891008 0
    outer loop
      vertex 14.1674 17.5315 36.2
      vertex 13.7771 17.3326 1.2
      vertex 14.1674 17.5315 1.2
    endloop
  endfacet
  facet normal 0.156451 -0.987686 0
    outer loop
      vertex 14.1674 17.5315 1.2
      vertex 14.6 17.6 36.2
      vertex 14.1674 17.5315 36.2
    endloop
  endfacet
  facet normal 0.156451 -0.987686 0
    outer loop
      vertex 14.6 17.6 36.2
      vertex 14.1674 17.5315 1.2
      vertex 14.6 17.6 1.2
    endloop
  endfacet
  facet normal -0.156451 -0.987686 0
    outer loop
      vertex 14.6 17.6 1.2
      vertex 15.0326 17.5315 36.2
      vertex 14.6 17.6 36.2
    endloop
  endfacet
  facet normal -0.156451 -0.987686 -0
    outer loop
      vertex 15.0326 17.5315 36.2
      vertex 14.6 17.6 1.2
      vertex 15.0326 17.5315 1.2
    endloop
  endfacet
  facet normal -0.453987 -0.891008 0
    outer loop
      vertex 15.0326 17.5315 1.2
      vertex 15.4229 17.3326 36.2
      vertex 15.0326 17.5315 36.2
    endloop
  endfacet
  facet normal -0.453987 -0.891008 -0
    outer loop
      vertex 15.4229 17.3326 36.2
      vertex 15.0326 17.5315 1.2
      vertex 15.4229 17.3326 1.2
    endloop
  endfacet
  facet normal -0.707107 -0.707107 0
    outer loop
      vertex 15.7326 17.0229 1.2
      vertex 15.4229 17.3326 36.2
      vertex 15.4229 17.3326 1.2
    endloop
  endfacet
  facet normal -0.707107 -0.707107 0
    outer loop
      vertex 15.4229 17.3326 36.2
      vertex 15.7326 17.0229 1.2
      vertex 15.7326 17.0229 36.2
    endloop
  endfacet
  facet normal -0.891008 -0.453987 0
    outer loop
      vertex 15.9315 16.6326 1.2
      vertex 15.7326 17.0229 36.2
      vertex 15.7326 17.0229 1.2
    endloop
  endfacet
  facet normal -0.891008 -0.453987 0
    outer loop
      vertex 15.7326 17.0229 36.2
      vertex 15.9315 16.6326 1.2
      vertex 15.9315 16.6326 36.2
    endloop
  endfacet
  facet normal -0.987686 -0.156451 0
    outer loop
      vertex 16 16.2 1.2
      vertex 15.9315 16.6326 36.2
      vertex 15.9315 16.6326 1.2
    endloop
  endfacet
  facet normal -0.987686 -0.156451 0
    outer loop
      vertex 15.9315 16.6326 36.2
      vertex 16 16.2 1.2
      vertex 16 16.2 36.2
    endloop
  endfacet
  facet normal -0.980581 -0.196116 0
    outer loop
      vertex 18 6.2 1.2
      vertex 16 16.2 36.2
      vertex 16 16.2 1.2
    endloop
  endfacet
  facet normal -0.980581 -0.196116 0
    outer loop
      vertex 16 16.2 36.2
      vertex 18 6.2 1.2
      vertex 18 6.2 36.2
    endloop
  endfacet
  facet normal -0.987688 -0.156437 0
    outer loop
      vertex 18.2447 4.65493 1.2
      vertex 18 6.2 36.2
      vertex 18 6.2 1.2
    endloop
  endfacet
  facet normal -0.987688 -0.156437 0
    outer loop
      vertex 18 6.2 36.2
      vertex 18.2447 4.65493 1.2
      vertex 18.2447 4.65493 36.2
    endloop
  endfacet
  facet normal -0.891005 -0.453993 0
    outer loop
      vertex 18.9549 3.26108 1.2
      vertex 18.2447 4.65493 36.2
      vertex 18.2447 4.65493 1.2
    endloop
  endfacet
  facet normal -0.891005 -0.453993 0
    outer loop
      vertex 18.2447 4.65493 36.2
      vertex 18.9549 3.26108 1.2
      vertex 18.9549 3.26108 36.2
    endloop
  endfacet
  facet normal -0.707107 -0.707107 0
    outer loop
      vertex 20.0611 2.15493 1.2
      vertex 18.9549 3.26108 36.2
      vertex 18.9549 3.26108 1.2
    endloop
  endfacet
  facet normal -0.707107 -0.707107 0
    outer loop
      vertex 18.9549 3.26108 36.2
      vertex 20.0611 2.15493 1.2
      vertex 20.0611 2.15493 36.2
    endloop
  endfacet
  facet normal -0.453993 -0.891005 0
    outer loop
      vertex 20.0611 2.15493 1.2
      vertex 21.4549 1.44472 36.2
      vertex 20.0611 2.15493 36.2
    endloop
  endfacet
  facet normal -0.453993 -0.891005 -0
    outer loop
      vertex 21.4549 1.44472 36.2
      vertex 20.0611 2.15493 1.2
      vertex 21.4549 1.44472 1.2
    endloop
  endfacet
  facet normal -0.156437 -0.987688 0
    outer loop
      vertex 21.4549 1.44472 1.2
      vertex 23 1.2 36.2
      vertex 21.4549 1.44472 36.2
    endloop
  endfacet
  facet normal -0.156437 -0.987688 -0
    outer loop
      vertex 23 1.2 36.2
      vertex 21.4549 1.44472 1.2
      vertex 23 1.2 1.2
    endloop
  endfacet
  facet normal 0.156437 -0.987688 0
    outer loop
      vertex 23 1.2 1.2
      vertex 24.5451 1.44472 36.2
      vertex 23 1.2 36.2
    endloop
  endfacet
  facet normal 0.156437 -0.987688 0
    outer loop
      vertex 24.5451 1.44472 36.2
      vertex 23 1.2 1.2
      vertex 24.5451 1.44472 1.2
    endloop
  endfacet
  facet normal 0.453993 -0.891005 0
    outer loop
      vertex 24.5451 1.44472 1.2
      vertex 25.9389 2.15493 36.2
      vertex 24.5451 1.44472 36.2
    endloop
  endfacet
  facet normal 0.453993 -0.891005 0
    outer loop
      vertex 25.9389 2.15493 36.2
      vertex 24.5451 1.44472 1.2
      vertex 25.9389 2.15493 1.2
    endloop
  endfacet
  facet normal 0.707107 -0.707107 0
    outer loop
      vertex 25.9389 2.15493 36.2
      vertex 27.0451 3.26108 1.2
      vertex 27.0451 3.26108 36.2
    endloop
  endfacet
  facet normal 0.707107 -0.707107 0
    outer loop
      vertex 27.0451 3.26108 1.2
      vertex 25.9389 2.15493 36.2
      vertex 25.9389 2.15493 1.2
    endloop
  endfacet
  facet normal 0.891005 -0.453993 0
    outer loop
      vertex 27.0451 3.26108 36.2
      vertex 27.7553 4.65493 1.2
      vertex 27.7553 4.65493 36.2
    endloop
  endfacet
  facet normal 0.891005 -0.453993 0
    outer loop
      vertex 27.7553 4.65493 1.2
      vertex 27.0451 3.26108 36.2
      vertex 27.0451 3.26108 1.2
    endloop
  endfacet
  facet normal 0.987689 -0.156428 0
    outer loop
      vertex 27.7553 4.65493 36.2
      vertex 28 6.2 1.2
      vertex 28 6.2 36.2
    endloop
  endfacet
  facet normal 0.987689 -0.156428 0
    outer loop
      vertex 28 6.2 1.2
      vertex 27.7553 4.65493 36.2
      vertex 27.7553 4.65493 1.2
    endloop
  endfacet
  facet normal 0.98058 -0.196118 0
    outer loop
      vertex 28 6.2 36.2
      vertex 30 16.2 1.2
      vertex 30 16.2 36.2
    endloop
  endfacet
  facet normal 0.98058 -0.196118 0
    outer loop
      vertex 30 16.2 1.2
      vertex 28 6.2 36.2
      vertex 28 6.2 1.2
    endloop
  endfacet
  facet normal 0.987686 -0.156451 0
    outer loop
      vertex 30 16.2 36.2
      vertex 30.0685 16.6326 1.2
      vertex 30.0685 16.6326 36.2
    endloop
  endfacet
  facet normal 0.987686 -0.156451 0
    outer loop
      vertex 30.0685 16.6326 1.2
      vertex 30 16.2 36.2
      vertex 30 16.2 1.2
    endloop
  endfacet
  facet normal 0.891008 -0.453987 0
    outer loop
      vertex 30.0685 16.6326 36.2
      vertex 30.2674 17.0229 1.2
      vertex 30.2674 17.0229 36.2
    endloop
  endfacet
  facet normal 0.891008 -0.453987 0
    outer loop
      vertex 30.2674 17.0229 1.2
      vertex 30.0685 16.6326 36.2
      vertex 30.0685 16.6326 1.2
    endloop
  endfacet
  facet normal 0.707107 -0.707107 0
    outer loop
      vertex 30.2674 17.0229 36.2
      vertex 30.5771 17.3326 1.2
      vertex 30.5771 17.3326 36.2
    endloop
  endfacet
  facet normal 0.707107 -0.707107 0
    outer loop
      vertex 30.5771 17.3326 1.2
      vertex 30.2674 17.0229 36.2
      vertex 30.2674 17.0229 1.2
    endloop
  endfacet
  facet normal 0.453987 -0.891008 0
    outer loop
      vertex 30.5771 17.3326 1.2
      vertex 30.9674 17.5315 36.2
      vertex 30.5771 17.3326 36.2
    endloop
  endfacet
  facet normal 0.453987 -0.891008 0
    outer loop
      vertex 30.9674 17.5315 36.2
      vertex 30.5771 17.3326 1.2
      vertex 30.9674 17.5315 1.2
    endloop
  endfacet
  facet normal 0.156451 -0.987686 0
    outer loop
      vertex 30.9674 17.5315 1.2
      vertex 31.4 17.6 36.2
      vertex 30.9674 17.5315 36.2
    endloop
  endfacet
  facet normal 0.156451 -0.987686 0
    outer loop
      vertex 31.4 17.6 36.2
      vertex 30.9674 17.5315 1.2
      vertex 31.4 17.6 1.2
    endloop
  endfacet
  facet normal -0.156451 -0.987686 0
    outer loop
      vertex 31.4 17.6 1.2
      vertex 31.8326 17.5315 36.2
      vertex 31.4 17.6 36.2
    endloop
  endfacet
  facet normal -0.156451 -0.987686 -0
    outer loop
      vertex 31.8326 17.5315 36.2
      vertex 31.4 17.6 1.2
      vertex 31.8326 17.5315 1.2
    endloop
  endfacet
  facet normal -0.453987 -0.891008 0
    outer loop
      vertex 31.8326 17.5315 1.2
      vertex 32.2229 17.3326 36.2
      vertex 31.8326 17.5315 36.2
    endloop
  endfacet
  facet normal -0.453987 -0.891008 -0
    outer loop
      vertex 32.2229 17.3326 36.2
      vertex 31.8326 17.5315 1.2
      vertex 32.2229 17.3326 1.2
    endloop
  endfacet
  facet normal -0.707107 -0.707107 0
    outer loop
      vertex 32.5326 17.0229 1.2
      vertex 32.2229 17.3326 36.2
      vertex 32.2229 17.3326 1.2
    endloop
  endfacet
  facet normal -0.707107 -0.707107 0
    outer loop
      vertex 32.2229 17.3326 36.2
      vertex 32.5326 17.0229 1.2
      vertex 32.5326 17.0229 36.2
    endloop
  endfacet
  facet normal -0.891008 -0.453987 0
    outer loop
      vertex 32.7314 16.6326 1.2
      vertex 32.5326 17.0229 36.2
      vertex 32.5326 17.0229 1.2
    endloop
  endfacet
  facet normal -0.891008 -0.453987 0
    outer loop
      vertex 32.5326 17.0229 36.2
      vertex 32.7314 16.6326 1.2
      vertex 32.7314 16.6326 36.2
    endloop
  endfacet
  facet normal -0.98768 -0.156485 0
    outer loop
      vertex 32.8 16.2 1.2
      vertex 32.7314 16.6326 36.2
      vertex 32.7314 16.6326 1.2
    endloop
  endfacet
  facet normal -0.98768 -0.156485 0
    outer loop
      vertex 32.7314 16.6326 36.2
      vertex 32.8 16.2 1.2
      vertex 32.8 16.2 36.2
    endloop
  endfacet
  facet normal -1 0 0
    outer loop
      vertex 32.8 3.5 1.2
      vertex 32.8 16.2 36.2
      vertex 32.8 16.2 1.2
    endloop
  endfacet
  facet normal -1 -0 0
    outer loop
      vertex 32.8 16.2 36.2
      vertex 32.8 3.5 1.2
      vertex 32.8 3.5 36.2
    endloop
  endfacet
  facet normal -0.987691 -0.156419 0
    outer loop
      vertex 32.8881 2.94377 1.2
      vertex 32.8 3.5 36.2
      vertex 32.8 3.5 1.2
    endloop
  endfacet
  facet normal -0.987691 -0.156419 0
    outer loop
      vertex 32.8 3.5 36.2
      vertex 32.8881 2.94377 1.2
      vertex 32.8881 2.94377 36.2
    endloop
  endfacet
  facet normal -0.891004 -0.453996 0
    outer loop
      vertex 33.1438 2.44199 1.2
      vertex 32.8881 2.94377 36.2
      vertex 32.8881 2.94377 1.2
    endloop
  endfacet
  facet normal -0.891004 -0.453996 0
    outer loop
      vertex 32.8881 2.94377 36.2
      vertex 33.1438 2.44199 1.2
      vertex 33.1438 2.44199 36.2
    endloop
  endfacet
  facet normal -0.707107 -0.707107 0
    outer loop
      vertex 33.542 2.04378 1.2
      vertex 33.1438 2.44199 36.2
      vertex 33.1438 2.44199 1.2
    endloop
  endfacet
  facet normal -0.707107 -0.707107 0
    outer loop
      vertex 33.1438 2.44199 36.2
      vertex 33.542 2.04378 1.2
      vertex 33.542 2.04378 36.2
    endloop
  endfacet
  facet normal -0.453996 -0.891004 0
    outer loop
      vertex 33.542 2.04378 1.2
      vertex 34.0438 1.7881 36.2
      vertex 33.542 2.04378 36.2
    endloop
  endfacet
  facet normal -0.453996 -0.891004 -0
    outer loop
      vertex 34.0438 1.7881 36.2
      vertex 33.542 2.04378 1.2
      vertex 34.0438 1.7881 1.2
    endloop
  endfacet
  facet normal -0.156445 -0.987687 0
    outer loop
      vertex 34.0438 1.7881 1.2
      vertex 34.6 1.7 36.2
      vertex 34.0438 1.7881 36.2
    endloop
  endfacet
  facet normal -0.156445 -0.987687 -0
    outer loop
      vertex 34.6 1.7 36.2
      vertex 34.0438 1.7881 1.2
      vertex 34.6 1.7 1.2
    endloop
  endfacet
  facet normal 0.156445 -0.987687 0
    outer loop
      vertex 34.6 1.7 1.2
      vertex 35.1562 1.7881 36.2
      vertex 34.6 1.7 36.2
    endloop
  endfacet
  facet normal 0.156445 -0.987687 0
    outer loop
      vertex 35.1562 1.7881 36.2
      vertex 34.6 1.7 1.2
      vertex 35.1562 1.7881 1.2
    endloop
  endfacet
  facet normal 0.453996 -0.891004 0
    outer loop
      vertex 35.1562 1.7881 1.2
      vertex 35.658 2.04378 36.2
      vertex 35.1562 1.7881 36.2
    endloop
  endfacet
  facet normal 0.453996 -0.891004 0
    outer loop
      vertex 35.658 2.04378 36.2
      vertex 35.1562 1.7881 1.2
      vertex 35.658 2.04378 1.2
    endloop
  endfacet
  facet normal 0.707093 -0.70712 0
    outer loop
      vertex 35.658 2.04378 1.2
      vertex 36.0562 2.44199 36.2
      vertex 35.658 2.04378 36.2
    endloop
  endfacet
  facet normal 0.707093 -0.70712 0
    outer loop
      vertex 36.0562 2.44199 36.2
      vertex 35.658 2.04378 1.2
      vertex 36.0562 2.44199 1.2
    endloop
  endfacet
  facet normal 0.891015 -0.453974 0
    outer loop
      vertex 36.0562 2.44199 36.2
      vertex 36.3119 2.94377 1.2
      vertex 36.3119 2.94377 36.2
    endloop
  endfacet
  facet normal 0.891015 -0.453974 0
    outer loop
      vertex 36.3119 2.94377 1.2
      vertex 36.0562 2.44199 36.2
      vertex 36.0562 2.44199 1.2
    endloop
  endfacet
  facet normal 0.987687 -0.156445 0
    outer loop
      vertex 36.3119 2.94377 36.2
      vertex 36.4 3.5 1.2
      vertex 36.4 3.5 36.2
    endloop
  endfacet
  facet normal 0.987687 -0.156445 0
    outer loop
      vertex 36.4 3.5 1.2
      vertex 36.3119 2.94377 36.2
      vertex 36.3119 2.94377 1.2
    endloop
  endfacet
  facet normal 1 -0 0
    outer loop
      vertex 36.4 3.5 36.2
      vertex 36.4 16.2 1.2
      vertex 36.4 16.2 36.2
    endloop
  endfacet
  facet normal 1 0 0
    outer loop
      vertex 36.4 16.2 1.2
      vertex 36.4 3.5 36.2
      vertex 36.4 3.5 1.2
    endloop
  endfacet
  facet normal 0.987688 0.156437 0
    outer loop
      vertex 36.4 16.2 36.2
      vertex 36.1553 17.7451 1.2
      vertex 36.1553 17.7451 36.2
    endloop
  endfacet
  facet normal 0.987688 0.156437 0
    outer loop
      vertex 36.1553 17.7451 1.2
      vertex 36.4 16.2 36.2
      vertex 36.4 16.2 1.2
    endloop
  endfacet
  facet normal 0.891005 0.453993 0
    outer loop
      vertex 36.1553 17.7451 36.2
      vertex 35.4451 19.1389 1.2
      vertex 35.4451 19.1389 36.2
    endloop
  endfacet
  facet normal 0.891005 0.453993 0
    outer loop
      vertex 35.4451 19.1389 1.2
      vertex 36.1553 17.7451 36.2
      vertex 36.1553 17.7451 1.2
    endloop
  endfacet
  facet normal 0.707107 0.707107 0
    outer loop
      vertex 35.4451 19.1389 36.2
      vertex 34.3389 20.2451 1.2
      vertex 34.3389 20.2451 36.2
    endloop
  endfacet
  facet normal 0.707107 0.707107 0
    outer loop
      vertex 34.3389 20.2451 1.2
      vertex 35.4451 19.1389 36.2
      vertex 35.4451 19.1389 1.2
    endloop
  endfacet
  facet normal 0.453993 0.891005 -0
    outer loop
      vertex 34.3389 20.2451 1.2
      vertex 32.9451 20.9553 36.2
      vertex 34.3389 20.2451 36.2
    endloop
  endfacet
  facet normal 0.453993 0.891005 0
    outer loop
      vertex 32.9451 20.9553 36.2
      vertex 34.3389 20.2451 1.2
      vertex 32.9451 20.9553 1.2
    endloop
  endfacet
  facet normal 0.156437 0.987688 -0
    outer loop
      vertex 32.9451 20.9553 1.2
      vertex 31.4 21.2 36.2
      vertex 32.9451 20.9553 36.2
    endloop
  endfacet
  facet normal 0.156437 0.987688 0
    outer loop
      vertex 31.4 21.2 36.2
      vertex 32.9451 20.9553 1.2
      vertex 31.4 21.2 1.2
    endloop
  endfacet
  facet normal -0.156437 0.987688 0
    outer loop
      vertex 31.4 21.2 1.2
      vertex 29.8549 20.9553 36.2
      vertex 31.4 21.2 36.2
    endloop
  endfacet
  facet normal -0.156437 0.987688 0
    outer loop
      vertex 29.8549 20.9553 36.2
      vertex 31.4 21.2 1.2
      vertex 29.8549 20.9553 1.2
    endloop
  endfacet
  facet normal -0.453993 0.891005 0
    outer loop
      vertex 29.8549 20.9553 1.2
      vertex 28.4611 20.2451 36.2
      vertex 29.8549 20.9553 36.2
    endloop
  endfacet
  facet normal -0.453993 0.891005 0
    outer loop
      vertex 28.4611 20.2451 36.2
      vertex 29.8549 20.9553 1.2
      vertex 28.4611 20.2451 1.2
    endloop
  endfacet
  facet normal -0.707107 0.707107 0
    outer loop
      vertex 27.3549 19.1389 1.2
      vertex 28.4611 20.2451 36.2
      vertex 28.4611 20.2451 1.2
    endloop
  endfacet
  facet normal -0.707107 0.707107 0
    outer loop
      vertex 28.4611 20.2451 36.2
      vertex 27.3549 19.1389 1.2
      vertex 27.3549 19.1389 36.2
    endloop
  endfacet
  facet normal -0.891005 0.453993 0
    outer loop
      vertex 26.6447 17.7451 1.2
      vertex 27.3549 19.1389 36.2
      vertex 27.3549 19.1389 1.2
    endloop
  endfacet
  facet normal -0.891005 0.453993 0
    outer loop
      vertex 27.3549 19.1389 36.2
      vertex 26.6447 17.7451 1.2
      vertex 26.6447 17.7451 36.2
    endloop
  endfacet
  facet normal -0.987688 0.156437 0
    outer loop
      vertex 26.4 16.2 1.2
      vertex 26.6447 17.7451 36.2
      vertex 26.6447 17.7451 1.2
    endloop
  endfacet
  facet normal -0.987688 0.156437 0
    outer loop
      vertex 26.6447 17.7451 36.2
      vertex 26.4 16.2 1.2
      vertex 26.4 16.2 36.2
    endloop
  endfacet
  facet normal -0.980581 0.196116 0
    outer loop
      vertex 24.4 6.2 1.2
      vertex 26.4 16.2 36.2
      vertex 26.4 16.2 1.2
    endloop
  endfacet
  facet normal -0.980581 0.196116 0
    outer loop
      vertex 26.4 16.2 36.2
      vertex 24.4 6.2 1.2
      vertex 24.4 6.2 36.2
    endloop
  endfacet
  facet normal -0.987686 0.156451 0
    outer loop
      vertex 24.3315 5.76738 1.2
      vertex 24.4 6.2 36.2
      vertex 24.4 6.2 1.2
    endloop
  endfacet
  facet normal -0.987686 0.156451 0
    outer loop
      vertex 24.4 6.2 36.2
      vertex 24.3315 5.76738 1.2
      vertex 24.3315 5.76738 36.2
    endloop
  endfacet
  facet normal -0.891008 0.453987 0
    outer loop
      vertex 24.1326 5.37711 1.2
      vertex 24.3315 5.76738 36.2
      vertex 24.3315 5.76738 1.2
    endloop
  endfacet
  facet normal -0.891008 0.453987 0
    outer loop
      vertex 24.3315 5.76738 36.2
      vertex 24.1326 5.37711 1.2
      vertex 24.1326 5.37711 36.2
    endloop
  endfacet
  facet normal -0.707107 0.707107 0
    outer loop
      vertex 23.8229 5.06739 1.2
      vertex 24.1326 5.37711 36.2
      vertex 24.1326 5.37711 1.2
    endloop
  endfacet
  facet normal -0.707107 0.707107 0
    outer loop
      vertex 24.1326 5.37711 36.2
      vertex 23.8229 5.06739 1.2
      vertex 23.8229 5.06739 36.2
    endloop
  endfacet
  facet normal -0.453987 0.891008 0
    outer loop
      vertex 23.8229 5.06739 1.2
      vertex 23.4326 4.86853 36.2
      vertex 23.8229 5.06739 36.2
    endloop
  endfacet
  facet normal -0.453987 0.891008 0
    outer loop
      vertex 23.4326 4.86853 36.2
      vertex 23.8229 5.06739 1.2
      vertex 23.4326 4.86853 1.2
    endloop
  endfacet
  facet normal -0.156451 0.987686 0
    outer loop
      vertex 23.4326 4.86853 1.2
      vertex 23 4.80001 36.2
      vertex 23.4326 4.86853 36.2
    endloop
  endfacet
  facet normal -0.156451 0.987686 0
    outer loop
      vertex 23 4.80001 36.2
      vertex 23.4326 4.86853 1.2
      vertex 23 4.80001 1.2
    endloop
  endfacet
  facet normal 0.156451 0.987686 -0
    outer loop
      vertex 23 4.80001 1.2
      vertex 22.5674 4.86853 36.2
      vertex 23 4.80001 36.2
    endloop
  endfacet
  facet normal 0.156451 0.987686 0
    outer loop
      vertex 22.5674 4.86853 36.2
      vertex 23 4.80001 1.2
      vertex 22.5674 4.86853 1.2
    endloop
  endfacet
  facet normal 0.453987 0.891008 -0
    outer loop
      vertex 22.5674 4.86853 1.2
      vertex 22.1771 5.06739 36.2
      vertex 22.5674 4.86853 36.2
    endloop
  endfacet
  facet normal 0.453987 0.891008 0
    outer loop
      vertex 22.1771 5.06739 36.2
      vertex 22.5674 4.86853 1.2
      vertex 22.1771 5.06739 1.2
    endloop
  endfacet
  facet normal 0.707107 0.707107 0
    outer loop
      vertex 22.1771 5.06739 36.2
      vertex 21.8674 5.37711 1.2
      vertex 21.8674 5.37711 36.2
    endloop
  endfacet
  facet normal 0.707107 0.707107 0
    outer loop
      vertex 21.8674 5.37711 1.2
      vertex 22.1771 5.06739 36.2
      vertex 22.1771 5.06739 1.2
    endloop
  endfacet
  facet normal 0.891008 0.453987 0
    outer loop
      vertex 21.8674 5.37711 36.2
      vertex 21.6685 5.76738 1.2
      vertex 21.6685 5.76738 36.2
    endloop
  endfacet
  facet normal 0.891008 0.453987 0
    outer loop
      vertex 21.6685 5.76738 1.2
      vertex 21.8674 5.37711 36.2
      vertex 21.8674 5.37711 1.2
    endloop
  endfacet
  facet normal 0.98768 0.156485 0
    outer loop
      vertex 21.6685 5.76738 36.2
      vertex 21.6 6.2 1.2
      vertex 21.6 6.2 36.2
    endloop
  endfacet
  facet normal 0.98768 0.156485 0
    outer loop
      vertex 21.6 6.2 1.2
      vertex 21.6685 5.76738 36.2
      vertex 21.6685 5.76738 1.2
    endloop
  endfacet
  facet normal 0.980581 0.196116 0
    outer loop
      vertex 21.6 6.2 36.2
      vertex 19.6 16.2 1.2
      vertex 19.6 16.2 36.2
    endloop
  endfacet
  facet normal 0.980581 0.196116 0
    outer loop
      vertex 19.6 16.2 1.2
      vertex 21.6 6.2 36.2
      vertex 21.6 6.2 1.2
    endloop
  endfacet
  facet normal 0.987689 0.156428 0
    outer loop
      vertex 19.6 16.2 36.2
      vertex 19.3553 17.7451 1.2
      vertex 19.3553 17.7451 36.2
    endloop
  endfacet
  facet normal 0.987689 0.156428 0
    outer loop
      vertex 19.3553 17.7451 1.2
      vertex 19.6 16.2 36.2
      vertex 19.6 16.2 1.2
    endloop
  endfacet
  facet normal 0.891005 0.453993 0
    outer loop
      vertex 19.3553 17.7451 36.2
      vertex 18.6451 19.1389 1.2
      vertex 18.6451 19.1389 36.2
    endloop
  endfacet
  facet normal 0.891005 0.453993 0
    outer loop
      vertex 18.6451 19.1389 1.2
      vertex 19.3553 17.7451 36.2
      vertex 19.3553 17.7451 1.2
    endloop
  endfacet
  facet normal 0.707107 0.707107 0
    outer loop
      vertex 18.6451 19.1389 36.2
      vertex 17.5389 20.2451 1.2
      vertex 17.5389 20.2451 36.2
    endloop
  endfacet
  facet normal 0.707107 0.707107 0
    outer loop
      vertex 17.5389 20.2451 1.2
      vertex 18.6451 19.1389 36.2
      vertex 18.6451 19.1389 1.2
    endloop
  endfacet
  facet normal 0.453993 0.891005 -0
    outer loop
      vertex 17.5389 20.2451 1.2
      vertex 16.1451 20.9553 36.2
      vertex 17.5389 20.2451 36.2
    endloop
  endfacet
  facet normal 0.453993 0.891005 0
    outer loop
      vertex 16.1451 20.9553 36.2
      vertex 17.5389 20.2451 1.2
      vertex 16.1451 20.9553 1.2
    endloop
  endfacet
  facet normal 0.156437 0.987688 -0
    outer loop
      vertex 16.1451 20.9553 1.2
      vertex 14.6 21.2 36.2
      vertex 16.1451 20.9553 36.2
    endloop
  endfacet
  facet normal 0.156437 0.987688 0
    outer loop
      vertex 14.6 21.2 36.2
      vertex 16.1451 20.9553 1.2
      vertex 14.6 21.2 1.2
    endloop
  endfacet
  facet normal -0.156437 0.987688 0
    outer loop
      vertex 14.6 21.2 1.2
      vertex 13.0549 20.9553 36.2
      vertex 14.6 21.2 36.2
    endloop
  endfacet
  facet normal -0.156437 0.987688 0
    outer loop
      vertex 13.0549 20.9553 36.2
      vertex 14.6 21.2 1.2
      vertex 13.0549 20.9553 1.2
    endloop
  endfacet
  facet normal -0.453993 0.891005 0
    outer loop
      vertex 13.0549 20.9553 1.2
      vertex 11.6611 20.2451 36.2
      vertex 13.0549 20.9553 36.2
    endloop
  endfacet
  facet normal -0.453993 0.891005 0
    outer loop
      vertex 11.6611 20.2451 36.2
      vertex 13.0549 20.9553 1.2
      vertex 11.6611 20.2451 1.2
    endloop
  endfacet
  facet normal -0.707107 0.707107 0
    outer loop
      vertex 10.5549 19.1389 1.2
      vertex 11.6611 20.2451 36.2
      vertex 11.6611 20.2451 1.2
    endloop
  endfacet
  facet normal -0.707107 0.707107 0
    outer loop
      vertex 11.6611 20.2451 36.2
      vertex 10.5549 19.1389 1.2
      vertex 10.5549 19.1389 36.2
    endloop
  endfacet
  facet normal -0.891005 0.453993 0
    outer loop
      vertex 9.84471 17.7451 1.2
      vertex 10.5549 19.1389 36.2
      vertex 10.5549 19.1389 1.2
    endloop
  endfacet
  facet normal -0.891005 0.453993 0
    outer loop
      vertex 10.5549 19.1389 36.2
      vertex 9.84471 17.7451 1.2
      vertex 9.84471 17.7451 36.2
    endloop
  endfacet
  facet normal -0.987688 0.156437 0
    outer loop
      vertex 9.59999 16.2 1.2
      vertex 9.84471 17.7451 36.2
      vertex 9.84471 17.7451 1.2
    endloop
  endfacet
  facet normal -0.987688 0.156437 0
    outer loop
      vertex 9.84471 17.7451 36.2
      vertex 9.59999 16.2 1.2
      vertex 9.59999 16.2 36.2
    endloop
  endfacet
  facet normal -0.980581 0.196116 0
    outer loop
      vertex 7.59999 6.2 1.2
      vertex 9.59999 16.2 36.2
      vertex 9.59999 16.2 1.2
    endloop
  endfacet
  facet normal -0.980581 0.196116 0
    outer loop
      vertex 9.59999 16.2 36.2
      vertex 7.59999 6.2 1.2
      vertex 7.59999 6.2 36.2
    endloop
  endfacet
  facet normal -0.987686 0.156451 0
    outer loop
      vertex 7.53147 5.76738 1.2
      vertex 7.59999 6.2 36.2
      vertex 7.59999 6.2 1.2
    endloop
  endfacet
  facet normal -0.987686 0.156451 0
    outer loop
      vertex 7.59999 6.2 36.2
      vertex 7.53147 5.76738 1.2
      vertex 7.53147 5.76738 36.2
    endloop
  endfacet
  facet normal -0.891008 0.453987 0
    outer loop
      vertex 7.33261 5.37711 1.2
      vertex 7.53147 5.76738 36.2
      vertex 7.53147 5.76738 1.2
    endloop
  endfacet
  facet normal -0.891008 0.453987 0
    outer loop
      vertex 7.53147 5.76738 36.2
      vertex 7.33261 5.37711 1.2
      vertex 7.33261 5.37711 36.2
    endloop
  endfacet
  facet normal -0.707107 0.707107 0
    outer loop
      vertex 7.02289 5.06739 1.2
      vertex 7.33261 5.37711 36.2
      vertex 7.33261 5.37711 1.2
    endloop
  endfacet
  facet normal -0.707107 0.707107 0
    outer loop
      vertex 7.33261 5.37711 36.2
      vertex 7.02289 5.06739 1.2
      vertex 7.02289 5.06739 36.2
    endloop
  endfacet
  facet normal -0.453987 0.891008 0
    outer loop
      vertex 7.02289 5.06739 1.2
      vertex 6.63262 4.86853 36.2
      vertex 7.02289 5.06739 36.2
    endloop
  endfacet
  facet normal -0.453987 0.891008 0
    outer loop
      vertex 6.63262 4.86853 36.2
      vertex 7.02289 5.06739 1.2
      vertex 6.63262 4.86853 1.2
    endloop
  endfacet
  facet normal -0.156451 0.987686 0
    outer loop
      vertex 6.63262 4.86853 1.2
      vertex 6.2 4.80001 36.2
      vertex 6.63262 4.86853 36.2
    endloop
  endfacet
  facet normal -0.156451 0.987686 0
    outer loop
      vertex 6.2 4.80001 36.2
      vertex 6.63262 4.86853 1.2
      vertex 6.2 4.80001 1.2
    endloop
  endfacet
  facet normal 0.156451 0.987686 -0
    outer loop
      vertex 6.2 4.80001 1.2
      vertex 5.76738 4.86853 36.2
      vertex 6.2 4.80001 36.2
    endloop
  endfacet
  facet normal 0.156451 0.987686 0
    outer loop
      vertex 5.76738 4.86853 36.2
      vertex 6.2 4.80001 1.2
      vertex 5.76738 4.86853 1.2
    endloop
  endfacet
  facet normal 0.453987 0.891008 -0
    outer loop
      vertex 5.76738 4.86853 1.2
      vertex 5.37711 5.06739 36.2
      vertex 5.76738 4.86853 36.2
    endloop
  endfacet
  facet normal 0.453987 0.891008 0
    outer loop
      vertex 5.37711 5.06739 36.2
      vertex 5.76738 4.86853 1.2
      vertex 5.37711 5.06739 1.2
    endloop
  endfacet
  facet normal 0.707107 0.707107 0
    outer loop
      vertex 5.37711 5.06739 36.2
      vertex 5.06739 5.37711 1.2
      vertex 5.06739 5.37711 36.2
    endloop
  endfacet
  facet normal 0.707107 0.707107 0
    outer loop
      vertex 5.06739 5.37711 1.2
      vertex 5.37711 5.06739 36.2
      vertex 5.37711 5.06739 1.2
    endloop
  endfacet
  facet normal 0.891008 0.453987 0
    outer loop
      vertex 5.06739 5.37711 36.2
      vertex 4.86853 5.76738 1.2
      vertex 4.86853 5.76738 36.2
    endloop
  endfacet
  facet normal 0.891008 0.453987 0
    outer loop
      vertex 4.86853 5.76738 1.2
      vertex 5.06739 5.37711 36.2
      vertex 5.06739 5.37711 1.2
    endloop
  endfacet
  facet normal 0.98768 0.156485 0
    outer loop
      vertex 4.86853 5.76738 36.2
      vertex 4.79999 6.2 1.2
      vertex 4.79999 6.2 36.2
    endloop
  endfacet
  facet normal 0.98768 0.156485 0
    outer loop
      vertex 4.79999 6.2 1.2
      vertex 4.86853 5.76738 36.2
      vertex 4.86853 5.76738 1.2
    endloop
  endfacet
  facet normal 1 -0 0
    outer loop
      vertex 4.79999 6.2 36.2
      vertex 4.79999 18.9 1.2
      vertex 4.79999 18.9 36.2
    endloop
  endfacet
  facet normal 1 0 0
    outer loop
      vertex 4.79999 18.9 1.2
      vertex 4.79999 6.2 36.2
      vertex 4.79999 6.2 1.2
    endloop
  endfacet
  facet normal 0.987687 0.156445 0
    outer loop
      vertex 4.79999 18.9 36.2
      vertex 4.71189 19.4562 1.2
      vertex 4.71189 19.4562 36.2
    endloop
  endfacet
  facet normal 0.987687 0.156445 0
    outer loop
      vertex 4.71189 19.4562 1.2
      vertex 4.79999 18.9 36.2
      vertex 4.79999 18.9 1.2
    endloop
  endfacet
  facet normal 0.891015 0.453974 0
    outer loop
      vertex 4.71189 19.4562 36.2
      vertex 4.45623 19.958 1.2
      vertex 4.45623 19.958 36.2
    endloop
  endfacet
  facet normal 0.891015 0.453974 0
    outer loop
      vertex 4.45623 19.958 1.2
      vertex 4.71189 19.4562 36.2
      vertex 4.71189 19.4562 1.2
    endloop
  endfacet
  facet normal 0.707093 0.70712 -0
    outer loop
      vertex 4.45623 19.958 1.2
      vertex 4.058 20.3562 36.2
      vertex 4.45623 19.958 36.2
    endloop
  endfacet
  facet normal 0.707093 0.70712 0
    outer loop
      vertex 4.058 20.3562 36.2
      vertex 4.45623 19.958 1.2
      vertex 4.058 20.3562 1.2
    endloop
  endfacet
  facet normal 0.453996 0.891004 -0
    outer loop
      vertex 4.058 20.3562 1.2
      vertex 3.55622 20.6119 36.2
      vertex 4.058 20.3562 36.2
    endloop
  endfacet
  facet normal 0.453996 0.891004 0
    outer loop
      vertex 3.55622 20.6119 36.2
      vertex 4.058 20.3562 1.2
      vertex 3.55622 20.6119 1.2
    endloop
  endfacet
  facet normal 0.156445 0.987687 -0
    outer loop
      vertex 3.55622 20.6119 1.2
      vertex 2.99999 20.7 36.2
      vertex 3.55622 20.6119 36.2
    endloop
  endfacet
  facet normal 0.156445 0.987687 0
    outer loop
      vertex 2.99999 20.7 36.2
      vertex 3.55622 20.6119 1.2
      vertex 2.99999 20.7 1.2
    endloop
  endfacet
  facet normal -0.156445 0.987687 0
    outer loop
      vertex 2.99999 20.7 1.2
      vertex 2.44376 20.6119 36.2
      vertex 2.99999 20.7 36.2
    endloop
  endfacet
  facet normal -0.156445 0.987687 0
    outer loop
      vertex 2.44376 20.6119 36.2
      vertex 2.99999 20.7 1.2
      vertex 2.44376 20.6119 1.2
    endloop
  endfacet
  facet normal -0.453996 0.891004 0
    outer loop
      vertex 2.44376 20.6119 1.2
      vertex 1.94197 20.3562 36.2
      vertex 2.44376 20.6119 36.2
    endloop
  endfacet
  facet normal -0.453996 0.891004 0
    outer loop
      vertex 1.94197 20.3562 36.2
      vertex 2.44376 20.6119 1.2
      vertex 1.94197 20.3562 1.2
    endloop
  endfacet
  facet normal -0.707107 0.707107 0
    outer loop
      vertex 1.54377 19.958 1.2
      vertex 1.94197 20.3562 36.2
      vertex 1.94197 20.3562 1.2
    endloop
  endfacet
  facet normal -0.707107 0.707107 0
    outer loop
      vertex 1.94197 20.3562 36.2
      vertex 1.54377 19.958 1.2
      vertex 1.54377 19.958 36.2
    endloop
  endfacet
  facet normal -0.891004 0.453996 0
    outer loop
      vertex 1.28809 19.4562 1.2
      vertex 1.54377 19.958 36.2
      vertex 1.54377 19.958 1.2
    endloop
  endfacet
  facet normal -0.891004 0.453996 0
    outer loop
      vertex 1.54377 19.958 36.2
      vertex 1.28809 19.4562 1.2
      vertex 1.28809 19.4562 36.2
    endloop
  endfacet
  facet normal -0.987691 0.156419 0
    outer loop
      vertex 1.2 18.9 1.2
      vertex 1.28809 19.4562 36.2
      vertex 1.28809 19.4562 1.2
    endloop
  endfacet
  facet normal -0.987691 0.156419 0
    outer loop
      vertex 1.28809 19.4562 36.2
      vertex 1.2 18.9 1.2
      vertex 1.2 18.9 36.2
    endloop
  endfacet
  facet normal -1 0 0
    outer loop
      vertex 1.2 6.2 1.2
      vertex 1.2 18.9 36.2
      vertex 1.2 18.9 1.2
    endloop
  endfacet
  facet normal -1 -0 0
    outer loop
      vertex 1.2 18.9 36.2
      vertex 1.2 6.2 1.2
      vertex 1.2 6.2 36.2
    endloop
  endfacet
  facet normal -0.987688 -0.156437 0
    outer loop
      vertex 1.44472 4.65493 1.2
      vertex 1.2 6.2 36.2
      vertex 1.2 6.2 1.2
    endloop
  endfacet
  facet normal -0.987688 -0.156437 0
    outer loop
      vertex 1.2 6.2 36.2
      vertex 1.44472 4.65493 1.2
      vertex 1.44472 4.65493 36.2
    endloop
  endfacet
  facet normal -0.891005 -0.453993 0
    outer loop
      vertex 2.15493 3.26108 1.2
      vertex 1.44472 4.65493 36.2
      vertex 1.44472 4.65493 1.2
    endloop
  endfacet
  facet normal -0.891005 -0.453993 0
    outer loop
      vertex 1.44472 4.65493 36.2
      vertex 2.15493 3.26108 1.2
      vertex 2.15493 3.26108 36.2
    endloop
  endfacet
endsolid OpenSCAD_Model
