solid OpenSCAD_Model
  facet normal 1 -0 0
    outer loop
      vertex -3 0 0.0100002
      vertex -3 10 0
      vertex -3 10 0.0100002
    endloop
  endfacet
  facet normal 1 0 0
    outer loop
      vertex -3 10 0
      vertex -3 0 0.0100002
      vertex -3 0 0
    endloop
  endfacet
  facet normal 1 -0 0
    outer loop
      vertex -3 20 0.0100002
      vertex -3 30 0
      vertex -3 30 0.0100002
    endloop
  endfacet
  facet normal 1 0 0
    outer loop
      vertex -3 30 0
      vertex -3 20 0.0100002
      vertex -3 20 0
    endloop
  endfacet
  facet normal -1 0 0
    outer loop
      vertex -3 10 0.0100002
      vertex -3 20 21
      vertex -3 20 0.0100002
    endloop
  endfacet
  facet normal -1 -0 0
    outer loop
      vertex -3 20 21
      vertex -3 10 0.0100002
      vertex -3 10 21
    endloop
  endfacet
  facet normal 0 0 1
    outer loop
      vertex 3 30 21
      vertex -3 20 21
      vertex 3 0 21
    endloop
  endfacet
  facet normal -0 0 1
    outer loop
      vertex -13 30 21
      vertex -3 20 21
      vertex 3 30 21
    endloop
  endfacet
  facet normal 0 0 1
    outer loop
      vertex -3 20 21
      vertex -13 30 21
      vertex -13 20 21
    endloop
  endfacet
  facet normal -0 0 1
    outer loop
      vertex -3 10 21
      vertex 3 0 21
      vertex -3 20 21
    endloop
  endfacet
  facet normal 0 0 1
    outer loop
      vertex -13 0 21
      vertex -3 10 21
      vertex -13 10 21
    endloop
  endfacet
  facet normal 0 0 1
    outer loop
      vertex -3 10 21
      vertex -13 0 21
      vertex 3 0 21
    endloop
  endfacet
  facet normal 1 -0 0
    outer loop
      vertex 3 0 21
      vertex 3 30 18
      vertex 3 30 21
    endloop
  endfacet
  facet normal 1 0 0
    outer loop
      vertex 3 30 18
      vertex 3 0 21
      vertex 3 0 18
    endloop
  endfacet
  facet normal 0 0 -1
    outer loop
      vertex 0 0 18
      vertex 3 30 18
      vertex 3 0 18
    endloop
  endfacet
  facet normal -0 0 -1
    outer loop
      vertex 3 30 18
      vertex 0 0 18
      vertex 0 30 18
    endloop
  endfacet
  facet normal 0 -1 0
    outer loop
      vertex -13 0 21
      vertex 0 0 18
      vertex 3 0 21
    endloop
  endfacet
  facet normal 0 -1 0
    outer loop
      vertex -13 0 21
      vertex -7.84302 0 12.9951
      vertex 0 0 18
    endloop
  endfacet
  facet normal 0 -1 0
    outer loop
      vertex -13 0 21
      vertex -8.46845 0 12.9557
      vertex -7.84302 0 12.9951
    endloop
  endfacet
  facet normal 0 -1 0
    outer loop
      vertex -13 0 21
      vertex -9.06445 0 12.7621
      vertex -8.46845 0 12.9557
    endloop
  endfacet
  facet normal 0 -1 0
    outer loop
      vertex -13 0 21
      vertex -9.59356 0 12.4263
      vertex -9.06445 0 12.7621
    endloop
  endfacet
  facet normal 0 -1 0
    outer loop
      vertex -13 0 21
      vertex -10.0225 0 11.9695
      vertex -9.59356 0 12.4263
    endloop
  endfacet
  facet normal 0 -1 0
    outer loop
      vertex -13 0 21
      vertex -10.3244 0 11.4203
      vertex -10.0225 0 11.9695
    endloop
  endfacet
  facet normal 0 -1 0
    outer loop
      vertex -13 0 21
      vertex -10.4803 0 10.8133
      vertex -10.3244 0 11.4203
    endloop
  endfacet
  facet normal 0 -1 0
    outer loop
      vertex -13 0 21
      vertex -10.4803 0 10.1867
      vertex -10.4803 0 10.8133
    endloop
  endfacet
  facet normal 0 -1 0
    outer loop
      vertex -13 0 0
      vertex -7.84302 0 8.00493
      vertex -8.46845 0 8.04428
    endloop
  endfacet
  facet normal 0 -1 0
    outer loop
      vertex -13 0 0
      vertex -8.46845 0 8.04428
      vertex -9.06445 0 8.23793
    endloop
  endfacet
  facet normal 0 -1 -0
    outer loop
      vertex 0 0 3.01
      vertex -3 0 0.0100002
      vertex 78 0 3.01
    endloop
  endfacet
  facet normal 0 -1 0
    outer loop
      vertex -7.84302 0 8.00493
      vertex -3 0 0.0100002
      vertex 0 0 3.01
    endloop
  endfacet
  facet normal 0 -1 0
    outer loop
      vertex -13 0 0
      vertex -9.06445 0 8.23793
      vertex -9.59356 0 8.57372
    endloop
  endfacet
  facet normal 0 -1 0
    outer loop
      vertex -13 0 0
      vertex -9.59356 0 8.57372
      vertex -10.0225 0 9.03054
    endloop
  endfacet
  facet normal 0 -1 0
    outer loop
      vertex -13 0 0
      vertex -10.4803 0 10.1867
      vertex -13 0 21
    endloop
  endfacet
  facet normal 0 -1 0
    outer loop
      vertex -13 0 0
      vertex -10.3244 0 9.57969
      vertex -10.4803 0 10.1867
    endloop
  endfacet
  facet normal 0 -1 0
    outer loop
      vertex -13 0 0
      vertex -10.0225 0 9.03054
      vertex -10.3244 0 9.57969
    endloop
  endfacet
  facet normal 0 -1 -0
    outer loop
      vertex -7.84302 0 8.00493
      vertex -13 0 0
      vertex -3 0 0.0100002
    endloop
  endfacet
  facet normal 0 -1 -0
    outer loop
      vertex -3 0 0.0100002
      vertex -13 0 0
      vertex -3 0 0
    endloop
  endfacet
  facet normal 0 -1 -0
    outer loop
      vertex 3 0 21
      vertex 0 0 18
      vertex 3 0 18
    endloop
  endfacet
  facet normal 0 -1 0
    outer loop
      vertex -7.22746 0 12.8776
      vertex 0 0 18
      vertex -7.84302 0 12.9951
    endloop
  endfacet
  facet normal 0 -1 0
    outer loop
      vertex -6.66043 0 12.6108
      vertex 0 0 18
      vertex -7.22746 0 12.8776
    endloop
  endfacet
  facet normal 0 -1 0
    outer loop
      vertex -6.17758 0 12.2114
      vertex 0 0 18
      vertex -6.66043 0 12.6108
    endloop
  endfacet
  facet normal 0 -1 0
    outer loop
      vertex -5.80923 0 11.7044
      vertex 0 0 18
      vertex -6.17758 0 12.2114
    endloop
  endfacet
  facet normal 0 -1 0
    outer loop
      vertex -5.57854 0 11.1217
      vertex 0 0 18
      vertex -5.80923 0 11.7044
    endloop
  endfacet
  facet normal 0 -1 0
    outer loop
      vertex -5.5 0 10.5
      vertex 0 0 18
      vertex -5.57854 0 11.1217
    endloop
  endfacet
  facet normal 0 -1 0
    outer loop
      vertex 0 0 3.01
      vertex -5.5 0 10.5
      vertex -5.57854 0 9.87827
    endloop
  endfacet
  facet normal 0 -1 0
    outer loop
      vertex 0 0 3.01
      vertex -5.57854 0 9.87827
      vertex -5.80923 0 9.29562
    endloop
  endfacet
  facet normal 0 -1 0
    outer loop
      vertex -5.5 0 10.5
      vertex 0 0 3.01
      vertex 0 0 18
    endloop
  endfacet
  facet normal 0 -1 0
    outer loop
      vertex -6.17758 0 8.78863
      vertex 0 0 3.01
      vertex -5.80923 0 9.29562
    endloop
  endfacet
  facet normal 0 -1 0
    outer loop
      vertex -6.66043 0 8.38918
      vertex 0 0 3.01
      vertex -6.17758 0 8.78863
    endloop
  endfacet
  facet normal 0 -1 0
    outer loop
      vertex -7.22746 0 8.12236
      vertex 0 0 3.01
      vertex -6.66043 0 8.38918
    endloop
  endfacet
  facet normal 0 -1 0
    outer loop
      vertex 0 0 3.01
      vertex -7.22746 0 8.12236
      vertex -7.84302 0 8.00493
    endloop
  endfacet
  facet normal 0 -1 0
    outer loop
      vertex 78 0 18
      vertex 75 0 21
      vertex 75 0 18
    endloop
  endfacet
  facet normal 0 -1 0
    outer loop
      vertex 75 0 21
      vertex 78 0 18
      vertex 81 0 21
    endloop
  endfacet
  facet normal 0 -1 0
    outer loop
      vertex 78 0 3.01
      vertex 81 0 21
      vertex 78 0 18
    endloop
  endfacet
  facet normal 0 -1 0
    outer loop
      vertex 78 0 3.01
      vertex 81 0 0.0100002
      vertex 81 0 21
    endloop
  endfacet
  facet normal 0 -1 0
    outer loop
      vertex 81 0 0.0100002
      vertex 78 0 3.01
      vertex -3 0 0.0100002
    endloop
  endfacet
  facet normal 0 1 0
    outer loop
      vertex 81 30 21
      vertex 78 30 18
      vertex 75 30 21
    endloop
  endfacet
  facet normal 0 1 0
    outer loop
      vertex 81 30 21
      vertex 78 30 3.01
      vertex 78 30 18
    endloop
  endfacet
  facet normal 0 1 0
    outer loop
      vertex 78 30 3.01
      vertex 81 30 0.0100002
      vertex 0 30 3.01
    endloop
  endfacet
  facet normal 0 1 -0
    outer loop
      vertex 81 30 0.0100002
      vertex 78 30 3.01
      vertex 81 30 21
    endloop
  endfacet
  facet normal 0 1 0
    outer loop
      vertex 75 30 21
      vertex 78 30 18
      vertex 75 30 18
    endloop
  endfacet
  facet normal 0 1 0
    outer loop
      vertex 0 30 18
      vertex -7.22746 30 12.8776
      vertex -7.84302 30 12.9951
    endloop
  endfacet
  facet normal 0 1 0
    outer loop
      vertex 0 30 18
      vertex -6.66043 30 12.6108
      vertex -7.22746 30 12.8776
    endloop
  endfacet
  facet normal 0 1 0
    outer loop
      vertex 0 30 18
      vertex -6.17758 30 12.2114
      vertex -6.66043 30 12.6108
    endloop
  endfacet
  facet normal 0 1 0
    outer loop
      vertex 0 30 18
      vertex -5.80923 30 11.7044
      vertex -6.17758 30 12.2114
    endloop
  endfacet
  facet normal 0 1 0
    outer loop
      vertex 0 30 18
      vertex -5.57854 30 11.1217
      vertex -5.80923 30 11.7044
    endloop
  endfacet
  facet normal 0 1 0
    outer loop
      vertex 0 30 18
      vertex -5.5 30 10.5
      vertex -5.57854 30 11.1217
    endloop
  endfacet
  facet normal 0 1 -0
    outer loop
      vertex 0 30 3.01
      vertex -5.5 30 10.5
      vertex 0 30 18
    endloop
  endfacet
  facet normal 0 1 0
    outer loop
      vertex -5.5 30 10.5
      vertex 0 30 3.01
      vertex -5.57854 30 9.87827
    endloop
  endfacet
  facet normal 0 1 0
    outer loop
      vertex -6.66043 30 8.38918
      vertex -3 30 0.0100002
      vertex -7.22746 30 8.12236
    endloop
  endfacet
  facet normal 0 1 -0
    outer loop
      vertex -3 30 0.0100002
      vertex -6.66043 30 8.38918
      vertex 0 30 3.01
    endloop
  endfacet
  facet normal 0 1 0
    outer loop
      vertex -6.17758 30 8.78863
      vertex 0 30 3.01
      vertex -6.66043 30 8.38918
    endloop
  endfacet
  facet normal 0 1 0
    outer loop
      vertex -5.80923 30 9.29562
      vertex 0 30 3.01
      vertex -6.17758 30 8.78863
    endloop
  endfacet
  facet normal 0 1 0
    outer loop
      vertex -5.57854 30 9.87827
      vertex 0 30 3.01
      vertex -5.80923 30 9.29562
    endloop
  endfacet
  facet normal 0 1 0
    outer loop
      vertex 0 30 18
      vertex 3 30 21
      vertex 3 30 18
    endloop
  endfacet
  facet normal 0 1 0
    outer loop
      vertex 3 30 21
      vertex 0 30 18
      vertex -13 30 21
    endloop
  endfacet
  facet normal 0 1 -0
    outer loop
      vertex -7.84302 30 12.9951
      vertex -13 30 21
      vertex 0 30 18
    endloop
  endfacet
  facet normal 0 1 -0
    outer loop
      vertex -8.46845 30 12.9557
      vertex -13 30 21
      vertex -7.84302 30 12.9951
    endloop
  endfacet
  facet normal 0 1 -0
    outer loop
      vertex -9.06445 30 12.7621
      vertex -13 30 21
      vertex -8.46845 30 12.9557
    endloop
  endfacet
  facet normal 0 1 -0
    outer loop
      vertex -9.59356 30 12.4263
      vertex -13 30 21
      vertex -9.06445 30 12.7621
    endloop
  endfacet
  facet normal 0 1 -0
    outer loop
      vertex -10.0225 30 11.9695
      vertex -13 30 21
      vertex -9.59356 30 12.4263
    endloop
  endfacet
  facet normal 0 1 -0
    outer loop
      vertex -10.3244 30 11.4203
      vertex -13 30 21
      vertex -10.0225 30 11.9695
    endloop
  endfacet
  facet normal 0 1 -0
    outer loop
      vertex -10.4803 30 10.8133
      vertex -13 30 21
      vertex -10.3244 30 11.4203
    endloop
  endfacet
  facet normal 0 1 -0
    outer loop
      vertex -10.4803 30 10.1867
      vertex -13 30 21
      vertex -10.4803 30 10.8133
    endloop
  endfacet
  facet normal 0 1 0
    outer loop
      vertex -7.22746 30 8.12236
      vertex -3 30 0.0100002
      vertex -7.84302 30 8.00493
    endloop
  endfacet
  facet normal 0 1 0
    outer loop
      vertex -13 30 0
      vertex -7.84302 30 8.00493
      vertex -3 30 0.0100002
    endloop
  endfacet
  facet normal 0 1 0
    outer loop
      vertex -3 30 0.0100002
      vertex 0 30 3.01
      vertex 81 30 0.0100002
    endloop
  endfacet
  facet normal 0 1 0
    outer loop
      vertex -7.84302 30 8.00493
      vertex -13 30 0
      vertex -8.46845 30 8.04428
    endloop
  endfacet
  facet normal 0 1 0
    outer loop
      vertex -8.46845 30 8.04428
      vertex -13 30 0
      vertex -9.06445 30 8.23793
    endloop
  endfacet
  facet normal 0 1 0
    outer loop
      vertex -9.06445 30 8.23793
      vertex -13 30 0
      vertex -9.59356 30 8.57372
    endloop
  endfacet
  facet normal 0 1 0
    outer loop
      vertex -13 30 0
      vertex -3 30 0.0100002
      vertex -3 30 0
    endloop
  endfacet
  facet normal 0 1 0
    outer loop
      vertex -10.4803 30 10.1867
      vertex -13 30 0
      vertex -13 30 21
    endloop
  endfacet
  facet normal 0 1 0
    outer loop
      vertex -10.3244 30 9.57969
      vertex -13 30 0
      vertex -10.4803 30 10.1867
    endloop
  endfacet
  facet normal 0 1 0
    outer loop
      vertex -10.0225 30 9.03054
      vertex -13 30 0
      vertex -10.3244 30 9.57969
    endloop
  endfacet
  facet normal 0 1 0
    outer loop
      vertex -9.59356 30 8.57372
      vertex -13 30 0
      vertex -10.0225 30 9.03054
    endloop
  endfacet
  facet normal -1 0 0
    outer loop
      vertex 75 0 18
      vertex 75 30 21
      vertex 75 30 18
    endloop
  endfacet
  facet normal -1 -0 0
    outer loop
      vertex 75 30 21
      vertex 75 0 18
      vertex 75 0 21
    endloop
  endfacet
  facet normal -0 0 1
    outer loop
      vertex 75 30 21
      vertex 81 0 21
      vertex 81 30 21
    endloop
  endfacet
  facet normal 0 0 1
    outer loop
      vertex 81 0 21
      vertex 75 30 21
      vertex 75 0 21
    endloop
  endfacet
  facet normal 1 -0 0
    outer loop
      vertex 81 0 21
      vertex 81 30 0.0100002
      vertex 81 30 21
    endloop
  endfacet
  facet normal 1 0 0
    outer loop
      vertex 81 30 0.0100002
      vertex 81 0 21
      vertex 81 0 0.0100002
    endloop
  endfacet
  facet normal 0 0 -1
    outer loop
      vertex 75 0 18
      vertex 78 30 18
      vertex 78 0 18
    endloop
  endfacet
  facet normal -0 0 -1
    outer loop
      vertex 78 30 18
      vertex 75 0 18
      vertex 75 30 18
    endloop
  endfacet
  facet normal 1 -0 0
    outer loop
      vertex 0 0 18
      vertex 0 30 3.01
      vertex 0 30 18
    endloop
  endfacet
  facet normal 1 0 0
    outer loop
      vertex 0 30 3.01
      vertex 0 0 18
      vertex 0 0 3.01
    endloop
  endfacet
  facet normal -1 0 0
    outer loop
      vertex 78 0 3.01
      vertex 78 30 18
      vertex 78 30 3.01
    endloop
  endfacet
  facet normal -1 -0 0
    outer loop
      vertex 78 30 18
      vertex 78 0 3.01
      vertex 78 0 18
    endloop
  endfacet
  facet normal -0 0 1
    outer loop
      vertex 0 30 3.01
      vertex 78 0 3.01
      vertex 78 30 3.01
    endloop
  endfacet
  facet normal 0 0 1
    outer loop
      vertex 78 0 3.01
      vertex 0 30 3.01
      vertex 0 0 3.01
    endloop
  endfacet
  facet normal 0 0 -1
    outer loop
      vertex -3 10 0.0100002
      vertex 81 0 0.0100002
      vertex -3 0 0.0100002
    endloop
  endfacet
  facet normal 0 0 -1
    outer loop
      vertex 81 0 0.0100002
      vertex -3 10 0.0100002
      vertex 81 30 0.0100002
    endloop
  endfacet
  facet normal 0 0 -1
    outer loop
      vertex -3 20 0.0100002
      vertex 81 30 0.0100002
      vertex -3 10 0.0100002
    endloop
  endfacet
  facet normal -0 0 -1
    outer loop
      vertex 81 30 0.0100002
      vertex -3 20 0.0100002
      vertex -3 30 0.0100002
    endloop
  endfacet
  facet normal -1 0 0
    outer loop
      vertex -13 0 0
      vertex -13 10 21
      vertex -13 10 0
    endloop
  endfacet
  facet normal -1 -0 0
    outer loop
      vertex -13 10 21
      vertex -13 0 0
      vertex -13 0 21
    endloop
  endfacet
  facet normal -1 0 0
    outer loop
      vertex -13 20 0
      vertex -13 30 21
      vertex -13 30 0
    endloop
  endfacet
  facet normal -1 -0 0
    outer loop
      vertex -13 30 21
      vertex -13 20 0
      vertex -13 20 21
    endloop
  endfacet
  facet normal 0 0 -1
    outer loop
      vertex -13 20 0
      vertex -3 30 0
      vertex -3 20 0
    endloop
  endfacet
  facet normal -0 0 -1
    outer loop
      vertex -3 30 0
      vertex -13 20 0
      vertex -13 30 0
    endloop
  endfacet
  facet normal 0 0 -1
    outer loop
      vertex -13 0 0
      vertex -3 10 0
      vertex -3 0 0
    endloop
  endfacet
  facet normal -0 0 -1
    outer loop
      vertex -3 10 0
      vertex -13 0 0
      vertex -13 10 0
    endloop
  endfacet
  facet normal -0.637423 0 0.770514
    outer loop
      vertex -6.66043 10 8.38918
      vertex -6.17758 0 8.78863
      vertex -6.17758 10 8.78863
    endloop
  endfacet
  facet normal -0.637423 0 0.770514
    outer loop
      vertex -6.17758 0 8.78863
      vertex -6.66043 10 8.38918
      vertex -6.66043 0 8.38918
    endloop
  endfacet
  facet normal -0.637423 0 0.770514
    outer loop
      vertex -6.66043 30 8.38918
      vertex -6.17758 20 8.78863
      vertex -6.17758 30 8.78863
    endloop
  endfacet
  facet normal -0.637423 0 0.770514
    outer loop
      vertex -6.17758 20 8.78863
      vertex -6.66043 30 8.38918
      vertex -6.66043 20 8.38918
    endloop
  endfacet
  facet normal -0.992115 0 0.125334
    outer loop
      vertex -5.57854 0 9.87827
      vertex -5.5 10 10.5
      vertex -5.57854 10 9.87827
    endloop
  endfacet
  facet normal -0.992115 0 0.125334
    outer loop
      vertex -5.5 10 10.5
      vertex -5.57854 0 9.87827
      vertex -5.5 0 10.5
    endloop
  endfacet
  facet normal -0.992115 0 0.125334
    outer loop
      vertex -5.57854 20 9.87827
      vertex -5.5 30 10.5
      vertex -5.57854 30 9.87827
    endloop
  endfacet
  facet normal -0.992115 0 0.125334
    outer loop
      vertex -5.5 30 10.5
      vertex -5.57854 20 9.87827
      vertex -5.5 20 10.5
    endloop
  endfacet
  facet normal 0.968583 -0 0.24869
    outer loop
      vertex -10.4803 0 10.1867
      vertex -10.3244 10 9.57969
      vertex -10.4803 10 10.1867
    endloop
  endfacet
  facet normal 0.968583 0 0.24869
    outer loop
      vertex -10.3244 10 9.57969
      vertex -10.4803 0 10.1867
      vertex -10.3244 0 9.57969
    endloop
  endfacet
  facet normal 0.968583 -0 0.24869
    outer loop
      vertex -10.4803 20 10.1867
      vertex -10.3244 30 9.57969
      vertex -10.4803 30 10.1867
    endloop
  endfacet
  facet normal 0.968583 0 0.24869
    outer loop
      vertex -10.3244 30 9.57969
      vertex -10.4803 20 10.1867
      vertex -10.3244 20 9.57969
    endloop
  endfacet
  facet normal 0.535826 0 0.844328
    outer loop
      vertex -9.59356 10 8.57372
      vertex -9.06445 0 8.23793
      vertex -9.06445 10 8.23793
    endloop
  endfacet
  facet normal 0.535826 0 0.844328
    outer loop
      vertex -9.06445 0 8.23793
      vertex -9.59356 10 8.57372
      vertex -9.59356 0 8.57372
    endloop
  endfacet
  facet normal 0.535826 0 0.844328
    outer loop
      vertex -9.59356 30 8.57372
      vertex -9.06445 20 8.23793
      vertex -9.06445 30 8.23793
    endloop
  endfacet
  facet normal 0.535826 0 0.844328
    outer loop
      vertex -9.06445 20 8.23793
      vertex -9.59356 30 8.57372
      vertex -9.59356 20 8.57372
    endloop
  endfacet
  facet normal 0.0627904 0 -0.998027
    outer loop
      vertex -8.46845 0 12.9557
      vertex -7.84302 10 12.9951
      vertex -7.84302 0 12.9951
    endloop
  endfacet
  facet normal 0.0627904 0 -0.998027
    outer loop
      vertex -7.84302 10 12.9951
      vertex -8.46845 0 12.9557
      vertex -8.46845 10 12.9557
    endloop
  endfacet
  facet normal 0.0627904 0 -0.998027
    outer loop
      vertex -8.46845 20 12.9557
      vertex -7.84302 30 12.9951
      vertex -7.84302 20 12.9951
    endloop
  endfacet
  facet normal 0.0627904 0 -0.998027
    outer loop
      vertex -7.84302 30 12.9951
      vertex -8.46845 20 12.9557
      vertex -8.46845 30 12.9557
    endloop
  endfacet
  facet normal 0.876306 -0 0.481754
    outer loop
      vertex -10.3244 0 9.57969
      vertex -10.0225 10 9.03054
      vertex -10.3244 10 9.57969
    endloop
  endfacet
  facet normal 0.876306 0 0.481754
    outer loop
      vertex -10.0225 10 9.03054
      vertex -10.3244 0 9.57969
      vertex -10.0225 0 9.03054
    endloop
  endfacet
  facet normal 0.876306 -0 0.481754
    outer loop
      vertex -10.3244 20 9.57969
      vertex -10.0225 30 9.03054
      vertex -10.3244 30 9.57969
    endloop
  endfacet
  facet normal 0.876306 0 0.481754
    outer loop
      vertex -10.0225 30 9.03054
      vertex -10.3244 20 9.57969
      vertex -10.0225 20 9.03054
    endloop
  endfacet
  facet normal 0.728969 -0 0.684547
    outer loop
      vertex -10.0225 0 9.03054
      vertex -9.59356 10 8.57372
      vertex -10.0225 10 9.03054
    endloop
  endfacet
  facet normal 0.728969 0 0.684547
    outer loop
      vertex -9.59356 10 8.57372
      vertex -10.0225 0 9.03054
      vertex -9.59356 0 8.57372
    endloop
  endfacet
  facet normal 0.728969 -0 0.684547
    outer loop
      vertex -10.0225 20 9.03054
      vertex -9.59356 30 8.57372
      vertex -10.0225 30 9.03054
    endloop
  endfacet
  facet normal 0.728969 0 0.684547
    outer loop
      vertex -9.59356 30 8.57372
      vertex -10.0225 20 9.03054
      vertex -9.59356 20 8.57372
    endloop
  endfacet
  facet normal -0.637423 0 -0.770514
    outer loop
      vertex -6.66043 0 12.6108
      vertex -6.17758 10 12.2114
      vertex -6.17758 0 12.2114
    endloop
  endfacet
  facet normal -0.637423 0 -0.770514
    outer loop
      vertex -6.17758 10 12.2114
      vertex -6.66043 0 12.6108
      vertex -6.66043 10 12.6108
    endloop
  endfacet
  facet normal -0.637423 0 -0.770514
    outer loop
      vertex -6.66043 20 12.6108
      vertex -6.17758 30 12.2114
      vertex -6.17758 20 12.2114
    endloop
  endfacet
  facet normal -0.637423 0 -0.770514
    outer loop
      vertex -6.17758 30 12.2114
      vertex -6.66043 20 12.6108
      vertex -6.66043 30 12.6108
    endloop
  endfacet
  facet normal 0.968583 0 -0.24869
    outer loop
      vertex -10.3244 0 11.4203
      vertex -10.4803 10 10.8133
      vertex -10.3244 10 11.4203
    endloop
  endfacet
  facet normal 0.968583 0 -0.24869
    outer loop
      vertex -10.4803 10 10.8133
      vertex -10.3244 0 11.4203
      vertex -10.4803 0 10.8133
    endloop
  endfacet
  facet normal 0.968583 0 -0.24869
    outer loop
      vertex -10.3244 20 11.4203
      vertex -10.4803 30 10.8133
      vertex -10.3244 30 11.4203
    endloop
  endfacet
  facet normal 0.968583 0 -0.24869
    outer loop
      vertex -10.4803 30 10.8133
      vertex -10.3244 20 11.4203
      vertex -10.4803 20 10.8133
    endloop
  endfacet
  facet normal 0.0627904 0 0.998027
    outer loop
      vertex -8.46845 10 8.04428
      vertex -7.84302 0 8.00493
      vertex -7.84302 10 8.00493
    endloop
  endfacet
  facet normal 0.0627904 0 0.998027
    outer loop
      vertex -7.84302 0 8.00493
      vertex -8.46845 10 8.04428
      vertex -8.46845 0 8.04428
    endloop
  endfacet
  facet normal 0.0627904 0 0.998027
    outer loop
      vertex -8.46845 30 8.04428
      vertex -7.84302 20 8.00493
      vertex -7.84302 30 8.00493
    endloop
  endfacet
  facet normal 0.0627904 0 0.998027
    outer loop
      vertex -7.84302 20 8.00493
      vertex -8.46845 30 8.04428
      vertex -8.46845 20 8.04428
    endloop
  endfacet
  facet normal 1 -0 0
    outer loop
      vertex -10.4803 0 10.8133
      vertex -10.4803 10 10.1867
      vertex -10.4803 10 10.8133
    endloop
  endfacet
  facet normal 1 0 0
    outer loop
      vertex -10.4803 10 10.1867
      vertex -10.4803 0 10.8133
      vertex -10.4803 0 10.1867
    endloop
  endfacet
  facet normal 1 -0 0
    outer loop
      vertex -10.4803 20 10.8133
      vertex -10.4803 30 10.1867
      vertex -10.4803 30 10.8133
    endloop
  endfacet
  facet normal 1 0 0
    outer loop
      vertex -10.4803 30 10.1867
      vertex -10.4803 20 10.8133
      vertex -10.4803 20 10.1867
    endloop
  endfacet
  facet normal 0.309018 0 0.951056
    outer loop
      vertex -9.06445 10 8.23793
      vertex -8.46845 0 8.04428
      vertex -8.46845 10 8.04428
    endloop
  endfacet
  facet normal 0.309018 0 0.951056
    outer loop
      vertex -8.46845 0 8.04428
      vertex -9.06445 10 8.23793
      vertex -9.06445 0 8.23793
    endloop
  endfacet
  facet normal 0.309018 0 0.951056
    outer loop
      vertex -9.06445 30 8.23793
      vertex -8.46845 20 8.04428
      vertex -8.46845 30 8.04428
    endloop
  endfacet
  facet normal 0.309018 0 0.951056
    outer loop
      vertex -8.46845 20 8.04428
      vertex -9.06445 30 8.23793
      vertex -9.06445 20 8.23793
    endloop
  endfacet
  facet normal -0.929777 0 -0.368124
    outer loop
      vertex -5.57854 0 11.1217
      vertex -5.80923 10 11.7044
      vertex -5.57854 10 11.1217
    endloop
  endfacet
  facet normal -0.929777 -0 -0.368124
    outer loop
      vertex -5.80923 10 11.7044
      vertex -5.57854 0 11.1217
      vertex -5.80923 0 11.7044
    endloop
  endfacet
  facet normal -0.929777 0 -0.368124
    outer loop
      vertex -5.57854 20 11.1217
      vertex -5.80923 30 11.7044
      vertex -5.57854 30 11.1217
    endloop
  endfacet
  facet normal -0.929777 -0 -0.368124
    outer loop
      vertex -5.80923 30 11.7044
      vertex -5.57854 20 11.1217
      vertex -5.80923 20 11.7044
    endloop
  endfacet
  facet normal -0.187382 0 0.982287
    outer loop
      vertex -7.84302 10 8.00493
      vertex -7.22746 0 8.12236
      vertex -7.22746 10 8.12236
    endloop
  endfacet
  facet normal -0.187382 0 0.982287
    outer loop
      vertex -7.22746 0 8.12236
      vertex -7.84302 10 8.00493
      vertex -7.84302 0 8.00493
    endloop
  endfacet
  facet normal -0.187382 0 0.982287
    outer loop
      vertex -7.84302 30 8.00493
      vertex -7.22746 20 8.12236
      vertex -7.22746 30 8.12236
    endloop
  endfacet
  facet normal -0.187382 0 0.982287
    outer loop
      vertex -7.22746 20 8.12236
      vertex -7.84302 30 8.00493
      vertex -7.84302 20 8.00493
    endloop
  endfacet
  facet normal -0.809017 0 0.587785
    outer loop
      vertex -6.17758 0 8.78863
      vertex -5.80923 10 9.29562
      vertex -6.17758 10 8.78863
    endloop
  endfacet
  facet normal -0.809017 0 0.587785
    outer loop
      vertex -5.80923 10 9.29562
      vertex -6.17758 0 8.78863
      vertex -5.80923 0 9.29562
    endloop
  endfacet
  facet normal -0.809017 0 0.587785
    outer loop
      vertex -6.17758 20 8.78863
      vertex -5.80923 30 9.29562
      vertex -6.17758 30 8.78863
    endloop
  endfacet
  facet normal -0.809017 0 0.587785
    outer loop
      vertex -5.80923 30 9.29562
      vertex -6.17758 20 8.78863
      vertex -5.80923 20 9.29562
    endloop
  endfacet
  facet normal -0.187382 0 -0.982287
    outer loop
      vertex -7.84302 0 12.9951
      vertex -7.22746 10 12.8776
      vertex -7.22746 0 12.8776
    endloop
  endfacet
  facet normal -0.187382 0 -0.982287
    outer loop
      vertex -7.22746 10 12.8776
      vertex -7.84302 0 12.9951
      vertex -7.84302 10 12.9951
    endloop
  endfacet
  facet normal -0.187382 0 -0.982287
    outer loop
      vertex -7.84302 20 12.9951
      vertex -7.22746 30 12.8776
      vertex -7.22746 20 12.8776
    endloop
  endfacet
  facet normal -0.187382 0 -0.982287
    outer loop
      vertex -7.22746 30 12.8776
      vertex -7.84302 20 12.9951
      vertex -7.84302 30 12.9951
    endloop
  endfacet
  facet normal -0.42578 0 -0.904827
    outer loop
      vertex -7.22746 0 12.8776
      vertex -6.66043 10 12.6108
      vertex -6.66043 0 12.6108
    endloop
  endfacet
  facet normal -0.42578 0 -0.904827
    outer loop
      vertex -6.66043 10 12.6108
      vertex -7.22746 0 12.8776
      vertex -7.22746 10 12.8776
    endloop
  endfacet
  facet normal -0.42578 0 -0.904827
    outer loop
      vertex -7.22746 20 12.8776
      vertex -6.66043 30 12.6108
      vertex -6.66043 20 12.6108
    endloop
  endfacet
  facet normal -0.42578 0 -0.904827
    outer loop
      vertex -6.66043 30 12.6108
      vertex -7.22746 20 12.8776
      vertex -7.22746 30 12.8776
    endloop
  endfacet
  facet normal 0.535826 0 -0.844328
    outer loop
      vertex -9.59356 0 12.4263
      vertex -9.06445 10 12.7621
      vertex -9.06445 0 12.7621
    endloop
  endfacet
  facet normal 0.535826 0 -0.844328
    outer loop
      vertex -9.06445 10 12.7621
      vertex -9.59356 0 12.4263
      vertex -9.59356 10 12.4263
    endloop
  endfacet
  facet normal 0.535826 0 -0.844328
    outer loop
      vertex -9.59356 20 12.4263
      vertex -9.06445 30 12.7621
      vertex -9.06445 20 12.7621
    endloop
  endfacet
  facet normal 0.535826 0 -0.844328
    outer loop
      vertex -9.06445 30 12.7621
      vertex -9.59356 20 12.4263
      vertex -9.59356 30 12.4263
    endloop
  endfacet
  facet normal 0.876306 0 -0.481754
    outer loop
      vertex -10.0225 0 11.9695
      vertex -10.3244 10 11.4203
      vertex -10.0225 10 11.9695
    endloop
  endfacet
  facet normal 0.876306 0 -0.481754
    outer loop
      vertex -10.3244 10 11.4203
      vertex -10.0225 0 11.9695
      vertex -10.3244 0 11.4203
    endloop
  endfacet
  facet normal 0.876306 0 -0.481754
    outer loop
      vertex -10.0225 20 11.9695
      vertex -10.3244 30 11.4203
      vertex -10.0225 30 11.9695
    endloop
  endfacet
  facet normal 0.876306 0 -0.481754
    outer loop
      vertex -10.3244 30 11.4203
      vertex -10.0225 20 11.9695
      vertex -10.3244 20 11.4203
    endloop
  endfacet
  facet normal 0.728969 0 -0.684547
    outer loop
      vertex -9.59356 0 12.4263
      vertex -10.0225 10 11.9695
      vertex -9.59356 10 12.4263
    endloop
  endfacet
  facet normal 0.728969 0 -0.684547
    outer loop
      vertex -10.0225 10 11.9695
      vertex -9.59356 0 12.4263
      vertex -10.0225 0 11.9695
    endloop
  endfacet
  facet normal 0.728969 0 -0.684547
    outer loop
      vertex -9.59356 20 12.4263
      vertex -10.0225 30 11.9695
      vertex -9.59356 30 12.4263
    endloop
  endfacet
  facet normal 0.728969 0 -0.684547
    outer loop
      vertex -10.0225 30 11.9695
      vertex -9.59356 20 12.4263
      vertex -10.0225 20 11.9695
    endloop
  endfacet
  facet normal -0.992115 0 -0.125334
    outer loop
      vertex -5.5 0 10.5
      vertex -5.57854 10 11.1217
      vertex -5.5 10 10.5
    endloop
  endfacet
  facet normal -0.992115 -0 -0.125334
    outer loop
      vertex -5.57854 10 11.1217
      vertex -5.5 0 10.5
      vertex -5.57854 0 11.1217
    endloop
  endfacet
  facet normal -0.992115 0 -0.125334
    outer loop
      vertex -5.5 20 10.5
      vertex -5.57854 30 11.1217
      vertex -5.5 30 10.5
    endloop
  endfacet
  facet normal -0.992115 -0 -0.125334
    outer loop
      vertex -5.57854 30 11.1217
      vertex -5.5 20 10.5
      vertex -5.57854 20 11.1217
    endloop
  endfacet
  facet normal -0.809017 0 -0.587785
    outer loop
      vertex -5.80923 0 11.7044
      vertex -6.17758 10 12.2114
      vertex -5.80923 10 11.7044
    endloop
  endfacet
  facet normal -0.809017 -0 -0.587785
    outer loop
      vertex -6.17758 10 12.2114
      vertex -5.80923 0 11.7044
      vertex -6.17758 0 12.2114
    endloop
  endfacet
  facet normal -0.809017 0 -0.587785
    outer loop
      vertex -5.80923 20 11.7044
      vertex -6.17758 30 12.2114
      vertex -5.80923 30 11.7044
    endloop
  endfacet
  facet normal -0.809017 -0 -0.587785
    outer loop
      vertex -6.17758 30 12.2114
      vertex -5.80923 20 11.7044
      vertex -6.17758 20 12.2114
    endloop
  endfacet
  facet normal 0.309018 0 -0.951056
    outer loop
      vertex -9.06445 0 12.7621
      vertex -8.46845 10 12.9557
      vertex -8.46845 0 12.9557
    endloop
  endfacet
  facet normal 0.309018 0 -0.951056
    outer loop
      vertex -8.46845 10 12.9557
      vertex -9.06445 0 12.7621
      vertex -9.06445 10 12.7621
    endloop
  endfacet
  facet normal 0.309018 0 -0.951056
    outer loop
      vertex -9.06445 20 12.7621
      vertex -8.46845 30 12.9557
      vertex -8.46845 20 12.9557
    endloop
  endfacet
  facet normal 0.309018 0 -0.951056
    outer loop
      vertex -8.46845 30 12.9557
      vertex -9.06445 20 12.7621
      vertex -9.06445 30 12.7621
    endloop
  endfacet
  facet normal -0.929777 0 0.368124
    outer loop
      vertex -5.80923 0 9.29562
      vertex -5.57854 10 9.87827
      vertex -5.80923 10 9.29562
    endloop
  endfacet
  facet normal -0.929777 0 0.368124
    outer loop
      vertex -5.57854 10 9.87827
      vertex -5.80923 0 9.29562
      vertex -5.57854 0 9.87827
    endloop
  endfacet
  facet normal -0.929777 0 0.368124
    outer loop
      vertex -5.80923 20 9.29562
      vertex -5.57854 30 9.87827
      vertex -5.80923 30 9.29562
    endloop
  endfacet
  facet normal -0.929777 0 0.368124
    outer loop
      vertex -5.57854 30 9.87827
      vertex -5.80923 20 9.29562
      vertex -5.57854 20 9.87827
    endloop
  endfacet
  facet normal -0.42578 0 0.904827
    outer loop
      vertex -7.22746 10 8.12236
      vertex -6.66043 0 8.38918
      vertex -6.66043 10 8.38918
    endloop
  endfacet
  facet normal -0.42578 0 0.904827
    outer loop
      vertex -6.66043 0 8.38918
      vertex -7.22746 10 8.12236
      vertex -7.22746 0 8.12236
    endloop
  endfacet
  facet normal -0.42578 0 0.904827
    outer loop
      vertex -7.22746 30 8.12236
      vertex -6.66043 20 8.38918
      vertex -6.66043 30 8.38918
    endloop
  endfacet
  facet normal -0.42578 0 0.904827
    outer loop
      vertex -6.66043 20 8.38918
      vertex -7.22746 30 8.12236
      vertex -7.22746 20 8.12236
    endloop
  endfacet
  facet normal 0 1 0
    outer loop
      vertex -3 10 21
      vertex -7.84302 10 12.9951
      vertex -13 10 21
    endloop
  endfacet
  facet normal 0 1 0
    outer loop
      vertex -3 10 21
      vertex -7.22746 10 12.8776
      vertex -7.84302 10 12.9951
    endloop
  endfacet
  facet normal 0 1 0
    outer loop
      vertex -3 10 21
      vertex -6.66043 10 12.6108
      vertex -7.22746 10 12.8776
    endloop
  endfacet
  facet normal 0 1 0
    outer loop
      vertex -3 10 21
      vertex -6.17758 10 12.2114
      vertex -6.66043 10 12.6108
    endloop
  endfacet
  facet normal 0 1 0
    outer loop
      vertex -3 10 21
      vertex -5.80923 10 11.7044
      vertex -6.17758 10 12.2114
    endloop
  endfacet
  facet normal 0 1 0
    outer loop
      vertex -3 10 21
      vertex -5.57854 10 11.1217
      vertex -5.80923 10 11.7044
    endloop
  endfacet
  facet normal 0 1 0
    outer loop
      vertex -3 10 21
      vertex -5.5 10 10.5
      vertex -5.57854 10 11.1217
    endloop
  endfacet
  facet normal 0 1 -0
    outer loop
      vertex -3 10 0.0100002
      vertex -5.5 10 10.5
      vertex -3 10 21
    endloop
  endfacet
  facet normal 0 1 0
    outer loop
      vertex -7.22746 10 8.12236
      vertex -3 10 0.0100002
      vertex -7.84302 10 8.00493
    endloop
  endfacet
  facet normal 0 1 0
    outer loop
      vertex -6.66043 10 8.38918
      vertex -3 10 0.0100002
      vertex -7.22746 10 8.12236
    endloop
  endfacet
  facet normal 0 1 0
    outer loop
      vertex -6.17758 10 8.78863
      vertex -3 10 0.0100002
      vertex -6.66043 10 8.38918
    endloop
  endfacet
  facet normal 0 1 0
    outer loop
      vertex -5.80923 10 9.29562
      vertex -3 10 0.0100002
      vertex -6.17758 10 8.78863
    endloop
  endfacet
  facet normal 0 1 0
    outer loop
      vertex -5.57854 10 9.87827
      vertex -3 10 0.0100002
      vertex -5.80923 10 9.29562
    endloop
  endfacet
  facet normal 0 1 0
    outer loop
      vertex -5.5 10 10.5
      vertex -3 10 0.0100002
      vertex -5.57854 10 9.87827
    endloop
  endfacet
  facet normal 0 1 -0
    outer loop
      vertex -8.46845 10 12.9557
      vertex -13 10 21
      vertex -7.84302 10 12.9951
    endloop
  endfacet
  facet normal 0 1 -0
    outer loop
      vertex -9.06445 10 12.7621
      vertex -13 10 21
      vertex -8.46845 10 12.9557
    endloop
  endfacet
  facet normal 0 1 -0
    outer loop
      vertex -9.59356 10 12.4263
      vertex -13 10 21
      vertex -9.06445 10 12.7621
    endloop
  endfacet
  facet normal 0 1 -0
    outer loop
      vertex -10.0225 10 11.9695
      vertex -13 10 21
      vertex -9.59356 10 12.4263
    endloop
  endfacet
  facet normal 0 1 -0
    outer loop
      vertex -10.3244 10 11.4203
      vertex -13 10 21
      vertex -10.0225 10 11.9695
    endloop
  endfacet
  facet normal 0 1 -0
    outer loop
      vertex -10.4803 10 10.8133
      vertex -13 10 21
      vertex -10.3244 10 11.4203
    endloop
  endfacet
  facet normal 0 1 -0
    outer loop
      vertex -10.4803 10 10.1867
      vertex -13 10 21
      vertex -10.4803 10 10.8133
    endloop
  endfacet
  facet normal 0 1 0
    outer loop
      vertex -13 10 0
      vertex -7.84302 10 8.00493
      vertex -3 10 0.0100002
    endloop
  endfacet
  facet normal 0 1 0
    outer loop
      vertex -7.84302 10 8.00493
      vertex -13 10 0
      vertex -8.46845 10 8.04428
    endloop
  endfacet
  facet normal 0 1 0
    outer loop
      vertex -8.46845 10 8.04428
      vertex -13 10 0
      vertex -9.06445 10 8.23793
    endloop
  endfacet
  facet normal 0 1 0
    outer loop
      vertex -9.06445 10 8.23793
      vertex -13 10 0
      vertex -9.59356 10 8.57372
    endloop
  endfacet
  facet normal 0 1 0
    outer loop
      vertex -13 10 0
      vertex -3 10 0.0100002
      vertex -3 10 0
    endloop
  endfacet
  facet normal 0 1 0
    outer loop
      vertex -10.4803 10 10.1867
      vertex -13 10 0
      vertex -13 10 21
    endloop
  endfacet
  facet normal 0 1 0
    outer loop
      vertex -10.3244 10 9.57969
      vertex -13 10 0
      vertex -10.4803 10 10.1867
    endloop
  endfacet
  facet normal 0 1 0
    outer loop
      vertex -10.0225 10 9.03054
      vertex -13 10 0
      vertex -10.3244 10 9.57969
    endloop
  endfacet
  facet normal 0 1 0
    outer loop
      vertex -9.59356 10 8.57372
      vertex -13 10 0
      vertex -10.0225 10 9.03054
    endloop
  endfacet
  facet normal 0 -1 0
    outer loop
      vertex -13 20 21
      vertex -7.84302 20 12.9951
      vertex -3 20 21
    endloop
  endfacet
  facet normal 0 -1 0
    outer loop
      vertex -13 20 21
      vertex -8.46845 20 12.9557
      vertex -7.84302 20 12.9951
    endloop
  endfacet
  facet normal 0 -1 0
    outer loop
      vertex -13 20 21
      vertex -9.06445 20 12.7621
      vertex -8.46845 20 12.9557
    endloop
  endfacet
  facet normal 0 -1 0
    outer loop
      vertex -13 20 21
      vertex -9.59356 20 12.4263
      vertex -9.06445 20 12.7621
    endloop
  endfacet
  facet normal 0 -1 0
    outer loop
      vertex -13 20 21
      vertex -10.0225 20 11.9695
      vertex -9.59356 20 12.4263
    endloop
  endfacet
  facet normal 0 -1 0
    outer loop
      vertex -13 20 21
      vertex -10.3244 20 11.4203
      vertex -10.0225 20 11.9695
    endloop
  endfacet
  facet normal 0 -1 0
    outer loop
      vertex -13 20 21
      vertex -10.4803 20 10.8133
      vertex -10.3244 20 11.4203
    endloop
  endfacet
  facet normal 0 -1 0
    outer loop
      vertex -13 20 21
      vertex -10.4803 20 10.1867
      vertex -10.4803 20 10.8133
    endloop
  endfacet
  facet normal 0 -1 0
    outer loop
      vertex -13 20 0
      vertex -7.84302 20 8.00493
      vertex -8.46845 20 8.04428
    endloop
  endfacet
  facet normal 0 -1 0
    outer loop
      vertex -13 20 0
      vertex -8.46845 20 8.04428
      vertex -9.06445 20 8.23793
    endloop
  endfacet
  facet normal 0 -1 0
    outer loop
      vertex -13 20 0
      vertex -9.06445 20 8.23793
      vertex -9.59356 20 8.57372
    endloop
  endfacet
  facet normal 0 -1 0
    outer loop
      vertex -13 20 0
      vertex -9.59356 20 8.57372
      vertex -10.0225 20 9.03054
    endloop
  endfacet
  facet normal 0 -1 0
    outer loop
      vertex -13 20 0
      vertex -10.4803 20 10.1867
      vertex -13 20 21
    endloop
  endfacet
  facet normal 0 -1 0
    outer loop
      vertex -13 20 0
      vertex -10.3244 20 9.57969
      vertex -10.4803 20 10.1867
    endloop
  endfacet
  facet normal 0 -1 0
    outer loop
      vertex -13 20 0
      vertex -10.0225 20 9.03054
      vertex -10.3244 20 9.57969
    endloop
  endfacet
  facet normal 0 -1 -0
    outer loop
      vertex -7.84302 20 8.00493
      vertex -13 20 0
      vertex -3 20 0.0100002
    endloop
  endfacet
  facet normal 0 -1 -0
    outer loop
      vertex -3 20 0.0100002
      vertex -13 20 0
      vertex -3 20 0
    endloop
  endfacet
  facet normal 0 -1 0
    outer loop
      vertex -7.22746 20 12.8776
      vertex -3 20 21
      vertex -7.84302 20 12.9951
    endloop
  endfacet
  facet normal 0 -1 0
    outer loop
      vertex -6.66043 20 12.6108
      vertex -3 20 21
      vertex -7.22746 20 12.8776
    endloop
  endfacet
  facet normal 0 -1 0
    outer loop
      vertex -6.17758 20 12.2114
      vertex -3 20 21
      vertex -6.66043 20 12.6108
    endloop
  endfacet
  facet normal 0 -1 0
    outer loop
      vertex -5.80923 20 11.7044
      vertex -3 20 21
      vertex -6.17758 20 12.2114
    endloop
  endfacet
  facet normal 0 -1 0
    outer loop
      vertex -5.57854 20 11.1217
      vertex -3 20 21
      vertex -5.80923 20 11.7044
    endloop
  endfacet
  facet normal 0 -1 0
    outer loop
      vertex -5.5 20 10.5
      vertex -3 20 21
      vertex -5.57854 20 11.1217
    endloop
  endfacet
  facet normal 0 -1 0
    outer loop
      vertex -3 20 0.0100002
      vertex -5.5 20 10.5
      vertex -5.57854 20 9.87827
    endloop
  endfacet
  facet normal 0 -1 0
    outer loop
      vertex -5.5 20 10.5
      vertex -3 20 0.0100002
      vertex -3 20 21
    endloop
  endfacet
  facet normal 0 -1 0
    outer loop
      vertex -5.80923 20 9.29562
      vertex -3 20 0.0100002
      vertex -5.57854 20 9.87827
    endloop
  endfacet
  facet normal 0 -1 0
    outer loop
      vertex -6.17758 20 8.78863
      vertex -3 20 0.0100002
      vertex -5.80923 20 9.29562
    endloop
  endfacet
  facet normal 0 -1 0
    outer loop
      vertex -6.66043 20 8.38918
      vertex -3 20 0.0100002
      vertex -6.17758 20 8.78863
    endloop
  endfacet
  facet normal 0 -1 0
    outer loop
      vertex -7.22746 20 8.12236
      vertex -3 20 0.0100002
      vertex -6.66043 20 8.38918
    endloop
  endfacet
  facet normal 0 -1 0
    outer loop
      vertex -3 20 0.0100002
      vertex -7.22746 20 8.12236
      vertex -7.84302 20 8.00493
    endloop
  endfacet
  facet normal -1 0 0
    outer loop
      vertex -100 45 0
      vertex -100 35 10
      vertex -100 45 30
    endloop
  endfacet
  facet normal -1 0 0
    outer loop
      vertex -100 0 0
      vertex -100 35 10
      vertex -100 45 0
    endloop
  endfacet
  facet normal -1 -0 0
    outer loop
      vertex -100 35 10
      vertex -100 0 0
      vertex -100 0 10
    endloop
  endfacet
  facet normal -1 -0 0
    outer loop
      vertex -100 45 30
      vertex -100 35 10
      vertex -100 35 30
    endloop
  endfacet
  facet normal -0 0 1
    outer loop
      vertex -84.8806 12.4134 10
      vertex -79 0 10
      vertex -79 35 10
    endloop
  endfacet
  facet normal 0 0 1
    outer loop
      vertex -79 0 10
      vertex -84.8806 12.4134 10
      vertex -84.5 10.5 10
    endloop
  endfacet
  facet normal 0 0 1
    outer loop
      vertex -79 35 10
      vertex -85.9645 14.0355 10
      vertex -84.8806 12.4134 10
    endloop
  endfacet
  facet normal 0 0 1
    outer loop
      vertex -79 35 10
      vertex -87.5866 15.1194 10
      vertex -85.9645 14.0355 10
    endloop
  endfacet
  facet normal 0 0 1
    outer loop
      vertex -79 35 10
      vertex -89.5 15.5 10
      vertex -87.5866 15.1194 10
    endloop
  endfacet
  facet normal -0 0 1
    outer loop
      vertex -100 35 10
      vertex -89.5 15.5 10
      vertex -79 35 10
    endloop
  endfacet
  facet normal 0 0 1
    outer loop
      vertex -89.5 15.5 10
      vertex -100 35 10
      vertex -91.4134 15.1194 10
    endloop
  endfacet
  facet normal 0 0 1
    outer loop
      vertex -100 0 10
      vertex -94.1194 12.4134 10
      vertex -100 35 10
    endloop
  endfacet
  facet normal 0 0 1
    outer loop
      vertex -93.0355 14.0355 10
      vertex -100 35 10
      vertex -94.1194 12.4134 10
    endloop
  endfacet
  facet normal 0 0 1
    outer loop
      vertex -91.4134 15.1194 10
      vertex -100 35 10
      vertex -93.0355 14.0355 10
    endloop
  endfacet
  facet normal -0 0 1
    outer loop
      vertex -84.8806 8.58658 10
      vertex -79 0 10
      vertex -84.5 10.5 10
    endloop
  endfacet
  facet normal -0 0 1
    outer loop
      vertex -85.9645 6.96447 10
      vertex -79 0 10
      vertex -84.8806 8.58658 10
    endloop
  endfacet
  facet normal -0 0 1
    outer loop
      vertex -87.5866 5.8806 10
      vertex -79 0 10
      vertex -85.9645 6.96447 10
    endloop
  endfacet
  facet normal -0 0 1
    outer loop
      vertex -89.5 5.5 10
      vertex -79 0 10
      vertex -87.5866 5.8806 10
    endloop
  endfacet
  facet normal 0 0 1
    outer loop
      vertex -100 0 10
      vertex -89.5 5.5 10
      vertex -91.4134 5.8806 10
    endloop
  endfacet
  facet normal 0 0 1
    outer loop
      vertex -94.1194 12.4134 10
      vertex -100 0 10
      vertex -94.5 10.5 10
    endloop
  endfacet
  facet normal 0 0 1
    outer loop
      vertex -89.5 5.5 10
      vertex -100 0 10
      vertex -79 0 10
    endloop
  endfacet
  facet normal 0 0 1
    outer loop
      vertex -93.0355 6.96447 10
      vertex -100 0 10
      vertex -91.4134 5.8806 10
    endloop
  endfacet
  facet normal 0 0 1
    outer loop
      vertex -94.1194 8.58658 10
      vertex -100 0 10
      vertex -93.0355 6.96447 10
    endloop
  endfacet
  facet normal 0 0 1
    outer loop
      vertex -94.5 10.5 10
      vertex -100 0 10
      vertex -94.1194 8.58658 10
    endloop
  endfacet
  facet normal 1 0 0
    outer loop
      vertex -79 35 10
      vertex -79 45 30
      vertex -79 35 30
    endloop
  endfacet
  facet normal 1 0 0
    outer loop
      vertex -79 45 30
      vertex -79 35 10
      vertex -79 45 0
    endloop
  endfacet
  facet normal 1 0 0
    outer loop
      vertex -79 0 0
      vertex -79 35 10
      vertex -79 0 10
    endloop
  endfacet
  facet normal 1 0 0
    outer loop
      vertex -79 35 10
      vertex -79 0 0
      vertex -79 45 0
    endloop
  endfacet
  facet normal 0 -1 0
    outer loop
      vertex -92.7447 35 39.9861
      vertex -88.4025 35 40.4425
      vertex -90.5975 35 40.4425
    endloop
  endfacet
  facet normal 0 -1 0
    outer loop
      vertex -92.7447 35 39.9861
      vertex -86.2553 35 39.9861
      vertex -88.4025 35 40.4425
    endloop
  endfacet
  facet normal 0 -1 0
    outer loop
      vertex -94.75 35 39.0933
      vertex -86.2553 35 39.9861
      vertex -92.7447 35 39.9861
    endloop
  endfacet
  facet normal 0 -1 0
    outer loop
      vertex -94.75 35 39.0933
      vertex -84.25 35 39.0933
      vertex -86.2553 35 39.9861
    endloop
  endfacet
  facet normal 0 -1 0
    outer loop
      vertex -96.5259 35 37.803
      vertex -84.25 35 39.0933
      vertex -94.75 35 39.0933
    endloop
  endfacet
  facet normal 0 -1 0
    outer loop
      vertex -96.5259 35 37.803
      vertex -82.4741 35 37.803
      vertex -84.25 35 39.0933
    endloop
  endfacet
  facet normal 0 -1 0
    outer loop
      vertex -97.9947 35 36.1717
      vertex -82.4741 35 37.803
      vertex -96.5259 35 37.803
    endloop
  endfacet
  facet normal 0 -1 0
    outer loop
      vertex -97.9947 35 36.1717
      vertex -81.0053 35 36.1717
      vertex -82.4741 35 37.803
    endloop
  endfacet
  facet normal 0 -1 0
    outer loop
      vertex -99.0922 35 34.2707
      vertex -81.0053 35 36.1717
      vertex -97.9947 35 36.1717
    endloop
  endfacet
  facet normal 0 -1 0
    outer loop
      vertex -99.0922 35 34.2707
      vertex -79.9078 35 34.2707
      vertex -81.0053 35 36.1717
    endloop
  endfacet
  facet normal 0 -1 0
    outer loop
      vertex -99.7706 35 32.1831
      vertex -79.9078 35 34.2707
      vertex -99.0922 35 34.2707
    endloop
  endfacet
  facet normal 0 -1 0
    outer loop
      vertex -99.7706 35 32.1831
      vertex -79.2294 35 32.1831
      vertex -79.9078 35 34.2707
    endloop
  endfacet
  facet normal 0 -1 0
    outer loop
      vertex -100 35 30
      vertex -79.2294 35 32.1831
      vertex -99.7706 35 32.1831
    endloop
  endfacet
  facet normal 0 -1 0
    outer loop
      vertex -100 35 30
      vertex -79 35 30
      vertex -79.2294 35 32.1831
    endloop
  endfacet
  facet normal 0 -1 0
    outer loop
      vertex -100 35 10
      vertex -79 35 30
      vertex -100 35 30
    endloop
  endfacet
  facet normal 0 -1 -0
    outer loop
      vertex -79 35 30
      vertex -100 35 10
      vertex -79 35 10
    endloop
  endfacet
  facet normal 0 0 -1
    outer loop
      vertex -84.8806 12.4134 0
      vertex -79 0 0
      vertex -84.5 10.5 0
    endloop
  endfacet
  facet normal 0 0 -1
    outer loop
      vertex -79 0 0
      vertex -84.8806 8.58658 0
      vertex -84.5 10.5 0
    endloop
  endfacet
  facet normal 0 0 -1
    outer loop
      vertex -79 0 0
      vertex -85.9645 6.96447 0
      vertex -84.8806 8.58658 0
    endloop
  endfacet
  facet normal 0 0 -1
    outer loop
      vertex -79 0 0
      vertex -87.5866 5.8806 0
      vertex -85.9645 6.96447 0
    endloop
  endfacet
  facet normal 0 0 -1
    outer loop
      vertex -79 0 0
      vertex -89.5 5.5 0
      vertex -87.5866 5.8806 0
    endloop
  endfacet
  facet normal 0 0 -1
    outer loop
      vertex -100 0 0
      vertex -89.5 5.5 0
      vertex -79 0 0
    endloop
  endfacet
  facet normal -0 0 -1
    outer loop
      vertex -94.1194 8.58658 0
      vertex -100 0 0
      vertex -94.5 10.5 0
    endloop
  endfacet
  facet normal -0 0 -1
    outer loop
      vertex -93.0355 6.96447 0
      vertex -100 0 0
      vertex -94.1194 8.58658 0
    endloop
  endfacet
  facet normal -0 0 -1
    outer loop
      vertex -91.4134 5.8806 0
      vertex -100 0 0
      vertex -93.0355 6.96447 0
    endloop
  endfacet
  facet normal -0 0 -1
    outer loop
      vertex -89.5 5.5 0
      vertex -100 0 0
      vertex -91.4134 5.8806 0
    endloop
  endfacet
  facet normal 0 0 -1
    outer loop
      vertex -79 0 0
      vertex -84.8806 12.4134 0
      vertex -79 45 0
    endloop
  endfacet
  facet normal 0 0 -1
    outer loop
      vertex -85.9645 14.0355 0
      vertex -79 45 0
      vertex -84.8806 12.4134 0
    endloop
  endfacet
  facet normal 0 0 -1
    outer loop
      vertex -87.5866 15.1194 0
      vertex -79 45 0
      vertex -85.9645 14.0355 0
    endloop
  endfacet
  facet normal 0 0 -1
    outer loop
      vertex -89.5 15.5 0
      vertex -79 45 0
      vertex -87.5866 15.1194 0
    endloop
  endfacet
  facet normal 0 0 -1
    outer loop
      vertex -100 45 0
      vertex -89.5 15.5 0
      vertex -91.4134 15.1194 0
    endloop
  endfacet
  facet normal 0 0 -1
    outer loop
      vertex -100 45 0
      vertex -91.4134 15.1194 0
      vertex -93.0355 14.0355 0
    endloop
  endfacet
  facet normal 0 0 -1
    outer loop
      vertex -100 45 0
      vertex -93.0355 14.0355 0
      vertex -94.1194 12.4134 0
    endloop
  endfacet
  facet normal 0 0 -1
    outer loop
      vertex -100 0 0
      vertex -94.1194 12.4134 0
      vertex -94.5 10.5 0
    endloop
  endfacet
  facet normal 0 0 -1
    outer loop
      vertex -100 45 0
      vertex -94.1194 12.4134 0
      vertex -100 0 0
    endloop
  endfacet
  facet normal 0 0 -1
    outer loop
      vertex -89.5 15.5 0
      vertex -100 45 0
      vertex -79 45 0
    endloop
  endfacet
  facet normal 0 -1 0
    outer loop
      vertex -100 0 0
      vertex -79 0 10
      vertex -100 0 10
    endloop
  endfacet
  facet normal 0 -1 -0
    outer loop
      vertex -79 0 10
      vertex -100 0 0
      vertex -79 0 0
    endloop
  endfacet
  facet normal -0.980786 -0.195089 0
    outer loop
      vertex -84.5 10.5 0
      vertex -84.8806 12.4134 10
      vertex -84.8806 12.4134 0
    endloop
  endfacet
  facet normal -0.980786 -0.195089 0
    outer loop
      vertex -84.8806 12.4134 10
      vertex -84.5 10.5 0
      vertex -84.5 10.5 10
    endloop
  endfacet
  facet normal -0.195091 -0.980785 0
    outer loop
      vertex -89.5 15.5 0
      vertex -87.5866 15.1194 10
      vertex -89.5 15.5 10
    endloop
  endfacet
  facet normal -0.195091 -0.980785 -0
    outer loop
      vertex -87.5866 15.1194 10
      vertex -89.5 15.5 0
      vertex -87.5866 15.1194 0
    endloop
  endfacet
  facet normal 0.980786 0.195089 0
    outer loop
      vertex -94.1194 8.58658 10
      vertex -94.5 10.5 0
      vertex -94.5 10.5 10
    endloop
  endfacet
  facet normal 0.980786 0.195089 0
    outer loop
      vertex -94.5 10.5 0
      vertex -94.1194 8.58658 10
      vertex -94.1194 8.58658 0
    endloop
  endfacet
  facet normal -0.83147 0.55557 0
    outer loop
      vertex -85.9645 6.96447 0
      vertex -84.8806 8.58658 10
      vertex -84.8806 8.58658 0
    endloop
  endfacet
  facet normal -0.83147 0.55557 0
    outer loop
      vertex -84.8806 8.58658 10
      vertex -85.9645 6.96447 0
      vertex -85.9645 6.96447 10
    endloop
  endfacet
  facet normal -0.555568 0.831471 0
    outer loop
      vertex -85.9645 6.96447 0
      vertex -87.5866 5.8806 10
      vertex -85.9645 6.96447 10
    endloop
  endfacet
  facet normal -0.555568 0.831471 0
    outer loop
      vertex -87.5866 5.8806 10
      vertex -85.9645 6.96447 0
      vertex -87.5866 5.8806 0
    endloop
  endfacet
  facet normal -0.19509 0.980785 0
    outer loop
      vertex -87.5866 5.8806 0
      vertex -89.5 5.5 10
      vertex -87.5866 5.8806 10
    endloop
  endfacet
  facet normal -0.19509 0.980785 0
    outer loop
      vertex -89.5 5.5 10
      vertex -87.5866 5.8806 0
      vertex -89.5 5.5 0
    endloop
  endfacet
  facet normal -0.555568 -0.831471 0
    outer loop
      vertex -87.5866 15.1194 0
      vertex -85.9645 14.0355 10
      vertex -87.5866 15.1194 10
    endloop
  endfacet
  facet normal -0.555568 -0.831471 -0
    outer loop
      vertex -85.9645 14.0355 10
      vertex -87.5866 15.1194 0
      vertex -85.9645 14.0355 0
    endloop
  endfacet
  facet normal -0.83147 -0.55557 0
    outer loop
      vertex -84.8806 12.4134 0
      vertex -85.9645 14.0355 10
      vertex -85.9645 14.0355 0
    endloop
  endfacet
  facet normal -0.83147 -0.55557 0
    outer loop
      vertex -85.9645 14.0355 10
      vertex -84.8806 12.4134 0
      vertex -84.8806 12.4134 10
    endloop
  endfacet
  facet normal 0.19509 -0.980785 0
    outer loop
      vertex -91.4134 15.1194 0
      vertex -89.5 15.5 10
      vertex -91.4134 15.1194 10
    endloop
  endfacet
  facet normal 0.19509 -0.980785 0
    outer loop
      vertex -89.5 15.5 10
      vertex -91.4134 15.1194 0
      vertex -89.5 15.5 0
    endloop
  endfacet
  facet normal 0.55557 -0.83147 0
    outer loop
      vertex -93.0355 14.0355 0
      vertex -91.4134 15.1194 10
      vertex -93.0355 14.0355 10
    endloop
  endfacet
  facet normal 0.55557 -0.83147 0
    outer loop
      vertex -91.4134 15.1194 10
      vertex -93.0355 14.0355 0
      vertex -91.4134 15.1194 0
    endloop
  endfacet
  facet normal 0.980786 -0.195089 0
    outer loop
      vertex -94.5 10.5 10
      vertex -94.1194 12.4134 0
      vertex -94.1194 12.4134 10
    endloop
  endfacet
  facet normal 0.980786 -0.195089 0
    outer loop
      vertex -94.1194 12.4134 0
      vertex -94.5 10.5 10
      vertex -94.5 10.5 0
    endloop
  endfacet
  facet normal 0.83147 -0.55557 0
    outer loop
      vertex -94.1194 12.4134 10
      vertex -93.0355 14.0355 0
      vertex -93.0355 14.0355 10
    endloop
  endfacet
  facet normal 0.83147 -0.55557 0
    outer loop
      vertex -93.0355 14.0355 0
      vertex -94.1194 12.4134 10
      vertex -94.1194 12.4134 0
    endloop
  endfacet
  facet normal 0.83147 0.55557 0
    outer loop
      vertex -93.0355 6.96447 10
      vertex -94.1194 8.58658 0
      vertex -94.1194 8.58658 10
    endloop
  endfacet
  facet normal 0.83147 0.55557 0
    outer loop
      vertex -94.1194 8.58658 0
      vertex -93.0355 6.96447 10
      vertex -93.0355 6.96447 0
    endloop
  endfacet
  facet normal 0.19509 0.980785 -0
    outer loop
      vertex -89.5 5.5 0
      vertex -91.4134 5.8806 10
      vertex -89.5 5.5 10
    endloop
  endfacet
  facet normal 0.19509 0.980785 0
    outer loop
      vertex -91.4134 5.8806 10
      vertex -89.5 5.5 0
      vertex -91.4134 5.8806 0
    endloop
  endfacet
  facet normal 0.55557 0.83147 -0
    outer loop
      vertex -91.4134 5.8806 0
      vertex -93.0355 6.96447 10
      vertex -91.4134 5.8806 10
    endloop
  endfacet
  facet normal 0.55557 0.83147 0
    outer loop
      vertex -93.0355 6.96447 10
      vertex -91.4134 5.8806 0
      vertex -93.0355 6.96447 0
    endloop
  endfacet
  facet normal -0.980786 0.195089 0
    outer loop
      vertex -84.8806 8.58658 0
      vertex -84.5 10.5 10
      vertex -84.5 10.5 0
    endloop
  endfacet
  facet normal -0.980786 0.195089 0
    outer loop
      vertex -84.5 10.5 10
      vertex -84.8806 8.58658 0
      vertex -84.8806 8.58658 10
    endloop
  endfacet
  facet normal 0 1 0
    outer loop
      vertex -86.2553 45 39.9861
      vertex -90.5975 45 40.4425
      vertex -88.4025 45 40.4425
    endloop
  endfacet
  facet normal 0 1 0
    outer loop
      vertex -86.2553 45 39.9861
      vertex -92.7447 45 39.9861
      vertex -90.5975 45 40.4425
    endloop
  endfacet
  facet normal 0 1 0
    outer loop
      vertex -84.25 45 39.0933
      vertex -92.7447 45 39.9861
      vertex -86.2553 45 39.9861
    endloop
  endfacet
  facet normal 0 1 0
    outer loop
      vertex -84.25 45 39.0933
      vertex -94.75 45 39.0933
      vertex -92.7447 45 39.9861
    endloop
  endfacet
  facet normal 0 1 0
    outer loop
      vertex -82.4741 45 37.803
      vertex -94.75 45 39.0933
      vertex -84.25 45 39.0933
    endloop
  endfacet
  facet normal 0 1 0
    outer loop
      vertex -82.4741 45 37.803
      vertex -96.5259 45 37.803
      vertex -94.75 45 39.0933
    endloop
  endfacet
  facet normal 0 1 0
    outer loop
      vertex -81.0053 45 36.1717
      vertex -96.5259 45 37.803
      vertex -82.4741 45 37.803
    endloop
  endfacet
  facet normal 0 1 0
    outer loop
      vertex -81.0053 45 36.1717
      vertex -97.9947 45 36.1717
      vertex -96.5259 45 37.803
    endloop
  endfacet
  facet normal 0 1 0
    outer loop
      vertex -79.9078 45 34.2707
      vertex -97.9947 45 36.1717
      vertex -81.0053 45 36.1717
    endloop
  endfacet
  facet normal 0 1 0
    outer loop
      vertex -79.9078 45 34.2707
      vertex -99.0922 45 34.2707
      vertex -97.9947 45 36.1717
    endloop
  endfacet
  facet normal 0 1 0
    outer loop
      vertex -79.2294 45 32.1831
      vertex -99.0922 45 34.2707
      vertex -79.9078 45 34.2707
    endloop
  endfacet
  facet normal 0 1 0
    outer loop
      vertex -79.2294 45 32.1831
      vertex -99.7706 45 32.1831
      vertex -99.0922 45 34.2707
    endloop
  endfacet
  facet normal 0 1 0
    outer loop
      vertex -79 45 30
      vertex -99.7706 45 32.1831
      vertex -79.2294 45 32.1831
    endloop
  endfacet
  facet normal 0 1 0
    outer loop
      vertex -79 45 30
      vertex -100 45 30
      vertex -99.7706 45 32.1831
    endloop
  endfacet
  facet normal 0 1 -0
    outer loop
      vertex -79 45 0
      vertex -100 45 30
      vertex -79 45 30
    endloop
  endfacet
  facet normal 0 1 0
    outer loop
      vertex -100 45 30
      vertex -79 45 0
      vertex -100 45 0
    endloop
  endfacet
  facet normal 0.994522 -0 0.104527
    outer loop
      vertex -79.2294 35 32.1831
      vertex -79 45 30
      vertex -79.2294 45 32.1831
    endloop
  endfacet
  facet normal 0.994522 0 0.104527
    outer loop
      vertex -79 45 30
      vertex -79.2294 35 32.1831
      vertex -79 35 30
    endloop
  endfacet
  facet normal 0.951056 -0 0.30902
    outer loop
      vertex -79.9078 35 34.2707
      vertex -79.2294 45 32.1831
      vertex -79.9078 45 34.2707
    endloop
  endfacet
  facet normal 0.951056 0 0.30902
    outer loop
      vertex -79.2294 45 32.1831
      vertex -79.9078 35 34.2707
      vertex -79.2294 35 32.1831
    endloop
  endfacet
  facet normal -0 0 1
    outer loop
      vertex -90.5975 45 40.4425
      vertex -88.4025 35 40.4425
      vertex -88.4025 45 40.4425
    endloop
  endfacet
  facet normal 0 0 1
    outer loop
      vertex -88.4025 35 40.4425
      vertex -90.5975 45 40.4425
      vertex -90.5975 35 40.4425
    endloop
  endfacet
  facet normal 0.587785 0 0.809017
    outer loop
      vertex -84.25 45 39.0933
      vertex -82.4741 35 37.803
      vertex -82.4741 45 37.803
    endloop
  endfacet
  facet normal 0.587785 0 0.809017
    outer loop
      vertex -82.4741 35 37.803
      vertex -84.25 45 39.0933
      vertex -84.25 35 39.0933
    endloop
  endfacet
  facet normal -0.743146 0 0.66913
    outer loop
      vertex -97.9947 35 36.1717
      vertex -96.5259 45 37.803
      vertex -97.9947 45 36.1717
    endloop
  endfacet
  facet normal -0.743146 0 0.66913
    outer loop
      vertex -96.5259 45 37.803
      vertex -97.9947 35 36.1717
      vertex -96.5259 35 37.803
    endloop
  endfacet
  facet normal -0.406736 0 0.913546
    outer loop
      vertex -94.75 45 39.0933
      vertex -92.7447 35 39.9861
      vertex -92.7447 45 39.9861
    endloop
  endfacet
  facet normal -0.406736 0 0.913546
    outer loop
      vertex -92.7447 35 39.9861
      vertex -94.75 45 39.0933
      vertex -94.75 35 39.0933
    endloop
  endfacet
  facet normal 0.866026 -0 0.5
    outer loop
      vertex -81.0053 35 36.1717
      vertex -79.9078 45 34.2707
      vertex -81.0053 45 36.1717
    endloop
  endfacet
  facet normal 0.866026 0 0.5
    outer loop
      vertex -79.9078 45 34.2707
      vertex -81.0053 35 36.1717
      vertex -79.9078 35 34.2707
    endloop
  endfacet
  facet normal 0.207912 0 0.978148
    outer loop
      vertex -88.4025 45 40.4425
      vertex -86.2553 35 39.9861
      vertex -86.2553 45 39.9861
    endloop
  endfacet
  facet normal 0.207912 0 0.978148
    outer loop
      vertex -86.2553 35 39.9861
      vertex -88.4025 45 40.4425
      vertex -88.4025 35 40.4425
    endloop
  endfacet
  facet normal 0.406736 0 0.913546
    outer loop
      vertex -86.2553 45 39.9861
      vertex -84.25 35 39.0933
      vertex -84.25 45 39.0933
    endloop
  endfacet
  facet normal 0.406736 0 0.913546
    outer loop
      vertex -84.25 35 39.0933
      vertex -86.2553 45 39.9861
      vertex -86.2553 35 39.9861
    endloop
  endfacet
  facet normal -0.951056 0 0.30902
    outer loop
      vertex -99.7706 35 32.1831
      vertex -99.0922 45 34.2707
      vertex -99.7706 45 32.1831
    endloop
  endfacet
  facet normal -0.951056 0 0.30902
    outer loop
      vertex -99.0922 45 34.2707
      vertex -99.7706 35 32.1831
      vertex -99.0922 35 34.2707
    endloop
  endfacet
  facet normal -0.866026 0 0.5
    outer loop
      vertex -99.0922 35 34.2707
      vertex -97.9947 45 36.1717
      vertex -99.0922 45 34.2707
    endloop
  endfacet
  facet normal -0.866026 0 0.5
    outer loop
      vertex -97.9947 45 36.1717
      vertex -99.0922 35 34.2707
      vertex -97.9947 35 36.1717
    endloop
  endfacet
  facet normal -0.207912 0 0.978148
    outer loop
      vertex -92.7447 45 39.9861
      vertex -90.5975 35 40.4425
      vertex -90.5975 45 40.4425
    endloop
  endfacet
  facet normal -0.207912 0 0.978148
    outer loop
      vertex -90.5975 35 40.4425
      vertex -92.7447 45 39.9861
      vertex -92.7447 35 39.9861
    endloop
  endfacet
  facet normal 0.743146 -0 0.66913
    outer loop
      vertex -82.4741 35 37.803
      vertex -81.0053 45 36.1717
      vertex -82.4741 45 37.803
    endloop
  endfacet
  facet normal 0.743146 0 0.66913
    outer loop
      vertex -81.0053 45 36.1717
      vertex -82.4741 35 37.803
      vertex -81.0053 35 36.1717
    endloop
  endfacet
  facet normal -0.994522 0 0.104527
    outer loop
      vertex -100 35 30
      vertex -99.7706 45 32.1831
      vertex -100 45 30
    endloop
  endfacet
  facet normal -0.994522 0 0.104527
    outer loop
      vertex -99.7706 45 32.1831
      vertex -100 35 30
      vertex -99.7706 35 32.1831
    endloop
  endfacet
  facet normal -0.587785 0 0.809017
    outer loop
      vertex -96.5259 45 37.803
      vertex -94.75 35 39.0933
      vertex -94.75 45 39.0933
    endloop
  endfacet
  facet normal -0.587785 0 0.809017
    outer loop
      vertex -94.75 35 39.0933
      vertex -96.5259 45 37.803
      vertex -96.5259 35 37.803
    endloop
  endfacet
endsolid OpenSCAD_Model
