solid OpenSCAD_Model
  facet normal -1 0 0
    outer loop
      vertex 0 9.71343 -9.72207
      vertex 0 15 -17.999
      vertex 0 10.0419 -10.7328
    endloop
  endfacet
  facet normal -1 0 0
    outer loop
      vertex 0 15 -17.999
      vertex 0 9.93076 -11.7898
      vertex 0 10.0419 -10.7328
    endloop
  endfacet
  facet normal -1 0 0
    outer loop
      vertex 0 15 -17.999
      vertex 0 9.39937 -12.7102
      vertex 0 9.93076 -11.7898
    endloop
  endfacet
  facet normal -1 0 0
    outer loop
      vertex 0 15 -17.999
      vertex 0 8.53956 -13.3349
      vertex 0 9.39937 -12.7102
    endloop
  endfacet
  facet normal -1 0 0
    outer loop
      vertex 0 15 -17.999
      vertex 0 7.5 -13.5559
      vertex 0 8.53956 -13.3349
    endloop
  endfacet
  facet normal -1 0 0
    outer loop
      vertex 0 0 -17.999
      vertex 0 7.5 -13.5559
      vertex 0 15 -17.999
    endloop
  endfacet
  facet normal -1 -0 0
    outer loop
      vertex 0 5.06924 -11.7898
      vertex 0 0 -17.999
      vertex 0 4.95815 -10.7328
    endloop
  endfacet
  facet normal -1 -0 0
    outer loop
      vertex 0 5.60063 -12.7102
      vertex 0 0 -17.999
      vertex 0 5.06924 -11.7898
    endloop
  endfacet
  facet normal -1 -0 0
    outer loop
      vertex 0 6.46044 -13.3349
      vertex 0 0 -17.999
      vertex 0 5.60063 -12.7102
    endloop
  endfacet
  facet normal -1 -0 0
    outer loop
      vertex 0 7.5 -13.5559
      vertex 0 0 -17.999
      vertex 0 6.46044 -13.3349
    endloop
  endfacet
  facet normal -1 0 0
    outer loop
      vertex 0 15 -17.999
      vertex 0 9.71343 -9.72207
      vertex 0 15 23.6
    endloop
  endfacet
  facet normal -1 0 0
    outer loop
      vertex 0 9.00229 -8.93227
      vertex 0 15 23.6
      vertex 0 9.71343 -9.72207
    endloop
  endfacet
  facet normal -1 0 0
    outer loop
      vertex 0 8.03139 -8.5
      vertex 0 15 23.6
      vertex 0 9.00229 -8.93227
    endloop
  endfacet
  facet normal -1 0 0
    outer loop
      vertex 0 6.96861 -8.5
      vertex 0 15 23.6
      vertex 0 8.03139 -8.5
    endloop
  endfacet
  facet normal -1 0 0
    outer loop
      vertex 0 0 23.6
      vertex 0 6.96861 -8.5
      vertex 0 5.99771 -8.93227
    endloop
  endfacet
  facet normal -1 0 0
    outer loop
      vertex 0 0 23.6
      vertex 0 5.99771 -8.93227
      vertex 0 5.28657 -9.72207
    endloop
  endfacet
  facet normal -1 0 0
    outer loop
      vertex 0 0 -17.999
      vertex 0 5.28657 -9.72207
      vertex 0 4.95815 -10.7328
    endloop
  endfacet
  facet normal -1 -0 0
    outer loop
      vertex 0 5.28657 -9.72207
      vertex 0 0 -17.999
      vertex 0 0 23.6
    endloop
  endfacet
  facet normal -1 0 0
    outer loop
      vertex 0 6.96861 -8.5
      vertex 0 0 23.6
      vertex 0 15 23.6
    endloop
  endfacet
  facet normal -0 0 1
    outer loop
      vertex 0 15 23.6
      vertex 27.2 0 23.6
      vertex 27.2 15 23.6
    endloop
  endfacet
  facet normal 0 0 1
    outer loop
      vertex 27.2 0 23.6
      vertex 0 15 23.6
      vertex 0 0 23.6
    endloop
  endfacet
  facet normal 1 -0 0
    outer loop
      vertex 27.2 0 23.6
      vertex 27.2 15 0
      vertex 27.2 15 23.6
    endloop
  endfacet
  facet normal 1 0 0
    outer loop
      vertex 27.2 15 0
      vertex 27.2 0 23.6
      vertex 27.2 0 0
    endloop
  endfacet
  facet normal 0 1 -0
    outer loop
      vertex 27.2 15 -17.999
      vertex 23.6 15 0
      vertex 27.2 15 0
    endloop
  endfacet
  facet normal 0 1 0
    outer loop
      vertex 23.6 15 0
      vertex 27.2 15 -17.999
      vertex 23.6 15 -17.999
    endloop
  endfacet
  facet normal 0 1 0
    outer loop
      vertex 27.2 15 23.6
      vertex 23.6 15 20.001
      vertex 0 15 23.6
    endloop
  endfacet
  facet normal 0 1 -0
    outer loop
      vertex 27.2 15 0
      vertex 23.6 15 20.001
      vertex 27.2 15 23.6
    endloop
  endfacet
  facet normal 0 1 -0
    outer loop
      vertex 23.6 15 0
      vertex 23.6 15 20.001
      vertex 27.2 15 0
    endloop
  endfacet
  facet normal 0 1 -0
    outer loop
      vertex 3.6 15 20.001
      vertex 0 15 23.6
      vertex 23.6 15 20.001
    endloop
  endfacet
  facet normal 0 1 -0
    outer loop
      vertex 3.6 15 0.00199986
      vertex 0 15 23.6
      vertex 3.6 15 20.001
    endloop
  endfacet
  facet normal 0 1 0
    outer loop
      vertex 0 15 -17.999
      vertex 3.6 15 0.00199986
      vertex 3.6 15 -17.999
    endloop
  endfacet
  facet normal 0 1 0
    outer loop
      vertex 3.6 15 0.00199986
      vertex 0 15 -17.999
      vertex 0 15 23.6
    endloop
  endfacet
  facet normal 0 -1 0
    outer loop
      vertex 23.6 0 -17.999
      vertex 27.2 0 0
      vertex 23.6 0 0
    endloop
  endfacet
  facet normal 0 -1 -0
    outer loop
      vertex 27.2 0 0
      vertex 23.6 0 -17.999
      vertex 27.2 0 -17.999
    endloop
  endfacet
  facet normal 0 -1 0
    outer loop
      vertex 0 0 23.6
      vertex 3.6 0 20.001
      vertex 27.2 0 23.6
    endloop
  endfacet
  facet normal 0 -1 0
    outer loop
      vertex 0 0 23.6
      vertex 3.6 0 0.00199986
      vertex 3.6 0 20.001
    endloop
  endfacet
  facet normal 0 -1 0
    outer loop
      vertex 0 0 -17.999
      vertex 3.6 0 0.00199986
      vertex 0 0 23.6
    endloop
  endfacet
  facet normal 0 -1 -0
    outer loop
      vertex 3.6 0 0.00199986
      vertex 0 0 -17.999
      vertex 3.6 0 -17.999
    endloop
  endfacet
  facet normal 0 -1 0
    outer loop
      vertex 23.6 0 20.001
      vertex 27.2 0 23.6
      vertex 3.6 0 20.001
    endloop
  endfacet
  facet normal 0 -1 0
    outer loop
      vertex 27.2 0 0
      vertex 23.6 0 20.001
      vertex 23.6 0 0
    endloop
  endfacet
  facet normal 0 -1 0
    outer loop
      vertex 23.6 0 20.001
      vertex 27.2 0 0
      vertex 27.2 0 23.6
    endloop
  endfacet
  facet normal 1 -0 0
    outer loop
      vertex 3.6 0 20.001
      vertex 3.6 15 0.00199986
      vertex 3.6 15 20.001
    endloop
  endfacet
  facet normal 1 0 0
    outer loop
      vertex 3.6 15 0.00199986
      vertex 3.6 0 20.001
      vertex 3.6 0 0.00199986
    endloop
  endfacet
  facet normal 1 0 0
    outer loop
      vertex 3.6 15 0.00199986
      vertex 3.6 10.0419 -10.7328
      vertex 3.6 15 -17.999
    endloop
  endfacet
  facet normal 1 0 0
    outer loop
      vertex 3.6 15 0.00199986
      vertex 3.6 9.71343 -9.72207
      vertex 3.6 10.0419 -10.7328
    endloop
  endfacet
  facet normal 1 0 0
    outer loop
      vertex 3.6 15 0.00199986
      vertex 3.6 9.00229 -8.93227
      vertex 3.6 9.71343 -9.72207
    endloop
  endfacet
  facet normal 1 0 0
    outer loop
      vertex 3.6 15 0.00199986
      vertex 3.6 8.03139 -8.5
      vertex 3.6 9.00229 -8.93227
    endloop
  endfacet
  facet normal 1 0 0
    outer loop
      vertex 3.6 15 0.00199986
      vertex 3.6 6.96861 -8.5
      vertex 3.6 8.03139 -8.5
    endloop
  endfacet
  facet normal 1 -0 0
    outer loop
      vertex 3.6 0 0.00199986
      vertex 3.6 6.96861 -8.5
      vertex 3.6 15 0.00199986
    endloop
  endfacet
  facet normal 1 0 0
    outer loop
      vertex 3.6 5.28657 -9.72207
      vertex 3.6 0 0.00199986
      vertex 3.6 4.95815 -10.7328
    endloop
  endfacet
  facet normal 1 0 0
    outer loop
      vertex 3.6 5.99771 -8.93227
      vertex 3.6 0 0.00199986
      vertex 3.6 5.28657 -9.72207
    endloop
  endfacet
  facet normal 1 0 0
    outer loop
      vertex 3.6 6.96861 -8.5
      vertex 3.6 0 0.00199986
      vertex 3.6 5.99771 -8.93227
    endloop
  endfacet
  facet normal 1 -0 0
    outer loop
      vertex 3.6 9.93076 -11.7898
      vertex 3.6 15 -17.999
      vertex 3.6 10.0419 -10.7328
    endloop
  endfacet
  facet normal 1 -0 0
    outer loop
      vertex 3.6 9.39937 -12.7102
      vertex 3.6 15 -17.999
      vertex 3.6 9.93076 -11.7898
    endloop
  endfacet
  facet normal 1 -0 0
    outer loop
      vertex 3.6 8.53956 -13.3349
      vertex 3.6 15 -17.999
      vertex 3.6 9.39937 -12.7102
    endloop
  endfacet
  facet normal 1 -0 0
    outer loop
      vertex 3.6 7.5 -13.5559
      vertex 3.6 15 -17.999
      vertex 3.6 8.53956 -13.3349
    endloop
  endfacet
  facet normal 1 0 0
    outer loop
      vertex 3.6 0 -17.999
      vertex 3.6 7.5 -13.5559
      vertex 3.6 6.46044 -13.3349
    endloop
  endfacet
  facet normal 1 0 0
    outer loop
      vertex 3.6 0 -17.999
      vertex 3.6 4.95815 -10.7328
      vertex 3.6 0 0.00199986
    endloop
  endfacet
  facet normal 1 0 0
    outer loop
      vertex 3.6 7.5 -13.5559
      vertex 3.6 0 -17.999
      vertex 3.6 15 -17.999
    endloop
  endfacet
  facet normal 1 0 0
    outer loop
      vertex 3.6 5.60063 -12.7102
      vertex 3.6 0 -17.999
      vertex 3.6 6.46044 -13.3349
    endloop
  endfacet
  facet normal 1 0 0
    outer loop
      vertex 3.6 5.06924 -11.7898
      vertex 3.6 0 -17.999
      vertex 3.6 5.60063 -12.7102
    endloop
  endfacet
  facet normal 1 0 0
    outer loop
      vertex 3.6 4.95815 -10.7328
      vertex 3.6 0 -17.999
      vertex 3.6 5.06924 -11.7898
    endloop
  endfacet
  facet normal 0 0 -1
    outer loop
      vertex 3.6 0 20.001
      vertex 23.6 15 20.001
      vertex 23.6 0 20.001
    endloop
  endfacet
  facet normal -0 0 -1
    outer loop
      vertex 23.6 15 20.001
      vertex 3.6 0 20.001
      vertex 3.6 15 20.001
    endloop
  endfacet
  facet normal -1 0 0
    outer loop
      vertex 23.6 0 0
      vertex 23.6 15 20.001
      vertex 23.6 15 0
    endloop
  endfacet
  facet normal -1 -0 0
    outer loop
      vertex 23.6 15 20.001
      vertex 23.6 0 0
      vertex 23.6 0 20.001
    endloop
  endfacet
  facet normal 0 0 -1
    outer loop
      vertex 0 0 -17.999
      vertex 3.6 15 -17.999
      vertex 3.6 0 -17.999
    endloop
  endfacet
  facet normal -0 0 -1
    outer loop
      vertex 3.6 15 -17.999
      vertex 0 0 -17.999
      vertex 0 15 -17.999
    endloop
  endfacet
  facet normal 0 -0.207912 0.978148
    outer loop
      vertex 0 8.53956 -13.3349
      vertex 3.6 7.5 -13.5559
      vertex 3.6 8.53956 -13.3349
    endloop
  endfacet
  facet normal 0 -0.207912 0.978148
    outer loop
      vertex 3.6 7.5 -13.5559
      vertex 0 8.53956 -13.3349
      vertex 0 7.5 -13.5559
    endloop
  endfacet
  facet normal 0 0 -1
    outer loop
      vertex 0 6.96861 -8.5
      vertex 3.6 8.03139 -8.5
      vertex 3.6 6.96861 -8.5
    endloop
  endfacet
  facet normal -0 0 -1
    outer loop
      vertex 3.6 8.03139 -8.5
      vertex 0 6.96861 -8.5
      vertex 0 8.03139 -8.5
    endloop
  endfacet
  facet normal 0 -0.951057 -0.309017
    outer loop
      vertex 0 10.0419 -10.7328
      vertex 3.6 9.71343 -9.72207
      vertex 0 9.71343 -9.72207
    endloop
  endfacet
  facet normal 0 -0.951057 -0.309017
    outer loop
      vertex 3.6 9.71343 -9.72207
      vertex 0 10.0419 -10.7328
      vertex 3.6 10.0419 -10.7328
    endloop
  endfacet
  facet normal 0 -0.743145 -0.669131
    outer loop
      vertex 0 9.71343 -9.72207
      vertex 3.6 9.00229 -8.93227
      vertex 0 9.00229 -8.93227
    endloop
  endfacet
  facet normal 0 -0.743145 -0.669131
    outer loop
      vertex 3.6 9.00229 -8.93227
      vertex 0 9.71343 -9.72207
      vertex 3.6 9.71343 -9.72207
    endloop
  endfacet
  facet normal 0 0.994522 0.104529
    outer loop
      vertex 3.6 5.06924 -11.7898
      vertex 0 4.95815 -10.7328
      vertex 3.6 4.95815 -10.7328
    endloop
  endfacet
  facet normal 0 0.994522 0.104529
    outer loop
      vertex 0 4.95815 -10.7328
      vertex 3.6 5.06924 -11.7898
      vertex 0 5.06924 -11.7898
    endloop
  endfacet
  facet normal 0 0.866026 0.499999
    outer loop
      vertex 3.6 5.60063 -12.7102
      vertex 0 5.06924 -11.7898
      vertex 3.6 5.06924 -11.7898
    endloop
  endfacet
  facet normal 0 0.866026 0.499999
    outer loop
      vertex 0 5.06924 -11.7898
      vertex 3.6 5.60063 -12.7102
      vertex 0 5.60063 -12.7102
    endloop
  endfacet
  facet normal 0 -0.587785 0.809017
    outer loop
      vertex 0 9.39937 -12.7102
      vertex 3.6 8.53956 -13.3349
      vertex 3.6 9.39937 -12.7102
    endloop
  endfacet
  facet normal 0 -0.587785 0.809017
    outer loop
      vertex 3.6 8.53956 -13.3349
      vertex 0 9.39937 -12.7102
      vertex 0 8.53956 -13.3349
    endloop
  endfacet
  facet normal 0 -0.994522 0.104529
    outer loop
      vertex 0 9.93076 -11.7898
      vertex 3.6 10.0419 -10.7328
      vertex 0 10.0419 -10.7328
    endloop
  endfacet
  facet normal 0 -0.994522 0.104529
    outer loop
      vertex 3.6 10.0419 -10.7328
      vertex 0 9.93076 -11.7898
      vertex 3.6 9.93076 -11.7898
    endloop
  endfacet
  facet normal 0 -0.406736 -0.913546
    outer loop
      vertex 0 8.03139 -8.5
      vertex 3.6 9.00229 -8.93227
      vertex 3.6 8.03139 -8.5
    endloop
  endfacet
  facet normal -0 -0.406736 -0.913546
    outer loop
      vertex 3.6 9.00229 -8.93227
      vertex 0 8.03139 -8.5
      vertex 0 9.00229 -8.93227
    endloop
  endfacet
  facet normal 0 -0.866026 0.499999
    outer loop
      vertex 0 9.39937 -12.7102
      vertex 3.6 9.93076 -11.7898
      vertex 0 9.93076 -11.7898
    endloop
  endfacet
  facet normal 0 -0.866026 0.499999
    outer loop
      vertex 3.6 9.93076 -11.7898
      vertex 0 9.39937 -12.7102
      vertex 3.6 9.39937 -12.7102
    endloop
  endfacet
  facet normal -0 0.587785 0.809017
    outer loop
      vertex 0 6.46044 -13.3349
      vertex 3.6 5.60063 -12.7102
      vertex 3.6 6.46044 -13.3349
    endloop
  endfacet
  facet normal 0 0.587785 0.809017
    outer loop
      vertex 3.6 5.60063 -12.7102
      vertex 0 6.46044 -13.3349
      vertex 0 5.60063 -12.7102
    endloop
  endfacet
  facet normal -0 0.207912 0.978148
    outer loop
      vertex 0 7.5 -13.5559
      vertex 3.6 6.46044 -13.3349
      vertex 3.6 7.5 -13.5559
    endloop
  endfacet
  facet normal 0 0.207912 0.978148
    outer loop
      vertex 3.6 6.46044 -13.3349
      vertex 0 7.5 -13.5559
      vertex 0 6.46044 -13.3349
    endloop
  endfacet
  facet normal 0 0.951057 -0.309017
    outer loop
      vertex 3.6 4.95815 -10.7328
      vertex 0 5.28657 -9.72207
      vertex 3.6 5.28657 -9.72207
    endloop
  endfacet
  facet normal 0 0.951057 -0.309017
    outer loop
      vertex 0 5.28657 -9.72207
      vertex 3.6 4.95815 -10.7328
      vertex 0 4.95815 -10.7328
    endloop
  endfacet
  facet normal 0 0.743145 -0.669131
    outer loop
      vertex 3.6 5.28657 -9.72207
      vertex 0 5.99771 -8.93227
      vertex 3.6 5.99771 -8.93227
    endloop
  endfacet
  facet normal 0 0.743145 -0.669131
    outer loop
      vertex 0 5.99771 -8.93227
      vertex 3.6 5.28657 -9.72207
      vertex 0 5.28657 -9.72207
    endloop
  endfacet
  facet normal 0 0.406736 -0.913546
    outer loop
      vertex 0 5.99771 -8.93227
      vertex 3.6 6.96861 -8.5
      vertex 3.6 5.99771 -8.93227
    endloop
  endfacet
  facet normal 0 0.406736 -0.913546
    outer loop
      vertex 3.6 6.96861 -8.5
      vertex 0 5.99771 -8.93227
      vertex 0 6.96861 -8.5
    endloop
  endfacet
  facet normal -1 0 0
    outer loop
      vertex 23.6 15 -17.999
      vertex 23.6 10.0419 -10.7328
      vertex 23.6 15 0
    endloop
  endfacet
  facet normal -1 0 0
    outer loop
      vertex 23.6 15 -17.999
      vertex 23.6 9.93076 -11.7898
      vertex 23.6 10.0419 -10.7328
    endloop
  endfacet
  facet normal -1 0 0
    outer loop
      vertex 23.6 15 -17.999
      vertex 23.6 9.39937 -12.7102
      vertex 23.6 9.93076 -11.7898
    endloop
  endfacet
  facet normal -1 0 0
    outer loop
      vertex 23.6 15 -17.999
      vertex 23.6 8.53956 -13.3349
      vertex 23.6 9.39937 -12.7102
    endloop
  endfacet
  facet normal -1 0 0
    outer loop
      vertex 23.6 15 -17.999
      vertex 23.6 7.5 -13.5559
      vertex 23.6 8.53956 -13.3349
    endloop
  endfacet
  facet normal -1 0 0
    outer loop
      vertex 23.6 0 -17.999
      vertex 23.6 7.5 -13.5559
      vertex 23.6 15 -17.999
    endloop
  endfacet
  facet normal -1 -0 0
    outer loop
      vertex 23.6 5.06924 -11.7898
      vertex 23.6 0 -17.999
      vertex 23.6 4.95815 -10.7328
    endloop
  endfacet
  facet normal -1 -0 0
    outer loop
      vertex 23.6 5.60063 -12.7102
      vertex 23.6 0 -17.999
      vertex 23.6 5.06924 -11.7898
    endloop
  endfacet
  facet normal -1 -0 0
    outer loop
      vertex 23.6 6.46044 -13.3349
      vertex 23.6 0 -17.999
      vertex 23.6 5.60063 -12.7102
    endloop
  endfacet
  facet normal -1 -0 0
    outer loop
      vertex 23.6 7.5 -13.5559
      vertex 23.6 0 -17.999
      vertex 23.6 6.46044 -13.3349
    endloop
  endfacet
  facet normal -1 0 0
    outer loop
      vertex 23.6 9.71343 -9.72207
      vertex 23.6 15 0
      vertex 23.6 10.0419 -10.7328
    endloop
  endfacet
  facet normal -1 0 0
    outer loop
      vertex 23.6 9.00229 -8.93227
      vertex 23.6 15 0
      vertex 23.6 9.71343 -9.72207
    endloop
  endfacet
  facet normal -1 0 0
    outer loop
      vertex 23.6 8.03139 -8.5
      vertex 23.6 15 0
      vertex 23.6 9.00229 -8.93227
    endloop
  endfacet
  facet normal -1 0 0
    outer loop
      vertex 23.6 6.96861 -8.5
      vertex 23.6 15 0
      vertex 23.6 8.03139 -8.5
    endloop
  endfacet
  facet normal -1 0 0
    outer loop
      vertex 23.6 0 0
      vertex 23.6 6.96861 -8.5
      vertex 23.6 5.99771 -8.93227
    endloop
  endfacet
  facet normal -1 0 0
    outer loop
      vertex 23.6 0 0
      vertex 23.6 4.95815 -10.7328
      vertex 23.6 0 -17.999
    endloop
  endfacet
  facet normal -1 0 0
    outer loop
      vertex 23.6 6.96861 -8.5
      vertex 23.6 0 0
      vertex 23.6 15 0
    endloop
  endfacet
  facet normal -1 0 0
    outer loop
      vertex 23.6 5.28657 -9.72207
      vertex 23.6 0 0
      vertex 23.6 5.99771 -8.93227
    endloop
  endfacet
  facet normal -1 0 0
    outer loop
      vertex 23.6 4.95815 -10.7328
      vertex 23.6 0 0
      vertex 23.6 5.28657 -9.72207
    endloop
  endfacet
  facet normal 1 0 0
    outer loop
      vertex 27.2 15 0
      vertex 27.2 10.0419 -10.7328
      vertex 27.2 15 -17.999
    endloop
  endfacet
  facet normal 1 0 0
    outer loop
      vertex 27.2 15 0
      vertex 27.2 9.71343 -9.72207
      vertex 27.2 10.0419 -10.7328
    endloop
  endfacet
  facet normal 1 0 0
    outer loop
      vertex 27.2 15 0
      vertex 27.2 9.00229 -8.93227
      vertex 27.2 9.71343 -9.72207
    endloop
  endfacet
  facet normal 1 0 0
    outer loop
      vertex 27.2 15 0
      vertex 27.2 8.03139 -8.5
      vertex 27.2 9.00229 -8.93227
    endloop
  endfacet
  facet normal 1 0 0
    outer loop
      vertex 27.2 15 0
      vertex 27.2 6.96861 -8.5
      vertex 27.2 8.03139 -8.5
    endloop
  endfacet
  facet normal 1 -0 0
    outer loop
      vertex 27.2 0 0
      vertex 27.2 6.96861 -8.5
      vertex 27.2 15 0
    endloop
  endfacet
  facet normal 1 0 0
    outer loop
      vertex 27.2 5.28657 -9.72207
      vertex 27.2 0 0
      vertex 27.2 4.95815 -10.7328
    endloop
  endfacet
  facet normal 1 0 0
    outer loop
      vertex 27.2 5.99771 -8.93227
      vertex 27.2 0 0
      vertex 27.2 5.28657 -9.72207
    endloop
  endfacet
  facet normal 1 0 0
    outer loop
      vertex 27.2 6.96861 -8.5
      vertex 27.2 0 0
      vertex 27.2 5.99771 -8.93227
    endloop
  endfacet
  facet normal 1 -0 0
    outer loop
      vertex 27.2 9.93076 -11.7898
      vertex 27.2 15 -17.999
      vertex 27.2 10.0419 -10.7328
    endloop
  endfacet
  facet normal 1 -0 0
    outer loop
      vertex 27.2 9.39937 -12.7102
      vertex 27.2 15 -17.999
      vertex 27.2 9.93076 -11.7898
    endloop
  endfacet
  facet normal 1 -0 0
    outer loop
      vertex 27.2 8.53956 -13.3349
      vertex 27.2 15 -17.999
      vertex 27.2 9.39937 -12.7102
    endloop
  endfacet
  facet normal 1 -0 0
    outer loop
      vertex 27.2 7.5 -13.5559
      vertex 27.2 15 -17.999
      vertex 27.2 8.53956 -13.3349
    endloop
  endfacet
  facet normal 1 0 0
    outer loop
      vertex 27.2 0 -17.999
      vertex 27.2 7.5 -13.5559
      vertex 27.2 6.46044 -13.3349
    endloop
  endfacet
  facet normal 1 0 0
    outer loop
      vertex 27.2 0 -17.999
      vertex 27.2 4.95815 -10.7328
      vertex 27.2 0 0
    endloop
  endfacet
  facet normal 1 0 0
    outer loop
      vertex 27.2 7.5 -13.5559
      vertex 27.2 0 -17.999
      vertex 27.2 15 -17.999
    endloop
  endfacet
  facet normal 1 0 0
    outer loop
      vertex 27.2 5.60063 -12.7102
      vertex 27.2 0 -17.999
      vertex 27.2 6.46044 -13.3349
    endloop
  endfacet
  facet normal 1 0 0
    outer loop
      vertex 27.2 5.06924 -11.7898
      vertex 27.2 0 -17.999
      vertex 27.2 5.60063 -12.7102
    endloop
  endfacet
  facet normal 1 0 0
    outer loop
      vertex 27.2 4.95815 -10.7328
      vertex 27.2 0 -17.999
      vertex 27.2 5.06924 -11.7898
    endloop
  endfacet
  facet normal 0 0 -1
    outer loop
      vertex 23.6 0 -17.999
      vertex 27.2 15 -17.999
      vertex 27.2 0 -17.999
    endloop
  endfacet
  facet normal -0 0 -1
    outer loop
      vertex 27.2 15 -17.999
      vertex 23.6 0 -17.999
      vertex 23.6 15 -17.999
    endloop
  endfacet
  facet normal 0 -0.207912 0.978148
    outer loop
      vertex 23.6 8.53956 -13.3349
      vertex 27.2 7.5 -13.5559
      vertex 27.2 8.53956 -13.3349
    endloop
  endfacet
  facet normal 0 -0.207912 0.978148
    outer loop
      vertex 27.2 7.5 -13.5559
      vertex 23.6 8.53956 -13.3349
      vertex 23.6 7.5 -13.5559
    endloop
  endfacet
  facet normal 0 0 -1
    outer loop
      vertex 23.6 6.96861 -8.5
      vertex 27.2 8.03139 -8.5
      vertex 27.2 6.96861 -8.5
    endloop
  endfacet
  facet normal -0 0 -1
    outer loop
      vertex 27.2 8.03139 -8.5
      vertex 23.6 6.96861 -8.5
      vertex 23.6 8.03139 -8.5
    endloop
  endfacet
  facet normal 0 -0.951057 -0.309017
    outer loop
      vertex 23.6 10.0419 -10.7328
      vertex 27.2 9.71343 -9.72207
      vertex 23.6 9.71343 -9.72207
    endloop
  endfacet
  facet normal 0 -0.951057 -0.309017
    outer loop
      vertex 27.2 9.71343 -9.72207
      vertex 23.6 10.0419 -10.7328
      vertex 27.2 10.0419 -10.7328
    endloop
  endfacet
  facet normal 0 -0.743145 -0.669131
    outer loop
      vertex 23.6 9.71343 -9.72207
      vertex 27.2 9.00229 -8.93227
      vertex 23.6 9.00229 -8.93227
    endloop
  endfacet
  facet normal 0 -0.743145 -0.669131
    outer loop
      vertex 27.2 9.00229 -8.93227
      vertex 23.6 9.71343 -9.72207
      vertex 27.2 9.71343 -9.72207
    endloop
  endfacet
  facet normal 0 0.994522 0.104529
    outer loop
      vertex 27.2 5.06924 -11.7898
      vertex 23.6 4.95815 -10.7328
      vertex 27.2 4.95815 -10.7328
    endloop
  endfacet
  facet normal 0 0.994522 0.104529
    outer loop
      vertex 23.6 4.95815 -10.7328
      vertex 27.2 5.06924 -11.7898
      vertex 23.6 5.06924 -11.7898
    endloop
  endfacet
  facet normal 0 0.866026 0.499999
    outer loop
      vertex 27.2 5.60063 -12.7102
      vertex 23.6 5.06924 -11.7898
      vertex 27.2 5.06924 -11.7898
    endloop
  endfacet
  facet normal 0 0.866026 0.499999
    outer loop
      vertex 23.6 5.06924 -11.7898
      vertex 27.2 5.60063 -12.7102
      vertex 23.6 5.60063 -12.7102
    endloop
  endfacet
  facet normal 0 -0.587785 0.809017
    outer loop
      vertex 23.6 9.39937 -12.7102
      vertex 27.2 8.53956 -13.3349
      vertex 27.2 9.39937 -12.7102
    endloop
  endfacet
  facet normal 0 -0.587785 0.809017
    outer loop
      vertex 27.2 8.53956 -13.3349
      vertex 23.6 9.39937 -12.7102
      vertex 23.6 8.53956 -13.3349
    endloop
  endfacet
  facet normal 0 -0.994522 0.104529
    outer loop
      vertex 23.6 9.93076 -11.7898
      vertex 27.2 10.0419 -10.7328
      vertex 23.6 10.0419 -10.7328
    endloop
  endfacet
  facet normal 0 -0.994522 0.104529
    outer loop
      vertex 27.2 10.0419 -10.7328
      vertex 23.6 9.93076 -11.7898
      vertex 27.2 9.93076 -11.7898
    endloop
  endfacet
  facet normal 0 -0.406736 -0.913546
    outer loop
      vertex 23.6 8.03139 -8.5
      vertex 27.2 9.00229 -8.93227
      vertex 27.2 8.03139 -8.5
    endloop
  endfacet
  facet normal -0 -0.406736 -0.913546
    outer loop
      vertex 27.2 9.00229 -8.93227
      vertex 23.6 8.03139 -8.5
      vertex 23.6 9.00229 -8.93227
    endloop
  endfacet
  facet normal 0 -0.866026 0.499999
    outer loop
      vertex 23.6 9.39937 -12.7102
      vertex 27.2 9.93076 -11.7898
      vertex 23.6 9.93076 -11.7898
    endloop
  endfacet
  facet normal 0 -0.866026 0.499999
    outer loop
      vertex 27.2 9.93076 -11.7898
      vertex 23.6 9.39937 -12.7102
      vertex 27.2 9.39937 -12.7102
    endloop
  endfacet
  facet normal -0 0.587785 0.809017
    outer loop
      vertex 23.6 6.46044 -13.3349
      vertex 27.2 5.60063 -12.7102
      vertex 27.2 6.46044 -13.3349
    endloop
  endfacet
  facet normal 0 0.587785 0.809017
    outer loop
      vertex 27.2 5.60063 -12.7102
      vertex 23.6 6.46044 -13.3349
      vertex 23.6 5.60063 -12.7102
    endloop
  endfacet
  facet normal -0 0.207912 0.978148
    outer loop
      vertex 23.6 7.5 -13.5559
      vertex 27.2 6.46044 -13.3349
      vertex 27.2 7.5 -13.5559
    endloop
  endfacet
  facet normal 0 0.207912 0.978148
    outer loop
      vertex 27.2 6.46044 -13.3349
      vertex 23.6 7.5 -13.5559
      vertex 23.6 6.46044 -13.3349
    endloop
  endfacet
  facet normal 0 0.951057 -0.309017
    outer loop
      vertex 27.2 4.95815 -10.7328
      vertex 23.6 5.28657 -9.72207
      vertex 27.2 5.28657 -9.72207
    endloop
  endfacet
  facet normal 0 0.951057 -0.309017
    outer loop
      vertex 23.6 5.28657 -9.72207
      vertex 27.2 4.95815 -10.7328
      vertex 23.6 4.95815 -10.7328
    endloop
  endfacet
  facet normal 0 0.743145 -0.669131
    outer loop
      vertex 27.2 5.28657 -9.72207
      vertex 23.6 5.99771 -8.93227
      vertex 27.2 5.99771 -8.93227
    endloop
  endfacet
  facet normal 0 0.743145 -0.669131
    outer loop
      vertex 23.6 5.99771 -8.93227
      vertex 27.2 5.28657 -9.72207
      vertex 23.6 5.28657 -9.72207
    endloop
  endfacet
  facet normal 0 0.406736 -0.913546
    outer loop
      vertex 23.6 5.99771 -8.93227
      vertex 27.2 6.96861 -8.5
      vertex 27.2 5.99771 -8.93227
    endloop
  endfacet
  facet normal 0 0.406736 -0.913546
    outer loop
      vertex 27.2 6.96861 -8.5
      vertex 23.6 5.99771 -8.93227
      vertex 23.6 6.96861 -8.5
    endloop
  endfacet
endsolid OpenSCAD_Model
