solid OpenSCAD_Model
  facet normal 0 0 -1
    outer loop
      vertex 4.95 0 4.8
      vertex 7.34999 0 4.8
      vertex 7.09955 -1.90231 4.8
    endloop
  endfacet
  facet normal 0 0 -1
    outer loop
      vertex 4.5732 -1.89427 4.8
      vertex 7.09955 -1.90231 4.8
      vertex 6.36528 -3.67499 4.8
    endloop
  endfacet
  facet normal 0 0 -1
    outer loop
      vertex 7.34999 0 4.8
      vertex 4.95 0 4.8
      vertex 7.09955 1.90231 4.8
    endloop
  endfacet
  facet normal 0 0 -1
    outer loop
      vertex 3.50017 -3.50017 4.8
      vertex 6.36528 -3.67499 4.8
      vertex 5.19722 -5.19722 4.8
    endloop
  endfacet
  facet normal 0 0 -1
    outer loop
      vertex 4.5732 1.89427 4.8
      vertex 7.09955 1.90231 4.8
      vertex 4.95 0 4.8
    endloop
  endfacet
  facet normal -0 0 -1
    outer loop
      vertex 7.09955 1.90231 4.8
      vertex 4.5732 1.89427 4.8
      vertex 6.36528 3.67499 4.8
    endloop
  endfacet
  facet normal 0 0 -1
    outer loop
      vertex 7.09955 -1.90231 4.8
      vertex 4.5732 -1.89427 4.8
      vertex 4.95 0 4.8
    endloop
  endfacet
  facet normal 0 0 -1
    outer loop
      vertex 3.50017 -3.50017 4.8
      vertex 5.19722 -5.19722 4.8
      vertex 3.67499 -6.36528 4.8
    endloop
  endfacet
  facet normal 0 0 -1
    outer loop
      vertex 6.36528 -3.67499 4.8
      vertex 3.50017 -3.50017 4.8
      vertex 4.5732 -1.89427 4.8
    endloop
  endfacet
  facet normal 0 0 -1
    outer loop
      vertex 1.89427 -4.5732 4.8
      vertex 3.67499 -6.36528 4.8
      vertex 1.90231 -7.09955 4.8
    endloop
  endfacet
  facet normal 0 0 -1
    outer loop
      vertex 3.67499 -6.36528 4.8
      vertex 1.89427 -4.5732 4.8
      vertex 3.50017 -3.50017 4.8
    endloop
  endfacet
  facet normal 0 0 -1
    outer loop
      vertex 0 -4.95 4.8
      vertex 1.90231 -7.09955 4.8
      vertex 0 -7.34999 4.8
    endloop
  endfacet
  facet normal 0 0 -1
    outer loop
      vertex 1.90231 -7.09955 4.8
      vertex 0 -4.95 4.8
      vertex 1.89427 -4.5732 4.8
    endloop
  endfacet
  facet normal 0 0 -1
    outer loop
      vertex -7.42499 -7.34999 4.8
      vertex 0 -4.95 4.8
      vertex 0 -7.34999 4.8
    endloop
  endfacet
  facet normal -0 0 -1
    outer loop
      vertex 0 -4.95 4.8
      vertex -7.42499 -7.34999 4.8
      vertex -7.42499 -4.95 4.8
    endloop
  endfacet
  facet normal 0 0 -1
    outer loop
      vertex 3.50017 3.50017 4.8
      vertex 6.36528 3.67499 4.8
      vertex 4.5732 1.89427 4.8
    endloop
  endfacet
  facet normal -0 0 -1
    outer loop
      vertex 6.36528 3.67499 4.8
      vertex 3.50017 3.50017 4.8
      vertex 5.19722 5.19722 4.8
    endloop
  endfacet
  facet normal -0 0 -1
    outer loop
      vertex 5.19722 5.19722 4.8
      vertex 3.50017 3.50017 4.8
      vertex 3.67499 6.36528 4.8
    endloop
  endfacet
  facet normal 0 0 -1
    outer loop
      vertex 1.89427 4.5732 4.8
      vertex 3.67499 6.36528 4.8
      vertex 3.50017 3.50017 4.8
    endloop
  endfacet
  facet normal -0 0 -1
    outer loop
      vertex 3.67499 6.36528 4.8
      vertex 1.89427 4.5732 4.8
      vertex 1.90231 7.09955 4.8
    endloop
  endfacet
  facet normal 0 0 -1
    outer loop
      vertex 0 4.95 4.8
      vertex 1.90231 7.09955 4.8
      vertex 1.89427 4.5732 4.8
    endloop
  endfacet
  facet normal 0 0 -1
    outer loop
      vertex 0 4.95 4.8
      vertex 0 7.34999 4.8
      vertex 1.90231 7.09955 4.8
    endloop
  endfacet
  facet normal 0 0 -1
    outer loop
      vertex -7.42499 4.95 4.8
      vertex 0 7.34999 4.8
      vertex 0 4.95 4.8
    endloop
  endfacet
  facet normal -0 0 -1
    outer loop
      vertex 0 7.34999 4.8
      vertex -7.42499 4.95 4.8
      vertex -7.42499 7.34999 4.8
    endloop
  endfacet
  facet normal 0 1 -0
    outer loop
      vertex 0 7.34999 4.8
      vertex -7.42499 7.34999 10.8
      vertex 0 7.34999 10.8
    endloop
  endfacet
  facet normal 0 1 0
    outer loop
      vertex -7.42499 7.34999 10.8
      vertex 0 7.34999 4.8
      vertex -7.42499 7.34999 4.8
    endloop
  endfacet
  facet normal -1 0 0
    outer loop
      vertex -7.42499 -7.34999 4.8
      vertex -7.42499 -4.95 10.8
      vertex -7.42499 -4.95 4.8
    endloop
  endfacet
  facet normal -1 -0 0
    outer loop
      vertex -7.42499 -4.95 10.8
      vertex -7.42499 -7.34999 4.8
      vertex -7.42499 -7.34999 10.8
    endloop
  endfacet
  facet normal -1 0 0
    outer loop
      vertex -7.42499 4.95 4.8
      vertex -7.42499 7.34999 10.8
      vertex -7.42499 7.34999 4.8
    endloop
  endfacet
  facet normal -1 -0 0
    outer loop
      vertex -7.42499 7.34999 10.8
      vertex -7.42499 4.95 4.8
      vertex -7.42499 4.95 10.8
    endloop
  endfacet
  facet normal 0 -1 0
    outer loop
      vertex -7.42499 -7.34999 4.8
      vertex 0 -7.34999 10.8
      vertex -7.42499 -7.34999 10.8
    endloop
  endfacet
  facet normal 0 -1 -0
    outer loop
      vertex 0 -7.34999 10.8
      vertex -7.42499 -7.34999 4.8
      vertex 0 -7.34999 4.8
    endloop
  endfacet
  facet normal 0 0 1
    outer loop
      vertex 4.95 0 10.8
      vertex 7.34999 0 10.8
      vertex 7.09955 1.90231 10.8
    endloop
  endfacet
  facet normal 0 0 1
    outer loop
      vertex 4.5732 1.89427 10.8
      vertex 7.09955 1.90231 10.8
      vertex 6.36528 3.67499 10.8
    endloop
  endfacet
  facet normal 0 0 1
    outer loop
      vertex 7.34999 0 10.8
      vertex 4.95 0 10.8
      vertex 7.09955 -1.90231 10.8
    endloop
  endfacet
  facet normal 0 0 1
    outer loop
      vertex 3.50017 3.50017 10.8
      vertex 6.36528 3.67499 10.8
      vertex 5.19722 5.19722 10.8
    endloop
  endfacet
  facet normal -0 0 1
    outer loop
      vertex 4.5732 -1.89427 10.8
      vertex 7.09955 -1.90231 10.8
      vertex 4.95 0 10.8
    endloop
  endfacet
  facet normal 0 0 1
    outer loop
      vertex 7.09955 -1.90231 10.8
      vertex 4.5732 -1.89427 10.8
      vertex 6.36528 -3.67499 10.8
    endloop
  endfacet
  facet normal 0 0 1
    outer loop
      vertex 7.09955 1.90231 10.8
      vertex 4.5732 1.89427 10.8
      vertex 4.95 0 10.8
    endloop
  endfacet
  facet normal 0 0 1
    outer loop
      vertex 3.50017 3.50017 10.8
      vertex 5.19722 5.19722 10.8
      vertex 3.67499 6.36528 10.8
    endloop
  endfacet
  facet normal 0 0 1
    outer loop
      vertex 6.36528 3.67499 10.8
      vertex 3.50017 3.50017 10.8
      vertex 4.5732 1.89427 10.8
    endloop
  endfacet
  facet normal 0 0 1
    outer loop
      vertex 1.89427 4.5732 10.8
      vertex 3.67499 6.36528 10.8
      vertex 1.90231 7.09955 10.8
    endloop
  endfacet
  facet normal 0 0 1
    outer loop
      vertex 3.67499 6.36528 10.8
      vertex 1.89427 4.5732 10.8
      vertex 3.50017 3.50017 10.8
    endloop
  endfacet
  facet normal 0 0 1
    outer loop
      vertex 0 4.95 10.8
      vertex 1.90231 7.09955 10.8
      vertex 0 7.34999 10.8
    endloop
  endfacet
  facet normal 0 0 1
    outer loop
      vertex 1.90231 7.09955 10.8
      vertex 0 4.95 10.8
      vertex 1.89427 4.5732 10.8
    endloop
  endfacet
  facet normal -0 0 1
    outer loop
      vertex -7.42499 7.34999 10.8
      vertex 0 4.95 10.8
      vertex 0 7.34999 10.8
    endloop
  endfacet
  facet normal 0 0 1
    outer loop
      vertex 0 4.95 10.8
      vertex -7.42499 7.34999 10.8
      vertex -7.42499 4.95 10.8
    endloop
  endfacet
  facet normal -0 0 1
    outer loop
      vertex 3.50017 -3.50017 10.8
      vertex 6.36528 -3.67499 10.8
      vertex 4.5732 -1.89427 10.8
    endloop
  endfacet
  facet normal 0 0 1
    outer loop
      vertex 6.36528 -3.67499 10.8
      vertex 3.50017 -3.50017 10.8
      vertex 5.19722 -5.19722 10.8
    endloop
  endfacet
  facet normal 0 0 1
    outer loop
      vertex 5.19722 -5.19722 10.8
      vertex 3.50017 -3.50017 10.8
      vertex 3.67499 -6.36528 10.8
    endloop
  endfacet
  facet normal -0 0 1
    outer loop
      vertex 1.89427 -4.5732 10.8
      vertex 3.67499 -6.36528 10.8
      vertex 3.50017 -3.50017 10.8
    endloop
  endfacet
  facet normal 0 0 1
    outer loop
      vertex 3.67499 -6.36528 10.8
      vertex 1.89427 -4.5732 10.8
      vertex 1.90231 -7.09955 10.8
    endloop
  endfacet
  facet normal -0 0 1
    outer loop
      vertex 0 -4.95 10.8
      vertex 1.90231 -7.09955 10.8
      vertex 1.89427 -4.5732 10.8
    endloop
  endfacet
  facet normal 0 0 1
    outer loop
      vertex 0 -4.95 10.8
      vertex 0 -7.34999 10.8
      vertex 1.90231 -7.09955 10.8
    endloop
  endfacet
  facet normal -0 0 1
    outer loop
      vertex -7.42499 -4.95 10.8
      vertex 0 -7.34999 10.8
      vertex 0 -4.95 10.8
    endloop
  endfacet
  facet normal 0 0 1
    outer loop
      vertex 0 -7.34999 10.8
      vertex -7.42499 -4.95 10.8
      vertex -7.42499 -7.34999 10.8
    endloop
  endfacet
  facet normal 0.923879 0.382684 0
    outer loop
      vertex 7.09955 1.90231 10.8
      vertex 6.36528 3.67499 4.8
      vertex 6.36528 3.67499 10.8
    endloop
  endfacet
  facet normal 0.923879 0.382684 0
    outer loop
      vertex 6.36528 3.67499 4.8
      vertex 7.09955 1.90231 10.8
      vertex 7.09955 1.90231 4.8
    endloop
  endfacet
  facet normal 0.923879 -0.382684 0
    outer loop
      vertex 6.36528 -3.67499 10.8
      vertex 7.09955 -1.90231 4.8
      vertex 7.09955 -1.90231 10.8
    endloop
  endfacet
  facet normal 0.923879 -0.382684 0
    outer loop
      vertex 7.09955 -1.90231 4.8
      vertex 6.36528 -3.67499 10.8
      vertex 6.36528 -3.67499 4.8
    endloop
  endfacet
  facet normal 0.382684 0.923879 -0
    outer loop
      vertex 3.67499 6.36528 4.8
      vertex 1.90231 7.09955 10.8
      vertex 3.67499 6.36528 10.8
    endloop
  endfacet
  facet normal 0.382684 0.923879 0
    outer loop
      vertex 1.90231 7.09955 10.8
      vertex 3.67499 6.36528 4.8
      vertex 1.90231 7.09955 4.8
    endloop
  endfacet
  facet normal 0.130525 0.991445 -0
    outer loop
      vertex 1.90231 7.09955 4.8
      vertex 0 7.34999 10.8
      vertex 1.90231 7.09955 10.8
    endloop
  endfacet
  facet normal 0.130525 0.991445 0
    outer loop
      vertex 0 7.34999 10.8
      vertex 1.90231 7.09955 4.8
      vertex 0 7.34999 4.8
    endloop
  endfacet
  facet normal 0.793351 -0.608765 0
    outer loop
      vertex 5.19722 -5.19722 10.8
      vertex 6.36528 -3.67499 4.8
      vertex 6.36528 -3.67499 10.8
    endloop
  endfacet
  facet normal 0.793351 -0.608765 0
    outer loop
      vertex 6.36528 -3.67499 4.8
      vertex 5.19722 -5.19722 10.8
      vertex 5.19722 -5.19722 4.8
    endloop
  endfacet
  facet normal 0.991445 0.130525 0
    outer loop
      vertex 7.34999 0 10.8
      vertex 7.09955 1.90231 4.8
      vertex 7.09955 1.90231 10.8
    endloop
  endfacet
  facet normal 0.991445 0.130525 0
    outer loop
      vertex 7.09955 1.90231 4.8
      vertex 7.34999 0 10.8
      vertex 7.34999 0 4.8
    endloop
  endfacet
  facet normal 0.608765 0.793351 -0
    outer loop
      vertex 5.19722 5.19722 4.8
      vertex 3.67499 6.36528 10.8
      vertex 5.19722 5.19722 10.8
    endloop
  endfacet
  facet normal 0.608765 0.793351 0
    outer loop
      vertex 3.67499 6.36528 10.8
      vertex 5.19722 5.19722 4.8
      vertex 3.67499 6.36528 4.8
    endloop
  endfacet
  facet normal 0.608765 -0.793351 0
    outer loop
      vertex 3.67499 -6.36528 4.8
      vertex 5.19722 -5.19722 10.8
      vertex 3.67499 -6.36528 10.8
    endloop
  endfacet
  facet normal 0.608765 -0.793351 0
    outer loop
      vertex 5.19722 -5.19722 10.8
      vertex 3.67499 -6.36528 4.8
      vertex 5.19722 -5.19722 4.8
    endloop
  endfacet
  facet normal 0.130525 -0.991445 0
    outer loop
      vertex 0 -7.34999 4.8
      vertex 1.90231 -7.09955 10.8
      vertex 0 -7.34999 10.8
    endloop
  endfacet
  facet normal 0.130525 -0.991445 0
    outer loop
      vertex 1.90231 -7.09955 10.8
      vertex 0 -7.34999 4.8
      vertex 1.90231 -7.09955 4.8
    endloop
  endfacet
  facet normal 0.991445 -0.130525 0
    outer loop
      vertex 7.09955 -1.90231 10.8
      vertex 7.34999 0 4.8
      vertex 7.34999 0 10.8
    endloop
  endfacet
  facet normal 0.991445 -0.130525 0
    outer loop
      vertex 7.34999 0 4.8
      vertex 7.09955 -1.90231 10.8
      vertex 7.09955 -1.90231 4.8
    endloop
  endfacet
  facet normal 0.793351 0.608765 0
    outer loop
      vertex 6.36528 3.67499 10.8
      vertex 5.19722 5.19722 4.8
      vertex 5.19722 5.19722 10.8
    endloop
  endfacet
  facet normal 0.793351 0.608765 0
    outer loop
      vertex 5.19722 5.19722 4.8
      vertex 6.36528 3.67499 10.8
      vertex 6.36528 3.67499 4.8
    endloop
  endfacet
  facet normal 0.382684 -0.923879 0
    outer loop
      vertex 1.90231 -7.09955 4.8
      vertex 3.67499 -6.36528 10.8
      vertex 1.90231 -7.09955 10.8
    endloop
  endfacet
  facet normal 0.382684 -0.923879 0
    outer loop
      vertex 3.67499 -6.36528 10.8
      vertex 1.90231 -7.09955 4.8
      vertex 3.67499 -6.36528 4.8
    endloop
  endfacet
  facet normal 0 -1 0
    outer loop
      vertex -7.42499 4.95 4.8
      vertex 0 4.95 10.8
      vertex -7.42499 4.95 10.8
    endloop
  endfacet
  facet normal 0 -1 -0
    outer loop
      vertex 0 4.95 10.8
      vertex -7.42499 4.95 4.8
      vertex 0 4.95 4.8
    endloop
  endfacet
  facet normal 0 1 -0
    outer loop
      vertex 0 -4.95 4.8
      vertex -7.42499 -4.95 10.8
      vertex 0 -4.95 10.8
    endloop
  endfacet
  facet normal 0 1 0
    outer loop
      vertex -7.42499 -4.95 10.8
      vertex 0 -4.95 4.8
      vertex -7.42499 -4.95 4.8
    endloop
  endfacet
  facet normal -0.831469 -0.555571 0
    outer loop
      vertex 4.5732 1.89427 4.8
      vertex 3.50017 3.50017 10.8
      vertex 3.50017 3.50017 4.8
    endloop
  endfacet
  facet normal -0.831469 -0.555571 0
    outer loop
      vertex 3.50017 3.50017 10.8
      vertex 4.5732 1.89427 4.8
      vertex 4.5732 1.89427 10.8
    endloop
  endfacet
  facet normal -0.831469 0.555571 0
    outer loop
      vertex 3.50017 -3.50017 4.8
      vertex 4.5732 -1.89427 10.8
      vertex 4.5732 -1.89427 4.8
    endloop
  endfacet
  facet normal -0.831469 0.555571 0
    outer loop
      vertex 4.5732 -1.89427 10.8
      vertex 3.50017 -3.50017 4.8
      vertex 3.50017 -3.50017 10.8
    endloop
  endfacet
  facet normal -0.195094 0.980785 0
    outer loop
      vertex 1.89427 -4.5732 4.8
      vertex 0 -4.95 10.8
      vertex 1.89427 -4.5732 10.8
    endloop
  endfacet
  facet normal -0.195094 0.980785 0
    outer loop
      vertex 0 -4.95 10.8
      vertex 1.89427 -4.5732 4.8
      vertex 0 -4.95 4.8
    endloop
  endfacet
  facet normal -0.195094 -0.980785 0
    outer loop
      vertex 0 4.95 4.8
      vertex 1.89427 4.5732 10.8
      vertex 0 4.95 10.8
    endloop
  endfacet
  facet normal -0.195094 -0.980785 -0
    outer loop
      vertex 1.89427 4.5732 10.8
      vertex 0 4.95 4.8
      vertex 1.89427 4.5732 4.8
    endloop
  endfacet
  facet normal -0.555571 -0.831469 0
    outer loop
      vertex 1.89427 4.5732 4.8
      vertex 3.50017 3.50017 10.8
      vertex 1.89427 4.5732 10.8
    endloop
  endfacet
  facet normal -0.555571 -0.831469 -0
    outer loop
      vertex 3.50017 3.50017 10.8
      vertex 1.89427 4.5732 4.8
      vertex 3.50017 3.50017 4.8
    endloop
  endfacet
  facet normal -0.555571 0.831469 0
    outer loop
      vertex 3.50017 -3.50017 4.8
      vertex 1.89427 -4.5732 10.8
      vertex 3.50017 -3.50017 10.8
    endloop
  endfacet
  facet normal -0.555571 0.831469 0
    outer loop
      vertex 1.89427 -4.5732 10.8
      vertex 3.50017 -3.50017 4.8
      vertex 1.89427 -4.5732 4.8
    endloop
  endfacet
  facet normal -0.980785 -0.195094 0
    outer loop
      vertex 4.95 0 4.8
      vertex 4.5732 1.89427 10.8
      vertex 4.5732 1.89427 4.8
    endloop
  endfacet
  facet normal -0.980785 -0.195094 0
    outer loop
      vertex 4.5732 1.89427 10.8
      vertex 4.95 0 4.8
      vertex 4.95 0 10.8
    endloop
  endfacet
  facet normal -0.980785 0.195094 0
    outer loop
      vertex 4.5732 -1.89427 4.8
      vertex 4.95 0 10.8
      vertex 4.95 0 4.8
    endloop
  endfacet
  facet normal -0.980785 0.195094 0
    outer loop
      vertex 4.95 0 10.8
      vertex 4.5732 -1.89427 4.8
      vertex 4.5732 -1.89427 10.8
    endloop
  endfacet
  facet normal 0 0 -1
    outer loop
      vertex 1.53351 0 0
      vertex 7.34999 0 0
      vertex 7.09955 -1.90231 0
    endloop
  endfacet
  facet normal 0 0 -1
    outer loop
      vertex 1.40093 -0.623734 0
      vertex 7.09955 -1.90231 0
      vertex 6.36528 -3.67499 0
    endloop
  endfacet
  facet normal 0 0 -1
    outer loop
      vertex 7.34999 0 0
      vertex 1.53351 0 0
      vertex 7.09955 1.90231 0
    endloop
  endfacet
  facet normal 0 0 -1
    outer loop
      vertex 1.02612 -1.13962 0
      vertex 6.36528 -3.67499 0
      vertex 5.19722 -5.19722 0
    endloop
  endfacet
  facet normal 0 0 -1
    outer loop
      vertex 1.40093 0.623734 0
      vertex 7.09955 1.90231 0
      vertex 1.53351 0 0
    endloop
  endfacet
  facet normal 0 0 -1
    outer loop
      vertex 1.02612 -1.13962 0
      vertex 5.19722 -5.19722 0
      vertex 3.67499 -6.36528 0
    endloop
  endfacet
  facet normal -0 0 -1
    outer loop
      vertex 7.09955 1.90231 0
      vertex 1.40093 0.623734 0
      vertex 6.36528 3.67499 0
    endloop
  endfacet
  facet normal 0 0 -1
    outer loop
      vertex 0.473881 -1.45846 0
      vertex 3.67499 -6.36528 0
      vertex 1.90231 -7.09955 0
    endloop
  endfacet
  facet normal 0 0 -1
    outer loop
      vertex 1.02612 1.13962 0
      vertex 6.36528 3.67499 0
      vertex 1.40093 0.623734 0
    endloop
  endfacet
  facet normal -0 0 -1
    outer loop
      vertex 6.36528 3.67499 0
      vertex 1.02612 1.13962 0
      vertex 5.19722 5.19722 0
    endloop
  endfacet
  facet normal 0 0 -1
    outer loop
      vertex 7.09955 -1.90231 0
      vertex 1.40093 -0.623734 0
      vertex 1.53351 0 0
    endloop
  endfacet
  facet normal 0 0 -1
    outer loop
      vertex 6.36528 -3.67499 0
      vertex 1.02612 -1.13962 0
      vertex 1.40093 -0.623734 0
    endloop
  endfacet
  facet normal 0 0 -1
    outer loop
      vertex 3.67499 -6.36528 0
      vertex 0.473881 -1.45846 0
      vertex 1.02612 -1.13962 0
    endloop
  endfacet
  facet normal 0 0 -1
    outer loop
      vertex 0 -7.34999 0
      vertex 0.473881 -1.45846 0
      vertex 1.90231 -7.09955 0
    endloop
  endfacet
  facet normal 0 0 -1
    outer loop
      vertex 0 -7.34999 0
      vertex -0.160295 -1.52511 0
      vertex 0.473881 -1.45846 0
    endloop
  endfacet
  facet normal 0 0 -1
    outer loop
      vertex 0 -7.34999 0
      vertex -0.766755 -1.32806 0
      vertex -0.160295 -1.52511 0
    endloop
  endfacet
  facet normal 0 0 -1
    outer loop
      vertex -7.42499 -7.34999 0
      vertex -0.766755 -1.32806 0
      vertex 0 -7.34999 0
    endloop
  endfacet
  facet normal -0 0 -1
    outer loop
      vertex -0.766755 -1.32806 0
      vertex -7.42499 -7.34999 0
      vertex -1.24064 -0.901375 0
    endloop
  endfacet
  facet normal -0 0 -1
    outer loop
      vertex -1.5 -0.318834 0
      vertex -7.42499 -7.34999 0
      vertex -1.5 0.318834 0
    endloop
  endfacet
  facet normal -0 0 -1
    outer loop
      vertex -1.24064 -0.901375 0
      vertex -7.42499 -7.34999 0
      vertex -1.5 -0.318834 0
    endloop
  endfacet
  facet normal -0 0 -1
    outer loop
      vertex 5.19722 5.19722 0
      vertex 1.02612 1.13962 0
      vertex 3.67499 6.36528 0
    endloop
  endfacet
  facet normal 0 0 -1
    outer loop
      vertex 0.473881 1.45846 0
      vertex 3.67499 6.36528 0
      vertex 1.02612 1.13962 0
    endloop
  endfacet
  facet normal -0 0 -1
    outer loop
      vertex 3.67499 6.36528 0
      vertex 0.473881 1.45846 0
      vertex 1.90231 7.09955 0
    endloop
  endfacet
  facet normal 0 0 -1
    outer loop
      vertex 0.473881 1.45846 0
      vertex 0 7.34999 0
      vertex 1.90231 7.09955 0
    endloop
  endfacet
  facet normal 0 0 -1
    outer loop
      vertex -0.160295 1.52511 0
      vertex 0 7.34999 0
      vertex 0.473881 1.45846 0
    endloop
  endfacet
  facet normal 0 0 -1
    outer loop
      vertex -0.766755 1.32806 0
      vertex 0 7.34999 0
      vertex -0.160295 1.52511 0
    endloop
  endfacet
  facet normal 0 0 -1
    outer loop
      vertex -7.42499 7.34999 0
      vertex -0.766755 1.32806 0
      vertex -1.24064 0.901375 0
    endloop
  endfacet
  facet normal 0 0 -1
    outer loop
      vertex -7.42499 7.34999 0
      vertex -1.24064 0.901375 0
      vertex -1.5 0.318834 0
    endloop
  endfacet
  facet normal 0 0 -1
    outer loop
      vertex -7.42499 7.34999 0
      vertex -1.5 0.318834 0
      vertex -7.42499 -7.34999 0
    endloop
  endfacet
  facet normal 0 0 -1
    outer loop
      vertex -0.766755 1.32806 0
      vertex -7.42499 7.34999 0
      vertex 0 7.34999 0
    endloop
  endfacet
  facet normal 0 1 -0
    outer loop
      vertex 0 7.34999 0
      vertex -7.42499 7.34999 4.8
      vertex 0 7.34999 4.8
    endloop
  endfacet
  facet normal 0 1 0
    outer loop
      vertex -7.42499 7.34999 4.8
      vertex 0 7.34999 0
      vertex -7.42499 7.34999 0
    endloop
  endfacet
  facet normal -1 0 0
    outer loop
      vertex -7.42499 -7.34999 0
      vertex -7.42499 7.34999 4.8
      vertex -7.42499 7.34999 0
    endloop
  endfacet
  facet normal -1 -0 0
    outer loop
      vertex -7.42499 7.34999 4.8
      vertex -7.42499 -7.34999 0
      vertex -7.42499 -7.34999 4.8
    endloop
  endfacet
  facet normal 0 -1 0
    outer loop
      vertex -7.42499 -7.34999 0
      vertex 0 -7.34999 4.8
      vertex -7.42499 -7.34999 4.8
    endloop
  endfacet
  facet normal 0 -1 -0
    outer loop
      vertex 0 -7.34999 4.8
      vertex -7.42499 -7.34999 0
      vertex 0 -7.34999 0
    endloop
  endfacet
  facet normal 0 0 1
    outer loop
      vertex 3.19656 0 4.8
      vertex 7.34999 0 4.8
      vertex 7.09955 1.90231 4.8
    endloop
  endfacet
  facet normal 0 0 1
    outer loop
      vertex 3.19656 0 4.8
      vertex 7.09955 1.90231 4.8
      vertex 6.36528 3.67499 4.8
    endloop
  endfacet
  facet normal 0 0 1
    outer loop
      vertex 7.34999 0 4.8
      vertex 3.19656 0 4.8
      vertex 7.09955 -1.90231 4.8
    endloop
  endfacet
  facet normal 0 0 1
    outer loop
      vertex 1.59828 2.7683 4.8
      vertex 6.36528 3.67499 4.8
      vertex 5.19722 5.19722 4.8
    endloop
  endfacet
  facet normal 0 0 1
    outer loop
      vertex 7.09955 -1.90231 4.8
      vertex 3.19656 0 4.8
      vertex 6.36528 -3.67499 4.8
    endloop
  endfacet
  facet normal 0 0 1
    outer loop
      vertex 1.59828 2.7683 4.8
      vertex 5.19722 5.19722 4.8
      vertex 3.67499 6.36528 4.8
    endloop
  endfacet
  facet normal -0 0 1
    outer loop
      vertex 1.59828 -2.7683 4.8
      vertex 6.36528 -3.67499 4.8
      vertex 3.19656 0 4.8
    endloop
  endfacet
  facet normal 0 0 1
    outer loop
      vertex 6.36528 -3.67499 4.8
      vertex 1.59828 -2.7683 4.8
      vertex 5.19722 -5.19722 4.8
    endloop
  endfacet
  facet normal 0 0 1
    outer loop
      vertex 1.59828 2.7683 4.8
      vertex 3.67499 6.36528 4.8
      vertex 1.90231 7.09955 4.8
    endloop
  endfacet
  facet normal 0 0 1
    outer loop
      vertex 6.36528 3.67499 4.8
      vertex 1.59828 2.7683 4.8
      vertex 3.19656 0 4.8
    endloop
  endfacet
  facet normal 0 0 1
    outer loop
      vertex 0 7.34999 4.8
      vertex 1.59828 2.7683 4.8
      vertex 1.90231 7.09955 4.8
    endloop
  endfacet
  facet normal 0 0 1
    outer loop
      vertex 0 7.34999 4.8
      vertex -1.59828 2.7683 4.8
      vertex 1.59828 2.7683 4.8
    endloop
  endfacet
  facet normal -0 0 1
    outer loop
      vertex -7.42499 7.34999 4.8
      vertex -1.59828 2.7683 4.8
      vertex 0 7.34999 4.8
    endloop
  endfacet
  facet normal 0 0 1
    outer loop
      vertex -1.59828 2.7683 4.8
      vertex -7.42499 7.34999 4.8
      vertex -3.19656 0 4.8
    endloop
  endfacet
  facet normal 0 0 1
    outer loop
      vertex 5.19722 -5.19722 4.8
      vertex 1.59828 -2.7683 4.8
      vertex 3.67499 -6.36528 4.8
    endloop
  endfacet
  facet normal 0 0 1
    outer loop
      vertex 3.67499 -6.36528 4.8
      vertex 1.59828 -2.7683 4.8
      vertex 1.90231 -7.09955 4.8
    endloop
  endfacet
  facet normal 0 0 1
    outer loop
      vertex 1.59828 -2.7683 4.8
      vertex 0 -7.34999 4.8
      vertex 1.90231 -7.09955 4.8
    endloop
  endfacet
  facet normal -0 0 1
    outer loop
      vertex -1.59828 -2.7683 4.8
      vertex 0 -7.34999 4.8
      vertex 1.59828 -2.7683 4.8
    endloop
  endfacet
  facet normal 0 0 1
    outer loop
      vertex -7.42499 -7.34999 4.8
      vertex -1.59828 -2.7683 4.8
      vertex -3.19656 0 4.8
    endloop
  endfacet
  facet normal 0 0 1
    outer loop
      vertex -7.42499 -7.34999 4.8
      vertex -3.19656 0 4.8
      vertex -7.42499 7.34999 4.8
    endloop
  endfacet
  facet normal 0 0 1
    outer loop
      vertex -1.59828 -2.7683 4.8
      vertex -7.42499 -7.34999 4.8
      vertex 0 -7.34999 4.8
    endloop
  endfacet
  facet normal 0.923879 0.382684 0
    outer loop
      vertex 7.09955 1.90231 4.8
      vertex 6.36528 3.67499 0
      vertex 6.36528 3.67499 4.8
    endloop
  endfacet
  facet normal 0.923879 0.382684 0
    outer loop
      vertex 6.36528 3.67499 0
      vertex 7.09955 1.90231 4.8
      vertex 7.09955 1.90231 0
    endloop
  endfacet
  facet normal 0.923879 -0.382684 0
    outer loop
      vertex 6.36528 -3.67499 4.8
      vertex 7.09955 -1.90231 0
      vertex 7.09955 -1.90231 4.8
    endloop
  endfacet
  facet normal 0.923879 -0.382684 0
    outer loop
      vertex 7.09955 -1.90231 0
      vertex 6.36528 -3.67499 4.8
      vertex 6.36528 -3.67499 0
    endloop
  endfacet
  facet normal 0.382684 0.923879 -0
    outer loop
      vertex 3.67499 6.36528 0
      vertex 1.90231 7.09955 4.8
      vertex 3.67499 6.36528 4.8
    endloop
  endfacet
  facet normal 0.382684 0.923879 0
    outer loop
      vertex 1.90231 7.09955 4.8
      vertex 3.67499 6.36528 0
      vertex 1.90231 7.09955 0
    endloop
  endfacet
  facet normal 0.130525 0.991445 -0
    outer loop
      vertex 1.90231 7.09955 0
      vertex 0 7.34999 4.8
      vertex 1.90231 7.09955 4.8
    endloop
  endfacet
  facet normal 0.130525 0.991445 0
    outer loop
      vertex 0 7.34999 4.8
      vertex 1.90231 7.09955 0
      vertex 0 7.34999 0
    endloop
  endfacet
  facet normal 0.608765 0.793351 -0
    outer loop
      vertex 5.19722 5.19722 0
      vertex 3.67499 6.36528 4.8
      vertex 5.19722 5.19722 4.8
    endloop
  endfacet
  facet normal 0.608765 0.793351 0
    outer loop
      vertex 3.67499 6.36528 4.8
      vertex 5.19722 5.19722 0
      vertex 3.67499 6.36528 0
    endloop
  endfacet
  facet normal 0.608765 -0.793351 0
    outer loop
      vertex 3.67499 -6.36528 0
      vertex 5.19722 -5.19722 4.8
      vertex 3.67499 -6.36528 4.8
    endloop
  endfacet
  facet normal 0.608765 -0.793351 0
    outer loop
      vertex 5.19722 -5.19722 4.8
      vertex 3.67499 -6.36528 0
      vertex 5.19722 -5.19722 0
    endloop
  endfacet
  facet normal 0.130525 -0.991445 0
    outer loop
      vertex 0 -7.34999 0
      vertex 1.90231 -7.09955 4.8
      vertex 0 -7.34999 4.8
    endloop
  endfacet
  facet normal 0.130525 -0.991445 0
    outer loop
      vertex 1.90231 -7.09955 4.8
      vertex 0 -7.34999 0
      vertex 1.90231 -7.09955 0
    endloop
  endfacet
  facet normal 0.991445 0.130525 0
    outer loop
      vertex 7.34999 0 4.8
      vertex 7.09955 1.90231 0
      vertex 7.09955 1.90231 4.8
    endloop
  endfacet
  facet normal 0.991445 0.130525 0
    outer loop
      vertex 7.09955 1.90231 0
      vertex 7.34999 0 4.8
      vertex 7.34999 0 0
    endloop
  endfacet
  facet normal 0.991445 -0.130525 0
    outer loop
      vertex 7.09955 -1.90231 4.8
      vertex 7.34999 0 0
      vertex 7.34999 0 4.8
    endloop
  endfacet
  facet normal 0.991445 -0.130525 0
    outer loop
      vertex 7.34999 0 0
      vertex 7.09955 -1.90231 4.8
      vertex 7.09955 -1.90231 0
    endloop
  endfacet
  facet normal 0.793351 0.608765 0
    outer loop
      vertex 6.36528 3.67499 4.8
      vertex 5.19722 5.19722 0
      vertex 5.19722 5.19722 4.8
    endloop
  endfacet
  facet normal 0.793351 0.608765 0
    outer loop
      vertex 5.19722 5.19722 0
      vertex 6.36528 3.67499 4.8
      vertex 6.36528 3.67499 0
    endloop
  endfacet
  facet normal 0.793351 -0.608765 0
    outer loop
      vertex 5.19722 -5.19722 4.8
      vertex 6.36528 -3.67499 0
      vertex 6.36528 -3.67499 4.8
    endloop
  endfacet
  facet normal 0.793351 -0.608765 0
    outer loop
      vertex 6.36528 -3.67499 0
      vertex 5.19722 -5.19722 4.8
      vertex 5.19722 -5.19722 0
    endloop
  endfacet
  facet normal 0.382684 -0.923879 0
    outer loop
      vertex 1.90231 -7.09955 0
      vertex 3.67499 -6.36528 4.8
      vertex 1.90231 -7.09955 4.8
    endloop
  endfacet
  facet normal 0.382684 -0.923879 0
    outer loop
      vertex 3.67499 -6.36528 4.8
      vertex 1.90231 -7.09955 0
      vertex 3.67499 -6.36528 0
    endloop
  endfacet
  facet normal -0.978148 -0.207912 0
    outer loop
      vertex 1.53351 0 0
      vertex 1.40093 0.623734 1.6
      vertex 1.40093 0.623734 0
    endloop
  endfacet
  facet normal -0.978148 -0.207912 0
    outer loop
      vertex 1.40093 0.623734 1.6
      vertex 1.53351 0 0
      vertex 1.53351 0 1.6
    endloop
  endfacet
  facet normal 1 -0 0
    outer loop
      vertex -1.5 -0.318834 1.6
      vertex -1.5 0.318834 0
      vertex -1.5 0.318834 1.6
    endloop
  endfacet
  facet normal 1 0 0
    outer loop
      vertex -1.5 0.318834 0
      vertex -1.5 -0.318834 1.6
      vertex -1.5 -0.318834 0
    endloop
  endfacet
  facet normal -0.104528 -0.994522 0
    outer loop
      vertex -0.160295 1.52511 0
      vertex 0.473881 1.45846 1.6
      vertex -0.160295 1.52511 1.6
    endloop
  endfacet
  facet normal -0.104528 -0.994522 -0
    outer loop
      vertex 0.473881 1.45846 1.6
      vertex -0.160295 1.52511 0
      vertex 0.473881 1.45846 0
    endloop
  endfacet
  facet normal -0.500001 0.866025 0
    outer loop
      vertex 1.02612 -1.13962 0
      vertex 0.473881 -1.45846 1.6
      vertex 1.02612 -1.13962 1.6
    endloop
  endfacet
  facet normal -0.500001 0.866025 0
    outer loop
      vertex 0.473881 -1.45846 1.6
      vertex 1.02612 -1.13962 0
      vertex 0.473881 -1.45846 0
    endloop
  endfacet
  facet normal -0.104528 0.994522 0
    outer loop
      vertex 0.473881 -1.45846 0
      vertex -0.160295 -1.52511 1.6
      vertex 0.473881 -1.45846 1.6
    endloop
  endfacet
  facet normal -0.104528 0.994522 0
    outer loop
      vertex -0.160295 -1.52511 1.6
      vertex 0.473881 -1.45846 0
      vertex -0.160295 -1.52511 0
    endloop
  endfacet
  facet normal -0.500001 -0.866025 0
    outer loop
      vertex 0.473881 1.45846 0
      vertex 1.02612 1.13962 1.6
      vertex 0.473881 1.45846 1.6
    endloop
  endfacet
  facet normal -0.500001 -0.866025 -0
    outer loop
      vertex 1.02612 1.13962 1.6
      vertex 0.473881 1.45846 0
      vertex 1.02612 1.13962 0
    endloop
  endfacet
  facet normal -0.809017 -0.587786 0
    outer loop
      vertex 1.40093 0.623734 0
      vertex 1.02612 1.13962 1.6
      vertex 1.02612 1.13962 0
    endloop
  endfacet
  facet normal -0.809017 -0.587786 0
    outer loop
      vertex 1.02612 1.13962 1.6
      vertex 1.40093 0.623734 0
      vertex 1.40093 0.623734 1.6
    endloop
  endfacet
  facet normal 0.309016 -0.951057 0
    outer loop
      vertex -0.766755 1.32806 0
      vertex -0.160295 1.52511 1.6
      vertex -0.766755 1.32806 1.6
    endloop
  endfacet
  facet normal 0.309016 -0.951057 0
    outer loop
      vertex -0.160295 1.52511 1.6
      vertex -0.766755 1.32806 0
      vertex -0.160295 1.52511 0
    endloop
  endfacet
  facet normal 0.669131 -0.743145 0
    outer loop
      vertex -1.24064 0.901375 0
      vertex -0.766755 1.32806 1.6
      vertex -1.24064 0.901375 1.6
    endloop
  endfacet
  facet normal 0.669131 -0.743145 0
    outer loop
      vertex -0.766755 1.32806 1.6
      vertex -1.24064 0.901375 0
      vertex -0.766755 1.32806 0
    endloop
  endfacet
  facet normal 0.913545 -0.406737 0
    outer loop
      vertex -1.5 0.318834 1.6
      vertex -1.24064 0.901375 0
      vertex -1.24064 0.901375 1.6
    endloop
  endfacet
  facet normal 0.913545 -0.406737 0
    outer loop
      vertex -1.24064 0.901375 0
      vertex -1.5 0.318834 1.6
      vertex -1.5 0.318834 0
    endloop
  endfacet
  facet normal 0.913545 0.406737 0
    outer loop
      vertex -1.24064 -0.901375 1.6
      vertex -1.5 -0.318834 0
      vertex -1.5 -0.318834 1.6
    endloop
  endfacet
  facet normal 0.913545 0.406737 0
    outer loop
      vertex -1.5 -0.318834 0
      vertex -1.24064 -0.901375 1.6
      vertex -1.24064 -0.901375 0
    endloop
  endfacet
  facet normal 0.309016 0.951057 -0
    outer loop
      vertex -0.160295 -1.52511 0
      vertex -0.766755 -1.32806 1.6
      vertex -0.160295 -1.52511 1.6
    endloop
  endfacet
  facet normal 0.309016 0.951057 0
    outer loop
      vertex -0.766755 -1.32806 1.6
      vertex -0.160295 -1.52511 0
      vertex -0.766755 -1.32806 0
    endloop
  endfacet
  facet normal 0.669131 0.743145 -0
    outer loop
      vertex -0.766755 -1.32806 0
      vertex -1.24064 -0.901375 1.6
      vertex -0.766755 -1.32806 1.6
    endloop
  endfacet
  facet normal 0.669131 0.743145 0
    outer loop
      vertex -1.24064 -0.901375 1.6
      vertex -0.766755 -1.32806 0
      vertex -1.24064 -0.901375 0
    endloop
  endfacet
  facet normal -0.809017 0.587786 0
    outer loop
      vertex 1.02612 -1.13962 0
      vertex 1.40093 -0.623734 1.6
      vertex 1.40093 -0.623734 0
    endloop
  endfacet
  facet normal -0.809017 0.587786 0
    outer loop
      vertex 1.40093 -0.623734 1.6
      vertex 1.02612 -1.13962 0
      vertex 1.02612 -1.13962 1.6
    endloop
  endfacet
  facet normal -0.978148 0.207912 0
    outer loop
      vertex 1.40093 -0.623734 0
      vertex 1.53351 0 1.6
      vertex 1.53351 0 0
    endloop
  endfacet
  facet normal -0.978148 0.207912 0
    outer loop
      vertex 1.53351 0 1.6
      vertex 1.40093 -0.623734 0
      vertex 1.40093 -0.623734 1.6
    endloop
  endfacet
  facet normal -0.866025 -0.5 0
    outer loop
      vertex 3.19656 0 1.6
      vertex 1.59828 2.7683 4.8
      vertex 1.59828 2.7683 1.6
    endloop
  endfacet
  facet normal -0.866025 -0.5 0
    outer loop
      vertex 1.59828 2.7683 4.8
      vertex 3.19656 0 1.6
      vertex 3.19656 0 4.8
    endloop
  endfacet
  facet normal 0.866025 -0.5 0
    outer loop
      vertex -3.19656 0 4.8
      vertex -1.59828 2.7683 1.6
      vertex -1.59828 2.7683 4.8
    endloop
  endfacet
  facet normal 0.866025 -0.5 0
    outer loop
      vertex -1.59828 2.7683 1.6
      vertex -3.19656 0 4.8
      vertex -3.19656 0 1.6
    endloop
  endfacet
  facet normal 0 -1 0
    outer loop
      vertex -1.59828 2.7683 1.6
      vertex 1.59828 2.7683 4.8
      vertex -1.59828 2.7683 4.8
    endloop
  endfacet
  facet normal 0 -1 -0
    outer loop
      vertex 1.59828 2.7683 4.8
      vertex -1.59828 2.7683 1.6
      vertex 1.59828 2.7683 1.6
    endloop
  endfacet
  facet normal -0.866025 0.5 0
    outer loop
      vertex 1.59828 -2.7683 1.6
      vertex 3.19656 0 4.8
      vertex 3.19656 0 1.6
    endloop
  endfacet
  facet normal -0.866025 0.5 0
    outer loop
      vertex 3.19656 0 4.8
      vertex 1.59828 -2.7683 1.6
      vertex 1.59828 -2.7683 4.8
    endloop
  endfacet
  facet normal -0 0 1
    outer loop
      vertex 1.40093 0.623734 1.6
      vertex 3.19656 0 1.6
      vertex 1.59828 2.7683 1.6
    endloop
  endfacet
  facet normal 0 0 1
    outer loop
      vertex 1.40093 -0.623734 1.6
      vertex 3.19656 0 1.6
      vertex 1.53351 0 1.6
    endloop
  endfacet
  facet normal 0 0 1
    outer loop
      vertex 3.19656 0 1.6
      vertex 1.40093 0.623734 1.6
      vertex 1.53351 0 1.6
    endloop
  endfacet
  facet normal 0 0 1
    outer loop
      vertex 1.59828 2.7683 1.6
      vertex 1.02612 1.13962 1.6
      vertex 1.40093 0.623734 1.6
    endloop
  endfacet
  facet normal 0 0 1
    outer loop
      vertex 1.59828 2.7683 1.6
      vertex 0.473881 1.45846 1.6
      vertex 1.02612 1.13962 1.6
    endloop
  endfacet
  facet normal 0 0 1
    outer loop
      vertex 1.59828 2.7683 1.6
      vertex -0.160295 1.52511 1.6
      vertex 0.473881 1.45846 1.6
    endloop
  endfacet
  facet normal -0 0 1
    outer loop
      vertex -1.59828 2.7683 1.6
      vertex -0.160295 1.52511 1.6
      vertex 1.59828 2.7683 1.6
    endloop
  endfacet
  facet normal 0 0 1
    outer loop
      vertex -1.24064 0.901375 1.6
      vertex -3.19656 0 1.6
      vertex -1.5 0.318834 1.6
    endloop
  endfacet
  facet normal 0 0 1
    outer loop
      vertex -3.19656 0 1.6
      vertex -1.24064 0.901375 1.6
      vertex -1.59828 2.7683 1.6
    endloop
  endfacet
  facet normal 0 0 1
    outer loop
      vertex -0.766755 1.32806 1.6
      vertex -1.59828 2.7683 1.6
      vertex -1.24064 0.901375 1.6
    endloop
  endfacet
  facet normal 0 0 1
    outer loop
      vertex -0.160295 1.52511 1.6
      vertex -1.59828 2.7683 1.6
      vertex -0.766755 1.32806 1.6
    endloop
  endfacet
  facet normal 0 0 1
    outer loop
      vertex 3.19656 0 1.6
      vertex 1.40093 -0.623734 1.6
      vertex 1.59828 -2.7683 1.6
    endloop
  endfacet
  facet normal -0 0 1
    outer loop
      vertex 1.02612 -1.13962 1.6
      vertex 1.59828 -2.7683 1.6
      vertex 1.40093 -0.623734 1.6
    endloop
  endfacet
  facet normal -0 0 1
    outer loop
      vertex 0.473881 -1.45846 1.6
      vertex 1.59828 -2.7683 1.6
      vertex 1.02612 -1.13962 1.6
    endloop
  endfacet
  facet normal -0 0 1
    outer loop
      vertex -0.160295 -1.52511 1.6
      vertex 1.59828 -2.7683 1.6
      vertex 0.473881 -1.45846 1.6
    endloop
  endfacet
  facet normal 0 0 1
    outer loop
      vertex -1.59828 -2.7683 1.6
      vertex -0.160295 -1.52511 1.6
      vertex -0.766755 -1.32806 1.6
    endloop
  endfacet
  facet normal 0 0 1
    outer loop
      vertex -0.160295 -1.52511 1.6
      vertex -1.59828 -2.7683 1.6
      vertex 1.59828 -2.7683 1.6
    endloop
  endfacet
  facet normal 0 0 1
    outer loop
      vertex -1.24064 -0.901375 1.6
      vertex -1.59828 -2.7683 1.6
      vertex -0.766755 -1.32806 1.6
    endloop
  endfacet
  facet normal 0 0 1
    outer loop
      vertex -3.19656 0 1.6
      vertex -1.24064 -0.901375 1.6
      vertex -1.5 -0.318834 1.6
    endloop
  endfacet
  facet normal 0 0 1
    outer loop
      vertex -1.5 0.318834 1.6
      vertex -3.19656 0 1.6
      vertex -1.5 -0.318834 1.6
    endloop
  endfacet
  facet normal 0 0 1
    outer loop
      vertex -1.24064 -0.901375 1.6
      vertex -3.19656 0 1.6
      vertex -1.59828 -2.7683 1.6
    endloop
  endfacet
  facet normal 0 1 -0
    outer loop
      vertex 1.59828 -2.7683 1.6
      vertex -1.59828 -2.7683 4.8
      vertex 1.59828 -2.7683 4.8
    endloop
  endfacet
  facet normal 0 1 0
    outer loop
      vertex -1.59828 -2.7683 4.8
      vertex 1.59828 -2.7683 1.6
      vertex -1.59828 -2.7683 1.6
    endloop
  endfacet
  facet normal 0.866025 0.5 0
    outer loop
      vertex -1.59828 -2.7683 4.8
      vertex -3.19656 0 1.6
      vertex -3.19656 0 4.8
    endloop
  endfacet
  facet normal 0.866025 0.5 0
    outer loop
      vertex -3.19656 0 1.6
      vertex -1.59828 -2.7683 4.8
      vertex -1.59828 -2.7683 1.6
    endloop
  endfacet
endsolid OpenSCAD_Model
