solid OpenSCAD_Model
  facet normal -1 0 0
    outer loop
      vertex -45.25 20.55 -2.95
      vertex -45.25 10.55 -1.95
      vertex -45.25 20.55 -1.95
    endloop
  endfacet
  facet normal -1 0 0
    outer loop
      vertex -45.25 10.55 -1.95
      vertex -45.25 -10.55 -1.95
      vertex -45.25 10.55 2.95
    endloop
  endfacet
  facet normal -1 0 0
    outer loop
      vertex -45.25 20.55 -2.95
      vertex -45.25 -10.55 -1.95
      vertex -45.25 10.55 -1.95
    endloop
  endfacet
  facet normal -1 0 0
    outer loop
      vertex -45.25 -20.55 -2.95
      vertex -45.25 -10.55 -1.95
      vertex -45.25 20.55 -2.95
    endloop
  endfacet
  facet normal -1 -0 0
    outer loop
      vertex -45.25 -10.55 -1.95
      vertex -45.25 -20.55 -2.95
      vertex -45.25 -20.55 -1.95
    endloop
  endfacet
  facet normal -1 -0 0
    outer loop
      vertex -45.25 10.55 2.95
      vertex -45.25 -10.55 -1.95
      vertex -45.25 -10.55 2.95
    endloop
  endfacet
  facet normal 0 0 1
    outer loop
      vertex 45.25 10.55 2.95
      vertex 44.05 9.35 2.95
      vertex 45.25 -10.55 2.95
    endloop
  endfacet
  facet normal 0 0 1
    outer loop
      vertex 45.25 10.55 2.95
      vertex -44.05 9.35 2.95
      vertex 44.05 9.35 2.95
    endloop
  endfacet
  facet normal 0 0 1
    outer loop
      vertex -44.05 9.35 2.95
      vertex -45.25 10.55 2.95
      vertex -44.05 -9.35 2.95
    endloop
  endfacet
  facet normal -0 0 1
    outer loop
      vertex -45.25 10.55 2.95
      vertex -44.05 9.35 2.95
      vertex 45.25 10.55 2.95
    endloop
  endfacet
  facet normal -0 0 1
    outer loop
      vertex 44.05 -9.35 2.95
      vertex 45.25 -10.55 2.95
      vertex 44.05 9.35 2.95
    endloop
  endfacet
  facet normal -0 0 1
    outer loop
      vertex -44.05 -9.35 2.95
      vertex 45.25 -10.55 2.95
      vertex 44.05 -9.35 2.95
    endloop
  endfacet
  facet normal 0 0 1
    outer loop
      vertex -44.05 -9.35 2.95
      vertex -45.25 -10.55 2.95
      vertex 45.25 -10.55 2.95
    endloop
  endfacet
  facet normal 0 0 1
    outer loop
      vertex -45.25 -10.55 2.95
      vertex -44.05 -9.35 2.95
      vertex -45.25 10.55 2.95
    endloop
  endfacet
  facet normal 1 0 0
    outer loop
      vertex 45.25 10.55 2.95
      vertex 45.25 -10.55 2.95
      vertex 45.25 10.55 -1.95
    endloop
  endfacet
  facet normal 1 -0 0
    outer loop
      vertex 45.25 10.55 -1.95
      vertex 45.25 20.55 -2.95
      vertex 45.25 20.55 -1.95
    endloop
  endfacet
  facet normal 1 0 0
    outer loop
      vertex 45.25 -10.55 -1.95
      vertex 45.25 10.55 -1.95
      vertex 45.25 -10.55 2.95
    endloop
  endfacet
  facet normal 1 -0 0
    outer loop
      vertex 45.25 -10.55 -1.95
      vertex 45.25 20.55 -2.95
      vertex 45.25 10.55 -1.95
    endloop
  endfacet
  facet normal 1 0 0
    outer loop
      vertex 45.25 -20.55 -2.95
      vertex 45.25 -10.55 -1.95
      vertex 45.25 -20.55 -1.95
    endloop
  endfacet
  facet normal 1 0 0
    outer loop
      vertex 45.25 -10.55 -1.95
      vertex 45.25 -20.55 -2.95
      vertex 45.25 20.55 -2.95
    endloop
  endfacet
  facet normal 0 0 -1
    outer loop
      vertex -45.25 -20.55 -2.95
      vertex 45.25 20.55 -2.95
      vertex 45.25 -20.55 -2.95
    endloop
  endfacet
  facet normal -0 0 -1
    outer loop
      vertex 45.25 20.55 -2.95
      vertex -45.25 -20.55 -2.95
      vertex -45.25 20.55 -2.95
    endloop
  endfacet
  facet normal 0 -1 0
    outer loop
      vertex -45.25 -10.55 -1.95
      vertex 45.25 -10.55 2.95
      vertex -45.25 -10.55 2.95
    endloop
  endfacet
  facet normal 0 -1 -0
    outer loop
      vertex 45.25 -10.55 2.95
      vertex -45.25 -10.55 -1.95
      vertex 45.25 -10.55 -1.95
    endloop
  endfacet
  facet normal 0 1 -0
    outer loop
      vertex 45.25 10.55 -1.95
      vertex -45.25 10.55 2.95
      vertex 45.25 10.55 2.95
    endloop
  endfacet
  facet normal 0 1 0
    outer loop
      vertex -45.25 10.55 2.95
      vertex 45.25 10.55 -1.95
      vertex -45.25 10.55 -1.95
    endloop
  endfacet
  facet normal -0 0 1
    outer loop
      vertex -45.25 -10.55 -1.95
      vertex 45.25 -20.55 -1.95
      vertex 45.25 -10.55 -1.95
    endloop
  endfacet
  facet normal 0 0 1
    outer loop
      vertex 45.25 -20.55 -1.95
      vertex -45.25 -10.55 -1.95
      vertex -45.25 -20.55 -1.95
    endloop
  endfacet
  facet normal -0 0 1
    outer loop
      vertex -45.25 20.55 -1.95
      vertex 45.25 10.55 -1.95
      vertex 45.25 20.55 -1.95
    endloop
  endfacet
  facet normal 0 0 1
    outer loop
      vertex 45.25 10.55 -1.95
      vertex -45.25 20.55 -1.95
      vertex -45.25 10.55 -1.95
    endloop
  endfacet
  facet normal 0 1 -0
    outer loop
      vertex 45.25 20.55 -2.95
      vertex -45.25 20.55 -1.95
      vertex 45.25 20.55 -1.95
    endloop
  endfacet
  facet normal 0 1 0
    outer loop
      vertex -45.25 20.55 -1.95
      vertex 45.25 20.55 -2.95
      vertex -45.25 20.55 -2.95
    endloop
  endfacet
  facet normal 0 -1 0
    outer loop
      vertex -45.25 -20.55 -2.95
      vertex 45.25 -20.55 -1.95
      vertex -45.25 -20.55 -1.95
    endloop
  endfacet
  facet normal 0 -1 -0
    outer loop
      vertex 45.25 -20.55 -1.95
      vertex -45.25 -20.55 -2.95
      vertex 45.25 -20.55 -2.95
    endloop
  endfacet
  facet normal 1 -0 0
    outer loop
      vertex -44.05 -9.35 2.95
      vertex -44.05 9.35 0.45
      vertex -44.05 9.35 2.95
    endloop
  endfacet
  facet normal 1 0 0
    outer loop
      vertex -44.05 9.35 0.45
      vertex -44.05 -9.35 2.95
      vertex -44.05 -9.35 0.45
    endloop
  endfacet
  facet normal -1 0 0
    outer loop
      vertex 44.05 -9.35 0.45
      vertex 44.05 9.35 2.95
      vertex 44.05 9.35 0.45
    endloop
  endfacet
  facet normal -1 -0 0
    outer loop
      vertex 44.05 9.35 2.95
      vertex 44.05 -9.35 0.45
      vertex 44.05 -9.35 2.95
    endloop
  endfacet
  facet normal -0 0 1
    outer loop
      vertex -44.05 9.35 0.45
      vertex 44.05 -9.35 0.45
      vertex 44.05 9.35 0.45
    endloop
  endfacet
  facet normal 0 0 1
    outer loop
      vertex 44.05 -9.35 0.45
      vertex -44.05 9.35 0.45
      vertex -44.05 -9.35 0.45
    endloop
  endfacet
  facet normal 0 1 -0
    outer loop
      vertex 44.05 -9.35 0.45
      vertex -44.05 -9.35 2.95
      vertex 44.05 -9.35 2.95
    endloop
  endfacet
  facet normal 0 1 0
    outer loop
      vertex -44.05 -9.35 2.95
      vertex 44.05 -9.35 0.45
      vertex -44.05 -9.35 0.45
    endloop
  endfacet
  facet normal 0 -1 0
    outer loop
      vertex -44.05 9.35 0.45
      vertex 44.05 9.35 2.95
      vertex -44.05 9.35 2.95
    endloop
  endfacet
  facet normal 0 -1 -0
    outer loop
      vertex 44.05 9.35 2.95
      vertex -44.05 9.35 0.45
      vertex 44.05 9.35 0.45
    endloop
  endfacet
endsolid OpenSCAD_Model
