solid OpenSCAD_Model
  facet normal -1 0 0
    outer loop
      vertex -4.8 -104.8 0
      vertex -4.8 -103.394 84.8
      vertex -4.8 -103.394 0
    endloop
  endfacet
  facet normal -1 -0 0
    outer loop
      vertex -4.8 -103.394 84.8
      vertex -4.8 -104.8 0
      vertex -4.8 -104.8 84.8
    endloop
  endfacet
  facet normal -1 0 0
    outer loop
      vertex -4.8 -96.6059 0
      vertex -4.8 -4.8 84.8
      vertex -4.8 -4.8 0
    endloop
  endfacet
  facet normal -1 -0 0
    outer loop
      vertex -4.8 -4.8 84.8
      vertex -4.8 -96.6059 0
      vertex -4.8 -96.6059 84.8
    endloop
  endfacet
  facet normal 0 0 1
    outer loop
      vertex 104.8 104.8 84.8
      vertex 100 100 84.8
      vertex 104.8 -104.8 84.8
    endloop
  endfacet
  facet normal -0 0 1
    outer loop
      vertex -104.8 104.8 84.8
      vertex 100 100 84.8
      vertex 104.8 104.8 84.8
    endloop
  endfacet
  facet normal 0 0 1
    outer loop
      vertex 100 100 84.8
      vertex -104.8 104.8 84.8
      vertex -104.8 100 84.8
    endloop
  endfacet
  facet normal 0 0 1
    outer loop
      vertex 104.8 -104.8 84.8
      vertex 100 100 84.8
      vertex 100 -104.8 84.8
    endloop
  endfacet
  facet normal 0 0 1
    outer loop
      vertex -96.6059 -4.8 84.8
      vertex -4.8 -103.394 84.8
      vertex -4.8 -96.6059 84.8
    endloop
  endfacet
  facet normal 0 0 1
    outer loop
      vertex -4.8 -103.394 84.8
      vertex -96.6059 -4.8 84.8
      vertex -103.394 -4.8 84.8
    endloop
  endfacet
  facet normal 0 0 1
    outer loop
      vertex -4.8 -96.6059 84.8
      vertex 0 0 84.8
      vertex -4.8 -4.8 84.8
    endloop
  endfacet
  facet normal 0 0 1
    outer loop
      vertex 0 0 84.8
      vertex -96.6059 -4.8 84.8
      vertex -4.8 -4.8 84.8
    endloop
  endfacet
  facet normal -0 0 1
    outer loop
      vertex -104.8 0 84.8
      vertex -96.6059 -4.8 84.8
      vertex 0 0 84.8
    endloop
  endfacet
  facet normal 0 0 1
    outer loop
      vertex -96.6059 -4.8 84.8
      vertex -104.8 0 84.8
      vertex -103.394 -4.8 84.8
    endloop
  endfacet
  facet normal 0 0 1
    outer loop
      vertex -103.394 -4.8 84.8
      vertex -104.8 0 84.8
      vertex -104.8 -4.8 84.8
    endloop
  endfacet
  facet normal 0 0 1
    outer loop
      vertex 0 0 84.8
      vertex -4.8 -96.6059 84.8
      vertex 0 -104.8 84.8
    endloop
  endfacet
  facet normal -0 0 1
    outer loop
      vertex -4.8 -103.394 84.8
      vertex 0 -104.8 84.8
      vertex -4.8 -96.6059 84.8
    endloop
  endfacet
  facet normal 0 0 1
    outer loop
      vertex 0 -104.8 84.8
      vertex -4.8 -103.394 84.8
      vertex -4.8 -104.8 84.8
    endloop
  endfacet
  facet normal 1 -0 0
    outer loop
      vertex 104.8 -104.8 84.8
      vertex 104.8 104.8 0
      vertex 104.8 104.8 84.8
    endloop
  endfacet
  facet normal 1 0 0
    outer loop
      vertex 104.8 104.8 0
      vertex 104.8 -104.8 84.8
      vertex 104.8 -104.8 0
    endloop
  endfacet
  facet normal 0 1 -0
    outer loop
      vertex 104.8 104.8 0
      vertex -104.8 104.8 84.8
      vertex 104.8 104.8 84.8
    endloop
  endfacet
  facet normal 0 1 0
    outer loop
      vertex -104.8 104.8 84.8
      vertex 104.8 104.8 0
      vertex -104.8 104.8 0
    endloop
  endfacet
  facet normal 0 0 -1
    outer loop
      vertex -4.8 -103.394 0
      vertex -96.6059 -4.8 0
      vertex -4.8 -96.6059 0
    endloop
  endfacet
  facet normal -0 -0 -1
    outer loop
      vertex -96.6059 -4.8 0
      vertex -4.8 -103.394 0
      vertex -103.394 -4.8 0
    endloop
  endfacet
  facet normal 0 0 -1
    outer loop
      vertex -4.8 -103.394 0
      vertex 104.8 -104.8 0
      vertex -4.8 -104.8 0
    endloop
  endfacet
  facet normal 0 0 -1
    outer loop
      vertex -4.8 -96.6059 0
      vertex 104.8 -104.8 0
      vertex -4.8 -103.394 0
    endloop
  endfacet
  facet normal 0 0 -1
    outer loop
      vertex -4.8 -4.8 0
      vertex 104.8 -104.8 0
      vertex -4.8 -96.6059 0
    endloop
  endfacet
  facet normal 0 0 -1
    outer loop
      vertex 104.8 -104.8 0
      vertex -4.8 -4.8 0
      vertex 104.8 104.8 0
    endloop
  endfacet
  facet normal 0 0 -1
    outer loop
      vertex -104.8 104.8 0
      vertex -4.8 -4.8 0
      vertex -96.6059 -4.8 0
    endloop
  endfacet
  facet normal 0 0 -1
    outer loop
      vertex -104.8 104.8 0
      vertex -96.6059 -4.8 0
      vertex -103.394 -4.8 0
    endloop
  endfacet
  facet normal 0 0 -1
    outer loop
      vertex -104.8 104.8 0
      vertex -103.394 -4.8 0
      vertex -104.8 -4.8 0
    endloop
  endfacet
  facet normal 0 0 -1
    outer loop
      vertex -4.8 -4.8 0
      vertex -104.8 104.8 0
      vertex 104.8 104.8 0
    endloop
  endfacet
  facet normal 0 -1 0
    outer loop
      vertex -4.8 -104.8 84.8
      vertex 0 -104.8 4.8
      vertex 0 -104.8 84.8
    endloop
  endfacet
  facet normal 0 -1 -0
    outer loop
      vertex 0 -104.8 4.8
      vertex -4.8 -104.8 0
      vertex 100 -104.8 4.8
    endloop
  endfacet
  facet normal 0 -1 0
    outer loop
      vertex -4.8 -104.8 0
      vertex 0 -104.8 4.8
      vertex -4.8 -104.8 84.8
    endloop
  endfacet
  facet normal 0 -1 0
    outer loop
      vertex 100 -104.8 4.8
      vertex 104.8 -104.8 84.8
      vertex 100 -104.8 84.8
    endloop
  endfacet
  facet normal 0 -1 0
    outer loop
      vertex 100 -104.8 4.8
      vertex 104.8 -104.8 0
      vertex 104.8 -104.8 84.8
    endloop
  endfacet
  facet normal 0 -1 0
    outer loop
      vertex 104.8 -104.8 0
      vertex 100 -104.8 4.8
      vertex -4.8 -104.8 0
    endloop
  endfacet
  facet normal 0 -1 0
    outer loop
      vertex -104.8 -4.8 0
      vertex -103.394 -4.8 84.8
      vertex -104.8 -4.8 84.8
    endloop
  endfacet
  facet normal 0 -1 -0
    outer loop
      vertex -103.394 -4.8 84.8
      vertex -104.8 -4.8 0
      vertex -103.394 -4.8 0
    endloop
  endfacet
  facet normal 0 -1 0
    outer loop
      vertex -96.6059 -4.8 0
      vertex -4.8 -4.8 84.8
      vertex -96.6059 -4.8 84.8
    endloop
  endfacet
  facet normal 0 -1 -0
    outer loop
      vertex -4.8 -4.8 84.8
      vertex -96.6059 -4.8 0
      vertex -4.8 -4.8 0
    endloop
  endfacet
  facet normal -1 0 0
    outer loop
      vertex -104.8 104.8 0
      vertex -104.8 100 4.8
      vertex -104.8 104.8 84.8
    endloop
  endfacet
  facet normal -1 0 0
    outer loop
      vertex -104.8 104.8 0
      vertex -104.8 0 4.8
      vertex -104.8 100 4.8
    endloop
  endfacet
  facet normal -1 0 0
    outer loop
      vertex -104.8 -4.8 0
      vertex -104.8 0 4.8
      vertex -104.8 104.8 0
    endloop
  endfacet
  facet normal -1 0 0
    outer loop
      vertex -104.8 -4.8 84.8
      vertex -104.8 0 4.8
      vertex -104.8 -4.8 0
    endloop
  endfacet
  facet normal -1 0 0
    outer loop
      vertex -104.8 0 4.8
      vertex -104.8 -4.8 84.8
      vertex -104.8 0 84.8
    endloop
  endfacet
  facet normal -1 -0 0
    outer loop
      vertex -104.8 104.8 84.8
      vertex -104.8 100 4.8
      vertex -104.8 100 84.8
    endloop
  endfacet
  facet normal 1 -0 0
    outer loop
      vertex 0 -104.8 84.8
      vertex 0 0 4.8
      vertex 0 0 84.8
    endloop
  endfacet
  facet normal 1 0 0
    outer loop
      vertex 0 0 4.8
      vertex 0 -104.8 84.8
      vertex 0 -104.8 4.8
    endloop
  endfacet
  facet normal -1 0 0
    outer loop
      vertex 100 -104.8 4.8
      vertex 100 100 84.8
      vertex 100 100 4.8
    endloop
  endfacet
  facet normal -1 -0 0
    outer loop
      vertex 100 100 84.8
      vertex 100 -104.8 4.8
      vertex 100 -104.8 84.8
    endloop
  endfacet
  facet normal 0 -1 0
    outer loop
      vertex -104.8 100 4.8
      vertex 100 100 84.8
      vertex -104.8 100 84.8
    endloop
  endfacet
  facet normal 0 -1 -0
    outer loop
      vertex 100 100 84.8
      vertex -104.8 100 4.8
      vertex 100 100 4.8
    endloop
  endfacet
  facet normal 0 0 1
    outer loop
      vertex 100 100 4.8
      vertex 0 0 4.8
      vertex 100 -104.8 4.8
    endloop
  endfacet
  facet normal -0 0 1
    outer loop
      vertex -104.8 100 4.8
      vertex 0 0 4.8
      vertex 100 100 4.8
    endloop
  endfacet
  facet normal 0 0 1
    outer loop
      vertex 0 0 4.8
      vertex -104.8 100 4.8
      vertex -104.8 0 4.8
    endloop
  endfacet
  facet normal 0 0 1
    outer loop
      vertex 100 -104.8 4.8
      vertex 0 0 4.8
      vertex 0 -104.8 4.8
    endloop
  endfacet
  facet normal 0 1 -0
    outer loop
      vertex 0 0 4.8
      vertex -104.8 0 84.8
      vertex 0 0 84.8
    endloop
  endfacet
  facet normal 0 1 0
    outer loop
      vertex -104.8 0 84.8
      vertex 0 0 4.8
      vertex -104.8 0 4.8
    endloop
  endfacet
  facet normal 0.707107 0.707107 0
    outer loop
      vertex -4.8 -96.6059 84.8
      vertex -96.6059 -4.8 0
      vertex -96.6059 -4.8 84.8
    endloop
  endfacet
  facet normal 0.707107 0.707107 0
    outer loop
      vertex -96.6059 -4.8 0
      vertex -4.8 -96.6059 84.8
      vertex -4.8 -96.6059 0
    endloop
  endfacet
  facet normal -0.707107 -0.707107 0
    outer loop
      vertex -4.8 -103.394 0
      vertex -103.394 -4.8 84.8
      vertex -103.394 -4.8 0
    endloop
  endfacet
  facet normal -0.707107 -0.707107 0
    outer loop
      vertex -103.394 -4.8 84.8
      vertex -4.8 -103.394 0
      vertex -4.8 -103.394 84.8
    endloop
  endfacet
endsolid OpenSCAD_Model
