solid OpenSCAD_Model
  facet normal -1 0 0
    outer loop
      vertex 0 20 0
      vertex 0 4.89999 4
      vertex 0 20 4
    endloop
  endfacet
  facet normal -1 0 0
    outer loop
      vertex 0 4.89999 4
      vertex 0 4.87466 4.00787
      vertex 0 4.89999 4.00629
    endloop
  endfacet
  facet normal -1 0 0
    outer loop
      vertex 0 4.89999 4
      vertex 0 4.7513 4.0314
      vertex 0 4.87466 4.00787
    endloop
  endfacet
  facet normal -1 0 0
    outer loop
      vertex 0 0 0
      vertex 0 4.89999 4
      vertex 0 20 0
    endloop
  endfacet
  facet normal -1 0 0
    outer loop
      vertex 0 4.0177 4.81261
      vertex 0 4 4.89999
      vertex 0 4.00667 4.89999
    endloop
  endfacet
  facet normal -1 0 0
    outer loop
      vertex 0 0 23
      vertex 0 4 4.89999
      vertex 0 0 0
    endloop
  endfacet
  facet normal -1 -0 0
    outer loop
      vertex 0 4.0177 4.81261
      vertex 0 0 0
      vertex 0 4 4.89999
    endloop
  endfacet
  facet normal -1 -0 0
    outer loop
      vertex 0 4.04893 4.69098
      vertex 0 0 0
      vertex 0 4.0177 4.81261
    endloop
  endfacet
  facet normal -1 -0 0
    outer loop
      vertex 0 4.09517 4.57422
      vertex 0 0 0
      vertex 0 4.04893 4.69098
    endloop
  endfacet
  facet normal -1 -0 0
    outer loop
      vertex 0 4.15567 4.46417
      vertex 0 0 0
      vertex 0 4.09517 4.57422
    endloop
  endfacet
  facet normal -1 -0 0
    outer loop
      vertex 0 4.22948 4.36256
      vertex 0 0 0
      vertex 0 4.15567 4.46417
    endloop
  endfacet
  facet normal -1 -0 0
    outer loop
      vertex 0 4.31544 4.27103
      vertex 0 0 0
      vertex 0 4.22948 4.36256
    endloop
  endfacet
  facet normal -1 -0 0
    outer loop
      vertex 0 4.4122 4.19098
      vertex 0 0 0
      vertex 0 4.31544 4.27103
    endloop
  endfacet
  facet normal -1 -0 0
    outer loop
      vertex 0 4.51823 4.12369
      vertex 0 0 0
      vertex 0 4.4122 4.19098
    endloop
  endfacet
  facet normal -1 -0 0
    outer loop
      vertex 0 4.63187 4.07022
      vertex 0 0 0
      vertex 0 4.51823 4.12369
    endloop
  endfacet
  facet normal -1 -0 0
    outer loop
      vertex 0 4.7513 4.0314
      vertex 0 0 0
      vertex 0 4.63187 4.07022
    endloop
  endfacet
  facet normal -1 -0 0
    outer loop
      vertex 0 4.89999 4
      vertex 0 0 0
      vertex 0 4.7513 4.0314
    endloop
  endfacet
  facet normal -1 0 0
    outer loop
      vertex 0 4 19
      vertex 0 20 23
      vertex 0 20 19
    endloop
  endfacet
  facet normal -1 0 0
    outer loop
      vertex 0 4 19
      vertex 0 0 23
      vertex 0 20 23
    endloop
  endfacet
  facet normal -1 0 0
    outer loop
      vertex 0 4 4.89999
      vertex 0 0 23
      vertex 0 4 19
    endloop
  endfacet
  facet normal 0 0 -1
    outer loop
      vertex 25.3864 12.8112 19
      vertex 30 20 19
      vertex 30 4 19
    endloop
  endfacet
  facet normal 0 0 -1
    outer loop
      vertex 30 20 19
      vertex 25.3864 12.8112 19
      vertex 25.4045 13.1 19
    endloop
  endfacet
  facet normal 0 0 -1
    outer loop
      vertex 30 4 19
      vertex 25.3321 12.5269 19
      vertex 25.3864 12.8112 19
    endloop
  endfacet
  facet normal 0 0 -1
    outer loop
      vertex 30 4 19
      vertex 25.2427 12.2516 19
      vertex 25.3321 12.5269 19
    endloop
  endfacet
  facet normal 0 0 -1
    outer loop
      vertex 30 4 19
      vertex 25.1195 11.9898 19
      vertex 25.2427 12.2516 19
    endloop
  endfacet
  facet normal 0 0 -1
    outer loop
      vertex 30 4 19
      vertex 24.9644 11.7454 19
      vertex 25.1195 11.9898 19
    endloop
  endfacet
  facet normal 0 0 -1
    outer loop
      vertex 30 4 19
      vertex 24.7799 11.5224 19
      vertex 24.9644 11.7454 19
    endloop
  endfacet
  facet normal 0 0 -1
    outer loop
      vertex 30 4 19
      vertex 24.569 11.3243 19
      vertex 24.7799 11.5224 19
    endloop
  endfacet
  facet normal 0 0 -1
    outer loop
      vertex 30 4 19
      vertex 24.3348 11.1542 19
      vertex 24.569 11.3243 19
    endloop
  endfacet
  facet normal 0 0 -1
    outer loop
      vertex 30 4 19
      vertex 24.0812 11.0148 19
      vertex 24.3348 11.1542 19
    endloop
  endfacet
  facet normal 0 0 -1
    outer loop
      vertex 30 4 19
      vertex 23.8121 10.9082 19
      vertex 24.0812 11.0148 19
    endloop
  endfacet
  facet normal 0 0 -1
    outer loop
      vertex 30 4 19
      vertex 23.5318 10.8363 19
      vertex 23.8121 10.9082 19
    endloop
  endfacet
  facet normal 0 0 -1
    outer loop
      vertex 30 4 19
      vertex 23.2447 10.8 19
      vertex 23.5318 10.8363 19
    endloop
  endfacet
  facet normal 0 0 -1
    outer loop
      vertex 30 4 19
      vertex 22.9553 10.8 19
      vertex 23.2447 10.8 19
    endloop
  endfacet
  facet normal 0 0 -1
    outer loop
      vertex 30 4 19
      vertex 22.6682 10.8363 19
      vertex 22.9553 10.8 19
    endloop
  endfacet
  facet normal 0 0 -1
    outer loop
      vertex 30 4 19
      vertex 22.3879 10.9082 19
      vertex 22.6682 10.8363 19
    endloop
  endfacet
  facet normal 0 0 -1
    outer loop
      vertex 30 4 19
      vertex 22.1188 11.0148 19
      vertex 22.3879 10.9082 19
    endloop
  endfacet
  facet normal 0 0 -1
    outer loop
      vertex 7.88123 11.0148 19
      vertex 22.1188 11.0148 19
      vertex 30 4 19
    endloop
  endfacet
  facet normal 0 0 -1
    outer loop
      vertex 22.1188 11.0148 19
      vertex 7.88123 11.0148 19
      vertex 21.8652 11.1542 19
    endloop
  endfacet
  facet normal 0 0 -1
    outer loop
      vertex 20.8136 12.8112 19
      vertex 9.20455 13.1 19
      vertex 20.7955 13.1 19
    endloop
  endfacet
  facet normal 0 0 -1
    outer loop
      vertex 9.18637 12.8112 19
      vertex 20.8136 12.8112 19
      vertex 20.8679 12.5269 19
    endloop
  endfacet
  facet normal 0 0 -1
    outer loop
      vertex 9.13215 12.5269 19
      vertex 20.8679 12.5269 19
      vertex 20.9573 12.2516 19
    endloop
  endfacet
  facet normal 0 0 -1
    outer loop
      vertex 9.04271 12.2516 19
      vertex 20.9573 12.2516 19
      vertex 21.0805 11.9898 19
    endloop
  endfacet
  facet normal 0 0 -1
    outer loop
      vertex 8.91949 11.9898 19
      vertex 21.0805 11.9898 19
      vertex 21.2356 11.7454 19
    endloop
  endfacet
  facet normal 0 0 -1
    outer loop
      vertex 8.76442 11.7454 19
      vertex 21.2356 11.7454 19
      vertex 21.4201 11.5224 19
    endloop
  endfacet
  facet normal 0 0 -1
    outer loop
      vertex 8.57994 11.5224 19
      vertex 21.4201 11.5224 19
      vertex 21.631 11.3243 19
    endloop
  endfacet
  facet normal 0 -0 -1
    outer loop
      vertex 8.13484 11.1542 19
      vertex 21.8652 11.1542 19
      vertex 7.88123 11.0148 19
    endloop
  endfacet
  facet normal 0 0 -1
    outer loop
      vertex 20.8136 12.8112 19
      vertex 9.18637 12.8112 19
      vertex 9.20455 13.1 19
    endloop
  endfacet
  facet normal 0 0 -1
    outer loop
      vertex 20.8679 12.5269 19
      vertex 9.13215 12.5269 19
      vertex 9.18637 12.8112 19
    endloop
  endfacet
  facet normal 0 0 -1
    outer loop
      vertex 20.9573 12.2516 19
      vertex 9.04271 12.2516 19
      vertex 9.13215 12.5269 19
    endloop
  endfacet
  facet normal 0 0 -1
    outer loop
      vertex 21.0805 11.9898 19
      vertex 8.91949 11.9898 19
      vertex 9.04271 12.2516 19
    endloop
  endfacet
  facet normal 0 0 -1
    outer loop
      vertex 21.2356 11.7454 19
      vertex 8.76442 11.7454 19
      vertex 8.91949 11.9898 19
    endloop
  endfacet
  facet normal 0 0 -1
    outer loop
      vertex 21.4201 11.5224 19
      vertex 8.57994 11.5224 19
      vertex 8.76442 11.7454 19
    endloop
  endfacet
  facet normal 0 0 -1
    outer loop
      vertex 21.631 11.3243 19
      vertex 8.36897 11.3243 19
      vertex 8.57994 11.5224 19
    endloop
  endfacet
  facet normal -0 0 -1
    outer loop
      vertex 21.631 11.3243 19
      vertex 8.13484 11.1542 19
      vertex 8.36897 11.3243 19
    endloop
  endfacet
  facet normal 0 0 -1
    outer loop
      vertex 21.8652 11.1542 19
      vertex 8.13484 11.1542 19
      vertex 21.631 11.3243 19
    endloop
  endfacet
  facet normal 0 0 -1
    outer loop
      vertex 0 4 19
      vertex 7.88123 11.0148 19
      vertex 30 4 19
    endloop
  endfacet
  facet normal 0 0 -1
    outer loop
      vertex 7.88123 11.0148 19
      vertex 0 4 19
      vertex 7.61214 10.9082 19
    endloop
  endfacet
  facet normal 0 0 -1
    outer loop
      vertex 7.61214 10.9082 19
      vertex 0 4 19
      vertex 7.33183 10.8363 19
    endloop
  endfacet
  facet normal 0 0 -1
    outer loop
      vertex 7.33183 10.8363 19
      vertex 0 4 19
      vertex 7.0447 10.8 19
    endloop
  endfacet
  facet normal -0 0 -1
    outer loop
      vertex 7.0447 10.8 19
      vertex 0 4 19
      vertex 6.7553 10.8 19
    endloop
  endfacet
  facet normal -0 0 -1
    outer loop
      vertex 6.7553 10.8 19
      vertex 0 4 19
      vertex 6.46817 10.8363 19
    endloop
  endfacet
  facet normal 0 0 -1
    outer loop
      vertex 0 20 19
      vertex 4.61362 12.8112 19
      vertex 0 4 19
    endloop
  endfacet
  facet normal -0 0 -1
    outer loop
      vertex 4.66785 12.5269 19
      vertex 0 4 19
      vertex 4.61362 12.8112 19
    endloop
  endfacet
  facet normal -0 0 -1
    outer loop
      vertex 4.75729 12.2516 19
      vertex 0 4 19
      vertex 4.66785 12.5269 19
    endloop
  endfacet
  facet normal -0 0 -1
    outer loop
      vertex 4.88051 11.9898 19
      vertex 0 4 19
      vertex 4.75729 12.2516 19
    endloop
  endfacet
  facet normal -0 0 -1
    outer loop
      vertex 5.03558 11.7454 19
      vertex 0 4 19
      vertex 4.88051 11.9898 19
    endloop
  endfacet
  facet normal -0 0 -1
    outer loop
      vertex 5.22006 11.5224 19
      vertex 0 4 19
      vertex 5.03558 11.7454 19
    endloop
  endfacet
  facet normal -0 0 -1
    outer loop
      vertex 5.43103 11.3243 19
      vertex 0 4 19
      vertex 5.22006 11.5224 19
    endloop
  endfacet
  facet normal -0 0 -1
    outer loop
      vertex 5.66516 11.1542 19
      vertex 0 4 19
      vertex 5.43103 11.3243 19
    endloop
  endfacet
  facet normal -0 0 -1
    outer loop
      vertex 5.91877 11.0148 19
      vertex 0 4 19
      vertex 5.66516 11.1542 19
    endloop
  endfacet
  facet normal -0 0 -1
    outer loop
      vertex 6.18785 10.9082 19
      vertex 0 4 19
      vertex 5.91877 11.0148 19
    endloop
  endfacet
  facet normal -0 0 -1
    outer loop
      vertex 6.46817 10.8363 19
      vertex 0 4 19
      vertex 6.18785 10.9082 19
    endloop
  endfacet
  facet normal 0 0 -1
    outer loop
      vertex 25.3864 13.3888 19
      vertex 30 20 19
      vertex 25.4045 13.1 19
    endloop
  endfacet
  facet normal 0 0 -1
    outer loop
      vertex 25.3321 13.6731 19
      vertex 30 20 19
      vertex 25.3864 13.3888 19
    endloop
  endfacet
  facet normal 0 0 -1
    outer loop
      vertex 25.2427 13.9484 19
      vertex 30 20 19
      vertex 25.3321 13.6731 19
    endloop
  endfacet
  facet normal 0 0 -1
    outer loop
      vertex 25.1195 14.2102 19
      vertex 30 20 19
      vertex 25.2427 13.9484 19
    endloop
  endfacet
  facet normal 0 0 -1
    outer loop
      vertex 24.9644 14.4546 19
      vertex 30 20 19
      vertex 25.1195 14.2102 19
    endloop
  endfacet
  facet normal 0 0 -1
    outer loop
      vertex 24.7799 14.6776 19
      vertex 30 20 19
      vertex 24.9644 14.4546 19
    endloop
  endfacet
  facet normal 0 0 -1
    outer loop
      vertex 24.569 14.8757 19
      vertex 30 20 19
      vertex 24.7799 14.6776 19
    endloop
  endfacet
  facet normal 0 0 -1
    outer loop
      vertex 24.3348 15.0458 19
      vertex 30 20 19
      vertex 24.569 14.8757 19
    endloop
  endfacet
  facet normal 0 0 -1
    outer loop
      vertex 24.0812 15.1852 19
      vertex 30 20 19
      vertex 24.3348 15.0458 19
    endloop
  endfacet
  facet normal 0 0 -1
    outer loop
      vertex 23.8121 15.2918 19
      vertex 30 20 19
      vertex 24.0812 15.1852 19
    endloop
  endfacet
  facet normal 0 0 -1
    outer loop
      vertex 23.5318 15.3637 19
      vertex 30 20 19
      vertex 23.8121 15.2918 19
    endloop
  endfacet
  facet normal 0 0 -1
    outer loop
      vertex 23.2447 15.4 19
      vertex 30 20 19
      vertex 23.5318 15.3637 19
    endloop
  endfacet
  facet normal 0 0 -1
    outer loop
      vertex 22.9553 15.4 19
      vertex 30 20 19
      vertex 23.2447 15.4 19
    endloop
  endfacet
  facet normal 0 0 -1
    outer loop
      vertex 22.6682 15.3637 19
      vertex 30 20 19
      vertex 22.9553 15.4 19
    endloop
  endfacet
  facet normal 0 0 -1
    outer loop
      vertex 22.3879 15.2918 19
      vertex 30 20 19
      vertex 22.6682 15.3637 19
    endloop
  endfacet
  facet normal 0 0 -1
    outer loop
      vertex 7.61214 15.2918 19
      vertex 22.3879 15.2918 19
      vertex 22.1188 15.1852 19
    endloop
  endfacet
  facet normal 0 0 -1
    outer loop
      vertex 7.88123 15.1852 19
      vertex 22.1188 15.1852 19
      vertex 21.8652 15.0458 19
    endloop
  endfacet
  facet normal 0 0 -1
    outer loop
      vertex 9.20455 13.1 19
      vertex 20.8136 13.3888 19
      vertex 20.7955 13.1 19
    endloop
  endfacet
  facet normal 0 0 -1
    outer loop
      vertex 9.18637 13.3888 19
      vertex 20.8136 13.3888 19
      vertex 9.20455 13.1 19
    endloop
  endfacet
  facet normal 0 0 -1
    outer loop
      vertex 20.8136 13.3888 19
      vertex 9.18637 13.3888 19
      vertex 20.8679 13.6731 19
    endloop
  endfacet
  facet normal 0 0 -1
    outer loop
      vertex 9.13215 13.6731 19
      vertex 20.8679 13.6731 19
      vertex 9.18637 13.3888 19
    endloop
  endfacet
  facet normal 0 0 -1
    outer loop
      vertex 20.8679 13.6731 19
      vertex 9.13215 13.6731 19
      vertex 20.9573 13.9484 19
    endloop
  endfacet
  facet normal 0 0 -1
    outer loop
      vertex 9.04271 13.9484 19
      vertex 20.9573 13.9484 19
      vertex 9.13215 13.6731 19
    endloop
  endfacet
  facet normal 0 0 -1
    outer loop
      vertex 20.9573 13.9484 19
      vertex 9.04271 13.9484 19
      vertex 21.0805 14.2102 19
    endloop
  endfacet
  facet normal 0 0 -1
    outer loop
      vertex 8.91949 14.2102 19
      vertex 21.0805 14.2102 19
      vertex 9.04271 13.9484 19
    endloop
  endfacet
  facet normal 0 0 -1
    outer loop
      vertex 21.0805 14.2102 19
      vertex 8.91949 14.2102 19
      vertex 21.2356 14.4546 19
    endloop
  endfacet
  facet normal 0 0 -1
    outer loop
      vertex 8.76442 14.4546 19
      vertex 21.2356 14.4546 19
      vertex 8.91949 14.2102 19
    endloop
  endfacet
  facet normal 0 0 -1
    outer loop
      vertex 21.2356 14.4546 19
      vertex 8.76442 14.4546 19
      vertex 21.4201 14.6776 19
    endloop
  endfacet
  facet normal 0 0 -1
    outer loop
      vertex 8.57994 14.6776 19
      vertex 21.4201 14.6776 19
      vertex 8.76442 14.4546 19
    endloop
  endfacet
  facet normal 0 0 -1
    outer loop
      vertex 21.4201 14.6776 19
      vertex 8.57994 14.6776 19
      vertex 21.631 14.8757 19
    endloop
  endfacet
  facet normal 0 0 -1
    outer loop
      vertex 8.36897 14.8757 19
      vertex 21.631 14.8757 19
      vertex 8.57994 14.6776 19
    endloop
  endfacet
  facet normal 0 0 -1
    outer loop
      vertex 21.631 14.8757 19
      vertex 8.36897 14.8757 19
      vertex 21.8652 15.0458 19
    endloop
  endfacet
  facet normal 0 0 -1
    outer loop
      vertex 8.13484 15.0458 19
      vertex 21.8652 15.0458 19
      vertex 8.36897 14.8757 19
    endloop
  endfacet
  facet normal 0 0 -1
    outer loop
      vertex 7.88123 15.1852 19
      vertex 21.8652 15.0458 19
      vertex 8.13484 15.0458 19
    endloop
  endfacet
  facet normal 0 0 -1
    outer loop
      vertex 22.1188 15.1852 19
      vertex 7.88123 15.1852 19
      vertex 7.61214 15.2918 19
    endloop
  endfacet
  facet normal 0 0 -1
    outer loop
      vertex 22.3879 15.2918 19
      vertex 7.61214 15.2918 19
      vertex 30 20 19
    endloop
  endfacet
  facet normal 0 0 -1
    outer loop
      vertex 0 20 19
      vertex 7.61214 15.2918 19
      vertex 7.33183 15.3637 19
    endloop
  endfacet
  facet normal 0 0 -1
    outer loop
      vertex 0 20 19
      vertex 7.33183 15.3637 19
      vertex 7.0447 15.4 19
    endloop
  endfacet
  facet normal 0 0 -1
    outer loop
      vertex 0 20 19
      vertex 7.0447 15.4 19
      vertex 6.7553 15.4 19
    endloop
  endfacet
  facet normal 0 0 -1
    outer loop
      vertex 0 20 19
      vertex 6.7553 15.4 19
      vertex 6.46817 15.3637 19
    endloop
  endfacet
  facet normal 0 0 -1
    outer loop
      vertex 4.61362 12.8112 19
      vertex 0 20 19
      vertex 4.59545 13.1 19
    endloop
  endfacet
  facet normal 0 0 -1
    outer loop
      vertex 4.59545 13.1 19
      vertex 0 20 19
      vertex 4.61362 13.3888 19
    endloop
  endfacet
  facet normal 0 0 -1
    outer loop
      vertex 4.61362 13.3888 19
      vertex 0 20 19
      vertex 4.66785 13.6731 19
    endloop
  endfacet
  facet normal 0 0 -1
    outer loop
      vertex 4.66785 13.6731 19
      vertex 0 20 19
      vertex 4.75729 13.9484 19
    endloop
  endfacet
  facet normal 0 0 -1
    outer loop
      vertex 7.61214 15.2918 19
      vertex 0 20 19
      vertex 30 20 19
    endloop
  endfacet
  facet normal 0 0 -1
    outer loop
      vertex 6.18785 15.2918 19
      vertex 0 20 19
      vertex 6.46817 15.3637 19
    endloop
  endfacet
  facet normal 0 0 -1
    outer loop
      vertex 5.91877 15.1852 19
      vertex 0 20 19
      vertex 6.18785 15.2918 19
    endloop
  endfacet
  facet normal 0 0 -1
    outer loop
      vertex 5.66516 15.0458 19
      vertex 0 20 19
      vertex 5.91877 15.1852 19
    endloop
  endfacet
  facet normal 0 0 -1
    outer loop
      vertex 5.43103 14.8757 19
      vertex 0 20 19
      vertex 5.66516 15.0458 19
    endloop
  endfacet
  facet normal 0 0 -1
    outer loop
      vertex 5.22006 14.6776 19
      vertex 0 20 19
      vertex 5.43103 14.8757 19
    endloop
  endfacet
  facet normal 0 0 -1
    outer loop
      vertex 5.03558 14.4546 19
      vertex 0 20 19
      vertex 5.22006 14.6776 19
    endloop
  endfacet
  facet normal 0 0 -1
    outer loop
      vertex 4.88051 14.2102 19
      vertex 0 20 19
      vertex 5.03558 14.4546 19
    endloop
  endfacet
  facet normal 0 0 -1
    outer loop
      vertex 4.75729 13.9484 19
      vertex 0 20 19
      vertex 4.88051 14.2102 19
    endloop
  endfacet
  facet normal 1 0 0
    outer loop
      vertex 30 20 23
      vertex 30 4 19
      vertex 30 20 19
    endloop
  endfacet
  facet normal 1 0 0
    outer loop
      vertex 30 4 19
      vertex 30 0 23
      vertex 30 4 4.89999
    endloop
  endfacet
  facet normal 1 -0 0
    outer loop
      vertex 30 0 23
      vertex 30 4 19
      vertex 30 20 23
    endloop
  endfacet
  facet normal 1 0 0
    outer loop
      vertex 30 4.89999 4.00629
      vertex 30 4.87466 4.00787
      vertex 30 4.89999 4
    endloop
  endfacet
  facet normal 1 -0 0
    outer loop
      vertex 30 4.89999 4
      vertex 30 20 0
      vertex 30 20 4
    endloop
  endfacet
  facet normal 1 0 0
    outer loop
      vertex 30 4.7513 4.0314
      vertex 30 4.89999 4
      vertex 30 4.87466 4.00787
    endloop
  endfacet
  facet normal 1 0 0
    outer loop
      vertex 30 0 0
      vertex 30 4.89999 4
      vertex 30 4.7513 4.0314
    endloop
  endfacet
  facet normal 1 -0 0
    outer loop
      vertex 30 4 4.89999
      vertex 30 4.0177 4.81261
      vertex 30 4.00667 4.89999
    endloop
  endfacet
  facet normal 1 0 0
    outer loop
      vertex 30 0 0
      vertex 30 4 4.89999
      vertex 30 0 23
    endloop
  endfacet
  facet normal 1 0 0
    outer loop
      vertex 30 4.89999 4
      vertex 30 0 0
      vertex 30 20 0
    endloop
  endfacet
  facet normal 1 0 0
    outer loop
      vertex 30 4.63187 4.07022
      vertex 30 0 0
      vertex 30 4.7513 4.0314
    endloop
  endfacet
  facet normal 1 0 0
    outer loop
      vertex 30 4.51823 4.12369
      vertex 30 0 0
      vertex 30 4.63187 4.07022
    endloop
  endfacet
  facet normal 1 0 0
    outer loop
      vertex 30 4.4122 4.19098
      vertex 30 0 0
      vertex 30 4.51823 4.12369
    endloop
  endfacet
  facet normal 1 0 0
    outer loop
      vertex 30 4.31544 4.27103
      vertex 30 0 0
      vertex 30 4.4122 4.19098
    endloop
  endfacet
  facet normal 1 0 0
    outer loop
      vertex 30 4.22948 4.36256
      vertex 30 0 0
      vertex 30 4.31544 4.27103
    endloop
  endfacet
  facet normal 1 0 0
    outer loop
      vertex 30 4.15567 4.46417
      vertex 30 0 0
      vertex 30 4.22948 4.36256
    endloop
  endfacet
  facet normal 1 0 0
    outer loop
      vertex 30 4.09517 4.57422
      vertex 30 0 0
      vertex 30 4.15567 4.46417
    endloop
  endfacet
  facet normal 1 0 0
    outer loop
      vertex 30 4.04893 4.69098
      vertex 30 0 0
      vertex 30 4.09517 4.57422
    endloop
  endfacet
  facet normal 1 0 0
    outer loop
      vertex 30 4.0177 4.81261
      vertex 30 0 0
      vertex 30 4.04893 4.69098
    endloop
  endfacet
  facet normal 1 0 0
    outer loop
      vertex 30 4 4.89999
      vertex 30 0 0
      vertex 30 4.0177 4.81261
    endloop
  endfacet
  facet normal 0 1 -0
    outer loop
      vertex 30 4 4.89999
      vertex 0 4 19
      vertex 30 4 19
    endloop
  endfacet
  facet normal 0 1 0
    outer loop
      vertex 0 4 19
      vertex 30 4 4.89999
      vertex 0 4 4.89999
    endloop
  endfacet
  facet normal -0 0 1
    outer loop
      vertex 0 20 4
      vertex 30 4.89999 4
      vertex 30 20 4
    endloop
  endfacet
  facet normal 0 0 1
    outer loop
      vertex 30 4.89999 4
      vertex 0 20 4
      vertex 0 4.89999 4
    endloop
  endfacet
  facet normal 0 -1 0
    outer loop
      vertex 0 0 0
      vertex 30 0 23
      vertex 0 0 23
    endloop
  endfacet
  facet normal 0 -1 -0
    outer loop
      vertex 30 0 23
      vertex 0 0 0
      vertex 30 0 0
    endloop
  endfacet
  facet normal 0 0 1
    outer loop
      vertex 25.3864 12.8112 23
      vertex 30 20 23
      vertex 25.4045 13.1 23
    endloop
  endfacet
  facet normal 0 0 1
    outer loop
      vertex 30 20 23
      vertex 25.3864 13.3888 23
      vertex 25.4045 13.1 23
    endloop
  endfacet
  facet normal 0 0 1
    outer loop
      vertex 30 20 23
      vertex 25.3321 13.6731 23
      vertex 25.3864 13.3888 23
    endloop
  endfacet
  facet normal 0 0 1
    outer loop
      vertex 30 20 23
      vertex 25.2427 13.9484 23
      vertex 25.3321 13.6731 23
    endloop
  endfacet
  facet normal 0 0 1
    outer loop
      vertex 30 20 23
      vertex 25.1195 14.2102 23
      vertex 25.2427 13.9484 23
    endloop
  endfacet
  facet normal 0 0 1
    outer loop
      vertex 30 20 23
      vertex 24.9644 14.4546 23
      vertex 25.1195 14.2102 23
    endloop
  endfacet
  facet normal 0 0 1
    outer loop
      vertex 30 20 23
      vertex 24.7799 14.6776 23
      vertex 24.9644 14.4546 23
    endloop
  endfacet
  facet normal 0 0 1
    outer loop
      vertex 30 20 23
      vertex 24.569 14.8757 23
      vertex 24.7799 14.6776 23
    endloop
  endfacet
  facet normal 0 0 1
    outer loop
      vertex 30 20 23
      vertex 24.3348 15.0458 23
      vertex 24.569 14.8757 23
    endloop
  endfacet
  facet normal 0 0 1
    outer loop
      vertex 30 20 23
      vertex 24.0812 15.1852 23
      vertex 24.3348 15.0458 23
    endloop
  endfacet
  facet normal 0 0 1
    outer loop
      vertex 30 20 23
      vertex 23.8121 15.2918 23
      vertex 24.0812 15.1852 23
    endloop
  endfacet
  facet normal 0 0 1
    outer loop
      vertex 30 20 23
      vertex 23.5318 15.3637 23
      vertex 23.8121 15.2918 23
    endloop
  endfacet
  facet normal 0 0 1
    outer loop
      vertex 30 20 23
      vertex 23.2447 15.4 23
      vertex 23.5318 15.3637 23
    endloop
  endfacet
  facet normal 0 0 1
    outer loop
      vertex 30 20 23
      vertex 22.9553 15.4 23
      vertex 23.2447 15.4 23
    endloop
  endfacet
  facet normal 0 0 1
    outer loop
      vertex 30 20 23
      vertex 22.6682 15.3637 23
      vertex 22.9553 15.4 23
    endloop
  endfacet
  facet normal 0 0 1
    outer loop
      vertex 30 20 23
      vertex 22.3879 15.2918 23
      vertex 22.6682 15.3637 23
    endloop
  endfacet
  facet normal 0 0 1
    outer loop
      vertex 7.61214 15.2918 23
      vertex 22.3879 15.2918 23
      vertex 30 20 23
    endloop
  endfacet
  facet normal 0 0 1
    outer loop
      vertex 22.3879 15.2918 23
      vertex 7.61214 15.2918 23
      vertex 22.1188 15.1852 23
    endloop
  endfacet
  facet normal 0 0 1
    outer loop
      vertex 20.8136 13.3888 23
      vertex 9.20455 13.1 23
      vertex 20.7955 13.1 23
    endloop
  endfacet
  facet normal 0 0 1
    outer loop
      vertex 9.18637 13.3888 23
      vertex 20.8136 13.3888 23
      vertex 20.8679 13.6731 23
    endloop
  endfacet
  facet normal 0 0 1
    outer loop
      vertex 9.13215 13.6731 23
      vertex 20.8679 13.6731 23
      vertex 20.9573 13.9484 23
    endloop
  endfacet
  facet normal 0 0 1
    outer loop
      vertex 9.04271 13.9484 23
      vertex 20.9573 13.9484 23
      vertex 21.0805 14.2102 23
    endloop
  endfacet
  facet normal 0 0 1
    outer loop
      vertex 8.91949 14.2102 23
      vertex 21.0805 14.2102 23
      vertex 21.2356 14.4546 23
    endloop
  endfacet
  facet normal 0 0 1
    outer loop
      vertex 8.76442 14.4546 23
      vertex 21.2356 14.4546 23
      vertex 21.4201 14.6776 23
    endloop
  endfacet
  facet normal 0 0 1
    outer loop
      vertex 8.57994 14.6776 23
      vertex 21.4201 14.6776 23
      vertex 21.631 14.8757 23
    endloop
  endfacet
  facet normal 0 0 1
    outer loop
      vertex 8.36897 14.8757 23
      vertex 21.631 14.8757 23
      vertex 21.8652 15.0458 23
    endloop
  endfacet
  facet normal 0 -0 1
    outer loop
      vertex 7.88123 15.1852 23
      vertex 22.1188 15.1852 23
      vertex 7.61214 15.2918 23
    endloop
  endfacet
  facet normal 0 0 1
    outer loop
      vertex 20.8136 13.3888 23
      vertex 9.18637 13.3888 23
      vertex 9.20455 13.1 23
    endloop
  endfacet
  facet normal 0 0 1
    outer loop
      vertex 20.8679 13.6731 23
      vertex 9.13215 13.6731 23
      vertex 9.18637 13.3888 23
    endloop
  endfacet
  facet normal 0 0 1
    outer loop
      vertex 20.9573 13.9484 23
      vertex 9.04271 13.9484 23
      vertex 9.13215 13.6731 23
    endloop
  endfacet
  facet normal 0 0 1
    outer loop
      vertex 21.0805 14.2102 23
      vertex 8.91949 14.2102 23
      vertex 9.04271 13.9484 23
    endloop
  endfacet
  facet normal 0 0 1
    outer loop
      vertex 21.2356 14.4546 23
      vertex 8.76442 14.4546 23
      vertex 8.91949 14.2102 23
    endloop
  endfacet
  facet normal 0 0 1
    outer loop
      vertex 21.4201 14.6776 23
      vertex 8.57994 14.6776 23
      vertex 8.76442 14.4546 23
    endloop
  endfacet
  facet normal 0 0 1
    outer loop
      vertex 21.631 14.8757 23
      vertex 8.36897 14.8757 23
      vertex 8.57994 14.6776 23
    endloop
  endfacet
  facet normal 0 0 1
    outer loop
      vertex 21.8652 15.0458 23
      vertex 8.13484 15.0458 23
      vertex 8.36897 14.8757 23
    endloop
  endfacet
  facet normal 0 0 1
    outer loop
      vertex 21.8652 15.0458 23
      vertex 7.88123 15.1852 23
      vertex 8.13484 15.0458 23
    endloop
  endfacet
  facet normal 0 0 1
    outer loop
      vertex 22.1188 15.1852 23
      vertex 7.88123 15.1852 23
      vertex 21.8652 15.0458 23
    endloop
  endfacet
  facet normal -0 0 1
    outer loop
      vertex 0 20 23
      vertex 7.61214 15.2918 23
      vertex 30 20 23
    endloop
  endfacet
  facet normal 0 0 1
    outer loop
      vertex 7.61214 15.2918 23
      vertex 0 20 23
      vertex 7.33183 15.3637 23
    endloop
  endfacet
  facet normal 0 0 1
    outer loop
      vertex 7.33183 15.3637 23
      vertex 0 20 23
      vertex 7.0447 15.4 23
    endloop
  endfacet
  facet normal 0 0 1
    outer loop
      vertex 7.0447 15.4 23
      vertex 0 20 23
      vertex 6.7553 15.4 23
    endloop
  endfacet
  facet normal 0 0 1
    outer loop
      vertex 4.61362 13.3888 23
      vertex 0 20 23
      vertex 4.59545 13.1 23
    endloop
  endfacet
  facet normal 0 0 1
    outer loop
      vertex 4.66785 13.6731 23
      vertex 0 20 23
      vertex 4.61362 13.3888 23
    endloop
  endfacet
  facet normal 0 0 1
    outer loop
      vertex 4.75729 13.9484 23
      vertex 0 20 23
      vertex 4.66785 13.6731 23
    endloop
  endfacet
  facet normal 0 0 1
    outer loop
      vertex 4.88051 14.2102 23
      vertex 0 20 23
      vertex 4.75729 13.9484 23
    endloop
  endfacet
  facet normal 0 0 1
    outer loop
      vertex 5.03558 14.4546 23
      vertex 0 20 23
      vertex 4.88051 14.2102 23
    endloop
  endfacet
  facet normal 0 0 1
    outer loop
      vertex 5.22006 14.6776 23
      vertex 0 20 23
      vertex 5.03558 14.4546 23
    endloop
  endfacet
  facet normal 0 0 1
    outer loop
      vertex 5.43103 14.8757 23
      vertex 0 20 23
      vertex 5.22006 14.6776 23
    endloop
  endfacet
  facet normal 0 0 1
    outer loop
      vertex 5.66516 15.0458 23
      vertex 0 20 23
      vertex 5.43103 14.8757 23
    endloop
  endfacet
  facet normal 0 0 1
    outer loop
      vertex 5.91877 15.1852 23
      vertex 0 20 23
      vertex 5.66516 15.0458 23
    endloop
  endfacet
  facet normal 0 0 1
    outer loop
      vertex 6.18785 15.2918 23
      vertex 0 20 23
      vertex 5.91877 15.1852 23
    endloop
  endfacet
  facet normal 0 0 1
    outer loop
      vertex 6.46817 15.3637 23
      vertex 0 20 23
      vertex 6.18785 15.2918 23
    endloop
  endfacet
  facet normal 0 0 1
    outer loop
      vertex 6.7553 15.4 23
      vertex 0 20 23
      vertex 6.46817 15.3637 23
    endloop
  endfacet
  facet normal 0 0 1
    outer loop
      vertex 25.3321 12.5269 23
      vertex 30 20 23
      vertex 25.3864 12.8112 23
    endloop
  endfacet
  facet normal 0 0 1
    outer loop
      vertex 30 20 23
      vertex 25.3321 12.5269 23
      vertex 30 0 23
    endloop
  endfacet
  facet normal -0 0 1
    outer loop
      vertex 25.2427 12.2516 23
      vertex 30 0 23
      vertex 25.3321 12.5269 23
    endloop
  endfacet
  facet normal -0 0 1
    outer loop
      vertex 25.1195 11.9898 23
      vertex 30 0 23
      vertex 25.2427 12.2516 23
    endloop
  endfacet
  facet normal -0 0 1
    outer loop
      vertex 24.9644 11.7454 23
      vertex 30 0 23
      vertex 25.1195 11.9898 23
    endloop
  endfacet
  facet normal -0 0 1
    outer loop
      vertex 24.7799 11.5224 23
      vertex 30 0 23
      vertex 24.9644 11.7454 23
    endloop
  endfacet
  facet normal -0 0 1
    outer loop
      vertex 24.569 11.3243 23
      vertex 30 0 23
      vertex 24.7799 11.5224 23
    endloop
  endfacet
  facet normal -0 0 1
    outer loop
      vertex 24.3348 11.1542 23
      vertex 30 0 23
      vertex 24.569 11.3243 23
    endloop
  endfacet
  facet normal -0 0 1
    outer loop
      vertex 24.0812 11.0148 23
      vertex 30 0 23
      vertex 24.3348 11.1542 23
    endloop
  endfacet
  facet normal -0 0 1
    outer loop
      vertex 23.8121 10.9082 23
      vertex 30 0 23
      vertex 24.0812 11.0148 23
    endloop
  endfacet
  facet normal -0 0 1
    outer loop
      vertex 23.5318 10.8363 23
      vertex 30 0 23
      vertex 23.8121 10.9082 23
    endloop
  endfacet
  facet normal -0 0 1
    outer loop
      vertex 23.2447 10.8 23
      vertex 30 0 23
      vertex 23.5318 10.8363 23
    endloop
  endfacet
  facet normal -0 0 1
    outer loop
      vertex 22.9553 10.8 23
      vertex 30 0 23
      vertex 23.2447 10.8 23
    endloop
  endfacet
  facet normal 0 0 1
    outer loop
      vertex 22.6682 10.8363 23
      vertex 30 0 23
      vertex 22.9553 10.8 23
    endloop
  endfacet
  facet normal 0 0 1
    outer loop
      vertex 22.3879 10.9082 23
      vertex 30 0 23
      vertex 22.6682 10.8363 23
    endloop
  endfacet
  facet normal 0 0 1
    outer loop
      vertex 22.1188 11.0148 23
      vertex 30 0 23
      vertex 22.3879 10.9082 23
    endloop
  endfacet
  facet normal 0 0 1
    outer loop
      vertex 7.88123 11.0148 23
      vertex 22.1188 11.0148 23
      vertex 21.8652 11.1542 23
    endloop
  endfacet
  facet normal 0 0 1
    outer loop
      vertex 8.13484 11.1542 23
      vertex 21.8652 11.1542 23
      vertex 21.631 11.3243 23
    endloop
  endfacet
  facet normal 0 0 1
    outer loop
      vertex 8.36897 11.3243 23
      vertex 21.631 11.3243 23
      vertex 21.4201 11.5224 23
    endloop
  endfacet
  facet normal 0 0 1
    outer loop
      vertex 8.57994 11.5224 23
      vertex 21.4201 11.5224 23
      vertex 21.2356 11.7454 23
    endloop
  endfacet
  facet normal -0 0 1
    outer loop
      vertex 9.20455 13.1 23
      vertex 20.8136 12.8112 23
      vertex 20.7955 13.1 23
    endloop
  endfacet
  facet normal 0 0 1
    outer loop
      vertex 9.18637 12.8112 23
      vertex 20.8136 12.8112 23
      vertex 9.20455 13.1 23
    endloop
  endfacet
  facet normal 0 0 1
    outer loop
      vertex 20.8136 12.8112 23
      vertex 9.18637 12.8112 23
      vertex 20.8679 12.5269 23
    endloop
  endfacet
  facet normal 0 0 1
    outer loop
      vertex 9.13215 12.5269 23
      vertex 20.8679 12.5269 23
      vertex 9.18637 12.8112 23
    endloop
  endfacet
  facet normal 0 0 1
    outer loop
      vertex 20.8679 12.5269 23
      vertex 9.13215 12.5269 23
      vertex 20.9573 12.2516 23
    endloop
  endfacet
  facet normal 0 0 1
    outer loop
      vertex 9.04271 12.2516 23
      vertex 20.9573 12.2516 23
      vertex 9.13215 12.5269 23
    endloop
  endfacet
  facet normal 0 0 1
    outer loop
      vertex 20.9573 12.2516 23
      vertex 9.04271 12.2516 23
      vertex 21.0805 11.9898 23
    endloop
  endfacet
  facet normal 0 0 1
    outer loop
      vertex 8.91949 11.9898 23
      vertex 21.0805 11.9898 23
      vertex 9.04271 12.2516 23
    endloop
  endfacet
  facet normal 0 0 1
    outer loop
      vertex 21.0805 11.9898 23
      vertex 8.91949 11.9898 23
      vertex 21.2356 11.7454 23
    endloop
  endfacet
  facet normal 0 0 1
    outer loop
      vertex 8.76442 11.7454 23
      vertex 21.2356 11.7454 23
      vertex 8.91949 11.9898 23
    endloop
  endfacet
  facet normal 0 0 1
    outer loop
      vertex 8.57994 11.5224 23
      vertex 21.2356 11.7454 23
      vertex 8.76442 11.7454 23
    endloop
  endfacet
  facet normal 0 0 1
    outer loop
      vertex 21.4201 11.5224 23
      vertex 8.57994 11.5224 23
      vertex 8.36897 11.3243 23
    endloop
  endfacet
  facet normal 0 0 1
    outer loop
      vertex 21.631 11.3243 23
      vertex 8.36897 11.3243 23
      vertex 8.13484 11.1542 23
    endloop
  endfacet
  facet normal 0 0 1
    outer loop
      vertex 21.8652 11.1542 23
      vertex 8.13484 11.1542 23
      vertex 7.88123 11.0148 23
    endloop
  endfacet
  facet normal 0 0 1
    outer loop
      vertex 22.1188 11.0148 23
      vertex 7.88123 11.0148 23
      vertex 30 0 23
    endloop
  endfacet
  facet normal 0 0 1
    outer loop
      vertex 0 0 23
      vertex 7.88123 11.0148 23
      vertex 7.61214 10.9082 23
    endloop
  endfacet
  facet normal 0 0 1
    outer loop
      vertex 0 0 23
      vertex 7.61214 10.9082 23
      vertex 7.33183 10.8363 23
    endloop
  endfacet
  facet normal 0 0 1
    outer loop
      vertex 0 0 23
      vertex 7.33183 10.8363 23
      vertex 7.0447 10.8 23
    endloop
  endfacet
  facet normal 0 0 1
    outer loop
      vertex 0 0 23
      vertex 7.0447 10.8 23
      vertex 6.7553 10.8 23
    endloop
  endfacet
  facet normal 0 0 1
    outer loop
      vertex 0 0 23
      vertex 6.7553 10.8 23
      vertex 6.46817 10.8363 23
    endloop
  endfacet
  facet normal 0 0 1
    outer loop
      vertex 0 0 23
      vertex 6.46817 10.8363 23
      vertex 6.18785 10.9082 23
    endloop
  endfacet
  facet normal 0 0 1
    outer loop
      vertex 0 0 23
      vertex 6.18785 10.9082 23
      vertex 5.91877 11.0148 23
    endloop
  endfacet
  facet normal 0 0 1
    outer loop
      vertex 0 20 23
      vertex 4.61362 12.8112 23
      vertex 4.59545 13.1 23
    endloop
  endfacet
  facet normal 0 0 1
    outer loop
      vertex 0 20 23
      vertex 4.66785 12.5269 23
      vertex 4.61362 12.8112 23
    endloop
  endfacet
  facet normal 0 0 1
    outer loop
      vertex 0 0 23
      vertex 4.66785 12.5269 23
      vertex 0 20 23
    endloop
  endfacet
  facet normal 0 0 1
    outer loop
      vertex 4.66785 12.5269 23
      vertex 0 0 23
      vertex 4.75729 12.2516 23
    endloop
  endfacet
  facet normal 0 0 1
    outer loop
      vertex 7.88123 11.0148 23
      vertex 0 0 23
      vertex 30 0 23
    endloop
  endfacet
  facet normal 0 0 1
    outer loop
      vertex 5.66516 11.1542 23
      vertex 0 0 23
      vertex 5.91877 11.0148 23
    endloop
  endfacet
  facet normal 0 0 1
    outer loop
      vertex 5.43103 11.3243 23
      vertex 0 0 23
      vertex 5.66516 11.1542 23
    endloop
  endfacet
  facet normal 0 0 1
    outer loop
      vertex 5.22006 11.5224 23
      vertex 0 0 23
      vertex 5.43103 11.3243 23
    endloop
  endfacet
  facet normal 0 0 1
    outer loop
      vertex 5.03558 11.7454 23
      vertex 0 0 23
      vertex 5.22006 11.5224 23
    endloop
  endfacet
  facet normal 0 0 1
    outer loop
      vertex 4.88051 11.9898 23
      vertex 0 0 23
      vertex 5.03558 11.7454 23
    endloop
  endfacet
  facet normal 0 0 1
    outer loop
      vertex 4.75729 12.2516 23
      vertex 0 0 23
      vertex 4.88051 11.9898 23
    endloop
  endfacet
  facet normal 0 1 -0
    outer loop
      vertex 30 20 19
      vertex 0 20 23
      vertex 30 20 23
    endloop
  endfacet
  facet normal 0 1 0
    outer loop
      vertex 0 20 23
      vertex 30 20 19
      vertex 0 20 19
    endloop
  endfacet
  facet normal 0 0.992125 0.12525
    outer loop
      vertex 30 4.0177 4.81261
      vertex 0 4.00667 4.89999
      vertex 30 4.00667 4.89999
    endloop
  endfacet
  facet normal 0 0.992125 0.12525
    outer loop
      vertex 0 4.00667 4.89999
      vertex 30 4.0177 4.81261
      vertex 0 4.0177 4.81261
    endloop
  endfacet
  facet normal 0 0.968572 0.248735
    outer loop
      vertex 30 4.04893 4.69098
      vertex 0 4.0177 4.81261
      vertex 30 4.0177 4.81261
    endloop
  endfacet
  facet normal 0 0.968572 0.248735
    outer loop
      vertex 0 4.0177 4.81261
      vertex 30 4.04893 4.69098
      vertex 0 4.04893 4.69098
    endloop
  endfacet
  facet normal 0 0.929762 0.368162
    outer loop
      vertex 30 4.09517 4.57422
      vertex 0 4.04893 4.69098
      vertex 30 4.04893 4.69098
    endloop
  endfacet
  facet normal 0 0.929762 0.368162
    outer loop
      vertex 0 4.04893 4.69098
      vertex 30 4.09517 4.57422
      vertex 0 4.09517 4.57422
    endloop
  endfacet
  facet normal 0 0.876298 0.481769
    outer loop
      vertex 30 4.15567 4.46417
      vertex 0 4.09517 4.57422
      vertex 30 4.09517 4.57422
    endloop
  endfacet
  facet normal 0 0.876298 0.481769
    outer loop
      vertex 0 4.09517 4.57422
      vertex 30 4.15567 4.46417
      vertex 0 4.15567 4.46417
    endloop
  endfacet
  facet normal 0 0.809077 0.587702
    outer loop
      vertex 30 4.22948 4.36256
      vertex 0 4.15567 4.46417
      vertex 30 4.15567 4.46417
    endloop
  endfacet
  facet normal 0 0.809077 0.587702
    outer loop
      vertex 0 4.15567 4.46417
      vertex 30 4.22948 4.36256
      vertex 0 4.22948 4.36256
    endloop
  endfacet
  facet normal 0 0.728934 0.684584
    outer loop
      vertex 30 4.31544 4.27103
      vertex 0 4.22948 4.36256
      vertex 30 4.22948 4.36256
    endloop
  endfacet
  facet normal 0 0.728934 0.684584
    outer loop
      vertex 0 4.22948 4.36256
      vertex 30 4.31544 4.27103
      vertex 0 4.31544 4.27103
    endloop
  endfacet
  facet normal -0 0.637443 0.770497
    outer loop
      vertex 0 4.4122 4.19098
      vertex 30 4.31544 4.27103
      vertex 30 4.4122 4.19098
    endloop
  endfacet
  facet normal 0 0.637443 0.770497
    outer loop
      vertex 30 4.31544 4.27103
      vertex 0 4.4122 4.19098
      vertex 0 4.31544 4.27103
    endloop
  endfacet
  facet normal -0 0.535829 0.844326
    outer loop
      vertex 0 4.51823 4.12369
      vertex 30 4.4122 4.19098
      vertex 30 4.51823 4.12369
    endloop
  endfacet
  facet normal 0 0.535829 0.844326
    outer loop
      vertex 30 4.4122 4.19098
      vertex 0 4.51823 4.12369
      vertex 0 4.4122 4.19098
    endloop
  endfacet
  facet normal -0 0.42575 0.904841
    outer loop
      vertex 0 4.63187 4.07022
      vertex 30 4.51823 4.12369
      vertex 30 4.63187 4.07022
    endloop
  endfacet
  facet normal 0 0.42575 0.904841
    outer loop
      vertex 30 4.51823 4.12369
      vertex 0 4.63187 4.07022
      vertex 0 4.51823 4.12369
    endloop
  endfacet
  facet normal -0 0.309111 0.951026
    outer loop
      vertex 0 4.7513 4.0314
      vertex 30 4.63187 4.07022
      vertex 30 4.7513 4.0314
    endloop
  endfacet
  facet normal 0 0.309111 0.951026
    outer loop
      vertex 30 4.63187 4.07022
      vertex 0 4.7513 4.0314
      vertex 0 4.63187 4.07022
    endloop
  endfacet
  facet normal -0 0.187347 0.982294
    outer loop
      vertex 0 4.87466 4.00787
      vertex 30 4.7513 4.0314
      vertex 30 4.87466 4.00787
    endloop
  endfacet
  facet normal 0 0.187347 0.982294
    outer loop
      vertex 30 4.7513 4.0314
      vertex 0 4.87466 4.00787
      vertex 0 4.7513 4.0314
    endloop
  endfacet
  facet normal -0 0.062528 0.998043
    outer loop
      vertex 0 4.89999 4.00629
      vertex 30 4.87466 4.00787
      vertex 30 4.89999 4.00629
    endloop
  endfacet
  facet normal 0 0.062528 0.998043
    outer loop
      vertex 30 4.87466 4.00787
      vertex 0 4.89999 4.00629
      vertex 0 4.87466 4.00787
    endloop
  endfacet
  facet normal 0 1 -0
    outer loop
      vertex 30 4.89999 4
      vertex 0 4.89999 4.00629
      vertex 30 4.89999 4.00629
    endloop
  endfacet
  facet normal 0 1 0
    outer loop
      vertex 0 4.89999 4.00629
      vertex 30 4.89999 4
      vertex 0 4.89999 4
    endloop
  endfacet
  facet normal -0 0 1
    outer loop
      vertex 0 4.00667 4.89999
      vertex 30 4 4.89999
      vertex 30 4.00667 4.89999
    endloop
  endfacet
  facet normal 0 0 1
    outer loop
      vertex 30 4 4.89999
      vertex 0 4.00667 4.89999
      vertex 0 4 4.89999
    endloop
  endfacet
  facet normal -0.998027 -0.0627913 0
    outer loop
      vertex 9.20455 13.1 19
      vertex 9.18637 13.3888 23
      vertex 9.18637 13.3888 19
    endloop
  endfacet
  facet normal -0.998027 -0.0627913 0
    outer loop
      vertex 9.18637 13.3888 23
      vertex 9.20455 13.1 19
      vertex 9.20455 13.1 23
    endloop
  endfacet
  facet normal 0.125332 -0.992115 0
    outer loop
      vertex 6.46817 15.3637 19
      vertex 6.7553 15.4 23
      vertex 6.46817 15.3637 23
    endloop
  endfacet
  facet normal 0.125332 -0.992115 0
    outer loop
      vertex 6.7553 15.4 23
      vertex 6.46817 15.3637 19
      vertex 6.7553 15.4 19
    endloop
  endfacet
  facet normal 0.684548 0.728968 -0
    outer loop
      vertex 5.43103 11.3243 19
      vertex 5.22006 11.5224 23
      vertex 5.43103 11.3243 23
    endloop
  endfacet
  facet normal 0.684548 0.728968 0
    outer loop
      vertex 5.22006 11.5224 23
      vertex 5.43103 11.3243 19
      vertex 5.22006 11.5224 19
    endloop
  endfacet
  facet normal -0.587786 -0.809017 0
    outer loop
      vertex 8.13484 15.0458 19
      vertex 8.36897 14.8757 23
      vertex 8.13484 15.0458 23
    endloop
  endfacet
  facet normal -0.587786 -0.809017 -0
    outer loop
      vertex 8.36897 14.8757 23
      vertex 8.13484 15.0458 19
      vertex 8.36897 14.8757 19
    endloop
  endfacet
  facet normal 0.770515 -0.637422 0
    outer loop
      vertex 5.03558 14.4546 23
      vertex 5.22006 14.6776 19
      vertex 5.22006 14.6776 23
    endloop
  endfacet
  facet normal 0.770515 -0.637422 0
    outer loop
      vertex 5.22006 14.6776 19
      vertex 5.03558 14.4546 23
      vertex 5.03558 14.4546 19
    endloop
  endfacet
  facet normal 0.481754 -0.876306 0
    outer loop
      vertex 5.66516 15.0458 19
      vertex 5.91877 15.1852 23
      vertex 5.66516 15.0458 23
    endloop
  endfacet
  facet normal 0.481754 -0.876306 0
    outer loop
      vertex 5.91877 15.1852 23
      vertex 5.66516 15.0458 19
      vertex 5.91877 15.1852 19
    endloop
  endfacet
  facet normal -0.770513 0.637424 0
    outer loop
      vertex 8.57994 11.5224 19
      vertex 8.76442 11.7454 23
      vertex 8.76442 11.7454 19
    endloop
  endfacet
  facet normal -0.770513 0.637424 0
    outer loop
      vertex 8.76442 11.7454 23
      vertex 8.57994 11.5224 19
      vertex 8.57994 11.5224 23
    endloop
  endfacet
  facet normal -0.904828 -0.425778 0
    outer loop
      vertex 9.04271 13.9484 19
      vertex 8.91949 14.2102 23
      vertex 8.91949 14.2102 19
    endloop
  endfacet
  facet normal -0.904828 -0.425778 0
    outer loop
      vertex 8.91949 14.2102 23
      vertex 9.04271 13.9484 19
      vertex 9.04271 13.9484 23
    endloop
  endfacet
  facet normal -0.982288 -0.187378 0
    outer loop
      vertex 9.18637 13.3888 19
      vertex 9.13215 13.6731 23
      vertex 9.13215 13.6731 19
    endloop
  endfacet
  facet normal -0.982288 -0.187378 0
    outer loop
      vertex 9.13215 13.6731 23
      vertex 9.18637 13.3888 19
      vertex 9.18637 13.3888 23
    endloop
  endfacet
  facet normal -0.248691 -0.968583 0
    outer loop
      vertex 7.33183 15.3637 19
      vertex 7.61214 15.2918 23
      vertex 7.33183 15.3637 23
    endloop
  endfacet
  facet normal -0.248691 -0.968583 -0
    outer loop
      vertex 7.61214 15.2918 23
      vertex 7.33183 15.3637 19
      vertex 7.61214 15.2918 19
    endloop
  endfacet
  facet normal -0.125332 -0.992115 0
    outer loop
      vertex 7.0447 15.4 19
      vertex 7.33183 15.3637 23
      vertex 7.0447 15.4 23
    endloop
  endfacet
  facet normal -0.125332 -0.992115 -0
    outer loop
      vertex 7.33183 15.3637 23
      vertex 7.0447 15.4 19
      vertex 7.33183 15.3637 19
    endloop
  endfacet
  facet normal -0.481754 -0.876306 0
    outer loop
      vertex 7.88123 15.1852 19
      vertex 8.13484 15.0458 23
      vertex 7.88123 15.1852 23
    endloop
  endfacet
  facet normal -0.481754 -0.876306 -0
    outer loop
      vertex 8.13484 15.0458 23
      vertex 7.88123 15.1852 19
      vertex 8.13484 15.0458 19
    endloop
  endfacet
  facet normal 0.951057 -0.309017 0
    outer loop
      vertex 4.66785 13.6731 23
      vertex 4.75729 13.9484 19
      vertex 4.75729 13.9484 23
    endloop
  endfacet
  facet normal 0.951057 -0.309017 0
    outer loop
      vertex 4.75729 13.9484 19
      vertex 4.66785 13.6731 23
      vertex 4.66785 13.6731 19
    endloop
  endfacet
  facet normal 0.982287 -0.187382 0
    outer loop
      vertex 4.61362 13.3888 23
      vertex 4.66785 13.6731 19
      vertex 4.66785 13.6731 23
    endloop
  endfacet
  facet normal 0.982287 -0.187382 0
    outer loop
      vertex 4.66785 13.6731 19
      vertex 4.61362 13.3888 23
      vertex 4.61362 13.3888 19
    endloop
  endfacet
  facet normal 0.368124 -0.929777 0
    outer loop
      vertex 5.91877 15.1852 19
      vertex 6.18785 15.2918 23
      vertex 5.91877 15.1852 23
    endloop
  endfacet
  facet normal 0.368124 -0.929777 0
    outer loop
      vertex 6.18785 15.2918 23
      vertex 5.91877 15.1852 19
      vertex 6.18785 15.2918 19
    endloop
  endfacet
  facet normal -0.587786 0.809017 0
    outer loop
      vertex 8.36897 11.3243 19
      vertex 8.13484 11.1542 23
      vertex 8.36897 11.3243 23
    endloop
  endfacet
  facet normal -0.587786 0.809017 0
    outer loop
      vertex 8.13484 11.1542 23
      vertex 8.36897 11.3243 19
      vertex 8.13484 11.1542 19
    endloop
  endfacet
  facet normal 0.587786 0.809017 -0
    outer loop
      vertex 5.66516 11.1542 19
      vertex 5.43103 11.3243 23
      vertex 5.66516 11.1542 23
    endloop
  endfacet
  facet normal 0.587786 0.809017 0
    outer loop
      vertex 5.43103 11.3243 23
      vertex 5.66516 11.1542 19
      vertex 5.43103 11.3243 19
    endloop
  endfacet
  facet normal 0.844328 0.535826 0
    outer loop
      vertex 5.03558 11.7454 23
      vertex 4.88051 11.9898 19
      vertex 4.88051 11.9898 23
    endloop
  endfacet
  facet normal 0.844328 0.535826 0
    outer loop
      vertex 4.88051 11.9898 19
      vertex 5.03558 11.7454 23
      vertex 5.03558 11.7454 19
    endloop
  endfacet
  facet normal -0.951056 -0.30902 0
    outer loop
      vertex 9.13215 13.6731 19
      vertex 9.04271 13.9484 23
      vertex 9.04271 13.9484 19
    endloop
  endfacet
  facet normal -0.951056 -0.30902 0
    outer loop
      vertex 9.04271 13.9484 23
      vertex 9.13215 13.6731 19
      vertex 9.13215 13.6731 23
    endloop
  endfacet
  facet normal -0.770515 -0.637422 0
    outer loop
      vertex 8.76442 14.4546 19
      vertex 8.57994 14.6776 23
      vertex 8.57994 14.6776 19
    endloop
  endfacet
  facet normal -0.770515 -0.637422 0
    outer loop
      vertex 8.57994 14.6776 23
      vertex 8.76442 14.4546 19
      vertex 8.76442 14.4546 23
    endloop
  endfacet
  facet normal -0.684546 -0.72897 0
    outer loop
      vertex 8.36897 14.8757 19
      vertex 8.57994 14.6776 23
      vertex 8.36897 14.8757 23
    endloop
  endfacet
  facet normal -0.684546 -0.72897 -0
    outer loop
      vertex 8.57994 14.6776 23
      vertex 8.36897 14.8757 19
      vertex 8.57994 14.6776 19
    endloop
  endfacet
  facet normal -0.844327 -0.535828 0
    outer loop
      vertex 8.91949 14.2102 19
      vertex 8.76442 14.4546 23
      vertex 8.76442 14.4546 19
    endloop
  endfacet
  facet normal -0.844327 -0.535828 0
    outer loop
      vertex 8.76442 14.4546 23
      vertex 8.91949 14.2102 19
      vertex 8.91949 14.2102 23
    endloop
  endfacet
  facet normal 0 -1 0
    outer loop
      vertex 6.7553 15.4 19
      vertex 7.0447 15.4 23
      vertex 6.7553 15.4 23
    endloop
  endfacet
  facet normal 0 -1 -0
    outer loop
      vertex 7.0447 15.4 23
      vertex 6.7553 15.4 19
      vertex 7.0447 15.4 19
    endloop
  endfacet
  facet normal -0.368123 -0.929777 0
    outer loop
      vertex 7.61214 15.2918 19
      vertex 7.88123 15.1852 23
      vertex 7.61214 15.2918 23
    endloop
  endfacet
  facet normal -0.368123 -0.929777 -0
    outer loop
      vertex 7.88123 15.1852 23
      vertex 7.61214 15.2918 19
      vertex 7.88123 15.1852 19
    endloop
  endfacet
  facet normal 0.904826 -0.425781 0
    outer loop
      vertex 4.75729 13.9484 23
      vertex 4.88051 14.2102 19
      vertex 4.88051 14.2102 23
    endloop
  endfacet
  facet normal 0.904826 -0.425781 0
    outer loop
      vertex 4.88051 14.2102 19
      vertex 4.75729 13.9484 23
      vertex 4.75729 13.9484 19
    endloop
  endfacet
  facet normal 0.844327 -0.535828 0
    outer loop
      vertex 4.88051 14.2102 23
      vertex 5.03558 14.4546 19
      vertex 5.03558 14.4546 23
    endloop
  endfacet
  facet normal 0.844327 -0.535828 0
    outer loop
      vertex 5.03558 14.4546 19
      vertex 4.88051 14.2102 23
      vertex 4.88051 14.2102 19
    endloop
  endfacet
  facet normal 0.998027 -0.062788 0
    outer loop
      vertex 4.59545 13.1 23
      vertex 4.61362 13.3888 19
      vertex 4.61362 13.3888 23
    endloop
  endfacet
  facet normal 0.998027 -0.062788 0
    outer loop
      vertex 4.61362 13.3888 19
      vertex 4.59545 13.1 23
      vertex 4.59545 13.1 19
    endloop
  endfacet
  facet normal 0.587786 -0.809017 0
    outer loop
      vertex 5.43103 14.8757 19
      vertex 5.66516 15.0458 23
      vertex 5.43103 14.8757 23
    endloop
  endfacet
  facet normal 0.587786 -0.809017 0
    outer loop
      vertex 5.66516 15.0458 23
      vertex 5.43103 14.8757 19
      vertex 5.66516 15.0458 19
    endloop
  endfacet
  facet normal 0.684546 -0.72897 0
    outer loop
      vertex 5.22006 14.6776 19
      vertex 5.43103 14.8757 23
      vertex 5.22006 14.6776 23
    endloop
  endfacet
  facet normal 0.684546 -0.72897 0
    outer loop
      vertex 5.43103 14.8757 23
      vertex 5.22006 14.6776 19
      vertex 5.43103 14.8757 19
    endloop
  endfacet
  facet normal 0.24869 -0.968583 0
    outer loop
      vertex 6.18785 15.2918 19
      vertex 6.46817 15.3637 23
      vertex 6.18785 15.2918 23
    endloop
  endfacet
  facet normal 0.24869 -0.968583 0
    outer loop
      vertex 6.46817 15.3637 23
      vertex 6.18785 15.2918 19
      vertex 6.46817 15.3637 19
    endloop
  endfacet
  facet normal -0.998027 0.0627913 0
    outer loop
      vertex 9.18637 12.8112 19
      vertex 9.20455 13.1 23
      vertex 9.20455 13.1 19
    endloop
  endfacet
  facet normal -0.998027 0.0627913 0
    outer loop
      vertex 9.20455 13.1 23
      vertex 9.18637 12.8112 19
      vertex 9.18637 12.8112 23
    endloop
  endfacet
  facet normal -0.125335 0.992114 0
    outer loop
      vertex 7.33183 10.8363 19
      vertex 7.0447 10.8 23
      vertex 7.33183 10.8363 23
    endloop
  endfacet
  facet normal -0.125335 0.992114 0
    outer loop
      vertex 7.0447 10.8 23
      vertex 7.33183 10.8363 19
      vertex 7.0447 10.8 19
    endloop
  endfacet
  facet normal -0.368126 0.929776 0
    outer loop
      vertex 7.88123 11.0148 19
      vertex 7.61214 10.9082 23
      vertex 7.88123 11.0148 23
    endloop
  endfacet
  facet normal -0.368126 0.929776 0
    outer loop
      vertex 7.61214 10.9082 23
      vertex 7.88123 11.0148 19
      vertex 7.61214 10.9082 19
    endloop
  endfacet
  facet normal -0.684548 0.728968 0
    outer loop
      vertex 8.57994 11.5224 19
      vertex 8.36897 11.3243 23
      vertex 8.57994 11.5224 23
    endloop
  endfacet
  facet normal -0.684548 0.728968 0
    outer loop
      vertex 8.36897 11.3243 23
      vertex 8.57994 11.5224 19
      vertex 8.36897 11.3243 19
    endloop
  endfacet
  facet normal -0.844328 0.535826 0
    outer loop
      vertex 8.76442 11.7454 19
      vertex 8.91949 11.9898 23
      vertex 8.91949 11.9898 19
    endloop
  endfacet
  facet normal -0.844328 0.535826 0
    outer loop
      vertex 8.91949 11.9898 23
      vertex 8.76442 11.7454 19
      vertex 8.76442 11.7454 23
    endloop
  endfacet
  facet normal -0.982288 0.187379 0
    outer loop
      vertex 9.13215 12.5269 19
      vertex 9.18637 12.8112 23
      vertex 9.18637 12.8112 19
    endloop
  endfacet
  facet normal -0.982288 0.187379 0
    outer loop
      vertex 9.18637 12.8112 23
      vertex 9.13215 12.5269 19
      vertex 9.13215 12.5269 23
    endloop
  endfacet
  facet normal 0.481752 0.876308 -0
    outer loop
      vertex 5.91877 11.0148 19
      vertex 5.66516 11.1542 23
      vertex 5.91877 11.0148 23
    endloop
  endfacet
  facet normal 0.481752 0.876308 0
    outer loop
      vertex 5.66516 11.1542 23
      vertex 5.91877 11.0148 19
      vertex 5.66516 11.1542 19
    endloop
  endfacet
  facet normal 0.248687 0.968584 -0
    outer loop
      vertex 6.46817 10.8363 19
      vertex 6.18785 10.9082 23
      vertex 6.46817 10.8363 23
    endloop
  endfacet
  facet normal 0.248687 0.968584 0
    outer loop
      vertex 6.18785 10.9082 23
      vertex 6.46817 10.8363 19
      vertex 6.18785 10.9082 19
    endloop
  endfacet
  facet normal 0 1 -0
    outer loop
      vertex 7.0447 10.8 19
      vertex 6.7553 10.8 23
      vertex 7.0447 10.8 23
    endloop
  endfacet
  facet normal 0 1 0
    outer loop
      vertex 6.7553 10.8 23
      vertex 7.0447 10.8 19
      vertex 6.7553 10.8 19
    endloop
  endfacet
  facet normal 0.770513 0.637424 0
    outer loop
      vertex 5.22006 11.5224 23
      vertex 5.03558 11.7454 19
      vertex 5.03558 11.7454 23
    endloop
  endfacet
  facet normal 0.770513 0.637424 0
    outer loop
      vertex 5.03558 11.7454 19
      vertex 5.22006 11.5224 23
      vertex 5.22006 11.5224 19
    endloop
  endfacet
  facet normal 0.904826 0.425781 0
    outer loop
      vertex 4.88051 11.9898 23
      vertex 4.75729 12.2516 19
      vertex 4.75729 12.2516 23
    endloop
  endfacet
  facet normal 0.904826 0.425781 0
    outer loop
      vertex 4.75729 12.2516 19
      vertex 4.88051 11.9898 23
      vertex 4.88051 11.9898 19
    endloop
  endfacet
  facet normal 0.982287 0.187382 0
    outer loop
      vertex 4.66785 12.5269 23
      vertex 4.61362 12.8112 19
      vertex 4.61362 12.8112 23
    endloop
  endfacet
  facet normal 0.982287 0.187382 0
    outer loop
      vertex 4.61362 12.8112 19
      vertex 4.66785 12.5269 23
      vertex 4.66785 12.5269 19
    endloop
  endfacet
  facet normal 0.998027 0.062788 0
    outer loop
      vertex 4.61362 12.8112 23
      vertex 4.59545 13.1 19
      vertex 4.59545 13.1 23
    endloop
  endfacet
  facet normal 0.998027 0.062788 0
    outer loop
      vertex 4.59545 13.1 19
      vertex 4.61362 12.8112 23
      vertex 4.61362 12.8112 19
    endloop
  endfacet
  facet normal -0.248688 0.968584 0
    outer loop
      vertex 7.61214 10.9082 19
      vertex 7.33183 10.8363 23
      vertex 7.61214 10.9082 23
    endloop
  endfacet
  facet normal -0.248688 0.968584 0
    outer loop
      vertex 7.33183 10.8363 23
      vertex 7.61214 10.9082 19
      vertex 7.33183 10.8363 19
    endloop
  endfacet
  facet normal -0.481752 0.876308 0
    outer loop
      vertex 8.13484 11.1542 19
      vertex 7.88123 11.0148 23
      vertex 8.13484 11.1542 23
    endloop
  endfacet
  facet normal -0.481752 0.876308 0
    outer loop
      vertex 7.88123 11.0148 23
      vertex 8.13484 11.1542 19
      vertex 7.88123 11.0148 19
    endloop
  endfacet
  facet normal -0.904828 0.425778 0
    outer loop
      vertex 8.91949 11.9898 19
      vertex 9.04271 12.2516 23
      vertex 9.04271 12.2516 19
    endloop
  endfacet
  facet normal -0.904828 0.425778 0
    outer loop
      vertex 9.04271 12.2516 23
      vertex 8.91949 11.9898 19
      vertex 8.91949 11.9898 23
    endloop
  endfacet
  facet normal 0.368127 0.929775 -0
    outer loop
      vertex 6.18785 10.9082 19
      vertex 5.91877 11.0148 23
      vertex 6.18785 10.9082 23
    endloop
  endfacet
  facet normal 0.368127 0.929775 0
    outer loop
      vertex 5.91877 11.0148 23
      vertex 6.18785 10.9082 19
      vertex 5.91877 11.0148 19
    endloop
  endfacet
  facet normal 0.125335 0.992114 -0
    outer loop
      vertex 6.7553 10.8 19
      vertex 6.46817 10.8363 23
      vertex 6.7553 10.8 23
    endloop
  endfacet
  facet normal 0.125335 0.992114 0
    outer loop
      vertex 6.46817 10.8363 23
      vertex 6.7553 10.8 19
      vertex 6.46817 10.8363 19
    endloop
  endfacet
  facet normal 0.951057 0.309017 0
    outer loop
      vertex 4.75729 12.2516 23
      vertex 4.66785 12.5269 19
      vertex 4.66785 12.5269 23
    endloop
  endfacet
  facet normal 0.951057 0.309017 0
    outer loop
      vertex 4.66785 12.5269 19
      vertex 4.75729 12.2516 23
      vertex 4.75729 12.2516 19
    endloop
  endfacet
  facet normal -0.951056 0.30902 0
    outer loop
      vertex 9.04271 12.2516 19
      vertex 9.13215 12.5269 23
      vertex 9.13215 12.5269 19
    endloop
  endfacet
  facet normal -0.951056 0.30902 0
    outer loop
      vertex 9.13215 12.5269 23
      vertex 9.04271 12.2516 19
      vertex 9.04271 12.2516 23
    endloop
  endfacet
  facet normal -0.998027 -0.062788 0
    outer loop
      vertex 25.4045 13.1 19
      vertex 25.3864 13.3888 23
      vertex 25.3864 13.3888 19
    endloop
  endfacet
  facet normal -0.998027 -0.062788 0
    outer loop
      vertex 25.3864 13.3888 23
      vertex 25.4045 13.1 19
      vertex 25.4045 13.1 23
    endloop
  endfacet
  facet normal 0.998026 -0.0627945 0
    outer loop
      vertex 20.7955 13.1 23
      vertex 20.8136 13.3888 19
      vertex 20.8136 13.3888 23
    endloop
  endfacet
  facet normal 0.998026 -0.0627945 0
    outer loop
      vertex 20.8136 13.3888 19
      vertex 20.7955 13.1 23
      vertex 20.7955 13.1 19
    endloop
  endfacet
  facet normal 0 -1 0
    outer loop
      vertex 22.9553 15.4 19
      vertex 23.2447 15.4 23
      vertex 22.9553 15.4 23
    endloop
  endfacet
  facet normal 0 -1 -0
    outer loop
      vertex 23.2447 15.4 23
      vertex 22.9553 15.4 19
      vertex 23.2447 15.4 19
    endloop
  endfacet
  facet normal 0 1 -0
    outer loop
      vertex 23.2447 10.8 19
      vertex 22.9553 10.8 23
      vertex 23.2447 10.8 23
    endloop
  endfacet
  facet normal 0 1 0
    outer loop
      vertex 22.9553 10.8 23
      vertex 23.2447 10.8 19
      vertex 22.9553 10.8 19
    endloop
  endfacet
  facet normal -0.770513 0.637424 0
    outer loop
      vertex 24.7799 11.5224 19
      vertex 24.9644 11.7454 23
      vertex 24.9644 11.7454 19
    endloop
  endfacet
  facet normal -0.770513 0.637424 0
    outer loop
      vertex 24.9644 11.7454 23
      vertex 24.7799 11.5224 19
      vertex 24.7799 11.5224 23
    endloop
  endfacet
  facet normal -0.684548 -0.728968 0
    outer loop
      vertex 24.569 14.8757 19
      vertex 24.7799 14.6776 23
      vertex 24.569 14.8757 23
    endloop
  endfacet
  facet normal -0.684548 -0.728968 -0
    outer loop
      vertex 24.7799 14.6776 23
      vertex 24.569 14.8757 19
      vertex 24.7799 14.6776 19
    endloop
  endfacet
  facet normal 0.684544 -0.728971 0
    outer loop
      vertex 21.4201 14.6776 19
      vertex 21.631 14.8757 23
      vertex 21.4201 14.6776 23
    endloop
  endfacet
  facet normal 0.684544 -0.728971 0
    outer loop
      vertex 21.631 14.8757 23
      vertex 21.4201 14.6776 19
      vertex 21.631 14.8757 19
    endloop
  endfacet
  facet normal 0.368123 -0.929777 0
    outer loop
      vertex 22.1188 15.1852 19
      vertex 22.3879 15.2918 23
      vertex 22.1188 15.1852 23
    endloop
  endfacet
  facet normal 0.368123 -0.929777 0
    outer loop
      vertex 22.3879 15.2918 23
      vertex 22.1188 15.1852 19
      vertex 22.3879 15.2918 19
    endloop
  endfacet
  facet normal -0.904826 -0.425781 0
    outer loop
      vertex 25.2427 13.9484 19
      vertex 25.1195 14.2102 23
      vertex 25.1195 14.2102 19
    endloop
  endfacet
  facet normal -0.904826 -0.425781 0
    outer loop
      vertex 25.1195 14.2102 23
      vertex 25.2427 13.9484 19
      vertex 25.2427 13.9484 23
    endloop
  endfacet
  facet normal -0.368125 -0.929776 0
    outer loop
      vertex 23.8121 15.2918 19
      vertex 24.0812 15.1852 23
      vertex 23.8121 15.2918 23
    endloop
  endfacet
  facet normal -0.368125 -0.929776 -0
    outer loop
      vertex 24.0812 15.1852 23
      vertex 23.8121 15.2918 19
      vertex 24.0812 15.1852 19
    endloop
  endfacet
  facet normal -0.24869 -0.968583 0
    outer loop
      vertex 23.5318 15.3637 19
      vertex 23.8121 15.2918 23
      vertex 23.5318 15.3637 23
    endloop
  endfacet
  facet normal -0.24869 -0.968583 -0
    outer loop
      vertex 23.8121 15.2918 23
      vertex 23.5318 15.3637 19
      vertex 23.8121 15.2918 19
    endloop
  endfacet
  facet normal -0.481753 -0.876307 0
    outer loop
      vertex 24.0812 15.1852 19
      vertex 24.3348 15.0458 23
      vertex 24.0812 15.1852 23
    endloop
  endfacet
  facet normal -0.481753 -0.876307 -0
    outer loop
      vertex 24.3348 15.0458 23
      vertex 24.0812 15.1852 19
      vertex 24.3348 15.0458 19
    endloop
  endfacet
  facet normal 0.904829 -0.425775 0
    outer loop
      vertex 20.9573 13.9484 23
      vertex 21.0805 14.2102 19
      vertex 21.0805 14.2102 23
    endloop
  endfacet
  facet normal 0.904829 -0.425775 0
    outer loop
      vertex 21.0805 14.2102 19
      vertex 20.9573 13.9484 23
      vertex 20.9573 13.9484 19
    endloop
  endfacet
  facet normal 0.844329 -0.535825 0
    outer loop
      vertex 21.0805 14.2102 23
      vertex 21.2356 14.4546 19
      vertex 21.2356 14.4546 23
    endloop
  endfacet
  facet normal 0.844329 -0.535825 0
    outer loop
      vertex 21.2356 14.4546 19
      vertex 21.0805 14.2102 23
      vertex 21.0805 14.2102 19
    endloop
  endfacet
  facet normal 0.951055 -0.309023 0
    outer loop
      vertex 20.8679 13.6731 23
      vertex 20.9573 13.9484 19
      vertex 20.9573 13.9484 23
    endloop
  endfacet
  facet normal 0.951055 -0.309023 0
    outer loop
      vertex 20.9573 13.9484 19
      vertex 20.8679 13.6731 23
      vertex 20.8679 13.6731 19
    endloop
  endfacet
  facet normal 0.481756 -0.876306 0
    outer loop
      vertex 21.8652 15.0458 19
      vertex 22.1188 15.1852 23
      vertex 21.8652 15.0458 23
    endloop
  endfacet
  facet normal 0.481756 -0.876306 0
    outer loop
      vertex 22.1188 15.1852 23
      vertex 21.8652 15.0458 19
      vertex 22.1188 15.1852 19
    endloop
  endfacet
  facet normal 0.125332 -0.992115 0
    outer loop
      vertex 22.6682 15.3637 19
      vertex 22.9553 15.4 23
      vertex 22.6682 15.3637 23
    endloop
  endfacet
  facet normal 0.125332 -0.992115 0
    outer loop
      vertex 22.9553 15.4 23
      vertex 22.6682 15.3637 19
      vertex 22.9553 15.4 19
    endloop
  endfacet
  facet normal -0.951057 -0.309017 0
    outer loop
      vertex 25.3321 13.6731 19
      vertex 25.2427 13.9484 23
      vertex 25.2427 13.9484 19
    endloop
  endfacet
  facet normal -0.951057 -0.309017 0
    outer loop
      vertex 25.2427 13.9484 23
      vertex 25.3321 13.6731 19
      vertex 25.3321 13.6731 23
    endloop
  endfacet
  facet normal -0.982287 -0.187382 0
    outer loop
      vertex 25.3864 13.3888 19
      vertex 25.3321 13.6731 23
      vertex 25.3321 13.6731 19
    endloop
  endfacet
  facet normal -0.982287 -0.187382 0
    outer loop
      vertex 25.3321 13.6731 23
      vertex 25.3864 13.3888 19
      vertex 25.3864 13.3888 23
    endloop
  endfacet
  facet normal -0.770515 -0.637422 0
    outer loop
      vertex 24.9644 14.4546 19
      vertex 24.7799 14.6776 23
      vertex 24.7799 14.6776 19
    endloop
  endfacet
  facet normal -0.770515 -0.637422 0
    outer loop
      vertex 24.7799 14.6776 23
      vertex 24.9644 14.4546 19
      vertex 24.9644 14.4546 23
    endloop
  endfacet
  facet normal -0.844326 -0.53583 0
    outer loop
      vertex 25.1195 14.2102 19
      vertex 24.9644 14.4546 23
      vertex 24.9644 14.4546 19
    endloop
  endfacet
  facet normal -0.844326 -0.53583 0
    outer loop
      vertex 24.9644 14.4546 23
      vertex 25.1195 14.2102 19
      vertex 25.1195 14.2102 23
    endloop
  endfacet
  facet normal -0.125332 -0.992115 0
    outer loop
      vertex 23.2447 15.4 19
      vertex 23.5318 15.3637 23
      vertex 23.2447 15.4 23
    endloop
  endfacet
  facet normal -0.125332 -0.992115 -0
    outer loop
      vertex 23.5318 15.3637 23
      vertex 23.2447 15.4 19
      vertex 23.5318 15.3637 19
    endloop
  endfacet
  facet normal -0.587787 -0.809015 0
    outer loop
      vertex 24.3348 15.0458 19
      vertex 24.569 14.8757 23
      vertex 24.3348 15.0458 23
    endloop
  endfacet
  facet normal -0.587787 -0.809015 -0
    outer loop
      vertex 24.569 14.8757 23
      vertex 24.3348 15.0458 19
      vertex 24.569 14.8757 19
    endloop
  endfacet
  facet normal 0.982288 -0.187375 0
    outer loop
      vertex 20.8136 13.3888 23
      vertex 20.8679 13.6731 19
      vertex 20.8679 13.6731 23
    endloop
  endfacet
  facet normal 0.982288 -0.187375 0
    outer loop
      vertex 20.8679 13.6731 19
      vertex 20.8136 13.3888 23
      vertex 20.8136 13.3888 19
    endloop
  endfacet
  facet normal 0.587784 -0.809018 0
    outer loop
      vertex 21.631 14.8757 19
      vertex 21.8652 15.0458 23
      vertex 21.631 14.8757 23
    endloop
  endfacet
  facet normal 0.587784 -0.809018 0
    outer loop
      vertex 21.8652 15.0458 23
      vertex 21.631 14.8757 19
      vertex 21.8652 15.0458 19
    endloop
  endfacet
  facet normal 0.24869 -0.968583 0
    outer loop
      vertex 22.3879 15.2918 19
      vertex 22.6682 15.3637 23
      vertex 22.3879 15.2918 23
    endloop
  endfacet
  facet normal 0.24869 -0.968583 0
    outer loop
      vertex 22.6682 15.3637 23
      vertex 22.3879 15.2918 19
      vertex 22.6682 15.3637 19
    endloop
  endfacet
  facet normal 0.368126 0.929776 -0
    outer loop
      vertex 22.3879 10.9082 19
      vertex 22.1188 11.0148 23
      vertex 22.3879 10.9082 23
    endloop
  endfacet
  facet normal 0.368126 0.929776 0
    outer loop
      vertex 22.1188 11.0148 23
      vertex 22.3879 10.9082 19
      vertex 22.1188 11.0148 19
    endloop
  endfacet
  facet normal 0.904829 0.425775 0
    outer loop
      vertex 21.0805 11.9898 23
      vertex 20.9573 12.2516 19
      vertex 20.9573 12.2516 23
    endloop
  endfacet
  facet normal 0.904829 0.425775 0
    outer loop
      vertex 20.9573 12.2516 19
      vertex 21.0805 11.9898 23
      vertex 21.0805 11.9898 19
    endloop
  endfacet
  facet normal -0.48175 0.876308 0
    outer loop
      vertex 24.3348 11.1542 19
      vertex 24.0812 11.0148 23
      vertex 24.3348 11.1542 23
    endloop
  endfacet
  facet normal -0.48175 0.876308 0
    outer loop
      vertex 24.0812 11.0148 23
      vertex 24.3348 11.1542 19
      vertex 24.0812 11.0148 19
    endloop
  endfacet
  facet normal -0.368128 0.929775 0
    outer loop
      vertex 24.0812 11.0148 19
      vertex 23.8121 10.9082 23
      vertex 24.0812 11.0148 23
    endloop
  endfacet
  facet normal -0.368128 0.929775 0
    outer loop
      vertex 23.8121 10.9082 23
      vertex 24.0812 11.0148 19
      vertex 23.8121 10.9082 19
    endloop
  endfacet
  facet normal 0.770515 -0.637422 0
    outer loop
      vertex 21.2356 14.4546 23
      vertex 21.4201 14.6776 19
      vertex 21.4201 14.6776 23
    endloop
  endfacet
  facet normal 0.770515 -0.637422 0
    outer loop
      vertex 21.4201 14.6776 19
      vertex 21.2356 14.4546 23
      vertex 21.2356 14.4546 19
    endloop
  endfacet
  facet normal -0.951057 0.309017 0
    outer loop
      vertex 25.2427 12.2516 19
      vertex 25.3321 12.5269 23
      vertex 25.3321 12.5269 19
    endloop
  endfacet
  facet normal -0.951057 0.309017 0
    outer loop
      vertex 25.3321 12.5269 23
      vertex 25.2427 12.2516 19
      vertex 25.2427 12.2516 23
    endloop
  endfacet
  facet normal -0.982287 0.187382 0
    outer loop
      vertex 25.3321 12.5269 19
      vertex 25.3864 12.8112 23
      vertex 25.3864 12.8112 19
    endloop
  endfacet
  facet normal -0.982287 0.187382 0
    outer loop
      vertex 25.3864 12.8112 23
      vertex 25.3321 12.5269 19
      vertex 25.3321 12.5269 23
    endloop
  endfacet
  facet normal -0.998027 0.062788 0
    outer loop
      vertex 25.3864 12.8112 19
      vertex 25.4045 13.1 23
      vertex 25.4045 13.1 19
    endloop
  endfacet
  facet normal -0.998027 0.062788 0
    outer loop
      vertex 25.4045 13.1 23
      vertex 25.3864 12.8112 19
      vertex 25.3864 12.8112 23
    endloop
  endfacet
  facet normal 0.951055 0.309023 0
    outer loop
      vertex 20.9573 12.2516 23
      vertex 20.8679 12.5269 19
      vertex 20.8679 12.5269 23
    endloop
  endfacet
  facet normal 0.951055 0.309023 0
    outer loop
      vertex 20.8679 12.5269 19
      vertex 20.9573 12.2516 23
      vertex 20.9573 12.2516 19
    endloop
  endfacet
  facet normal 0.998026 0.0627945 0
    outer loop
      vertex 20.8136 12.8112 23
      vertex 20.7955 13.1 19
      vertex 20.7955 13.1 23
    endloop
  endfacet
  facet normal 0.998026 0.0627945 0
    outer loop
      vertex 20.7955 13.1 19
      vertex 20.8136 12.8112 23
      vertex 20.8136 12.8112 19
    endloop
  endfacet
  facet normal -0.587787 0.809015 0
    outer loop
      vertex 24.569 11.3243 19
      vertex 24.3348 11.1542 23
      vertex 24.569 11.3243 23
    endloop
  endfacet
  facet normal -0.587787 0.809015 0
    outer loop
      vertex 24.3348 11.1542 23
      vertex 24.569 11.3243 19
      vertex 24.3348 11.1542 19
    endloop
  endfacet
  facet normal -0.684549 0.728966 0
    outer loop
      vertex 24.7799 11.5224 19
      vertex 24.569 11.3243 23
      vertex 24.7799 11.5224 23
    endloop
  endfacet
  facet normal -0.684549 0.728966 0
    outer loop
      vertex 24.569 11.3243 23
      vertex 24.7799 11.5224 19
      vertex 24.569 11.3243 19
    endloop
  endfacet
  facet normal -0.248687 0.968584 0
    outer loop
      vertex 23.8121 10.9082 19
      vertex 23.5318 10.8363 23
      vertex 23.8121 10.9082 23
    endloop
  endfacet
  facet normal -0.248687 0.968584 0
    outer loop
      vertex 23.5318 10.8363 23
      vertex 23.8121 10.9082 19
      vertex 23.5318 10.8363 19
    endloop
  endfacet
  facet normal -0.125335 0.992114 0
    outer loop
      vertex 23.5318 10.8363 19
      vertex 23.2447 10.8 23
      vertex 23.5318 10.8363 23
    endloop
  endfacet
  facet normal -0.125335 0.992114 0
    outer loop
      vertex 23.2447 10.8 23
      vertex 23.5318 10.8363 19
      vertex 23.2447 10.8 19
    endloop
  endfacet
  facet normal -0.844327 0.535828 0
    outer loop
      vertex 24.9644 11.7454 19
      vertex 25.1195 11.9898 23
      vertex 25.1195 11.9898 19
    endloop
  endfacet
  facet normal -0.844327 0.535828 0
    outer loop
      vertex 25.1195 11.9898 23
      vertex 24.9644 11.7454 19
      vertex 24.9644 11.7454 23
    endloop
  endfacet
  facet normal 0.481753 0.876307 -0
    outer loop
      vertex 22.1188 11.0148 19
      vertex 21.8652 11.1542 23
      vertex 22.1188 11.0148 23
    endloop
  endfacet
  facet normal 0.481753 0.876307 0
    outer loop
      vertex 21.8652 11.1542 23
      vertex 22.1188 11.0148 19
      vertex 21.8652 11.1542 19
    endloop
  endfacet
  facet normal 0.248687 0.968584 -0
    outer loop
      vertex 22.6682 10.8363 19
      vertex 22.3879 10.9082 23
      vertex 22.6682 10.8363 23
    endloop
  endfacet
  facet normal 0.248687 0.968584 0
    outer loop
      vertex 22.3879 10.9082 23
      vertex 22.6682 10.8363 19
      vertex 22.3879 10.9082 19
    endloop
  endfacet
  facet normal 0.684546 0.728969 -0
    outer loop
      vertex 21.631 11.3243 19
      vertex 21.4201 11.5224 23
      vertex 21.631 11.3243 23
    endloop
  endfacet
  facet normal 0.684546 0.728969 0
    outer loop
      vertex 21.4201 11.5224 23
      vertex 21.631 11.3243 19
      vertex 21.4201 11.5224 19
    endloop
  endfacet
  facet normal 0.770513 0.637424 0
    outer loop
      vertex 21.4201 11.5224 23
      vertex 21.2356 11.7454 19
      vertex 21.2356 11.7454 23
    endloop
  endfacet
  facet normal 0.770513 0.637424 0
    outer loop
      vertex 21.2356 11.7454 19
      vertex 21.4201 11.5224 23
      vertex 21.4201 11.5224 19
    endloop
  endfacet
  facet normal 0.84433 0.535824 0
    outer loop
      vertex 21.2356 11.7454 23
      vertex 21.0805 11.9898 19
      vertex 21.0805 11.9898 23
    endloop
  endfacet
  facet normal 0.84433 0.535824 0
    outer loop
      vertex 21.0805 11.9898 19
      vertex 21.2356 11.7454 23
      vertex 21.2356 11.7454 19
    endloop
  endfacet
  facet normal 0.982288 0.187376 0
    outer loop
      vertex 20.8679 12.5269 23
      vertex 20.8136 12.8112 19
      vertex 20.8136 12.8112 23
    endloop
  endfacet
  facet normal 0.982288 0.187376 0
    outer loop
      vertex 20.8136 12.8112 19
      vertex 20.8679 12.5269 23
      vertex 20.8679 12.5269 19
    endloop
  endfacet
  facet normal -0.904826 0.425781 0
    outer loop
      vertex 25.1195 11.9898 19
      vertex 25.2427 12.2516 23
      vertex 25.2427 12.2516 19
    endloop
  endfacet
  facet normal -0.904826 0.425781 0
    outer loop
      vertex 25.2427 12.2516 23
      vertex 25.1195 11.9898 19
      vertex 25.1195 11.9898 23
    endloop
  endfacet
  facet normal 0.587784 0.809018 -0
    outer loop
      vertex 21.8652 11.1542 19
      vertex 21.631 11.3243 23
      vertex 21.8652 11.1542 23
    endloop
  endfacet
  facet normal 0.587784 0.809018 0
    outer loop
      vertex 21.631 11.3243 23
      vertex 21.8652 11.1542 19
      vertex 21.631 11.3243 19
    endloop
  endfacet
  facet normal 0.125336 0.992114 -0
    outer loop
      vertex 22.9553 10.8 19
      vertex 22.6682 10.8363 23
      vertex 22.9553 10.8 23
    endloop
  endfacet
  facet normal 0.125336 0.992114 0
    outer loop
      vertex 22.6682 10.8363 23
      vertex 22.9553 10.8 19
      vertex 22.6682 10.8363 19
    endloop
  endfacet
  facet normal 0 0 -1
    outer loop
      vertex 0 0 0
      vertex 30 20 0
      vertex 30 0 0
    endloop
  endfacet
  facet normal -0 0 -1
    outer loop
      vertex 30 20 0
      vertex 0 0 0
      vertex 0 20 0
    endloop
  endfacet
  facet normal 0 1 -0
    outer loop
      vertex 30 20 0
      vertex 0 20 4
      vertex 30 20 4
    endloop
  endfacet
  facet normal 0 1 0
    outer loop
      vertex 0 20 4
      vertex 30 20 0
      vertex 0 20 0
    endloop
  endfacet
endsolid OpenSCAD_Model
