solid OpenSCAD_Model
  facet normal 0.989821 0.142315 0
    outer loop
      vertex 14 7 6
      vertex 13.7165 8.97213 2
      vertex 13.7165 8.97213 6
    endloop
  endfacet
  facet normal 0.989821 0.142315 0
    outer loop
      vertex 13.7165 8.97213 2
      vertex 14 7 6
      vertex 14 7 2
    endloop
  endfacet
  facet normal -0.989822 -0.142314 0
    outer loop
      vertex 0.283548 5.02787 2
      vertex 0 7 6
      vertex 0 7 2
    endloop
  endfacet
  facet normal -0.989822 -0.142314 0
    outer loop
      vertex 0 7 6
      vertex 0.283548 5.02787 2
      vertex 0.283548 5.02787 6
    endloop
  endfacet
  facet normal 0 1 -0
    outer loop
      vertex 7.9962 13.9288 2
      vertex 6.0038 13.9288 6
      vertex 7.9962 13.9288 6
    endloop
  endfacet
  facet normal 0 1 0
    outer loop
      vertex 6.0038 13.9288 6
      vertex 7.9962 13.9288 2
      vertex 6.0038 13.9288 2
    endloop
  endfacet
  facet normal 0.75575 0.654861 0
    outer loop
      vertex 12.8888 10.7845 6
      vertex 11.584 12.2902 2
      vertex 11.584 12.2902 6
    endloop
  endfacet
  facet normal 0.75575 0.654861 0
    outer loop
      vertex 11.584 12.2902 2
      vertex 12.8888 10.7845 6
      vertex 12.8888 10.7845 2
    endloop
  endfacet
  facet normal 0.909632 0.415415 0
    outer loop
      vertex 13.7165 8.97213 6
      vertex 12.8888 10.7845 2
      vertex 12.8888 10.7845 6
    endloop
  endfacet
  facet normal 0.909632 0.415415 0
    outer loop
      vertex 12.8888 10.7845 2
      vertex 13.7165 8.97213 6
      vertex 13.7165 8.97213 2
    endloop
  endfacet
  facet normal -0.75575 0.654861 0
    outer loop
      vertex 1.11123 10.7845 2
      vertex 2.41597 12.2902 6
      vertex 2.41597 12.2902 2
    endloop
  endfacet
  facet normal -0.75575 0.654861 0
    outer loop
      vertex 2.41597 12.2902 6
      vertex 1.11123 10.7845 2
      vertex 1.11123 10.7845 6
    endloop
  endfacet
  facet normal -0.909632 0.415415 0
    outer loop
      vertex 0.283548 8.97213 2
      vertex 1.11123 10.7845 6
      vertex 1.11123 10.7845 2
    endloop
  endfacet
  facet normal -0.909632 0.415415 0
    outer loop
      vertex 1.11123 10.7845 6
      vertex 0.283548 8.97213 2
      vertex 0.283548 8.97213 6
    endloop
  endfacet
  facet normal -0.540641 0.841254 0
    outer loop
      vertex 4.09209 13.3674 2
      vertex 2.41597 12.2902 6
      vertex 4.09209 13.3674 6
    endloop
  endfacet
  facet normal -0.540641 0.841254 0
    outer loop
      vertex 2.41597 12.2902 6
      vertex 4.09209 13.3674 2
      vertex 2.41597 12.2902 2
    endloop
  endfacet
  facet normal 0.909632 -0.415415 0
    outer loop
      vertex 12.8888 3.21551 6
      vertex 13.7165 5.02787 2
      vertex 13.7165 5.02787 6
    endloop
  endfacet
  facet normal 0.909632 -0.415415 0
    outer loop
      vertex 13.7165 5.02787 2
      vertex 12.8888 3.21551 6
      vertex 12.8888 3.21551 2
    endloop
  endfacet
  facet normal -0.909632 -0.415415 0
    outer loop
      vertex 1.11123 3.21551 2
      vertex 0.283548 5.02787 6
      vertex 0.283548 5.02787 2
    endloop
  endfacet
  facet normal -0.909632 -0.415415 0
    outer loop
      vertex 0.283548 5.02787 6
      vertex 1.11123 3.21551 2
      vertex 1.11123 3.21551 6
    endloop
  endfacet
  facet normal 0.281733 0.959493 -0
    outer loop
      vertex 9.9079 13.3674 2
      vertex 7.9962 13.9288 6
      vertex 9.9079 13.3674 6
    endloop
  endfacet
  facet normal 0.281733 0.959493 0
    outer loop
      vertex 7.9962 13.9288 6
      vertex 9.9079 13.3674 2
      vertex 7.9962 13.9288 2
    endloop
  endfacet
  facet normal 0.540641 0.841254 -0
    outer loop
      vertex 11.584 12.2902 2
      vertex 9.9079 13.3674 6
      vertex 11.584 12.2902 6
    endloop
  endfacet
  facet normal 0.540641 0.841254 0
    outer loop
      vertex 9.9079 13.3674 6
      vertex 11.584 12.2902 2
      vertex 9.9079 13.3674 2
    endloop
  endfacet
  facet normal 0 0 -1
    outer loop
      vertex 40 0 0
      vertex 11.6688 7 0
      vertex 40 40 0
    endloop
  endfacet
  facet normal 0 0 -1
    outer loop
      vertex 40 0 0
      vertex 9.3344 2.9567 0
      vertex 11.6688 7 0
    endloop
  endfacet
  facet normal 0 0 -1
    outer loop
      vertex 0 0 0
      vertex 9.3344 2.9567 0
      vertex 40 0 0
    endloop
  endfacet
  facet normal -0 0 -1
    outer loop
      vertex 4.6656 2.9567 0
      vertex 0 0 0
      vertex 2.3312 7 0
    endloop
  endfacet
  facet normal -0 0 -1
    outer loop
      vertex 9.3344 2.9567 0
      vertex 0 0 0
      vertex 4.6656 2.9567 0
    endloop
  endfacet
  facet normal 0 0 -1
    outer loop
      vertex 9.3344 11.0433 0
      vertex 40 40 0
      vertex 11.6688 7 0
    endloop
  endfacet
  facet normal 0 0 -1
    outer loop
      vertex 0 40 0
      vertex 9.3344 11.0433 0
      vertex 4.6656 11.0433 0
    endloop
  endfacet
  facet normal 0 0 -1
    outer loop
      vertex 9.3344 11.0433 0
      vertex 0 40 0
      vertex 40 40 0
    endloop
  endfacet
  facet normal 0 0 -1
    outer loop
      vertex 2.3312 7 0
      vertex 0 40 0
      vertex 4.6656 11.0433 0
    endloop
  endfacet
  facet normal 0 0 -1
    outer loop
      vertex 0 40 0
      vertex 2.3312 7 0
      vertex 0 0 0
    endloop
  endfacet
  facet normal -0.989821 0.142314 0
    outer loop
      vertex 0 7 2
      vertex 0.283548 8.97213 6
      vertex 0.283548 8.97213 2
    endloop
  endfacet
  facet normal -0.989821 0.142314 0
    outer loop
      vertex 0.283548 8.97213 6
      vertex 0 7 2
      vertex 0 7 6
    endloop
  endfacet
  facet normal 0 0 1
    outer loop
      vertex 9.55585 7 6
      vertex 14 7 6
      vertex 13.7165 8.97213 6
    endloop
  endfacet
  facet normal 0 0 1
    outer loop
      vertex 9.33489 8.03956 6
      vertex 13.7165 8.97213 6
      vertex 12.8888 10.7845 6
    endloop
  endfacet
  facet normal 0 0 1
    outer loop
      vertex 14 7 6
      vertex 9.55585 7 6
      vertex 13.7165 5.02787 6
    endloop
  endfacet
  facet normal 0 0 1
    outer loop
      vertex 8.7102 8.89937 6
      vertex 12.8888 10.7845 6
      vertex 11.584 12.2902 6
    endloop
  endfacet
  facet normal -0 0 1
    outer loop
      vertex 9.33489 5.96044 6
      vertex 13.7165 5.02787 6
      vertex 9.55585 7 6
    endloop
  endfacet
  facet normal 0 0 1
    outer loop
      vertex 8.7102 8.89937 6
      vertex 11.584 12.2902 6
      vertex 9.9079 13.3674 6
    endloop
  endfacet
  facet normal 0 0 1
    outer loop
      vertex 13.7165 5.02787 6
      vertex 9.33489 5.96044 6
      vertex 12.8888 3.21551 6
    endloop
  endfacet
  facet normal -0 0 1
    outer loop
      vertex 8.7102 5.10063 6
      vertex 12.8888 3.21551 6
      vertex 9.33489 5.96044 6
    endloop
  endfacet
  facet normal 0 0 1
    outer loop
      vertex 13.7165 8.97213 6
      vertex 9.33489 8.03956 6
      vertex 9.55585 7 6
    endloop
  endfacet
  facet normal 0 0 1
    outer loop
      vertex 12.8888 10.7845 6
      vertex 8.7102 8.89937 6
      vertex 9.33489 8.03956 6
    endloop
  endfacet
  facet normal 0 0 1
    outer loop
      vertex 7.7898 9.43076 6
      vertex 9.9079 13.3674 6
      vertex 7.9962 13.9288 6
    endloop
  endfacet
  facet normal 0 0 1
    outer loop
      vertex 9.9079 13.3674 6
      vertex 7.7898 9.43076 6
      vertex 8.7102 8.89937 6
    endloop
  endfacet
  facet normal 0 0 1
    outer loop
      vertex 7.9962 13.9288 6
      vertex 6.73284 9.54185 6
      vertex 7.7898 9.43076 6
    endloop
  endfacet
  facet normal -0 0 1
    outer loop
      vertex 6.0038 13.9288 6
      vertex 6.73284 9.54185 6
      vertex 7.9962 13.9288 6
    endloop
  endfacet
  facet normal -0 0 1
    outer loop
      vertex 4.09209 13.3674 6
      vertex 6.73284 9.54185 6
      vertex 6.0038 13.9288 6
    endloop
  endfacet
  facet normal 0 0 1
    outer loop
      vertex 6.73284 9.54185 6
      vertex 4.09209 13.3674 6
      vertex 5.72207 9.21343 6
    endloop
  endfacet
  facet normal -0 0 1
    outer loop
      vertex 2.41597 12.2902 6
      vertex 5.72207 9.21343 6
      vertex 4.09209 13.3674 6
    endloop
  endfacet
  facet normal -0 0 1
    outer loop
      vertex 1.11123 10.7845 6
      vertex 4.93227 8.50229 6
      vertex 2.41597 12.2902 6
    endloop
  endfacet
  facet normal 0 0 1
    outer loop
      vertex 5.72207 9.21343 6
      vertex 2.41597 12.2902 6
      vertex 4.93227 8.50229 6
    endloop
  endfacet
  facet normal 0 0 1
    outer loop
      vertex 12.8888 3.21551 6
      vertex 8.7102 5.10063 6
      vertex 11.584 1.70975 6
    endloop
  endfacet
  facet normal 0 0 1
    outer loop
      vertex 11.584 1.70975 6
      vertex 8.7102 5.10063 6
      vertex 9.9079 0.632576 6
    endloop
  endfacet
  facet normal -0 0 1
    outer loop
      vertex 7.7898 4.56924 6
      vertex 9.9079 0.632576 6
      vertex 8.7102 5.10063 6
    endloop
  endfacet
  facet normal 0 0 1
    outer loop
      vertex 9.9079 0.632576 6
      vertex 7.7898 4.56924 6
      vertex 7.9962 0.071249 6
    endloop
  endfacet
  facet normal -0 0 1
    outer loop
      vertex 6.73284 4.45815 6
      vertex 7.9962 0.071249 6
      vertex 7.7898 4.56924 6
    endloop
  endfacet
  facet normal 0 0 1
    outer loop
      vertex 6.73284 4.45815 6
      vertex 6.0038 0.071249 6
      vertex 7.9962 0.071249 6
    endloop
  endfacet
  facet normal 0 0 1
    outer loop
      vertex 4.09209 0.632576 6
      vertex 6.73284 4.45815 6
      vertex 5.72207 4.78657 6
    endloop
  endfacet
  facet normal 0 0 1
    outer loop
      vertex 2.41597 1.70975 6
      vertex 5.72207 4.78657 6
      vertex 4.93227 5.49771 6
    endloop
  endfacet
  facet normal 0 0 1
    outer loop
      vertex 0.283548 5.02787 6
      vertex 4.93227 5.49771 6
      vertex 4.5 6.46861 6
    endloop
  endfacet
  facet normal 0 0 1
    outer loop
      vertex 6.73284 4.45815 6
      vertex 4.09209 0.632576 6
      vertex 6.0038 0.071249 6
    endloop
  endfacet
  facet normal -0 0 1
    outer loop
      vertex 0.283548 8.97213 6
      vertex 4.93227 8.50229 6
      vertex 1.11123 10.7845 6
    endloop
  endfacet
  facet normal 0 0 1
    outer loop
      vertex 4.93227 8.50229 6
      vertex 0.283548 8.97213 6
      vertex 4.5 7.53139 6
    endloop
  endfacet
  facet normal 0 0 1
    outer loop
      vertex 5.72207 4.78657 6
      vertex 2.41597 1.70975 6
      vertex 4.09209 0.632576 6
    endloop
  endfacet
  facet normal 0 0 1
    outer loop
      vertex 0 7 6
      vertex 4.5 7.53139 6
      vertex 0.283548 8.97213 6
    endloop
  endfacet
  facet normal 0 0 1
    outer loop
      vertex 4.93227 5.49771 6
      vertex 1.11123 3.21551 6
      vertex 2.41597 1.70975 6
    endloop
  endfacet
  facet normal 0 0 1
    outer loop
      vertex 4.5 7.53139 6
      vertex 0 7 6
      vertex 4.5 6.46861 6
    endloop
  endfacet
  facet normal 0 0 1
    outer loop
      vertex 4.93227 5.49771 6
      vertex 0.283548 5.02787 6
      vertex 1.11123 3.21551 6
    endloop
  endfacet
  facet normal 0 0 1
    outer loop
      vertex 4.5 6.46861 6
      vertex 0 7 6
      vertex 0.283548 5.02787 6
    endloop
  endfacet
  facet normal -0.281733 0.959493 0
    outer loop
      vertex 6.0038 13.9288 2
      vertex 4.09209 13.3674 6
      vertex 6.0038 13.9288 6
    endloop
  endfacet
  facet normal -0.281733 0.959493 0
    outer loop
      vertex 4.09209 13.3674 6
      vertex 6.0038 13.9288 2
      vertex 4.09209 13.3674 2
    endloop
  endfacet
  facet normal 0.989821 -0.142315 0
    outer loop
      vertex 13.7165 5.02787 6
      vertex 14 7 2
      vertex 14 7 6
    endloop
  endfacet
  facet normal 0.989821 -0.142315 0
    outer loop
      vertex 14 7 2
      vertex 13.7165 5.02787 6
      vertex 13.7165 5.02787 2
    endloop
  endfacet
  facet normal 0.281733 -0.959493 0
    outer loop
      vertex 7.9962 0.071249 2
      vertex 9.9079 0.632576 6
      vertex 7.9962 0.071249 6
    endloop
  endfacet
  facet normal 0.281733 -0.959493 0
    outer loop
      vertex 9.9079 0.632576 6
      vertex 7.9962 0.071249 2
      vertex 9.9079 0.632576 2
    endloop
  endfacet
  facet normal -0.540641 -0.841254 0
    outer loop
      vertex 2.41597 1.70975 2
      vertex 4.09209 0.632576 6
      vertex 2.41597 1.70975 6
    endloop
  endfacet
  facet normal -0.540641 -0.841254 -0
    outer loop
      vertex 4.09209 0.632576 6
      vertex 2.41597 1.70975 2
      vertex 4.09209 0.632576 2
    endloop
  endfacet
  facet normal 0 -1 0
    outer loop
      vertex 6.0038 0.071249 2
      vertex 7.9962 0.071249 6
      vertex 6.0038 0.071249 6
    endloop
  endfacet
  facet normal 0 -1 -0
    outer loop
      vertex 7.9962 0.071249 6
      vertex 6.0038 0.071249 2
      vertex 7.9962 0.071249 2
    endloop
  endfacet
  facet normal -0.75575 -0.654861 0
    outer loop
      vertex 2.41597 1.70975 2
      vertex 1.11123 3.21551 6
      vertex 1.11123 3.21551 2
    endloop
  endfacet
  facet normal -0.75575 -0.654861 0
    outer loop
      vertex 1.11123 3.21551 6
      vertex 2.41597 1.70975 2
      vertex 2.41597 1.70975 6
    endloop
  endfacet
  facet normal 0.75575 -0.654861 0
    outer loop
      vertex 11.584 1.70975 6
      vertex 12.8888 3.21551 2
      vertex 12.8888 3.21551 6
    endloop
  endfacet
  facet normal 0.75575 -0.654861 0
    outer loop
      vertex 12.8888 3.21551 2
      vertex 11.584 1.70975 6
      vertex 11.584 1.70975 2
    endloop
  endfacet
  facet normal -0.281733 -0.959493 0
    outer loop
      vertex 4.09209 0.632576 2
      vertex 6.0038 0.071249 6
      vertex 4.09209 0.632576 6
    endloop
  endfacet
  facet normal -0.281733 -0.959493 -0
    outer loop
      vertex 6.0038 0.071249 6
      vertex 4.09209 0.632576 2
      vertex 6.0038 0.071249 2
    endloop
  endfacet
  facet normal 0.540641 -0.841254 0
    outer loop
      vertex 9.9079 0.632576 2
      vertex 11.584 1.70975 6
      vertex 9.9079 0.632576 6
    endloop
  endfacet
  facet normal 0.540641 -0.841254 0
    outer loop
      vertex 11.584 1.70975 6
      vertex 9.9079 0.632576 2
      vertex 11.584 1.70975 2
    endloop
  endfacet
  facet normal -1 0 0
    outer loop
      vertex 0 40 0
      vertex 0 7 2
      vertex 0 40 2
    endloop
  endfacet
  facet normal -1 0 0
    outer loop
      vertex 0 0 0
      vertex 0 7 2
      vertex 0 40 0
    endloop
  endfacet
  facet normal -1 -0 0
    outer loop
      vertex 0 7 2
      vertex 0 0 0
      vertex 0 0 2
    endloop
  endfacet
  facet normal -0 0 1
    outer loop
      vertex 12.8888 10.7845 2
      vertex 40 0 2
      vertex 40 40 2
    endloop
  endfacet
  facet normal 0 0 1
    outer loop
      vertex 40 0 2
      vertex 13.7165 8.97213 2
      vertex 14 7 2
    endloop
  endfacet
  facet normal 0 0 1
    outer loop
      vertex 40 0 2
      vertex 12.8888 10.7845 2
      vertex 13.7165 8.97213 2
    endloop
  endfacet
  facet normal 0 0 1
    outer loop
      vertex 40 40 2
      vertex 11.584 12.2902 2
      vertex 12.8888 10.7845 2
    endloop
  endfacet
  facet normal 0 0 1
    outer loop
      vertex 40 40 2
      vertex 9.9079 13.3674 2
      vertex 11.584 12.2902 2
    endloop
  endfacet
  facet normal -0 0 1
    outer loop
      vertex 0 40 2
      vertex 9.9079 13.3674 2
      vertex 40 40 2
    endloop
  endfacet
  facet normal 0 0 1
    outer loop
      vertex 9.9079 13.3674 2
      vertex 0 40 2
      vertex 7.9962 13.9288 2
    endloop
  endfacet
  facet normal 0 0 1
    outer loop
      vertex 7.9962 13.9288 2
      vertex 0 40 2
      vertex 6.0038 13.9288 2
    endloop
  endfacet
  facet normal 0 0 1
    outer loop
      vertex 6.0038 13.9288 2
      vertex 0 40 2
      vertex 4.09209 13.3674 2
    endloop
  endfacet
  facet normal 0 0 1
    outer loop
      vertex 4.09209 13.3674 2
      vertex 0 40 2
      vertex 2.41597 12.2902 2
    endloop
  endfacet
  facet normal 0 0 1
    outer loop
      vertex 0 40 2
      vertex 1.11123 10.7845 2
      vertex 2.41597 12.2902 2
    endloop
  endfacet
  facet normal 0 0 1
    outer loop
      vertex 0 40 2
      vertex 0.283548 8.97213 2
      vertex 1.11123 10.7845 2
    endloop
  endfacet
  facet normal 0 0 1
    outer loop
      vertex 0.283548 8.97213 2
      vertex 0 40 2
      vertex 0 7 2
    endloop
  endfacet
  facet normal -0 0 1
    outer loop
      vertex 13.7165 5.02787 2
      vertex 40 0 2
      vertex 14 7 2
    endloop
  endfacet
  facet normal -0 0 1
    outer loop
      vertex 12.8888 3.21551 2
      vertex 40 0 2
      vertex 13.7165 5.02787 2
    endloop
  endfacet
  facet normal -0 0 1
    outer loop
      vertex 11.584 1.70975 2
      vertex 40 0 2
      vertex 12.8888 3.21551 2
    endloop
  endfacet
  facet normal -0 0 1
    outer loop
      vertex 9.9079 0.632576 2
      vertex 40 0 2
      vertex 11.584 1.70975 2
    endloop
  endfacet
  facet normal -0 0 1
    outer loop
      vertex 7.9962 0.071249 2
      vertex 40 0 2
      vertex 9.9079 0.632576 2
    endloop
  endfacet
  facet normal -0 0 1
    outer loop
      vertex 6.0038 0.071249 2
      vertex 40 0 2
      vertex 7.9962 0.071249 2
    endloop
  endfacet
  facet normal 0 0 1
    outer loop
      vertex 6.0038 0.071249 2
      vertex 0 0 2
      vertex 40 0 2
    endloop
  endfacet
  facet normal 0 0 1
    outer loop
      vertex 4.09209 0.632576 2
      vertex 0 0 2
      vertex 6.0038 0.071249 2
    endloop
  endfacet
  facet normal 0 0 1
    outer loop
      vertex 2.41597 1.70975 2
      vertex 0 0 2
      vertex 4.09209 0.632576 2
    endloop
  endfacet
  facet normal 0 0 1
    outer loop
      vertex 1.11123 3.21551 2
      vertex 0 0 2
      vertex 2.41597 1.70975 2
    endloop
  endfacet
  facet normal 0 0 1
    outer loop
      vertex 0.283548 5.02787 2
      vertex 0 0 2
      vertex 1.11123 3.21551 2
    endloop
  endfacet
  facet normal 0 0 1
    outer loop
      vertex 0 0 2
      vertex 0.283548 5.02787 2
      vertex 0 7 2
    endloop
  endfacet
  facet normal 1 -0 0
    outer loop
      vertex 40 0 2
      vertex 40 40 0
      vertex 40 40 2
    endloop
  endfacet
  facet normal 1 0 0
    outer loop
      vertex 40 40 0
      vertex 40 0 2
      vertex 40 0 0
    endloop
  endfacet
  facet normal 0 -1 0
    outer loop
      vertex 0 0 0
      vertex 40 0 2
      vertex 0 0 2
    endloop
  endfacet
  facet normal 0 -1 -0
    outer loop
      vertex 40 0 2
      vertex 0 0 0
      vertex 40 0 0
    endloop
  endfacet
  facet normal 0 1 -0
    outer loop
      vertex 40 40 0
      vertex 0 40 2
      vertex 40 40 2
    endloop
  endfacet
  facet normal 0 1 0
    outer loop
      vertex 0 40 2
      vertex 40 40 0
      vertex 0 40 0
    endloop
  endfacet
  facet normal -0.866025 -0.5 0
    outer loop
      vertex 11.6688 7 0
      vertex 9.3344 11.0433 3.999
      vertex 9.3344 11.0433 0
    endloop
  endfacet
  facet normal -0.866025 -0.5 0
    outer loop
      vertex 9.3344 11.0433 3.999
      vertex 11.6688 7 0
      vertex 11.6688 7 3.999
    endloop
  endfacet
  facet normal 0.866025 -0.5 0
    outer loop
      vertex 2.3312 7 3.999
      vertex 4.6656 11.0433 0
      vertex 4.6656 11.0433 3.999
    endloop
  endfacet
  facet normal 0.866025 -0.5 0
    outer loop
      vertex 4.6656 11.0433 0
      vertex 2.3312 7 3.999
      vertex 2.3312 7 0
    endloop
  endfacet
  facet normal 0 -1 0
    outer loop
      vertex 4.6656 11.0433 0
      vertex 9.3344 11.0433 3.999
      vertex 4.6656 11.0433 3.999
    endloop
  endfacet
  facet normal 0 -1 -0
    outer loop
      vertex 9.3344 11.0433 3.999
      vertex 4.6656 11.0433 0
      vertex 9.3344 11.0433 0
    endloop
  endfacet
  facet normal -0 0 -1
    outer loop
      vertex 11.6688 7 3.999
      vertex 9.33489 5.96044 3.999
      vertex 9.55585 7 3.999
    endloop
  endfacet
  facet normal 0 0 -1
    outer loop
      vertex 9.3344 2.9567 3.999
      vertex 9.33489 5.96044 3.999
      vertex 11.6688 7 3.999
    endloop
  endfacet
  facet normal 0 0 -1
    outer loop
      vertex 9.3344 2.9567 3.999
      vertex 8.7102 5.10063 3.999
      vertex 9.33489 5.96044 3.999
    endloop
  endfacet
  facet normal 0 0 -1
    outer loop
      vertex 9.3344 2.9567 3.999
      vertex 7.7898 4.56924 3.999
      vertex 8.7102 5.10063 3.999
    endloop
  endfacet
  facet normal 0 0 -1
    outer loop
      vertex 9.3344 2.9567 3.999
      vertex 6.73284 4.45815 3.999
      vertex 7.7898 4.56924 3.999
    endloop
  endfacet
  facet normal 0 0 -1
    outer loop
      vertex 4.6656 2.9567 3.999
      vertex 6.73284 4.45815 3.999
      vertex 9.3344 2.9567 3.999
    endloop
  endfacet
  facet normal -0 0 -1
    outer loop
      vertex 6.73284 4.45815 3.999
      vertex 4.6656 2.9567 3.999
      vertex 5.72207 4.78657 3.999
    endloop
  endfacet
  facet normal 0 0 -1
    outer loop
      vertex 4.6656 2.9567 3.999
      vertex 4.93227 5.49771 3.999
      vertex 5.72207 4.78657 3.999
    endloop
  endfacet
  facet normal 0 0 -1
    outer loop
      vertex 2.3312 7 3.999
      vertex 4.93227 5.49771 3.999
      vertex 4.6656 2.9567 3.999
    endloop
  endfacet
  facet normal 0 0 -1
    outer loop
      vertex 4.5 6.46861 3.999
      vertex 2.3312 7 3.999
      vertex 4.5 7.53139 3.999
    endloop
  endfacet
  facet normal 0 0 -1
    outer loop
      vertex 4.93227 5.49771 3.999
      vertex 2.3312 7 3.999
      vertex 4.5 6.46861 3.999
    endloop
  endfacet
  facet normal 0 0 -1
    outer loop
      vertex 9.33489 8.03956 3.999
      vertex 11.6688 7 3.999
      vertex 9.55585 7 3.999
    endloop
  endfacet
  facet normal 0 0 -1
    outer loop
      vertex 9.33489 8.03956 3.999
      vertex 9.3344 11.0433 3.999
      vertex 11.6688 7 3.999
    endloop
  endfacet
  facet normal 0 0 -1
    outer loop
      vertex 8.7102 8.89937 3.999
      vertex 9.3344 11.0433 3.999
      vertex 9.33489 8.03956 3.999
    endloop
  endfacet
  facet normal 0 0 -1
    outer loop
      vertex 7.7898 9.43076 3.999
      vertex 9.3344 11.0433 3.999
      vertex 8.7102 8.89937 3.999
    endloop
  endfacet
  facet normal 0 0 -1
    outer loop
      vertex 6.73284 9.54185 3.999
      vertex 9.3344 11.0433 3.999
      vertex 7.7898 9.43076 3.999
    endloop
  endfacet
  facet normal 0 0 -1
    outer loop
      vertex 4.6656 11.0433 3.999
      vertex 6.73284 9.54185 3.999
      vertex 5.72207 9.21343 3.999
    endloop
  endfacet
  facet normal 0 0 -1
    outer loop
      vertex 6.73284 9.54185 3.999
      vertex 4.6656 11.0433 3.999
      vertex 9.3344 11.0433 3.999
    endloop
  endfacet
  facet normal 0 0 -1
    outer loop
      vertex 4.93227 8.50229 3.999
      vertex 4.6656 11.0433 3.999
      vertex 5.72207 9.21343 3.999
    endloop
  endfacet
  facet normal 0 0 -1
    outer loop
      vertex 2.3312 7 3.999
      vertex 4.93227 8.50229 3.999
      vertex 4.5 7.53139 3.999
    endloop
  endfacet
  facet normal -0 0 -1
    outer loop
      vertex 4.93227 8.50229 3.999
      vertex 2.3312 7 3.999
      vertex 4.6656 11.0433 3.999
    endloop
  endfacet
  facet normal -0.866025 0.5 0
    outer loop
      vertex 9.3344 2.9567 0
      vertex 11.6688 7 3.999
      vertex 11.6688 7 0
    endloop
  endfacet
  facet normal -0.866025 0.5 0
    outer loop
      vertex 11.6688 7 3.999
      vertex 9.3344 2.9567 0
      vertex 9.3344 2.9567 3.999
    endloop
  endfacet
  facet normal 0 1 -0
    outer loop
      vertex 9.3344 2.9567 0
      vertex 4.6656 2.9567 3.999
      vertex 9.3344 2.9567 3.999
    endloop
  endfacet
  facet normal 0 1 0
    outer loop
      vertex 4.6656 2.9567 3.999
      vertex 9.3344 2.9567 0
      vertex 4.6656 2.9567 0
    endloop
  endfacet
  facet normal 0.866025 0.5 0
    outer loop
      vertex 4.6656 2.9567 3.999
      vertex 2.3312 7 0
      vertex 2.3312 7 3.999
    endloop
  endfacet
  facet normal 0.866025 0.5 0
    outer loop
      vertex 2.3312 7 0
      vertex 4.6656 2.9567 3.999
      vertex 4.6656 2.9567 0
    endloop
  endfacet
  facet normal -0.978148 -0.207912 0
    outer loop
      vertex 9.55585 7 3.999
      vertex 9.33489 8.03956 6
      vertex 9.33489 8.03956 3.999
    endloop
  endfacet
  facet normal -0.978148 -0.207912 0
    outer loop
      vertex 9.33489 8.03956 6
      vertex 9.55585 7 3.999
      vertex 9.55585 7 6
    endloop
  endfacet
  facet normal 1 -0 0
    outer loop
      vertex 4.5 6.46861 6
      vertex 4.5 7.53139 3.999
      vertex 4.5 7.53139 6
    endloop
  endfacet
  facet normal 1 0 0
    outer loop
      vertex 4.5 7.53139 3.999
      vertex 4.5 6.46861 6
      vertex 4.5 6.46861 3.999
    endloop
  endfacet
  facet normal 0.309017 -0.951057 0
    outer loop
      vertex 5.72207 9.21343 3.999
      vertex 6.73284 9.54185 6
      vertex 5.72207 9.21343 6
    endloop
  endfacet
  facet normal 0.309017 -0.951057 0
    outer loop
      vertex 6.73284 9.54185 6
      vertex 5.72207 9.21343 3.999
      vertex 6.73284 9.54185 3.999
    endloop
  endfacet
  facet normal -0.104529 0.994522 0
    outer loop
      vertex 7.7898 4.56924 3.999
      vertex 6.73284 4.45815 6
      vertex 7.7898 4.56924 6
    endloop
  endfacet
  facet normal -0.104529 0.994522 0
    outer loop
      vertex 6.73284 4.45815 6
      vertex 7.7898 4.56924 3.999
      vertex 6.73284 4.45815 3.999
    endloop
  endfacet
  facet normal -0.499999 0.866026 0
    outer loop
      vertex 8.7102 5.10063 3.999
      vertex 7.7898 4.56924 6
      vertex 8.7102 5.10063 6
    endloop
  endfacet
  facet normal -0.499999 0.866026 0
    outer loop
      vertex 7.7898 4.56924 6
      vertex 8.7102 5.10063 3.999
      vertex 7.7898 4.56924 3.999
    endloop
  endfacet
  facet normal -0.499999 -0.866026 0
    outer loop
      vertex 7.7898 9.43076 3.999
      vertex 8.7102 8.89937 6
      vertex 7.7898 9.43076 6
    endloop
  endfacet
  facet normal -0.499999 -0.866026 -0
    outer loop
      vertex 8.7102 8.89937 6
      vertex 7.7898 9.43076 3.999
      vertex 8.7102 8.89937 3.999
    endloop
  endfacet
  facet normal -0.809017 -0.587785 0
    outer loop
      vertex 9.33489 8.03956 3.999
      vertex 8.7102 8.89937 6
      vertex 8.7102 8.89937 3.999
    endloop
  endfacet
  facet normal -0.809017 -0.587785 0
    outer loop
      vertex 8.7102 8.89937 6
      vertex 9.33489 8.03956 3.999
      vertex 9.33489 8.03956 6
    endloop
  endfacet
  facet normal -0.104529 -0.994522 0
    outer loop
      vertex 6.73284 9.54185 3.999
      vertex 7.7898 9.43076 6
      vertex 6.73284 9.54185 6
    endloop
  endfacet
  facet normal -0.104529 -0.994522 -0
    outer loop
      vertex 7.7898 9.43076 6
      vertex 6.73284 9.54185 3.999
      vertex 7.7898 9.43076 3.999
    endloop
  endfacet
  facet normal 0.913545 -0.406737 0
    outer loop
      vertex 4.5 7.53139 6
      vertex 4.93227 8.50229 3.999
      vertex 4.93227 8.50229 6
    endloop
  endfacet
  facet normal 0.913545 -0.406737 0
    outer loop
      vertex 4.93227 8.50229 3.999
      vertex 4.5 7.53139 6
      vertex 4.5 7.53139 3.999
    endloop
  endfacet
  facet normal 0.669131 -0.743145 0
    outer loop
      vertex 4.93227 8.50229 3.999
      vertex 5.72207 9.21343 6
      vertex 4.93227 8.50229 6
    endloop
  endfacet
  facet normal 0.669131 -0.743145 0
    outer loop
      vertex 5.72207 9.21343 6
      vertex 4.93227 8.50229 3.999
      vertex 5.72207 9.21343 3.999
    endloop
  endfacet
  facet normal 0.309017 0.951057 -0
    outer loop
      vertex 6.73284 4.45815 3.999
      vertex 5.72207 4.78657 6
      vertex 6.73284 4.45815 6
    endloop
  endfacet
  facet normal 0.309017 0.951057 0
    outer loop
      vertex 5.72207 4.78657 6
      vertex 6.73284 4.45815 3.999
      vertex 5.72207 4.78657 3.999
    endloop
  endfacet
  facet normal 0.913545 0.406737 0
    outer loop
      vertex 4.93227 5.49771 6
      vertex 4.5 6.46861 3.999
      vertex 4.5 6.46861 6
    endloop
  endfacet
  facet normal 0.913545 0.406737 0
    outer loop
      vertex 4.5 6.46861 3.999
      vertex 4.93227 5.49771 6
      vertex 4.93227 5.49771 3.999
    endloop
  endfacet
  facet normal -0.809017 0.587785 0
    outer loop
      vertex 8.7102 5.10063 3.999
      vertex 9.33489 5.96044 6
      vertex 9.33489 5.96044 3.999
    endloop
  endfacet
  facet normal -0.809017 0.587785 0
    outer loop
      vertex 9.33489 5.96044 6
      vertex 8.7102 5.10063 3.999
      vertex 8.7102 5.10063 6
    endloop
  endfacet
  facet normal -0.978148 0.207912 0
    outer loop
      vertex 9.33489 5.96044 3.999
      vertex 9.55585 7 6
      vertex 9.55585 7 3.999
    endloop
  endfacet
  facet normal -0.978148 0.207912 0
    outer loop
      vertex 9.55585 7 6
      vertex 9.33489 5.96044 3.999
      vertex 9.33489 5.96044 6
    endloop
  endfacet
  facet normal 0.669131 0.743145 -0
    outer loop
      vertex 5.72207 4.78657 3.999
      vertex 4.93227 5.49771 6
      vertex 5.72207 4.78657 6
    endloop
  endfacet
  facet normal 0.669131 0.743145 0
    outer loop
      vertex 4.93227 5.49771 6
      vertex 5.72207 4.78657 3.999
      vertex 4.93227 5.49771 3.999
    endloop
  endfacet
endsolid OpenSCAD_Model
