solid OpenSCAD_Model
  facet normal -0.978147 -0.207913 0
    outer loop
      vertex 19.7891 -9.3 0
      vertex 19.6344 -8.57231 2.4
      vertex 19.6344 -8.57231 0
    endloop
  endfacet
  facet normal -0.978147 -0.207913 0
    outer loop
      vertex 19.6344 -8.57231 2.4
      vertex 19.7891 -9.3 0
      vertex 19.7891 -9.3 2.4
    endloop
  endfacet
  facet normal -0.104528 -0.994522 0
    outer loop
      vertex 17.813 -7.52071 0
      vertex 18.5529 -7.59847 2.4
      vertex 17.813 -7.52071 2.4
    endloop
  endfacet
  facet normal -0.104528 -0.994522 -0
    outer loop
      vertex 18.5529 -7.59847 2.4
      vertex 17.813 -7.52071 0
      vertex 18.5529 -7.59847 0
    endloop
  endfacet
  facet normal -0.809018 -0.587784 0
    outer loop
      vertex 19.6344 -8.57231 0
      vertex 19.1971 -7.97044 2.4
      vertex 19.1971 -7.97044 0
    endloop
  endfacet
  facet normal -0.809018 -0.587784 0
    outer loop
      vertex 19.1971 -7.97044 2.4
      vertex 19.6344 -8.57231 0
      vertex 19.6344 -8.57231 2.4
    endloop
  endfacet
  facet normal -0.104528 0.994522 0
    outer loop
      vertex 18.5529 -11.0015 0
      vertex 17.813 -11.0793 2.4
      vertex 18.5529 -11.0015 2.4
    endloop
  endfacet
  facet normal -0.104528 0.994522 0
    outer loop
      vertex 17.813 -11.0793 2.4
      vertex 18.5529 -11.0015 0
      vertex 17.813 -11.0793 0
    endloop
  endfacet
  facet normal -0.499999 -0.866026 0
    outer loop
      vertex 18.5529 -7.59847 0
      vertex 19.1971 -7.97044 2.4
      vertex 18.5529 -7.59847 2.4
    endloop
  endfacet
  facet normal -0.499999 -0.866026 -0
    outer loop
      vertex 19.1971 -7.97044 2.4
      vertex 18.5529 -7.59847 0
      vertex 19.1971 -7.97044 0
    endloop
  endfacet
  facet normal 0.309018 -0.951056 0
    outer loop
      vertex 17.1055 -7.7506 0
      vertex 17.813 -7.52071 2.4
      vertex 17.1055 -7.7506 2.4
    endloop
  endfacet
  facet normal 0.309018 -0.951056 0
    outer loop
      vertex 17.813 -7.52071 2.4
      vertex 17.1055 -7.7506 0
      vertex 17.813 -7.52071 0
    endloop
  endfacet
  facet normal -0.978147 0.207913 0
    outer loop
      vertex 19.6344 -10.0277 0
      vertex 19.7891 -9.3 2.4
      vertex 19.7891 -9.3 0
    endloop
  endfacet
  facet normal -0.978147 0.207913 0
    outer loop
      vertex 19.7891 -9.3 2.4
      vertex 19.6344 -10.0277 0
      vertex 19.6344 -10.0277 2.4
    endloop
  endfacet
  facet normal 0.913545 -0.406737 0
    outer loop
      vertex 16.25 -8.92803 2.4
      vertex 16.5526 -8.2484 0
      vertex 16.5526 -8.2484 2.4
    endloop
  endfacet
  facet normal 0.913545 -0.406737 0
    outer loop
      vertex 16.5526 -8.2484 0
      vertex 16.25 -8.92803 2.4
      vertex 16.25 -8.92803 0
    endloop
  endfacet
  facet normal 1 -0 0
    outer loop
      vertex 16.25 -9.67197 2.4
      vertex 16.25 -8.92803 0
      vertex 16.25 -8.92803 2.4
    endloop
  endfacet
  facet normal 1 0 0
    outer loop
      vertex 16.25 -8.92803 0
      vertex 16.25 -9.67197 2.4
      vertex 16.25 -9.67197 0
    endloop
  endfacet
  facet normal 0.66913 -0.743145 0
    outer loop
      vertex 16.5526 -8.2484 0
      vertex 17.1055 -7.7506 2.4
      vertex 16.5526 -8.2484 2.4
    endloop
  endfacet
  facet normal 0.66913 -0.743145 0
    outer loop
      vertex 17.1055 -7.7506 2.4
      vertex 16.5526 -8.2484 0
      vertex 17.1055 -7.7506 0
    endloop
  endfacet
  facet normal 0.309018 0.951056 -0
    outer loop
      vertex 17.813 -11.0793 0
      vertex 17.1055 -10.8494 2.4
      vertex 17.813 -11.0793 2.4
    endloop
  endfacet
  facet normal 0.309018 0.951056 0
    outer loop
      vertex 17.1055 -10.8494 2.4
      vertex 17.813 -11.0793 0
      vertex 17.1055 -10.8494 0
    endloop
  endfacet
  facet normal 0.66913 0.743145 -0
    outer loop
      vertex 17.1055 -10.8494 0
      vertex 16.5526 -10.3516 2.4
      vertex 17.1055 -10.8494 2.4
    endloop
  endfacet
  facet normal 0.66913 0.743145 0
    outer loop
      vertex 16.5526 -10.3516 2.4
      vertex 17.1055 -10.8494 0
      vertex 16.5526 -10.3516 0
    endloop
  endfacet
  facet normal 0.913545 0.406737 0
    outer loop
      vertex 16.5526 -10.3516 2.4
      vertex 16.25 -9.67197 0
      vertex 16.25 -9.67197 2.4
    endloop
  endfacet
  facet normal 0.913545 0.406737 0
    outer loop
      vertex 16.25 -9.67197 0
      vertex 16.5526 -10.3516 2.4
      vertex 16.5526 -10.3516 0
    endloop
  endfacet
  facet normal -0.499999 0.866026 0
    outer loop
      vertex 19.1971 -10.6296 0
      vertex 18.5529 -11.0015 2.4
      vertex 19.1971 -10.6296 2.4
    endloop
  endfacet
  facet normal -0.499999 0.866026 0
    outer loop
      vertex 18.5529 -11.0015 2.4
      vertex 19.1971 -10.6296 0
      vertex 18.5529 -11.0015 0
    endloop
  endfacet
  facet normal -0.809018 0.587784 0
    outer loop
      vertex 19.1971 -10.6296 0
      vertex 19.6344 -10.0277 2.4
      vertex 19.6344 -10.0277 0
    endloop
  endfacet
  facet normal -0.809018 0.587784 0
    outer loop
      vertex 19.6344 -10.0277 2.4
      vertex 19.1971 -10.6296 0
      vertex 19.1971 -10.6296 2.4
    endloop
  endfacet
  facet normal -0.978148 -0.207912 0
    outer loop
      vertex 8.7891 -9.3 0
      vertex 8.63442 -8.57231 2.4
      vertex 8.63442 -8.57231 0
    endloop
  endfacet
  facet normal -0.978148 -0.207912 0
    outer loop
      vertex 8.63442 -8.57231 2.4
      vertex 8.7891 -9.3 0
      vertex 8.7891 -9.3 2.4
    endloop
  endfacet
  facet normal -0.104528 -0.994522 0
    outer loop
      vertex 6.81299 -7.52071 0
      vertex 7.55286 -7.59847 2.4
      vertex 6.81299 -7.52071 2.4
    endloop
  endfacet
  facet normal -0.104528 -0.994522 -0
    outer loop
      vertex 7.55286 -7.59847 2.4
      vertex 6.81299 -7.52071 0
      vertex 7.55286 -7.59847 0
    endloop
  endfacet
  facet normal -0.809017 -0.587785 0
    outer loop
      vertex 8.63442 -8.57231 0
      vertex 8.19714 -7.97044 2.4
      vertex 8.19714 -7.97044 0
    endloop
  endfacet
  facet normal -0.809017 -0.587785 0
    outer loop
      vertex 8.19714 -7.97044 2.4
      vertex 8.63442 -8.57231 0
      vertex 8.63442 -8.57231 2.4
    endloop
  endfacet
  facet normal -0.104528 0.994522 0
    outer loop
      vertex 7.55286 -11.0015 0
      vertex 6.81299 -11.0793 2.4
      vertex 7.55286 -11.0015 2.4
    endloop
  endfacet
  facet normal -0.104528 0.994522 0
    outer loop
      vertex 6.81299 -11.0793 2.4
      vertex 7.55286 -11.0015 0
      vertex 6.81299 -11.0793 0
    endloop
  endfacet
  facet normal -0.5 -0.866026 0
    outer loop
      vertex 7.55286 -7.59847 0
      vertex 8.19714 -7.97044 2.4
      vertex 7.55286 -7.59847 2.4
    endloop
  endfacet
  facet normal -0.5 -0.866026 -0
    outer loop
      vertex 8.19714 -7.97044 2.4
      vertex 7.55286 -7.59847 0
      vertex 8.19714 -7.97044 0
    endloop
  endfacet
  facet normal 0.309017 -0.951056 0
    outer loop
      vertex 6.10545 -7.7506 0
      vertex 6.81299 -7.52071 2.4
      vertex 6.10545 -7.7506 2.4
    endloop
  endfacet
  facet normal 0.309017 -0.951056 0
    outer loop
      vertex 6.81299 -7.52071 2.4
      vertex 6.10545 -7.7506 0
      vertex 6.81299 -7.52071 0
    endloop
  endfacet
  facet normal -0.978148 0.207912 0
    outer loop
      vertex 8.63442 -10.0277 0
      vertex 8.7891 -9.3 2.4
      vertex 8.7891 -9.3 0
    endloop
  endfacet
  facet normal -0.978148 0.207912 0
    outer loop
      vertex 8.7891 -9.3 2.4
      vertex 8.63442 -10.0277 0
      vertex 8.63442 -10.0277 2.4
    endloop
  endfacet
  facet normal 0.913545 -0.406737 0
    outer loop
      vertex 5.25 -8.92803 2.4
      vertex 5.55259 -8.2484 0
      vertex 5.55259 -8.2484 2.4
    endloop
  endfacet
  facet normal 0.913545 -0.406737 0
    outer loop
      vertex 5.55259 -8.2484 0
      vertex 5.25 -8.92803 2.4
      vertex 5.25 -8.92803 0
    endloop
  endfacet
  facet normal 1 -0 0
    outer loop
      vertex 5.25 -9.67197 2.4
      vertex 5.25 -8.92803 0
      vertex 5.25 -8.92803 2.4
    endloop
  endfacet
  facet normal 1 0 0
    outer loop
      vertex 5.25 -8.92803 0
      vertex 5.25 -9.67197 2.4
      vertex 5.25 -9.67197 0
    endloop
  endfacet
  facet normal 0.669131 -0.743145 0
    outer loop
      vertex 5.55259 -8.2484 0
      vertex 6.10545 -7.7506 2.4
      vertex 5.55259 -8.2484 2.4
    endloop
  endfacet
  facet normal 0.669131 -0.743145 0
    outer loop
      vertex 6.10545 -7.7506 2.4
      vertex 5.55259 -8.2484 0
      vertex 6.10545 -7.7506 0
    endloop
  endfacet
  facet normal 0.309017 0.951056 -0
    outer loop
      vertex 6.81299 -11.0793 0
      vertex 6.10545 -10.8494 2.4
      vertex 6.81299 -11.0793 2.4
    endloop
  endfacet
  facet normal 0.309017 0.951056 0
    outer loop
      vertex 6.10545 -10.8494 2.4
      vertex 6.81299 -11.0793 0
      vertex 6.10545 -10.8494 0
    endloop
  endfacet
  facet normal 0.669131 0.743145 -0
    outer loop
      vertex 6.10545 -10.8494 0
      vertex 5.55259 -10.3516 2.4
      vertex 6.10545 -10.8494 2.4
    endloop
  endfacet
  facet normal 0.669131 0.743145 0
    outer loop
      vertex 5.55259 -10.3516 2.4
      vertex 6.10545 -10.8494 0
      vertex 5.55259 -10.3516 0
    endloop
  endfacet
  facet normal 0.913545 0.406737 0
    outer loop
      vertex 5.55259 -10.3516 2.4
      vertex 5.25 -9.67197 0
      vertex 5.25 -9.67197 2.4
    endloop
  endfacet
  facet normal 0.913545 0.406737 0
    outer loop
      vertex 5.25 -9.67197 0
      vertex 5.55259 -10.3516 2.4
      vertex 5.55259 -10.3516 0
    endloop
  endfacet
  facet normal -0.5 0.866026 0
    outer loop
      vertex 8.19714 -10.6296 0
      vertex 7.55286 -11.0015 2.4
      vertex 8.19714 -10.6296 2.4
    endloop
  endfacet
  facet normal -0.5 0.866026 0
    outer loop
      vertex 7.55286 -11.0015 2.4
      vertex 8.19714 -10.6296 0
      vertex 7.55286 -11.0015 0
    endloop
  endfacet
  facet normal -0.809017 0.587785 0
    outer loop
      vertex 8.19714 -10.6296 0
      vertex 8.63442 -10.0277 2.4
      vertex 8.63442 -10.0277 0
    endloop
  endfacet
  facet normal -0.809017 0.587785 0
    outer loop
      vertex 8.63442 -10.0277 2.4
      vertex 8.19714 -10.6296 0
      vertex 8.19714 -10.6296 2.4
    endloop
  endfacet
  facet normal -1 0 0
    outer loop
      vertex 0 -2.72523 2.77854
      vertex 0 0 3
      vertex 0 0 0
    endloop
  endfacet
  facet normal -1 0 -0
    outer loop
      vertex 0 -2.4 3.6
      vertex 0 0 3
      vertex 0 -2.40946 3.44959
    endloop
  endfacet
  facet normal -1 0 0
    outer loop
      vertex 0 -2.4 4.2
      vertex 0 0 3
      vertex 0 -2.4 3.6
    endloop
  endfacet
  facet normal -1 0 0
    outer loop
      vertex 0 0 3
      vertex 0 -2.4 4.2
      vertex 0 -1.2 5.39763
    endloop
  endfacet
  facet normal -1 0 -0
    outer loop
      vertex 0 -1.42487 5.37876
      vertex 0 -1.2 5.39763
      vertex 0 -2.4 4.2
    endloop
  endfacet
  facet normal -1 -0 0
    outer loop
      vertex 0 -1.2 5.39763
      vertex 0 -1.42487 5.37876
      vertex 0 -1.27535 5.39763
    endloop
  endfacet
  facet normal -1 0 0
    outer loop
      vertex 0 -1.57082 5.34127
      vertex 0 -2.4 4.2
      vertex 0 -1.71094 5.2858
    endloop
  endfacet
  facet normal -1 0 0
    outer loop
      vertex 0 -1.71094 5.2858
      vertex 0 -2.4 4.2
      vertex 0 -1.84299 5.2132
    endloop
  endfacet
  facet normal -1 0 0
    outer loop
      vertex 0 -1.84299 5.2132
      vertex 0 -2.4 4.2
      vertex 0 -1.96491 5.12462
    endloop
  endfacet
  facet normal -1 0 0
    outer loop
      vertex 0 -1.96491 5.12462
      vertex 0 -2.4 4.2
      vertex 0 -2.07477 5.02146
    endloop
  endfacet
  facet normal -1 0 0
    outer loop
      vertex 0 -2.07477 5.02146
      vertex 0 -2.4 4.2
      vertex 0 -2.17083 4.90536
    endloop
  endfacet
  facet normal -1 0 0
    outer loop
      vertex 0 -2.17083 4.90536
      vertex 0 -2.4 4.2
      vertex 0 -2.25158 4.77811
    endloop
  endfacet
  facet normal -1 0 0
    outer loop
      vertex 0 -2.25158 4.77811
      vertex 0 -2.4 4.2
      vertex 0 -2.31574 4.64176
    endloop
  endfacet
  facet normal -1 0 0
    outer loop
      vertex 0 -2.31574 4.64176
      vertex 0 -2.4 4.2
      vertex 0 -2.36231 4.49843
    endloop
  endfacet
  facet normal -1 0 0
    outer loop
      vertex 0 -1.42487 5.37876
      vertex 0 -2.4 4.2
      vertex 0 -1.57082 5.34127
    endloop
  endfacet
  facet normal -1 0 0
    outer loop
      vertex 0 0 3
      vertex 0 -2.43769 3.30157
      vertex 0 -2.40946 3.44959
    endloop
  endfacet
  facet normal -1 0 0
    outer loop
      vertex 0 0 3
      vertex 0 -2.48426 3.15824
      vertex 0 -2.43769 3.30157
    endloop
  endfacet
  facet normal -1 0 0
    outer loop
      vertex 0 0 3
      vertex 0 -2.54842 3.02189
      vertex 0 -2.48426 3.15824
    endloop
  endfacet
  facet normal -1 -0 0
    outer loop
      vertex 0 0 3
      vertex 0 -2.62917 2.89464
      vertex 0 -2.54842 3.02189
    endloop
  endfacet
  facet normal -1 0 0
    outer loop
      vertex 0 0 3
      vertex 0 -2.72523 2.77854
      vertex 0 -2.62917 2.89464
    endloop
  endfacet
  facet normal -1 0 0
    outer loop
      vertex 0 0 0
      vertex 0 -2.83509 2.67537
      vertex 0 -2.72523 2.77854
    endloop
  endfacet
  facet normal -1 0 0
    outer loop
      vertex 0 0 0
      vertex 0 -2.95701 2.5868
      vertex 0 -2.83509 2.67537
    endloop
  endfacet
  facet normal -1 0 0
    outer loop
      vertex 0 0 0
      vertex 0 -3.08906 2.5142
      vertex 0 -2.95701 2.5868
    endloop
  endfacet
  facet normal -1 0 0
    outer loop
      vertex 0 0 0
      vertex 0 -3.22918 2.45873
      vertex 0 -3.08906 2.5142
    endloop
  endfacet
  facet normal -1 0 0
    outer loop
      vertex 0 0 0
      vertex 0 -3.37513 2.42124
      vertex 0 -3.22918 2.45873
    endloop
  endfacet
  facet normal -1 0 0
    outer loop
      vertex 0 0 0
      vertex 0 -3.52465 2.40236
      vertex 0 -3.37513 2.42124
    endloop
  endfacet
  facet normal -1 0 0
    outer loop
      vertex 0 0 0
      vertex 0 -3.6 2.4
      vertex 0 -3.52465 2.40236
    endloop
  endfacet
  facet normal -1 0 0
    outer loop
      vertex 0 -15 0
      vertex 0 -3.6 2.4
      vertex 0 0 0
    endloop
  endfacet
  facet normal -1 -0 0
    outer loop
      vertex 0 -3.6 2.4
      vertex 0 -15 0
      vertex 0 -15 2.4
    endloop
  endfacet
  facet normal -1 0 0
    outer loop
      vertex 0 0 3
      vertex 0 5 5.4
      vertex 0 5 3
    endloop
  endfacet
  facet normal -1 0 0
    outer loop
      vertex 0 -1.2 5.4
      vertex 0 0 3
      vertex 0 -1.2 5.39763
    endloop
  endfacet
  facet normal -1 0 0
    outer loop
      vertex 0 0 3
      vertex 0 -1.2 5.4
      vertex 0 5 5.4
    endloop
  endfacet
  facet normal -1 0 0
    outer loop
      vertex 0 -2.36231 4.49843
      vertex 0 -2.4 4.2
      vertex 0 -2.39054 4.35041
    endloop
  endfacet
  facet normal -1 -0 0
    outer loop
      vertex 0 -3.52465 2.40236
      vertex 0 -3.6 2.4
      vertex 0 -3.6 2.40236
    endloop
  endfacet
  facet normal 0 0 1
    outer loop
      vertex 25 -3.6 2.4
      vertex 19.7891 -9.3 2.4
      vertex 25 -15 2.4
    endloop
  endfacet
  facet normal 0 0 1
    outer loop
      vertex 25 -3.6 2.4
      vertex 19.6344 -8.57231 2.4
      vertex 19.7891 -9.3 2.4
    endloop
  endfacet
  facet normal 0 0 1
    outer loop
      vertex 25 -3.6 2.4
      vertex 19.1971 -7.97044 2.4
      vertex 19.6344 -8.57231 2.4
    endloop
  endfacet
  facet normal 0 0 1
    outer loop
      vertex 25 -3.6 2.4
      vertex 18.5529 -7.59847 2.4
      vertex 19.1971 -7.97044 2.4
    endloop
  endfacet
  facet normal 0 0 1
    outer loop
      vertex 25 -3.6 2.4
      vertex 17.813 -7.52071 2.4
      vertex 18.5529 -7.59847 2.4
    endloop
  endfacet
  facet normal 0 0 1
    outer loop
      vertex 7.55286 -7.59847 2.4
      vertex 17.813 -7.52071 2.4
      vertex 25 -3.6 2.4
    endloop
  endfacet
  facet normal 0 0 1
    outer loop
      vertex 16.25 -8.92803 2.4
      vertex 8.7891 -9.3 2.4
      vertex 16.25 -9.67197 2.4
    endloop
  endfacet
  facet normal -0 0 1
    outer loop
      vertex 8.63442 -8.57231 2.4
      vertex 16.25 -8.92803 2.4
      vertex 16.5526 -8.2484 2.4
    endloop
  endfacet
  facet normal -0 0 1
    outer loop
      vertex 8.19714 -7.97044 2.4
      vertex 16.5526 -8.2484 2.4
      vertex 17.1055 -7.7506 2.4
    endloop
  endfacet
  facet normal 0 0 1
    outer loop
      vertex 17.813 -7.52071 2.4
      vertex 7.55286 -7.59847 2.4
      vertex 17.1055 -7.7506 2.4
    endloop
  endfacet
  facet normal 0 0 1
    outer loop
      vertex 16.25 -8.92803 2.4
      vertex 8.63442 -8.57231 2.4
      vertex 8.7891 -9.3 2.4
    endloop
  endfacet
  facet normal 0 0 1
    outer loop
      vertex 16.5526 -8.2484 2.4
      vertex 8.19714 -7.97044 2.4
      vertex 8.63442 -8.57231 2.4
    endloop
  endfacet
  facet normal 0 0 1
    outer loop
      vertex 17.1055 -7.7506 2.4
      vertex 7.55286 -7.59847 2.4
      vertex 8.19714 -7.97044 2.4
    endloop
  endfacet
  facet normal -0 0 1
    outer loop
      vertex 0 -3.6 2.4
      vertex 7.55286 -7.59847 2.4
      vertex 25 -3.6 2.4
    endloop
  endfacet
  facet normal 0 0 1
    outer loop
      vertex 5.25 -8.92803 2.4
      vertex 0 -3.6 2.4
      vertex 5.25 -9.67197 2.4
    endloop
  endfacet
  facet normal 0 0 1
    outer loop
      vertex 5.55259 -8.2484 2.4
      vertex 0 -3.6 2.4
      vertex 5.25 -8.92803 2.4
    endloop
  endfacet
  facet normal 0 0 1
    outer loop
      vertex 6.10545 -7.7506 2.4
      vertex 0 -3.6 2.4
      vertex 5.55259 -8.2484 2.4
    endloop
  endfacet
  facet normal 0 0 1
    outer loop
      vertex 6.81299 -7.52071 2.4
      vertex 0 -3.6 2.4
      vertex 6.10545 -7.7506 2.4
    endloop
  endfacet
  facet normal 0 0 1
    outer loop
      vertex 7.55286 -7.59847 2.4
      vertex 0 -3.6 2.4
      vertex 6.81299 -7.52071 2.4
    endloop
  endfacet
  facet normal -0 0 1
    outer loop
      vertex 19.6344 -10.0277 2.4
      vertex 25 -15 2.4
      vertex 19.7891 -9.3 2.4
    endloop
  endfacet
  facet normal -0 0 1
    outer loop
      vertex 19.1971 -10.6296 2.4
      vertex 25 -15 2.4
      vertex 19.6344 -10.0277 2.4
    endloop
  endfacet
  facet normal -0 0 1
    outer loop
      vertex 18.5529 -11.0015 2.4
      vertex 25 -15 2.4
      vertex 19.1971 -10.6296 2.4
    endloop
  endfacet
  facet normal -0 0 1
    outer loop
      vertex 17.813 -11.0793 2.4
      vertex 25 -15 2.4
      vertex 18.5529 -11.0015 2.4
    endloop
  endfacet
  facet normal -0 0 1
    outer loop
      vertex 7.55286 -11.0015 2.4
      vertex 17.813 -11.0793 2.4
      vertex 17.1055 -10.8494 2.4
    endloop
  endfacet
  facet normal 0 0 1
    outer loop
      vertex 8.63442 -10.0277 2.4
      vertex 16.25 -9.67197 2.4
      vertex 8.7891 -9.3 2.4
    endloop
  endfacet
  facet normal 0 0 1
    outer loop
      vertex 16.25 -9.67197 2.4
      vertex 8.63442 -10.0277 2.4
      vertex 16.5526 -10.3516 2.4
    endloop
  endfacet
  facet normal 0 0 1
    outer loop
      vertex 8.19714 -10.6296 2.4
      vertex 16.5526 -10.3516 2.4
      vertex 8.63442 -10.0277 2.4
    endloop
  endfacet
  facet normal 0 0 1
    outer loop
      vertex 16.5526 -10.3516 2.4
      vertex 8.19714 -10.6296 2.4
      vertex 17.1055 -10.8494 2.4
    endloop
  endfacet
  facet normal 0 0 1
    outer loop
      vertex 7.55286 -11.0015 2.4
      vertex 17.1055 -10.8494 2.4
      vertex 8.19714 -10.6296 2.4
    endloop
  endfacet
  facet normal 0 0 1
    outer loop
      vertex 17.813 -11.0793 2.4
      vertex 7.55286 -11.0015 2.4
      vertex 25 -15 2.4
    endloop
  endfacet
  facet normal 0 0 1
    outer loop
      vertex 0 -15 2.4
      vertex 7.55286 -11.0015 2.4
      vertex 6.81299 -11.0793 2.4
    endloop
  endfacet
  facet normal 0 0 1
    outer loop
      vertex 0 -15 2.4
      vertex 5.25 -9.67197 2.4
      vertex 0 -3.6 2.4
    endloop
  endfacet
  facet normal 0 0 1
    outer loop
      vertex 7.55286 -11.0015 2.4
      vertex 0 -15 2.4
      vertex 25 -15 2.4
    endloop
  endfacet
  facet normal 0 0 1
    outer loop
      vertex 6.10545 -10.8494 2.4
      vertex 0 -15 2.4
      vertex 6.81299 -11.0793 2.4
    endloop
  endfacet
  facet normal 0 0 1
    outer loop
      vertex 5.55259 -10.3516 2.4
      vertex 0 -15 2.4
      vertex 6.10545 -10.8494 2.4
    endloop
  endfacet
  facet normal 0 0 1
    outer loop
      vertex 5.25 -9.67197 2.4
      vertex 0 -15 2.4
      vertex 5.55259 -10.3516 2.4
    endloop
  endfacet
  facet normal 1 0 0
    outer loop
      vertex 25 5 5.4
      vertex 25 0 3
      vertex 25 5 3
    endloop
  endfacet
  facet normal 1 -0 0
    outer loop
      vertex 25 -1.2 5.4
      vertex 25 0 3
      vertex 25 5 5.4
    endloop
  endfacet
  facet normal 1 -0 0
    outer loop
      vertex 25 -1.2 5.39763
      vertex 25 0 3
      vertex 25 -1.2 5.4
    endloop
  endfacet
  facet normal 1 -0 0
    outer loop
      vertex 25 -2.4 4.2
      vertex 25 0 3
      vertex 25 -1.2 5.39763
    endloop
  endfacet
  facet normal 1 0 0
    outer loop
      vertex 25 -1.42487 5.37876
      vertex 25 -1.2 5.39763
      vertex 25 -1.27535 5.39763
    endloop
  endfacet
  facet normal 1 0 0
    outer loop
      vertex 25 -1.2 5.39763
      vertex 25 -1.42487 5.37876
      vertex 25 -2.4 4.2
    endloop
  endfacet
  facet normal 1 0 0
    outer loop
      vertex 25 -2.4 4.2
      vertex 25 -1.42487 5.37876
      vertex 25 -1.57082 5.34127
    endloop
  endfacet
  facet normal 1 0 0
    outer loop
      vertex 25 -2.4 4.2
      vertex 25 -1.57082 5.34127
      vertex 25 -1.71094 5.2858
    endloop
  endfacet
  facet normal 1 0 0
    outer loop
      vertex 25 -2.4 4.2
      vertex 25 -1.71094 5.2858
      vertex 25 -1.84299 5.2132
    endloop
  endfacet
  facet normal 1 0 0
    outer loop
      vertex 25 -2.4 4.2
      vertex 25 -1.84299 5.2132
      vertex 25 -1.96491 5.12462
    endloop
  endfacet
  facet normal 1 0 0
    outer loop
      vertex 25 -2.4 4.2
      vertex 25 -1.96491 5.12462
      vertex 25 -2.07477 5.02146
    endloop
  endfacet
  facet normal 1 0 0
    outer loop
      vertex 25 -2.4 4.2
      vertex 25 -2.07477 5.02146
      vertex 25 -2.17083 4.90536
    endloop
  endfacet
  facet normal 1 0 0
    outer loop
      vertex 25 -2.4 4.2
      vertex 25 -2.17083 4.90536
      vertex 25 -2.25158 4.77811
    endloop
  endfacet
  facet normal 1 0 0
    outer loop
      vertex 25 -2.4 4.2
      vertex 25 -2.25158 4.77811
      vertex 25 -2.31574 4.64176
    endloop
  endfacet
  facet normal 1 0 0
    outer loop
      vertex 25 -2.4 4.2
      vertex 25 -2.31574 4.64176
      vertex 25 -2.36231 4.49843
    endloop
  endfacet
  facet normal 1 0 0
    outer loop
      vertex 25 -2.4 4.2
      vertex 25 -2.36231 4.49843
      vertex 25 -2.39054 4.35041
    endloop
  endfacet
  facet normal 1 0 0
    outer loop
      vertex 25 0 3
      vertex 25 -2.4 4.2
      vertex 25 -2.4 3.6
    endloop
  endfacet
  facet normal 1 0 0
    outer loop
      vertex 25 0 3
      vertex 25 -2.4 3.6
      vertex 25 -2.40946 3.44959
    endloop
  endfacet
  facet normal 1 -0 0
    outer loop
      vertex 25 -2.43769 3.30157
      vertex 25 0 3
      vertex 25 -2.40946 3.44959
    endloop
  endfacet
  facet normal 1 -0 0
    outer loop
      vertex 25 -2.48426 3.15824
      vertex 25 0 3
      vertex 25 -2.43769 3.30157
    endloop
  endfacet
  facet normal 1 -0 0
    outer loop
      vertex 25 -2.54842 3.02189
      vertex 25 0 3
      vertex 25 -2.48426 3.15824
    endloop
  endfacet
  facet normal 1 0 0
    outer loop
      vertex 25 -2.62917 2.89464
      vertex 25 0 3
      vertex 25 -2.54842 3.02189
    endloop
  endfacet
  facet normal 1 0 0
    outer loop
      vertex 25 -2.72523 2.77854
      vertex 25 0 3
      vertex 25 -2.62917 2.89464
    endloop
  endfacet
  facet normal 1 0 0
    outer loop
      vertex 25 0 3
      vertex 25 -2.72523 2.77854
      vertex 25 0 0
    endloop
  endfacet
  facet normal 1 -0 0
    outer loop
      vertex 25 -2.83509 2.67537
      vertex 25 0 0
      vertex 25 -2.72523 2.77854
    endloop
  endfacet
  facet normal 1 -0 0
    outer loop
      vertex 25 -2.95701 2.5868
      vertex 25 0 0
      vertex 25 -2.83509 2.67537
    endloop
  endfacet
  facet normal 1 -0 0
    outer loop
      vertex 25 -3.08906 2.5142
      vertex 25 0 0
      vertex 25 -2.95701 2.5868
    endloop
  endfacet
  facet normal 1 -0 0
    outer loop
      vertex 25 -3.22918 2.45873
      vertex 25 0 0
      vertex 25 -3.08906 2.5142
    endloop
  endfacet
  facet normal 1 -0 0
    outer loop
      vertex 25 -3.37513 2.42124
      vertex 25 0 0
      vertex 25 -3.22918 2.45873
    endloop
  endfacet
  facet normal 1 -0 0
    outer loop
      vertex 25 -3.52465 2.40236
      vertex 25 0 0
      vertex 25 -3.37513 2.42124
    endloop
  endfacet
  facet normal 1 0 0
    outer loop
      vertex 25 -3.6 2.4
      vertex 25 -3.52465 2.40236
      vertex 25 -3.6 2.40236
    endloop
  endfacet
  facet normal 1 0 0
    outer loop
      vertex 25 -3.52465 2.40236
      vertex 25 -3.6 2.4
      vertex 25 0 0
    endloop
  endfacet
  facet normal 1 0 0
    outer loop
      vertex 25 -15 0
      vertex 25 -3.6 2.4
      vertex 25 -15 2.4
    endloop
  endfacet
  facet normal 1 0 0
    outer loop
      vertex 25 -3.6 2.4
      vertex 25 -15 0
      vertex 25 0 0
    endloop
  endfacet
  facet normal 0 0 -1
    outer loop
      vertex 25 -15 0
      vertex 19.7891 -9.3 0
      vertex 25 0 0
    endloop
  endfacet
  facet normal 0 0 -1
    outer loop
      vertex 25 -15 0
      vertex 19.6344 -10.0277 0
      vertex 19.7891 -9.3 0
    endloop
  endfacet
  facet normal 0 0 -1
    outer loop
      vertex 25 -15 0
      vertex 19.1971 -10.6296 0
      vertex 19.6344 -10.0277 0
    endloop
  endfacet
  facet normal 0 0 -1
    outer loop
      vertex 25 -15 0
      vertex 18.5529 -11.0015 0
      vertex 19.1971 -10.6296 0
    endloop
  endfacet
  facet normal 0 0 -1
    outer loop
      vertex 25 -15 0
      vertex 17.813 -11.0793 0
      vertex 18.5529 -11.0015 0
    endloop
  endfacet
  facet normal 0 0 -1
    outer loop
      vertex 7.55286 -11.0015 0
      vertex 17.813 -11.0793 0
      vertex 25 -15 0
    endloop
  endfacet
  facet normal 0 0 -1
    outer loop
      vertex 16.25 -9.67197 0
      vertex 8.7891 -9.3 0
      vertex 16.25 -8.92803 0
    endloop
  endfacet
  facet normal 0 0 -1
    outer loop
      vertex 8.63442 -10.0277 0
      vertex 16.25 -9.67197 0
      vertex 16.5526 -10.3516 0
    endloop
  endfacet
  facet normal 0 0 -1
    outer loop
      vertex 8.19714 -10.6296 0
      vertex 16.5526 -10.3516 0
      vertex 17.1055 -10.8494 0
    endloop
  endfacet
  facet normal 0 0 -1
    outer loop
      vertex 17.813 -11.0793 0
      vertex 7.55286 -11.0015 0
      vertex 17.1055 -10.8494 0
    endloop
  endfacet
  facet normal -0 0 -1
    outer loop
      vertex 16.25 -9.67197 0
      vertex 8.63442 -10.0277 0
      vertex 8.7891 -9.3 0
    endloop
  endfacet
  facet normal -0 0 -1
    outer loop
      vertex 16.5526 -10.3516 0
      vertex 8.19714 -10.6296 0
      vertex 8.63442 -10.0277 0
    endloop
  endfacet
  facet normal -0 0 -1
    outer loop
      vertex 17.1055 -10.8494 0
      vertex 7.55286 -11.0015 0
      vertex 8.19714 -10.6296 0
    endloop
  endfacet
  facet normal 0 0 -1
    outer loop
      vertex 0 -15 0
      vertex 7.55286 -11.0015 0
      vertex 25 -15 0
    endloop
  endfacet
  facet normal -0 0 -1
    outer loop
      vertex 5.25 -9.67197 0
      vertex 0 -15 0
      vertex 5.25 -8.92803 0
    endloop
  endfacet
  facet normal -0 0 -1
    outer loop
      vertex 5.55259 -10.3516 0
      vertex 0 -15 0
      vertex 5.25 -9.67197 0
    endloop
  endfacet
  facet normal -0 0 -1
    outer loop
      vertex 6.10545 -10.8494 0
      vertex 0 -15 0
      vertex 5.55259 -10.3516 0
    endloop
  endfacet
  facet normal -0 0 -1
    outer loop
      vertex 6.81299 -11.0793 0
      vertex 0 -15 0
      vertex 6.10545 -10.8494 0
    endloop
  endfacet
  facet normal 0 0 -1
    outer loop
      vertex 7.55286 -11.0015 0
      vertex 0 -15 0
      vertex 6.81299 -11.0793 0
    endloop
  endfacet
  facet normal 0 0 -1
    outer loop
      vertex 19.6344 -8.57231 0
      vertex 25 0 0
      vertex 19.7891 -9.3 0
    endloop
  endfacet
  facet normal 0 0 -1
    outer loop
      vertex 19.1971 -7.97044 0
      vertex 25 0 0
      vertex 19.6344 -8.57231 0
    endloop
  endfacet
  facet normal 0 0 -1
    outer loop
      vertex 18.5529 -7.59847 0
      vertex 25 0 0
      vertex 19.1971 -7.97044 0
    endloop
  endfacet
  facet normal 0 0 -1
    outer loop
      vertex 17.813 -7.52071 0
      vertex 25 0 0
      vertex 18.5529 -7.59847 0
    endloop
  endfacet
  facet normal 0 0 -1
    outer loop
      vertex 17.1055 -7.7506 0
      vertex 25 0 0
      vertex 17.813 -7.52071 0
    endloop
  endfacet
  facet normal 0 0 -1
    outer loop
      vertex 8.19714 -7.97044 0
      vertex 17.1055 -7.7506 0
      vertex 16.5526 -8.2484 0
    endloop
  endfacet
  facet normal 0 0 -1
    outer loop
      vertex 8.63442 -8.57231 0
      vertex 16.25 -8.92803 0
      vertex 8.7891 -9.3 0
    endloop
  endfacet
  facet normal 0 0 -1
    outer loop
      vertex 16.25 -8.92803 0
      vertex 8.63442 -8.57231 0
      vertex 16.5526 -8.2484 0
    endloop
  endfacet
  facet normal 0 0 -1
    outer loop
      vertex 8.19714 -7.97044 0
      vertex 16.5526 -8.2484 0
      vertex 8.63442 -8.57231 0
    endloop
  endfacet
  facet normal -0 0 -1
    outer loop
      vertex 17.1055 -7.7506 0
      vertex 8.19714 -7.97044 0
      vertex 7.55286 -7.59847 0
    endloop
  endfacet
  facet normal 0 0 -1
    outer loop
      vertex 17.1055 -7.7506 0
      vertex 7.55286 -7.59847 0
      vertex 25 0 0
    endloop
  endfacet
  facet normal 0 0 -1
    outer loop
      vertex 0 0 0
      vertex 7.55286 -7.59847 0
      vertex 6.81299 -7.52071 0
    endloop
  endfacet
  facet normal 0 0 -1
    outer loop
      vertex 0 0 0
      vertex 6.81299 -7.52071 0
      vertex 6.10545 -7.7506 0
    endloop
  endfacet
  facet normal 0 0 -1
    outer loop
      vertex 0 0 0
      vertex 5.25 -8.92803 0
      vertex 0 -15 0
    endloop
  endfacet
  facet normal 0 0 -1
    outer loop
      vertex 7.55286 -7.59847 0
      vertex 0 0 0
      vertex 25 0 0
    endloop
  endfacet
  facet normal 0 0 -1
    outer loop
      vertex 5.55259 -8.2484 0
      vertex 0 0 0
      vertex 6.10545 -7.7506 0
    endloop
  endfacet
  facet normal 0 0 -1
    outer loop
      vertex 5.25 -8.92803 0
      vertex 0 0 0
      vertex 5.55259 -8.2484 0
    endloop
  endfacet
  facet normal 0 -1 0
    outer loop
      vertex 0 -15 0
      vertex 25 -15 2.4
      vertex 0 -15 2.4
    endloop
  endfacet
  facet normal 0 -1 -0
    outer loop
      vertex 25 -15 2.4
      vertex 0 -15 0
      vertex 25 -15 0
    endloop
  endfacet
  facet normal 0 1 -0
    outer loop
      vertex 25 0 0
      vertex 0 0 3
      vertex 25 0 3
    endloop
  endfacet
  facet normal 0 1 0
    outer loop
      vertex 0 0 3
      vertex 25 0 0
      vertex 0 0 0
    endloop
  endfacet
  facet normal -0 0 1
    outer loop
      vertex 0 5 5.4
      vertex 25 -1.2 5.4
      vertex 25 5 5.4
    endloop
  endfacet
  facet normal 0 0 1
    outer loop
      vertex 25 -1.2 5.4
      vertex 0 5 5.4
      vertex 0 -1.2 5.4
    endloop
  endfacet
  facet normal 0 -1 0
    outer loop
      vertex 0 -2.4 3.6
      vertex 25 -2.4 4.2
      vertex 0 -2.4 4.2
    endloop
  endfacet
  facet normal 0 -1 -0
    outer loop
      vertex 25 -2.4 4.2
      vertex 0 -2.4 3.6
      vertex 25 -2.4 3.6
    endloop
  endfacet
  facet normal -0 0 1
    outer loop
      vertex 0 -1.2 5.39763
      vertex 25 -1.27535 5.39763
      vertex 25 -1.2 5.39763
    endloop
  endfacet
  facet normal 0 0 1
    outer loop
      vertex 25 -1.27535 5.39763
      vertex 0 -1.2 5.39763
      vertex 0 -1.27535 5.39763
    endloop
  endfacet
  facet normal 0 -0.125243 0.992126
    outer loop
      vertex 0 -1.27535 5.39763
      vertex 25 -1.42487 5.37876
      vertex 25 -1.27535 5.39763
    endloop
  endfacet
  facet normal 0 -0.125243 0.992126
    outer loop
      vertex 25 -1.42487 5.37876
      vertex 0 -1.27535 5.39763
      vertex 0 -1.42487 5.37876
    endloop
  endfacet
  facet normal 0 -0.248797 0.968556
    outer loop
      vertex 0 -1.42487 5.37876
      vertex 25 -1.57082 5.34127
      vertex 25 -1.42487 5.37876
    endloop
  endfacet
  facet normal 0 -0.248797 0.968556
    outer loop
      vertex 25 -1.57082 5.34127
      vertex 0 -1.42487 5.37876
      vertex 0 -1.57082 5.34127
    endloop
  endfacet
  facet normal 0 -0.368054 0.929804
    outer loop
      vertex 0 -1.57082 5.34127
      vertex 25 -1.71094 5.2858
      vertex 25 -1.57082 5.34127
    endloop
  endfacet
  facet normal 0 -0.368054 0.929804
    outer loop
      vertex 25 -1.71094 5.2858
      vertex 0 -1.57082 5.34127
      vertex 0 -1.71094 5.2858
    endloop
  endfacet
  facet normal 0 -0.481787 0.876289
    outer loop
      vertex 0 -1.71094 5.2858
      vertex 25 -1.84299 5.2132
      vertex 25 -1.71094 5.2858
    endloop
  endfacet
  facet normal 0 -0.481787 0.876289
    outer loop
      vertex 25 -1.84299 5.2132
      vertex 0 -1.71094 5.2858
      vertex 0 -1.84299 5.2132
    endloop
  endfacet
  facet normal 0 -0.58778 0.809021
    outer loop
      vertex 0 -1.84299 5.2132
      vertex 25 -1.96491 5.12462
      vertex 25 -1.84299 5.2132
    endloop
  endfacet
  facet normal 0 -0.58778 0.809021
    outer loop
      vertex 25 -1.96491 5.12462
      vertex 0 -1.84299 5.2132
      vertex 0 -1.96491 5.12462
    endloop
  endfacet
  facet normal 0 -0.684534 0.728981
    outer loop
      vertex 0 -1.96491 5.12462
      vertex 25 -2.07477 5.02146
      vertex 25 -1.96491 5.12462
    endloop
  endfacet
  facet normal 0 -0.684534 0.728981
    outer loop
      vertex 25 -2.07477 5.02146
      vertex 0 -1.96491 5.12462
      vertex 0 -2.07477 5.02146
    endloop
  endfacet
  facet normal 0 -0.770499 0.637441
    outer loop
      vertex 0 -2.17083 4.90536
      vertex 25 -2.07477 5.02146
      vertex 0 -2.07477 5.02146
    endloop
  endfacet
  facet normal 0 -0.770499 0.637441
    outer loop
      vertex 25 -2.07477 5.02146
      vertex 0 -2.17083 4.90536
      vertex 25 -2.17083 4.90536
    endloop
  endfacet
  facet normal 0 -0.844332 0.53582
    outer loop
      vertex 0 -2.25158 4.77811
      vertex 25 -2.17083 4.90536
      vertex 0 -2.17083 4.90536
    endloop
  endfacet
  facet normal 0 -0.844332 0.53582
    outer loop
      vertex 25 -2.17083 4.90536
      vertex 0 -2.25158 4.77811
      vertex 25 -2.25158 4.77811
    endloop
  endfacet
  facet normal 0 -0.904826 0.425782
    outer loop
      vertex 0 -2.31574 4.64176
      vertex 25 -2.25158 4.77811
      vertex 0 -2.25158 4.77811
    endloop
  endfacet
  facet normal 0 -0.904826 0.425782
    outer loop
      vertex 25 -2.25158 4.77811
      vertex 0 -2.31574 4.64176
      vertex 25 -2.31574 4.64176
    endloop
  endfacet
  facet normal 0 -0.951056 0.30902
    outer loop
      vertex 0 -2.36231 4.49843
      vertex 25 -2.31574 4.64176
      vertex 0 -2.31574 4.64176
    endloop
  endfacet
  facet normal 0 -0.951056 0.30902
    outer loop
      vertex 25 -2.31574 4.64176
      vertex 0 -2.36231 4.49843
      vertex 25 -2.36231 4.49843
    endloop
  endfacet
  facet normal 0 -0.982298 0.187326
    outer loop
      vertex 0 -2.39054 4.35041
      vertex 25 -2.36231 4.49843
      vertex 0 -2.36231 4.49843
    endloop
  endfacet
  facet normal 0 -0.982298 0.187326
    outer loop
      vertex 25 -2.36231 4.49843
      vertex 0 -2.39054 4.35041
      vertex 25 -2.39054 4.35041
    endloop
  endfacet
  facet normal 0 -0.998028 0.0627754
    outer loop
      vertex 0 -2.4 4.2
      vertex 25 -2.39054 4.35041
      vertex 0 -2.39054 4.35041
    endloop
  endfacet
  facet normal 0 -0.998028 0.0627754
    outer loop
      vertex 25 -2.39054 4.35041
      vertex 0 -2.4 4.2
      vertex 25 -2.4 4.2
    endloop
  endfacet
  facet normal 0 -1 0
    outer loop
      vertex 0 -1.2 5.39763
      vertex 25 -1.2 5.4
      vertex 0 -1.2 5.4
    endloop
  endfacet
  facet normal 0 -1 -0
    outer loop
      vertex 25 -1.2 5.4
      vertex 0 -1.2 5.39763
      vertex 25 -1.2 5.39763
    endloop
  endfacet
  facet normal 0 0 -1
    outer loop
      vertex 0 0 3
      vertex 25 5 3
      vertex 25 0 3
    endloop
  endfacet
  facet normal -0 0 -1
    outer loop
      vertex 25 5 3
      vertex 0 0 3
      vertex 0 5 3
    endloop
  endfacet
  facet normal 0 1 -0
    outer loop
      vertex 25 5 3
      vertex 0 5 5.4
      vertex 25 5 5.4
    endloop
  endfacet
  facet normal 0 1 0
    outer loop
      vertex 0 5 5.4
      vertex 25 5 3
      vertex 0 5 3
    endloop
  endfacet
  facet normal -0 0 1
    outer loop
      vertex 0 -3.52465 2.40236
      vertex 25 -3.6 2.40236
      vertex 25 -3.52465 2.40236
    endloop
  endfacet
  facet normal 0 0 1
    outer loop
      vertex 25 -3.6 2.40236
      vertex 0 -3.52465 2.40236
      vertex 0 -3.6 2.40236
    endloop
  endfacet
  facet normal 0 -0.125243 0.992126
    outer loop
      vertex 0 -3.37513 2.42124
      vertex 25 -3.52465 2.40236
      vertex 25 -3.37513 2.42124
    endloop
  endfacet
  facet normal 0 -0.125243 0.992126
    outer loop
      vertex 25 -3.52465 2.40236
      vertex 0 -3.37513 2.42124
      vertex 0 -3.52465 2.40236
    endloop
  endfacet
  facet normal 0 -0.248797 0.968556
    outer loop
      vertex 0 -3.22918 2.45873
      vertex 25 -3.37513 2.42124
      vertex 25 -3.22918 2.45873
    endloop
  endfacet
  facet normal 0 -0.248797 0.968556
    outer loop
      vertex 25 -3.37513 2.42124
      vertex 0 -3.22918 2.45873
      vertex 0 -3.37513 2.42124
    endloop
  endfacet
  facet normal 0 -0.368054 0.929804
    outer loop
      vertex 0 -3.08906 2.5142
      vertex 25 -3.22918 2.45873
      vertex 25 -3.08906 2.5142
    endloop
  endfacet
  facet normal 0 -0.368054 0.929804
    outer loop
      vertex 25 -3.22918 2.45873
      vertex 0 -3.08906 2.5142
      vertex 0 -3.22918 2.45873
    endloop
  endfacet
  facet normal 0 -0.481787 0.876289
    outer loop
      vertex 0 -2.95701 2.5868
      vertex 25 -3.08906 2.5142
      vertex 25 -2.95701 2.5868
    endloop
  endfacet
  facet normal 0 -0.481787 0.876289
    outer loop
      vertex 25 -3.08906 2.5142
      vertex 0 -2.95701 2.5868
      vertex 0 -3.08906 2.5142
    endloop
  endfacet
  facet normal 0 -0.58778 0.809021
    outer loop
      vertex 0 -2.83509 2.67537
      vertex 25 -2.95701 2.5868
      vertex 25 -2.83509 2.67537
    endloop
  endfacet
  facet normal 0 -0.58778 0.809021
    outer loop
      vertex 25 -2.95701 2.5868
      vertex 0 -2.83509 2.67537
      vertex 0 -2.95701 2.5868
    endloop
  endfacet
  facet normal 0 -0.684534 0.728981
    outer loop
      vertex 0 -2.72523 2.77854
      vertex 25 -2.83509 2.67537
      vertex 25 -2.72523 2.77854
    endloop
  endfacet
  facet normal 0 -0.684534 0.728981
    outer loop
      vertex 25 -2.83509 2.67537
      vertex 0 -2.72523 2.77854
      vertex 0 -2.83509 2.67537
    endloop
  endfacet
  facet normal 0 -0.770499 0.637441
    outer loop
      vertex 0 -2.72523 2.77854
      vertex 25 -2.62917 2.89464
      vertex 0 -2.62917 2.89464
    endloop
  endfacet
  facet normal 0 -0.770499 0.637441
    outer loop
      vertex 25 -2.62917 2.89464
      vertex 0 -2.72523 2.77854
      vertex 25 -2.72523 2.77854
    endloop
  endfacet
  facet normal 0 -0.844332 0.53582
    outer loop
      vertex 0 -2.62917 2.89464
      vertex 25 -2.54842 3.02189
      vertex 0 -2.54842 3.02189
    endloop
  endfacet
  facet normal 0 -0.844332 0.53582
    outer loop
      vertex 25 -2.54842 3.02189
      vertex 0 -2.62917 2.89464
      vertex 25 -2.62917 2.89464
    endloop
  endfacet
  facet normal 0 -0.904826 0.425782
    outer loop
      vertex 0 -2.54842 3.02189
      vertex 25 -2.48426 3.15824
      vertex 0 -2.48426 3.15824
    endloop
  endfacet
  facet normal 0 -0.904826 0.425782
    outer loop
      vertex 25 -2.48426 3.15824
      vertex 0 -2.54842 3.02189
      vertex 25 -2.54842 3.02189
    endloop
  endfacet
  facet normal 0 -0.951056 0.30902
    outer loop
      vertex 0 -2.48426 3.15824
      vertex 25 -2.43769 3.30157
      vertex 0 -2.43769 3.30157
    endloop
  endfacet
  facet normal 0 -0.951056 0.30902
    outer loop
      vertex 25 -2.43769 3.30157
      vertex 0 -2.48426 3.15824
      vertex 25 -2.48426 3.15824
    endloop
  endfacet
  facet normal 0 -0.982298 0.187326
    outer loop
      vertex 0 -2.43769 3.30157
      vertex 25 -2.40946 3.44959
      vertex 0 -2.40946 3.44959
    endloop
  endfacet
  facet normal 0 -0.982298 0.187326
    outer loop
      vertex 25 -2.40946 3.44959
      vertex 0 -2.43769 3.30157
      vertex 25 -2.43769 3.30157
    endloop
  endfacet
  facet normal 0 -0.998028 0.0627754
    outer loop
      vertex 0 -2.40946 3.44959
      vertex 25 -2.4 3.6
      vertex 0 -2.4 3.6
    endloop
  endfacet
  facet normal 0 -0.998028 0.0627754
    outer loop
      vertex 25 -2.4 3.6
      vertex 0 -2.40946 3.44959
      vertex 25 -2.40946 3.44959
    endloop
  endfacet
  facet normal 0 -1 0
    outer loop
      vertex 0 -3.6 2.4
      vertex 25 -3.6 2.40236
      vertex 0 -3.6 2.40236
    endloop
  endfacet
  facet normal 0 -1 -0
    outer loop
      vertex 25 -3.6 2.40236
      vertex 0 -3.6 2.4
      vertex 25 -3.6 2.4
    endloop
  endfacet
endsolid OpenSCAD_Model
